<?xml version="1.0" encoding="utf-8"?>
<!-- Generator: Adobe Illustrator 24.0.0, SVG Export Plug-In . SVG Version: 6.00 Build 0)  -->
<svg version="1.1" id="Layer_1" xmlns="http://www.w3.org/2000/svg" xmlns:xlink="http://www.w3.org/1999/xlink" x="0px" y="0px"
	 viewBox="0 0 356 200" style="enable-background:new 0 0 356 200;" xml:space="preserve">
<style type="text/css">
	.st0{fill:#4CB64C;}
	.st1{fill:#FFD460;}
</style>
<g>
	<g>
		<g>
			<path class="st0" d="M167.7,127.9v1c0,1.5-0.4,2.7-1.2,3.7s-1.9,1.6-3.2,1.6c-1.9,0-3.7-0.6-5.4-1.9c-0.5-0.4-1-0.6-1.5-0.6
				s-0.9,0.1-1.3,0.4c-0.4,0.3-0.9,0.8-1.5,1.5c-1,1-1.6,2.2-1.6,3.6c0,1,1.2,2.2,3.6,3.5c2.4,1.3,4.9,1.9,7.5,1.9
				c3.5,0,6.6-1.2,9.4-3.7c2.8-2.4,4.2-5.7,4.2-9.6v-3.1C173.7,126.7,170.7,127.2,167.7,127.9z"/>
			<path class="st0" d="M176.6,119.6v-11.8c0-0.8,0-1.4-0.1-1.8s-0.2-0.8-0.5-1.3s-0.7-0.9-1.3-1.1s-1.6-0.3-3-0.3s-2.3,0.3-2.9,0.8
				c-0.6,0.5-1,1.2-1.1,2.2c-0.2-0.3-0.5-0.6-0.9-1s-1-0.8-2-1.2c-1-0.4-2-0.6-3.2-0.6c-3,0-5.8,1.3-8.3,4s-3.8,5.8-3.8,9.3
				c0,2.8,0.8,5.3,2.3,7.5C159.7,122.4,168.1,120.7,176.6,119.6z M159.7,113.6c0.8-0.9,1.9-1.4,3.3-1.4c1.4,0,2.4,0.5,3.2,1.4
				c0.8,1,1.2,2,1.2,3.1s-0.4,2.1-1.2,3s-1.9,1.4-3.1,1.4c-1.3,0-2.3-0.4-3.2-1.4c-0.9-0.9-1.3-1.9-1.3-3
				C158.4,115.6,158.8,114.6,159.7,113.6z"/>
			<path class="st0" d="M167.1,128c-2.3,0.5-4.7,1.1-7.1,1.8c0.5,0.1,0.9,0.1,1.4,0.1C163.9,129.9,165.7,129.3,167.1,128z"/>
		</g>
		<g>
			<path class="st0" d="M188.5,118.5c0,0,0.5-0.1,1.3-0.1v-3c0-0.9,0.4-1.7,1.2-2.4c0.8-0.7,1.7-1,2.6-1c0.9,0,1.7,0.1,2.3,0.4
				s1.2,0.4,1.8,0.4c1.2,0,2.2-0.7,2.9-2s1-2.5,1-3.6s-0.2-1.9-0.6-2.4c-0.4-0.5-1-0.9-1.6-1.1c-0.7-0.2-1.3-0.4-1.8-0.4
				c-0.6-0.1-1.2-0.1-2.1-0.1c-0.8,0-1.8,0.3-2.8,0.9c-1.1,0.6-1.8,1.1-2.1,1.4s-0.6,0.6-0.8,0.9c0-0.6-0.2-1.2-0.6-1.7
				c-0.5-0.8-1.8-1.2-3.9-1.2c-2.2,0-3.6,0.5-4.1,1.4c-0.2,0.5-0.4,0.9-0.4,1.3c-0.1,0.4-0.1,1-0.1,1.8v11.2
				C183.4,118.8,186,118.6,188.5,118.5z"/>
			<path class="st0" d="M180.7,125.6v0.6c0,0.7,0,1.2,0,1.5c0.1,1,0.4,1.8,0.9,2.2c0.7,0.6,1.9,0.9,3.6,0.9c2.2,0,3.5-0.4,4.1-1.4
				c0.3-0.5,0.4-1,0.5-1.4c0.1-0.4,0.1-1,0.1-1.8v-1.5C187,124.9,183.9,125.2,180.7,125.6z"/>
		</g>
		<g>
			<path class="st1" d="M226.4,106.8c-2.9-2.7-6.2-4-9.9-4c-1.1,0-2.2,0.1-3.3,0.4l-0.3,2.6c-0.1,0.8-0.8,1.3-1.5,1.3
				c-0.8-0.1-1.3-0.8-1.3-1.5l0.1-1.2c-1.3,0.7-2.6,1.5-3.7,2.6c-2.9,2.7-4.4,6.1-4.4,10.3c0,0.4,0,0.8,0,1.1c3,0.2,6.3,0.6,9.7,1.3
				c-0.4-0.7-0.6-1.5-0.6-2.5c0-1.7,0.5-3,1.6-3.8c1.1-0.9,2.2-1.3,3.5-1.3s2.4,0.4,3.5,1.2c1.1,0.8,1.6,2.1,1.6,3.8
				c0,1.7-0.6,3-1.7,3.8c-0.3,0.3-0.7,0.5-1,0.6c3.1,1.1,6.1,2.5,8.9,4.4c0.3-0.4,0.5-0.7,0.8-1.1c1.5-2.2,2.2-4.8,2.2-7.7
				C230.7,112.9,229.3,109.5,226.4,106.8z"/>
			<path class="st1" d="M204.4,124.7c1.5,2.2,3.2,3.8,5.4,4.9c2.1,1.1,4.4,1.7,6.7,1.7s4.5-0.5,6.6-1.6c0.9-0.4,1.7-1,2.5-1.7
				C220.7,126.7,213.5,125.2,204.4,124.7z"/>
		</g>
		<path class="st0" d="M249.1,103.4c3.1,0,5.9,1.4,8.5,4.1s3.9,5.9,3.9,9.5s-1.3,6.8-3.8,9.5c-2.6,2.7-5.3,4.1-8.3,4.1
			c-2.9,0-5-0.8-6.3-2.5c-0.3,1.7-1.8,2.5-4.5,2.5c-2.2,0-3.5-0.5-4-1.4c-0.2-0.5-0.4-1-0.4-1.4c-0.1-0.4-0.1-1-0.1-1.8V95
			c0-0.8,0-1.4,0.1-1.8s0.2-0.8,0.4-1.3c0.5-0.9,1.8-1.4,4.1-1.4c2.2,0,3.5,0.5,3.9,1.4c0.3,0.5,0.4,1,0.5,1.4s0.1,1,0.1,1.8V106
			C244.6,104.3,246.6,103.4,249.1,103.4z M244.6,120.2c0.8,0.9,1.9,1.4,3.2,1.4s2.4-0.5,3.3-1.4c0.9-0.9,1.4-2,1.4-3.1
			s-0.4-2.2-1.2-3.1c-0.8-1-1.9-1.4-3.3-1.4c-1.4,0-2.5,0.5-3.3,1.5s-1.2,2-1.2,3.1C243.3,118.3,243.7,119.3,244.6,120.2z"/>
		<path class="st0" d="M273.4,98.3c-0.3,0.5-0.7,0.9-1.4,1.1c-0.7,0.2-1.5,0.3-2.6,0.3s-2-0.1-2.6-0.3c-0.7-0.2-1.1-0.6-1.4-1.1
			s-0.4-1-0.5-1.4s-0.1-1-0.1-1.8s0-1.4,0.1-1.8s0.2-0.8,0.4-1.3c0.5-0.9,1.8-1.4,4.1-1.4c2.2,0,3.5,0.5,3.9,1.4
			c0.3,0.5,0.4,1,0.5,1.4s0.1,1,0.1,1.8s0,1.4-0.1,1.8C273.8,97.4,273.7,97.8,273.4,98.3z M264.9,108c0-0.8,0-1.4,0.1-1.8
			s0.2-0.9,0.4-1.4c0.5-0.9,1.8-1.4,4.1-1.4c1.7,0,2.8,0.3,3.5,0.9c0.6,0.5,0.9,1.2,0.9,2.2c0,0.3,0.1,0.8,0.1,1.5v18.2
			c0,0.8,0,1.4-0.1,1.8c-0.1,0.4-0.2,0.9-0.5,1.4c-0.5,0.9-1.8,1.4-4,1.4s-3.5-0.5-4-1.4c-0.2-0.5-0.4-1-0.4-1.4
			c-0.1-0.4-0.1-1-0.1-1.8V108z"/>
		<path class="st0" d="M291.8,121.6h8.9c1.4,0,2.4,0.2,3,0.5s1,0.8,1.2,1.5s0.3,1.5,0.3,2.6s-0.1,1.9-0.3,2.6
			c-0.2,0.7-0.6,1.1-1.1,1.4s-1,0.4-1.4,0.5s-1,0.1-1.8,0.1h-18.8c-1.2,0-2.3-0.4-3.2-1.4c-0.9-0.9-1.4-2-1.4-3.2s0.4-2.3,1.4-3.2
			c0.9-0.9,2.3-2.2,4.2-3.8s3.6-3.2,5.1-4.5s2.4-2.1,2.5-2.2h-7.3c-2,0-3.2-0.3-3.7-1c-0.6-0.8-0.9-1.8-0.9-3s0.1-2.2,0.3-2.8
			c0.2-0.6,0.4-1.1,0.6-1.4s0.6-0.5,1-0.7c0.6-0.2,1.5-0.3,2.7-0.3H300c1.2,0,2.3,0.4,3.2,1.3c0.9,0.9,1.4,1.9,1.4,3.2
			s-0.5,2.5-1.6,3.5C301.9,112.4,298.2,115.8,291.8,121.6z"/>
	</g>
	<path class="st0" d="M64.6,136.1c1.1,0.3,2.3,0.5,3.4,0.6c2.8,0.4,5.8,0.4,8.6-0.4c4.6-1.2,8.8-4.9,9.5-9.6
		c1.2,2.6,3.7,4.7,6.5,5.4c-0.7-2,0.6-4,0.6-6.1c0-2.2-0.9-4.3-3.1-4.7c-0.6,0.5-2.4,3.3-0.3,7.6c-2-0.9-2.6-3.5-1.9-5.6
		c0.7-2,2.3-3.6,3.8-5.1c5.3-5.1,10.7-10.2,16.8-14.4c6.1-4.2,13-7.4,20.3-8.2c3,7.3,6.7,16,9.1,21.9c0.9,2.1,5.1,3,9.5,7.7
		c0.4-0.1,0.8-0.2,1.2-0.3c-3.8-8.9-10.1-22.7-12.9-29.8c2-0.2,4,0,6,0.4c0.7-1.9,1.4-3.9,2.2-5.8c-3-0.2-6.1-0.4-9.1-0.6
		c-0.5,0-1.1-0.1-1.5-0.4c-0.3-0.3-0.5-0.7-0.7-1.1c-4.6-11.3-9.1-22.7-13.7-34c-2.5,0.2-4.6,1.8-6.1,3.8s-2.4,4.3-3.3,6.6
		c-6.4,16.4-13,32.7-19.6,48.9c-1.2,2.9-2.4,5.9-4.2,8.4c-2.7,3.8-6.7,6.7-11.1,8.1c3.5-2,6.4-4.9,8.6-8.3c-4.5-1.7-10.2-1-13,2.9
		c-1.4,1.9-1.9,4.2-2.8,6.3c-0.4,0.9-0.8,1.7-1.4,2.5c-0.3,0.4-0.6,0.7-1,1.1c-0.4,0.3-0.8,0.5-1.1,0.8c-0.2,0.2-0.4,0.5-0.3,0.9
		C63.6,136,64.2,136,64.6,136.1z M116.2,64.8c3.5,8.5,6.9,16.9,10.3,25.3c-9.3,1.8-17.9,5.2-25.3,11.2
		C106.2,89.2,111.2,77.1,116.2,64.8z"/>
	<path class="st1" d="M50.4,134.4c0,0,21.3,15.4,85.6-3.4c0,0,67.2-24.7,95.3-1.6c0,0-25.8-16.3-86.7,3.7
		C144.5,133,76.7,157.1,50.4,134.4z"/>
	<path class="st0" d="M212.6,102c-0.2-2.3,0.5-4.7,1.8-6.7c-0.7,1.9-1,3.9-0.7,6c2.3-0.7,4.3-2.8,4.2-5.2c-0.1-1.2-0.6-2.2-0.9-3.3
		c-0.1-0.5-0.2-0.9-0.2-1.4c0-0.2,0-0.5,0.1-0.7c0-0.2,0.2-0.4,0.2-0.7c0-0.2,0-0.3-0.2-0.4s-0.4,0.1-0.6,0.2
		c-0.5,0.3-1,0.5-1.5,0.8c-1.2,0.8-2.4,1.7-3.2,2.9c-1.4,1.9-1.9,4.7-0.7,6.7c-1.3-0.6-2.9-0.7-4.2-0.1c0.9,0.5,1,1.8,1.7,2.6
		c0.7,0.9,1.7,1.4,2.7,0.8c0.1-0.4-0.1-2.1-2.3-3.1c1-0.3,2.1,0.6,2.5,1.6s0.2,2.1,0.1,3.2C210.7,108.8,212.7,103.6,212.6,102z"/>
</g>
</svg>
