<?xml version="1.0" encoding="utf-8"?>
<!-- Generator: Adobe Illustrator 24.0.0, SVG Export Plug-In . SVG Version: 6.00 Build 0)  -->
<svg version="1.1" id="Layer_1" xmlns="http://www.w3.org/2000/svg" xmlns:xlink="http://www.w3.org/1999/xlink" x="0px" y="0px"
	 viewBox="0 0 356 200" style="enable-background:new 0 0 356 200;" xml:space="preserve">
<style type="text/css">
	.st0{clip-path:url(#SVGID_2_);}
	.st1{clip-path:url(#SVGID_4_);fill:url(#SVGID_5_);}
	.st2{clip-path:url(#SVGID_7_);fill:url(#SVGID_8_);}
	.st3{clip-path:url(#SVGID_10_);fill:url(#SVGID_11_);}
	.st4{clip-path:url(#SVGID_13_);fill:#99BF22;}
	.st5{clip-path:url(#SVGID_13_);fill:#209E9F;}
	.st6{clip-path:url(#SVGID_15_);fill:url(#SVGID_16_);}
	.st7{clip-path:url(#SVGID_18_);fill:#0DA399;}
	.st8{clip-path:url(#SVGID_18_);fill:#1E9E9B;}
	.st9{clip-path:url(#SVGID_18_);fill:#F29100;}
</style>
<g>
	<g>
		<defs>
			<rect id="SVGID_1_" x="36.9" y="0.6" width="282" height="199.4"/>
		</defs>
		<clipPath id="SVGID_2_">
			<use xlink:href="#SVGID_1_"  style="overflow:visible;"/>
		</clipPath>
		<g class="st0">
			<defs>
				<path id="SVGID_3_" d="M156.3,33.1l0.3,16.1h45.9c2.2,0,3.2,1.2,2.9,3.5l-0.4,3c-0.3,2.1-0.9,4-1.8,5.7c-0.9,1.7-2,3.1-3.4,4.3
					c-1.4,1.2-2.9,2.1-4.7,2.8c-1.8,0.6-3.7,1-5.8,1h-29.1L158,85.6h36.3c2.1,0,4,0.3,5.6,1c1.6,0.6,2.9,1.6,4,2.8
					c1,1.2,1.8,2.6,2.2,4.3c0.4,1.7,0.5,3.6,0.2,5.7l-0.4,3c-0.1,0.9-0.3,1.5-0.7,2c-0.3,0.5-0.7,0.8-1,1.1
					c-0.4,0.2-0.7,0.3-1.2,0.4c-0.4,0-0.8,0.1-1.1,0.1h-53.2l8-56.6L156.3,33.1z M156.3,33.1l-15.7,15.5l-0.1,0.6l-9.1,64.6
					c-0.2,1.2-0.1,2.2,0.2,3.2c0.3,1,0.7,1.9,1.3,2.6c0.6,0.7,1.4,1.3,2.3,1.7c0.9,0.4,2,0.6,3.1,0.6h61.2c3.6,0,6.7-0.7,9.4-2
					c2.7-1.3,4.9-2.9,6.7-4.9c1.8-1.9,3.2-4,4.2-6.3c1-2.3,1.6-4.4,1.9-6.4l0.4-3.1c0.4-3.1,0.5-6,0.2-8.6c-0.3-2.6-1-4.9-1.9-7
					c-0.9-2.1-2-3.9-3.4-5.5c-1.4-1.6-2.9-2.9-4.5-4c2.5-2.9,4.5-6,5.9-9.3c1.4-3.3,2.3-6.4,2.7-9.2l0.4-3c0.5-3.6,0.3-6.6-0.7-9.1
					c-1-2.5-2.3-4.5-4-6c-1.7-1.5-3.7-2.7-5.9-3.4c-2.2-0.7-4.3-1.1-6.2-1.1H156.3z"/>
			</defs>
			<clipPath id="SVGID_4_">
				<use xlink:href="#SVGID_3_"  style="overflow:visible;"/>
			</clipPath>
			
				<linearGradient id="SVGID_5_" gradientUnits="userSpaceOnUse" x1="-249.8993" y1="-167.9076" x2="-248.0853" y2="-167.9076" gradientTransform="matrix(50.4447 0 0 -50.4447 12737.3828 -8392.5332)">
				<stop  offset="0" style="stop-color:#A5165B"/>
				<stop  offset="0.331" style="stop-color:#A2165A"/>
				<stop  offset="0.5546" style="stop-color:#991555"/>
				<stop  offset="0.7464" style="stop-color:#8A134C"/>
				<stop  offset="0.9194" style="stop-color:#751041"/>
				<stop  offset="1" style="stop-color:#680F3A"/>
			</linearGradient>
			<rect x="131.3" y="33.1" class="st1" width="91.5" height="88.9"/>
		</g>
		<g class="st0">
			<defs>
				<polygon id="SVGID_6_" points="119.7,43.7 119.7,48.6 135.6,53.3 135.6,43.7 				"/>
			</defs>
			<clipPath id="SVGID_7_">
				<use xlink:href="#SVGID_6_"  style="overflow:visible;"/>
			</clipPath>
			
				<linearGradient id="SVGID_8_" gradientUnits="userSpaceOnUse" x1="-90.3254" y1="-38.883" x2="-87.9588" y2="-38.883" gradientTransform="matrix(3.8385 -5.9108 -5.9108 -3.8385 240.0027 -627.6639)">
				<stop  offset="0" style="stop-color:#680F3A"/>
				<stop  offset="7.162273e-03" style="stop-color:#6A0F3B"/>
				<stop  offset="9.454298e-02" style="stop-color:#801247"/>
				<stop  offset="0.1969" style="stop-color:#911450"/>
				<stop  offset="0.3244" style="stop-color:#9C1556"/>
				<stop  offset="0.5033" style="stop-color:#A3165A"/>
				<stop  offset="1" style="stop-color:#A5165B"/>
			</linearGradient>
			<polygon class="st2" points="115.4,50.4 124.4,36.5 140,46.5 130.9,60.5 			"/>
		</g>
		<g class="st0">
			<defs>
				<rect id="SVGID_9_" x="119.7" y="33.1" width="37.9" height="15.5"/>
			</defs>
			<clipPath id="SVGID_10_">
				<use xlink:href="#SVGID_9_"  style="overflow:visible;"/>
			</clipPath>
			
				<linearGradient id="SVGID_11_" gradientUnits="userSpaceOnUse" x1="-245.5814" y1="-127.4164" x2="-243.7711" y2="-127.4164" gradientTransform="matrix(21.7573 -4.2292 -4.2292 -21.7573 4923.2979 -3766.1824)">
				<stop  offset="0" style="stop-color:#680F3A"/>
				<stop  offset="7.162273e-03" style="stop-color:#6A0F3B"/>
				<stop  offset="9.454298e-02" style="stop-color:#801247"/>
				<stop  offset="0.1969" style="stop-color:#911450"/>
				<stop  offset="0.3244" style="stop-color:#9C1556"/>
				<stop  offset="0.5033" style="stop-color:#A3165A"/>
				<stop  offset="1" style="stop-color:#A5165B"/>
			</linearGradient>
			<polygon class="st3" points="116.8,33.6 156.2,26 160.5,48 121.1,55.7 			"/>
		</g>
		<g class="st0">
			<defs>
				<rect id="SVGID_12_" x="36.9" y="0.6" width="282" height="199.4"/>
			</defs>
			<clipPath id="SVGID_13_">
				<use xlink:href="#SVGID_12_"  style="overflow:visible;"/>
			</clipPath>
			<path class="st4" d="M220.3,61.4c2,0.6,4,1.3,5.9,2.2c2.1,1,3.4,2.6,4,4.8c0.6,2.2,0.3,4.3-1.3,5.9c-0.9,0.9-1.9,1.7-3,2.4
				c-1.6,0.9-3.3,1.7-5,2.4c-6.7,2.7-13.6,4.3-20.8,5.1c-1.6,0.2-3.2,0.6-4.7-0.5c-1.3,0.8-2.7,1.7-4,2.5c-1.2,0.7,2.3,5.7,5.3,9.9
				c2.8,1.9,3.5,4.9,3.8,5.7c0,0.1,0.1,0.3,0.1,0.4c0.2,0.6,0.3,1.3,0.5,1.9c0.1,0.4,0.2,0.9,0.3,1.3c1.7-1.4,3.2-2.7,4.7-4.1
				c1-0.9,1.5-2.1,1.5-3.4c0.1-1.4-0.3-2.8-0.9-4.1c-0.8-1.8-2-3.3-3.3-4.6c-0.3-0.3-0.5-0.6-0.9-1c0.6-0.1,1-0.2,1.3-0.3
				c3.9-0.9,7.8-1.6,11.7-2.6c4.1-1,8.1-2.3,11.9-4.3c1.8-0.9,3.5-2,4.9-3.4c2.6-2.5,3.5-5.6,2.8-9.2c-0.9-4.5-3.5-7.6-7.5-9.6
				c-2-1-4.1-1.7-6.2-2.1"/>
			<path class="st4" d="M150.1,116.5c1.4,6.2,4.2,11.3,10.1,14.3c4.4,2.2,9,2.7,13.9,1.5c-0.6,0-1.1,0-1.7,0c-3,0.1-6-0.1-8.9-1.2
				c-6.8-2.4-10.6-7.4-12.4-14.1c-0.7-2.7-0.6-5.3,0.1-7.9c1.5-5.4,4.3-10,8.4-13.8c3.7-3.5,8-6.1,12.4-8.5c0.9-0.5,1.8-0.4,2.6-0.1
				c2.1,0.6,4.2,1.2,6.1,2.1c5.8,2.4,11.1,5.7,16.1,9.5c0.8,0.6,1.5,1.4,2,2.3c0.6,1,0.9,2.1,1.2,3.2c0.6,1.7,0.4,3.1-1,4.6
				c-2.5,2.5-4.1,5.7-5.6,8.9c-1.7,3.7-3.4,7.5-5.3,11.2c-2.1,4-5.3,6.8-9.5,8.6c-3.9,1.6-7.9,2-12,1.5c-3.3-0.4-6.5-1.5-9.3-3.3
				c-1.5-0.9-2.8-2-3.9-3.3c-1.2-1.5-2-3.1-2.4-5C150.3,123.5,150,120,150.1,116.5"/>
			<path class="st4" d="M176.1,84.6c2.3-1.2,4.5-2.3,6.8-3.4c0.3-0.2,0.7-0.3,1.1-0.3c3.4,0.5,6.7,1.1,10,2.2
				c-0.3,0.3-1.7,1.4-3.5,2.6"/>
			<path class="st5" d="M220.1,60.9c2,0.6,4,1.3,5.9,2.2c2.1,1,3.4,2.6,4,4.8c0.6,2.2,0.3,4.3-1.3,5.9c-0.9,0.9-1.9,1.7-3,2.4
				c-1.6,0.9-3.3,1.7-5,2.4c-6.7,2.7-13.6,4.3-20.8,5.1c-1.6,0.2-3.2,0.6-4.7-0.5c-3.2,2-6.4,4-9.7,6.1c0.5,0.3,0.8,0.5,1.1,0.6
				c3.4,1.9,6.7,4.1,9.9,6.3c2.6,1.8,4,4.3,4.5,7.4c0.1,0.4,0.2,0.9,0.3,1.3c1.7-1.4,3.2-2.7,4.7-4.1c1-0.9,1.5-2.1,1.5-3.4
				c0.1-1.4-0.3-2.8-0.9-4.1c-0.8-1.8-2-3.3-3.3-4.6c-0.3-0.3-0.5-0.6-0.9-1c0.6-0.1,1-0.2,1.3-0.3c3.9-0.9,7.8-1.6,11.7-2.6
				c4.1-1,8.1-2.3,11.9-4.3c1.8-0.9,3.5-2,4.9-3.4c2.6-2.5,3.5-5.6,2.8-9.2c-0.9-4.5-3.5-7.6-7.5-9.6c-2-1-4.1-1.7-6.2-2.1"/>
		</g>
		<g class="st0">
			<defs>
				<path id="SVGID_14_" d="M171.7,86.3c-4.4,2.4-8.7,5-12.4,8.5c-4.1,3.8-6.9,8.4-8.4,13.8c-0.7,2.7-0.8,5.3-0.1,7.9
					c1.8,6.7,5.7,11.7,12.4,14.1c2.9,1,5.9,1.3,8.9,1.2c0.6,0,1.1,0,1.7,0c-4.8,1.2-9.5,0.7-13.9-1.5c-5.9-2.9-8.7-8.1-10.1-14.3
					c-0.2,3.5,0.2,7,0.9,10.4c0.4,1.9,1.2,3.5,2.4,5c1.1,1.3,2.4,2.4,3.9,3.3c2.9,1.8,6,2.8,9.3,3.3c4.1,0.5,8.2,0.1,12-1.5
					c4.1-1.8,7.4-4.6,9.5-8.6c1.9-3.7,3.6-7.4,5.3-11.2c1.5-3.2,3.1-6.4,5.6-8.9c1.4-1.4,1.6-2.9,1-4.6c-0.4-1.1-0.7-2.2-1.2-3.2
					c-0.5-0.9-1.2-1.7-2-2.3c-5-3.8-10.3-7.1-16.1-9.5c-2-0.8-4.1-1.5-6.1-2.1c-0.4-0.1-0.9-0.2-1.3-0.2
					C172.5,86,172.1,86,171.7,86.3"/>
			</defs>
			<clipPath id="SVGID_15_">
				<use xlink:href="#SVGID_14_"  style="overflow:visible;"/>
			</clipPath>
			
				<linearGradient id="SVGID_16_" gradientUnits="userSpaceOnUse" x1="-299.4694" y1="-175.7392" x2="-296.6519" y2="-175.7392" gradientTransform="matrix(14.2647 21.1483 21.1483 -14.2647 8143.355 3908.8533)">
				<stop  offset="0" style="stop-color:#1E9E9B"/>
				<stop  offset="0.3905" style="stop-color:#1C9C98"/>
				<stop  offset="0.64" style="stop-color:#169490"/>
				<stop  offset="0.8494" style="stop-color:#0D8681"/>
				<stop  offset="1" style="stop-color:#027871"/>
			</linearGradient>
			<polygon class="st6" points="184.5,62.5 224.7,122.1 165.5,162 125.3,102.4 			"/>
		</g>
		<g class="st0">
			<defs>
				<rect id="SVGID_17_" x="36.9" y="0.6" width="282" height="199.4"/>
			</defs>
			<clipPath id="SVGID_18_">
				<use xlink:href="#SVGID_17_"  style="overflow:visible;"/>
			</clipPath>
			<path class="st7" d="M184.2,88.8c-3.2-1.6-6.5-2.9-10.1-3.6c0.3-0.2,0.5-0.4,0.8-0.6c2.6-1.3,5.2-2.7,7.9-4
				c0.3-0.2,0.7-0.3,1.1-0.3c3.4,0.5,6.7,1.1,10,2.2C193.2,83.3,187,87.3,184.2,88.8"/>
			<path class="st8" d="M133.9,163c-0.1,0.5-0.2,1-0.4,1.5c-0.2,0.5-0.6,1-1,1.5c-0.4,0.5-0.9,0.8-1.6,1.1c-0.6,0.3-1.3,0.5-2.2,0.5
				h-14.2c-0.3,0-0.5,0-0.7-0.1c-0.2-0.1-0.4-0.2-0.5-0.4c-0.1-0.2-0.2-0.4-0.3-0.6c-0.1-0.2-0.1-0.5,0-0.7l2.4-16.9
				c0-0.3,0.1-0.5,0.2-0.7c0.1-0.2,0.3-0.4,0.5-0.6c0.2-0.2,0.4-0.3,0.7-0.4c0.2-0.1,0.5-0.1,0.8-0.1h12.5c0.5,0,0.9,0.1,1.5,0.2
				c0.5,0.2,1,0.4,1.4,0.8c0.4,0.4,0.7,0.8,0.9,1.4c0.2,0.6,0.3,1.3,0.2,2.1l-0.1,0.7c-0.1,0.7-0.3,1.4-0.6,2.1
				c-0.3,0.8-0.8,1.5-1.4,2.2c0.4,0.3,0.7,0.6,1.1,0.9c0.3,0.4,0.6,0.8,0.8,1.3c0.2,0.5,0.4,1,0.4,1.6c0.1,0.6,0.1,1.3,0,2
				L133.9,163z M130.3,162.3c0.1-0.5,0.1-0.9,0-1.3c-0.1-0.4-0.3-0.7-0.5-1c-0.2-0.3-0.5-0.5-0.9-0.6s-0.8-0.2-1.3-0.2H119l0.5-3.8
				h6.8c0.5,0,0.9-0.1,1.4-0.2c0.4-0.1,0.8-0.4,1.1-0.6c0.3-0.3,0.6-0.6,0.8-1c0.2-0.4,0.3-0.8,0.4-1.3l0.1-0.7
				c0.1-0.5-0.1-0.8-0.7-0.8h-10.7l-1.9,13.2h12.4c0.1,0,0.1,0,0.2,0c0.1,0,0.2,0,0.3-0.1c0.1,0,0.2-0.1,0.2-0.2
				c0.1-0.1,0.1-0.3,0.2-0.5L130.3,162.3z"/>
			<path class="st8" d="M151.4,155.7H143c-0.5,0-0.9,0.1-1.2,0.4c-0.3,0.3-0.5,0.6-0.5,1.1l-1.5,10.3H136l1.5-10.3
				c0.1-0.6,0.3-1.2,0.5-1.7c0.2-0.5,0.5-1,0.8-1.3c0.3-0.4,0.7-0.7,1.1-1c0.4-0.3,0.8-0.5,1.2-0.7c0.4-0.2,0.8-0.3,1.2-0.4
				c0.4-0.1,0.8-0.1,1.1-0.1h8.5L151.4,155.7z"/>
			<path class="st8" d="M156,167.5h-3.7l2.2-15.6h3.7L156,167.5z M158.6,148.8h-3.7l0.5-3.4h3.7L158.6,148.8z"/>
			<path class="st9" d="M166.4,167.5h-1.7c-0.5,0-1.1-0.1-1.7-0.3c-0.6-0.2-1.1-0.5-1.6-0.9c-0.5-0.4-0.8-1-1.1-1.6
				c-0.3-0.7-0.3-1.5-0.2-2.5l2.4-16.9h3.7l-2.4,16.9c-0.1,0.5,0,0.8,0.3,1.1c0.2,0.3,0.6,0.4,1,0.4h1.7L166.4,167.5z"/>
			<path class="st8" d="M185.9,165.7c0,0.3-0.1,0.5-0.2,0.7c-0.1,0.2-0.3,0.4-0.5,0.6c-0.2,0.2-0.4,0.3-0.6,0.4
				c-0.2,0.1-0.5,0.1-0.7,0.1h-8.5c-0.5,0-0.9-0.1-1.5-0.2c-0.5-0.1-1-0.3-1.5-0.5c-0.5-0.2-0.9-0.5-1.4-0.9
				c-0.4-0.4-0.8-0.8-1.1-1.3c-0.3-0.5-0.5-1.1-0.6-1.8c-0.1-0.7-0.1-1.4,0-2.3l1.2-8.6h3.7l-1.2,8.6c-0.1,0.5,0,0.9,0.1,1.3
				c0.1,0.4,0.3,0.7,0.5,1c0.2,0.3,0.6,0.5,0.9,0.6c0.4,0.1,0.8,0.2,1.2,0.2h6.6l1.7-11.8h3.7L185.9,165.7z"/>
			<path class="st8" d="M204.3,167.5h-10.2c-0.5,0-1.1-0.1-1.7-0.3c-0.6-0.2-1.1-0.5-1.6-0.9c-0.5-0.4-0.8-1-1.1-1.6
				c-0.3-0.7-0.3-1.5-0.2-2.5l0.7-5.1c0-0.4,0.1-0.7,0.3-1.1c0.1-0.4,0.3-0.8,0.5-1.2c0.2-0.4,0.5-0.8,0.8-1.1
				c0.3-0.4,0.7-0.7,1.1-0.9c0.4-0.3,0.9-0.5,1.4-0.6c0.5-0.2,1.1-0.2,1.8-0.2h10.2l-0.5,3.7h-10.2c-0.5,0-0.9,0.1-1.2,0.4
				c-0.3,0.2-0.5,0.6-0.5,1.2l-0.7,5c-0.1,0.5,0,0.9,0.2,1.1c0.2,0.3,0.6,0.4,1.1,0.4h10.1L204.3,167.5z"/>
			<path class="st8" d="M225.5,157.1c-0.1,0.5-0.2,1.1-0.5,1.7c-0.3,0.6-0.6,1.2-1.1,1.7c-0.5,0.5-1.1,0.9-1.8,1.3
				c-0.7,0.3-1.5,0.5-2.5,0.5h-6.8l0.5-3.6h6.8c0.5,0,0.9-0.2,1.2-0.5c0.3-0.3,0.5-0.7,0.6-1.2c0.1-0.5,0-0.9-0.3-1.2
				c-0.3-0.3-0.6-0.4-1.1-0.4h-6.8c-0.5,0-0.9,0.2-1.2,0.5c-0.3,0.3-0.5,0.7-0.6,1.2l-0.7,5.2c-0.1,0.5,0,0.9,0.3,1.2
				c0.3,0.3,0.6,0.4,1.1,0.4h6.7l-0.5,3.6h-6.8c-0.5,0-1.1-0.1-1.6-0.3c-0.6-0.2-1.1-0.5-1.5-0.9c-0.5-0.4-0.8-0.9-1.1-1.6
				c-0.3-0.7-0.3-1.5-0.2-2.4l0.7-5.3c0.1-0.5,0.2-1.1,0.5-1.7c0.3-0.6,0.6-1.2,1.1-1.7c0.5-0.5,1.1-0.9,1.8-1.3
				c0.7-0.3,1.5-0.5,2.5-0.5h6.8c0.5,0,1.1,0.1,1.6,0.3c0.6,0.2,1.1,0.5,1.5,0.9c0.5,0.4,0.8,0.9,1.1,1.6
				C225.5,155.4,225.6,156.2,225.5,157.1"/>
		</g>
	</g>
</g>
</svg>
