<?xml version="1.0" encoding="utf-8"?>
<!-- Generator: Adobe Illustrator 24.0.0, SVG Export Plug-In . SVG Version: 6.00 Build 0)  -->
<svg version="1.1" id="Layer_1" xmlns="http://www.w3.org/2000/svg" xmlns:xlink="http://www.w3.org/1999/xlink" x="0px" y="0px"
	 viewBox="0 0 356 200" style="enable-background:new 0 0 356 200;" xml:space="preserve">
<style type="text/css">
	.st0{fill:#039047;}
	.st1{fill:#EA2227;}
	.st2{fill:#FFCC33;}
	.st3{opacity:0.3;}
	.st4{fill:#F7EC37;}
	.st5{display:none;fill:#EA2227;}
</style>
<g>
	<g>
		<g>
			<g>
				<path class="st0" d="M245.9,35.2l-1-6.2l-6.1-0.3c-2.7-0.1-5.4-0.2-8.1-0.2c-12.5,0-25,1.4-37.3,4.2c-9.3,1.2-77.9,33.9-76.4,39
					c-2.7,2.3-4.6,4.2-5.9,5.5l-2.6,2.6l0.4,3.7c3.9,34.2,18.6,78.5,66.1,95.8l2.5,0.9l2.5-0.9c47.5-17.3,62.2-61.7,66.1-95.8
					C249.1,57.9,246.2,37.4,245.9,35.2z"/>
			</g>
			<path class="st0" d="M118.4,71.4c-0.1-1.5-0.2-3-0.2-4.6c0-26.9,21.8-48.7,48.7-48.7c13.2,0,25.2,5.3,34,13.9L118.4,71.4z"/>
		</g>
		<g>
			<g>
				<path class="st1" d="M234.8,46.4l-0.8-5.1L229,41c-2.2-0.1-4.5-0.2-6.8-0.2c-10.4,0-20.8,1.2-31,3.5c-7.7,1-64.7,28.1-63.5,32.4
					c-2.2,1.9-3.9,3.5-4.9,4.6l-2.2,2.2l0.4,3.1c3.3,28.4,15.5,65.2,54.9,79.6l2.1,0.8l2.1-0.8c39.4-14.4,51.6-51.2,54.9-79.6
					C237.5,65.3,235.1,48.3,234.8,46.4z"/>
			</g>
			<path class="st1" d="M128.9,76.5c-0.1-1.3-0.2-2.5-0.2-3.8c0-22.3,18.1-40.4,40.4-40.4c11,0,21,4.4,28.3,11.5L128.9,76.5z"/>
		</g>
		<path class="st1" d="M235,86.6c-3.3,28.4-15.5,65.2-54.9,79.6L178,167l0-3.4l53.2-119.1l2.8-3.1l0.8,5.1
			C235.1,48.3,237.5,65.3,235,86.6z"/>
		<path class="st2" d="M229.9,86.3c-3.1,25.9-15.7,61.3-51.9,73.9c-36.2-12.6-48.7-46.4-51.1-74.9c3.9-3.7,17.8-18.4,43.4-25.7
			c2.4-0.7,4.2-4.2,6.8-5c14.4-4.8,32.3-9.8,51.6-8.9C228.7,45.7,232.4,66.1,229.9,86.3z"/>
		<g>
			<g>
				<path class="st2" d="M147.1,158.7l-3-2.6l0.7-0.8l2,1.7l1.1-1.2l-1.5-1.3l0.7-0.8l1.5,1.3l1.8-2l1,0.8L147.1,158.7z"/>
				<path class="st2" d="M141.4,151.9l1.7,1.7l1.1-1.1l-1.5-1.5l0.7-0.7l1.5,1.5l1.2-1.2l-1.7-1.7l0.7-0.7l2.6,2.6l-4.5,4.5
					l-2.6-2.6L141.4,151.9z"/>
				<path class="st2" d="M138.3,145.3c1.4-1.3,3.3-1.1,4.6,0.4l1.5,1.7l-4.8,4.2l-1.5-1.7C136.8,148.4,136.8,146.6,138.3,145.3z
					 M142.1,146.5c-0.9-1-2-1.1-3-0.2c-1,0.9-1.1,2-0.2,3l0.6,0.7l3.2-2.8L142.1,146.5z"/>
				<path class="st2" d="M133.7,142.8l1.5,1.9l1.3-1l-1.3-1.7l0.8-0.6l1.3,1.7l1.3-1l-1.5-1.9l0.8-0.6l2.2,2.9l-5.1,3.9l-2.2-2.9
					L133.7,142.8z"/>
				<path class="st2" d="M130.6,140.2c-0.9-1.3-0.5-2.4,0.3-3c0.6-0.4,1.5-0.5,2.3,0.2l1.3-2.7l0.8,1.2l-1.3,2.6l0.3,0.5l2.1-1.4
					l0.7,1.1l-5.3,3.6L130.6,140.2z M131.5,139.7l0.6,0.9l1.6-1l-0.6-0.9c-0.4-0.6-0.9-0.6-1.4-0.3
					C131.3,138.6,131.1,139.1,131.5,139.7z"/>
				<path class="st2" d="M131.1,131.1l1.3,2.2l1.3-0.2l0.7,1.2l-6.7,1.2l-0.7-1.3l4.4-5.2l0.7,1.2L131.1,131.1z M128.5,134l2.8-0.5
					l-0.9-1.6L128.5,134z"/>
				<path class="st2" d="M125.3,131.4l-2.1-4.2l0.9-0.5l0.8,1.5l4.8-2.4l0.6,1.1l-4.8,2.4l0.8,1.5L125.3,131.4z"/>
				<path class="st2" d="M122.8,126.2l-0.5-1.2l5.8-2.6l0.5,1.2L122.8,126.2z"/>
				<path class="st2" d="M126.5,118.5c0.7,1.7,0,3.5-1.8,4.2c-1.8,0.7-3.6-0.2-4.2-1.8c-0.7-1.7,0.1-3.5,1.8-4.2
					C124.1,116,125.8,116.8,126.5,118.5z M125.5,118.9c-0.4-1.1-1.5-1.5-2.7-1c-1.2,0.5-1.7,1.5-1.2,2.6c0.4,1.1,1.5,1.5,2.7,1
					S125.9,120,125.5,118.9z"/>
				<path class="st2" d="M117.2,111.5l6.1-2l0.4,1.2l-3.2,4.1l4.2-1.4l0.4,1.2l-6.1,2l-0.4-1.2l3.3-4.1l-4.2,1.4L117.2,111.5z"/>
				<path class="st2" d="M241.9,61.7c-1.9,0.1-3.2-1.2-3.3-3.3l-0.1-2.2l6.4-0.2l0.1,2.2C245.1,60.3,243.9,61.7,241.9,61.7z
					 M239.8,58.4c0,1.3,0.8,2.1,2.1,2c1.3,0,2.1-0.8,2.1-2.2l0-0.9l-4.2,0.1L239.8,58.4z"/>
				<path class="st2" d="M244.1,66.5l0-2.4l-1.6,0l0,2.1l-1,0l0-2.1l-1.7,0l0,2.4l-1,0l0-3.7l6.4,0l0,3.7L244.1,66.5z"/>
				<path class="st2" d="M244.9,74.4l-0.1,1.4l-6.3-2.6l0.1-1.6l6.5-2l-0.1,1.4l-5.1,1.5L244.9,74.4z"/>
				<path class="st2" d="M238.1,79.1c0.2-1.8,1.6-3.1,3.5-3c1.9,0.2,3.1,1.7,3,3.5c-0.2,1.8-1.6,3.1-3.5,3
					C239.1,82.5,237.9,80.9,238.1,79.1z M239.2,79.2c-0.1,1.1,0.7,2,2,2.1c1.3,0.1,2.2-0.6,2.3-1.8c0.1-1.2-0.6-2-1.9-2.1
					C240.2,77.3,239.3,78.1,239.2,79.2z"/>
				<path class="st2" d="M243.9,85.3l-5.3-0.6l-0.3,2.1l-1-0.1l0.4-3.4l6.3,0.8L243.9,85.3z"/>
				<path class="st2" d="M243.3,89.6l-5.3-0.8l-0.3,2.1l-1-0.1l0.5-3.3l6.3,0.9L243.3,89.6z"/>
				<path class="st2" d="M241.2,96.1l0.4-2.4l-1.6-0.3l-0.4,2.1l-1-0.2l0.4-2.1l-1.7-0.3l-0.4,2.4l-1-0.2l0.6-3.6l6.3,1.1l-0.6,3.6
					L241.2,96.1z"/>
				<path class="st2" d="M242.1,97.1l-0.3,1.4l-3.1,0.7l2.6,1.9l-0.3,1.4l-3.6-3l-2.2-0.5l0.3-1.2l2.2,0.5L242.1,97.1z"/>
				<path class="st2" d="M238.2,102.9l-1,3.8l-1-0.3l1-3.8L238.2,102.9z"/>
				<path class="st2" d="M232.4,109.6l0.8-2.6l6.1,1.8l-0.8,2.5c-0.4,1.3-1.3,1.8-2.2,1.5c-0.7-0.2-1.1-0.8-1.1-1.5
					c-0.3,0.7-1.1,1-1.8,0.7C232.5,111.9,232,110.9,232.4,109.6z M235.1,110.2l0.4-1.2l-1.6-0.5l-0.4,1.2c-0.2,0.6,0,1,0.5,1.2
					C234.5,111.1,234.9,110.8,235.1,110.2z M237.6,110.9l0.3-1.1l-1.5-0.5l-0.3,1.1c-0.2,0.6,0,1,0.5,1.1
					C237.1,111.7,237.5,111.5,237.6,110.9z"/>
				<path class="st2" d="M231.3,116.7l0.9-2.4l-1-0.8l0.5-1.3l5.2,4.3l-0.5,1.4l-6.8,0l0.5-1.3L231.3,116.7z M235.2,116.7l-2.2-1.8
					l-0.6,1.7L235.2,116.7z"/>
				<path class="st2" d="M234.7,122.3l-5-2.1l-0.8,1.9l-0.9-0.4l1.3-3.1l5.9,2.4L234.7,122.3z"/>
				<path class="st2" d="M232.9,126.3L228,124l-0.9,1.9l-0.9-0.4l1.4-3.1l5.8,2.7L232.9,126.3z"/>
			</g>
			<g>
				<path class="st2" d="M123.1,55.9c0.5-1.3,1.6-2.2,3-2.1l-0.5,1.4c-0.7,0.1-1.1,0.5-1.4,1.1c-0.4,1,0.1,2.1,1.3,2.5
					c1.2,0.4,2.3,0,2.6-1.1c0.2-0.6,0.1-1.3-0.3-1.8l0.5-1.4c1.1,0.8,1.4,2.2,0.9,3.5c-0.6,1.7-2.4,2.6-4.2,1.9
					S122.5,57.6,123.1,55.9z"/>
				<path class="st2" d="M131.4,50.5l-1.2,2.2l0.9,1l-0.6,1.2l-4.5-5.1l0.7-1.3l6.7,1.1l-0.7,1.2L131.4,50.5z M127.6,49.8l1.9,2.1
					l0.9-1.6L127.6,49.8z"/>
				<path class="st2" d="M128.7,45l0.9-1.1l5,1.3l-2.5-4.5l0.9-1.1l5,4l-0.8,1l-3.2-2.6l2.2,3.9l-0.6,0.8l-4.3-1.2l3.2,2.6l-0.8,1
					L128.7,45z"/>
				<path class="st2" d="M137.8,36.4l-1.8,1.7l1.1,1.2l1.6-1.5l0.7,0.7l-1.6,1.5l1.2,1.2l1.8-1.7l0.7,0.8l-2.7,2.5l-4.4-4.7l2.7-2.5
					L137.8,36.4z"/>
				<path class="st2" d="M140.3,33.1c1.2-0.9,2.4-0.6,3,0.2c0.5,0.6,0.6,1.5-0.1,2.3l2.8,1.2l-1.2,0.9l-2.6-1.2l-0.5,0.4l1.5,2
					l-1,0.8l-3.8-5.1L140.3,33.1z M140.9,34l-0.9,0.6l1.1,1.5l0.9-0.6c0.6-0.4,0.6-0.9,0.3-1.4C142,33.7,141.5,33.6,140.9,34z"/>
				<path class="st2" d="M149.4,35.1c-1.6,0.8-3.5,0.3-4.4-1.4c-0.9-1.7-0.2-3.6,1.4-4.4c1.6-0.8,3.5-0.3,4.4,1.4
					C151.6,32.3,151,34.2,149.4,35.1z M148.8,34.1c1-0.5,1.3-1.6,0.7-2.8c-0.6-1.1-1.7-1.5-2.7-1c-1,0.5-1.4,1.6-0.7,2.8
					C146.7,34.2,147.8,34.6,148.8,34.1z"/>
				<path class="st2" d="M150.8,27.2l1.2-0.4l1.3,3.7c0.3,0.8,0.9,1.1,1.6,0.8c0.8-0.3,1.1-0.9,0.8-1.7l-1.3-3.7l1.2-0.4l1.3,3.7
					c0.5,1.6-0.3,2.8-1.7,3.2c-1.3,0.5-2.7,0-3.2-1.5L150.8,27.2z"/>
				<path class="st2" d="M163,24.1l1.1,6.3l-1.3,0.2l-3.6-3.8l0.8,4.3l-1.3,0.2l-1.1-6.3l1.3-0.2l3.6,3.8l-0.8-4.3L163,24.1z"/>
				<path class="st2" d="M169,28.9l-2.5,0.1l-0.4,1.2l-1.3,0l2.1-6.4l1.5,0l2.5,6.3l-1.4,0L169,28.9z M167.6,25.3l-0.8,2.7l1.8-0.1
					L167.6,25.3z"/>
				<path class="st2" d="M172,23.9l1.3,0.1l-0.5,6.4l-1.3-0.1L172,23.9z"/>
				<path class="st2" d="M176,30.8c-1.3-0.2-2.2-1.1-2-2.3l1.4,0.2c0,0.5,0.2,0.9,0.8,1c0.6,0.1,1-0.2,1.1-0.6
					c0.2-1.4-3.2-1.1-2.8-3.4c0.2-1.1,1.2-1.7,2.5-1.5c1.3,0.2,2.1,1,2,2.2l-1.4-0.2c0-0.4-0.2-0.8-0.8-0.9c-0.5-0.1-0.9,0.1-1,0.6
					c-0.2,1.3,3.1,1.1,2.8,3.3C178.4,30.3,177.5,31,176,30.8z"/>
				<path class="st2" d="M184.2,27.2l-2.3-0.7l-0.4,1.5l2.1,0.6l-0.3,1l-2.1-0.6l-0.5,1.6l2.3,0.7l-0.3,1l-3.6-1l1.8-6.1l3.6,1
					L184.2,27.2z"/>
			</g>
		</g>
	</g>
	<g class="st3">
		<path class="st4" d="M155.5,87.6l0.3-0.2c1.3-1.1,2.2-1.5,4.1-0.7c1.5,0.7,1.5,1.8,1.5,2.6c0.1-0.1,0.1-0.2,0.2-0.3
			c0.3-0.4,0.6-0.8,1-1.2c0.5-0.4,1-0.8,1.4-1c0-1-0.6-1.8-1.4-2.5c-0.3-0.3-0.7-0.6-1-0.9c-0.8-0.7-1.8-1.4-2.6-2.2
			c-2.3-2.3-4-5.8-1.9-9.1c-0.5,0-0.9,0.2-1.2,0.5c-1.2,1.1-1.3,4-2,5.7c-0.2,0.5-0.5,0.9-0.8,1.1c0.3,0.1,0.6,0.2,0.8,0.3
			c0.8,0.4,1.5,0.8,2,1.1c2.7,2,1.1,4.2,0,6.2C155.7,87.3,155.6,87.4,155.5,87.6z"/>
		<path class="st4" d="M166.4,94.5c0.9-1.8,2.5-3.2,4.4-4.7l0.2-0.1c0.2-0.2,0.4-0.3,0.6-0.5c0.2-0.1,0.4-0.3,0.5-0.4
			c1.1-0.8,2.3-1.9,3.5-3c0.6-0.6,1.2-1.2,1.7-1.9c0.9-1.2,1.5-2.4,1.7-3.5c0-0.2,0-0.4,0-0.6c0,0,0,0.1,0,0.1
			c-0.3,1-0.9,1.8-1.7,2.5c-0.5,0.4-1,0.8-1.7,1.2c-1,0.6-2.2,1.1-3.5,1.6c-0.4,0.1-0.8,0.3-1.2,0.4l-0.2,0.1
			c-1.5,0.5-3.1,1.1-4.4,1.6c-1.6,0.6-3,1.3-3.9,2c0,0,0,0-0.1,0c-0.5,0.4-0.8,0.9-1,1.5c-0.6,1.6-0.4,3.7,0,6c0.3,1.4,0.7,3,1,4.5
			c1.3,5.2,2.8,10.4,0.5,12.3c4.7-0.9,2.2-13.3,2.7-16.8C165.8,96.1,166,95.3,166.4,94.5z"/>
		<path class="st4" d="M175.6,62.1c0.5,0.4,1.1,0.6,1.7,0.8c0.5,0.1,1.1,0.2,1.7,0.3c0.4,0,0.8,0,1.3,0c0.6,0,1.2,0,1.9,0
			c1,0,2,0,3,0.2c0.3,0,0.5,0.1,0.7,0.2c0.8,0.2,1.5,0.6,2.1,1.1c0.3,0.2,0.6,0.5,0.8,0.9c0.6,0.8,1.2,1.9,1.6,3.3
			c0.9-4,0.1-6.1-1.6-7.1c-0.3-0.2-0.5-0.3-0.8-0.4c-0.6-0.3-1.4-0.4-2.1-0.5c-0.2,0-0.5-0.1-0.7-0.1c-1-0.1-2,0-3,0
			c-0.6,0-1.2,0.1-1.9,0.1c-0.4,0-0.8,0.1-1.3,0.1c-0.6,0.1-1.1,0.1-1.7,0.1c-0.6,0-1.2,0-1.7,0c-0.5,0-0.9-0.1-1.2-0.2
			C174.8,61.4,175.2,61.8,175.6,62.1z"/>
		<path class="st4" d="M185.1,105.8c0.3-0.6,0.6-1.3,0.7-2c0.6-2.1,0.6-4.6,0-6.6c-0.2-0.6-0.4-1.2-0.7-1.8
			c-0.4-0.6-0.8-1.2-1.3-1.6c1.3,3.8,0.2,10.2-1.7,14c-0.3,0.6-0.6,1.1-0.9,1.5c0.3-0.1,0.6-0.2,0.9-0.3
			C183.4,108.3,184.4,107.2,185.1,105.8z"/>
		<path class="st4" d="M166.4,120.6c-0.3,0.4-0.7,0.7-1,1.1c0.4-0.1,0.7-0.3,1-0.5c2.6-1.4,4.4-4,4.2-6.9c-0.3-4.2-0.3-8.8,0.2-12.7
			c0-0.2,0.1-0.3,0.1-0.5c0-0.2,0.1-0.4,0.2-0.6c0.3-0.8,0.7-1.7,1.2-2.6c0.9-1.6,2.2-3.3,3.5-4.9c0.6-0.8,1.1-1.5,1.7-2.3
			c0.7-1,1.2-1.9,1.7-2.9c0.8-1.9,1.1-3.7,0.3-5.5c0,0.5-0.1,1-0.3,1.4c-0.3,1-0.9,1.8-1.7,2.7c-0.5,0.5-1.1,1.1-1.7,1.6
			c-1.1,0.9-2.3,1.8-3.5,2.7c-0.4,0.3-0.8,0.6-1.2,1l-0.2,0.1c-1.3,1.1-2.3,2.3-2.9,3.8C165.2,101.9,172,113.8,166.4,120.6z"/>
		<path class="st4" d="M188,104.7c0.5-1.1,0.6-2.6,0-3.9c-0.1-0.3-0.3-0.6-0.6-0.9c0.2,2-0.2,4.9-1.6,6.7c-0.1,0.2-0.3,0.4-0.4,0.5
			c0.1,0,0.3-0.1,0.4-0.1C186.7,106.5,187.5,105.7,188,104.7z"/>
		<path class="st4" d="M171,120.1c0.4-0.3,0.8-0.7,1.2-1.2c1.7-2.3,2.7-6.3,3.5-10.1c0.3-1.3,0.6-2.6,0.8-3.7
			c0.2-0.9,0.5-1.8,0.8-2.6c0.5-1.4,1.1-2.7,1.7-4.1c0.5-1.2,1-2.4,1.3-3.7c0.5-1.9,0.6-4.1,0-6.7c-0.1-0.2-0.1-0.5-0.2-0.7
			c-0.1,1.3-0.5,2.4-1.1,3.5c-0.5,0.9-1,1.8-1.7,2.7c-0.5,0.7-1.1,1.5-1.7,2.2c-1.6,2-3,4.1-3.5,6.4c0,0.3-0.1,0.5-0.1,0.8
			c-0.3,3.2,0.3,13.3-1.1,16.7c0,0.1-0.1,0.2-0.2,0.3c-0.1,0.2-0.2,0.3-0.3,0.4c0.1-0.1,0.2-0.1,0.3-0.2
			C170.9,120.1,171,120.1,171,120.1z"/>
		<path class="st4" d="M162.5,73.5c1.3,0.9,2.5,2.2,3.9,3.4c1.3,1.2,2.8,2.3,4.4,2.8c0.1,0,0.1,0,0.2,0c0.2,0.1,0.5,0.1,0.8,0.2
			c0.1,0,0.3,0,0.4,0.1c1.4,0.1,2.5,0,3.5-0.3c0.6-0.2,1.2-0.5,1.7-0.8c0.6-0.4,1.2-1,1.7-1.6c0.4-0.5,0.8-1,1.3-1.5
			c0.6-0.7,1.1-1.3,1.9-1.9c0.8-0.6,1.8-1.1,3-1.3c0.2,0,0.5-0.1,0.7-0.1c0.1,0,0.2,0,0.3,0c-0.1-0.1-0.2-0.1-0.3-0.1
			c-0.3-0.1-0.5-0.2-0.7-0.3c-1-0.3-2-0.2-3,0.1c-0.6,0.2-1.2,0.5-1.9,0.9c-0.4,0.2-0.8,0.5-1.3,0.8c-0.6,0.4-1.1,0.7-1.7,1.1
			c-0.6,0.4-1.1,0.7-1.7,1c-0.9,0.5-1.9,0.8-2.8,0.9c-0.2,0-0.4,0-0.6,0c-0.4,0-0.8-0.1-1.2-0.2c-0.1,0-0.1,0-0.2,0
			c-1.6-0.4-3-1.5-4.4-2.4c-1.2-0.8-2.4-1.5-3.9-1.7c-0.3,0-0.7-0.1-1-0.1c-0.5,0-1.1,0.1-1.6,0.3c0.6,0,1.1,0.2,1.6,0.4
			C161.9,73,162.2,73.2,162.5,73.5z"/>
		<path class="st4" d="M195.3,65.5c0.1,0,0.2-0.1,0.4-0.1c1.4-0.4,2.9-0.4,4.3,0c0.7,0.2,1.4,0.5,2.1,1c-0.5-0.9-1.2-1.6-2.1-2.1
			c-1.3-0.7-2.9-0.9-4.3-0.5c-0.1,0-0.2,0.1-0.4,0.1c-1.3,0.5-2.5,1.4-3.1,3c-0.2,0.5-0.4,1.1-0.4,1.8c0.1-0.2,0.3-0.5,0.4-0.7
			C193,66.7,194.1,66,195.3,65.5z"/>
		<path class="st4" d="M188.4,73.4c-0.2,0.3-0.4,0.4-0.4,0.6v0.2c0.1,0.1,0.4,0.1,0.8,0c0.3-0.1,0.8-0.2,1.1-0.4
			c0.6-0.2,1.2-0.3,1.7-0.3c0.2,0,0.4,0,0.5,0c1.1,0,2,0.3,2.6,0.5c0.2,0,0.3,0.1,0.5,0.1c0.1,0,0.2,0.1,0.4,0.1
			c1.6,0.6,2.9,1.5,4.3,2.2c0.7,0.4,1.5,0.7,2.2,1c0.7,0.2,1.5,0.3,2.3,0.3c-0.8-0.2-1.6-0.5-2.3-0.8c-0.8-0.4-1.5-0.8-2.2-1.2
			c-1.4-0.9-2.8-1.8-4.3-2.3l0,0c-0.1,0-0.2-0.1-0.3-0.1c-0.7-0.2-1.9-0.5-3.1-0.6c-0.1,0-0.2,0-0.3,0c-0.1,0-0.1,0-0.2,0
			c-1.1,0-2.2,0.1-2.9,0.5C188.6,73.2,188.5,73.3,188.4,73.4z"/>
		<path class="st4" d="M196.3,66.4c-0.2,0.1-0.4,0.1-0.6,0.2c-0.1,0-0.2,0.1-0.4,0.2c-1.3,0.6-2.5,1.8-3.1,3.1
			c-0.1,0.3-0.3,0.6-0.3,1c0.1-0.1,0.2-0.3,0.3-0.4c1-1,2-1.6,3.1-1.9c0.1,0,0.2-0.1,0.4-0.1c0.9-0.2,1.9-0.2,2.8-0.2
			c0.5,0,1,0.1,1.5,0.2c0.7,0.2,1.5,0.4,2.2,0.7c0.9,0.3,1.7,0.7,2.6,0.9c1.1,0.4,2.2,0.6,3,0.6c0.8-0.1,1.4-0.4,1.8-1.3
			c-0.5,0.2-1.1,0.3-1.8,0.2c-0.9-0.1-1.9-0.6-3-1.1c-0.8-0.4-1.7-0.8-2.6-1.2c-0.7-0.3-1.5-0.6-2.2-0.8
			C198.8,66.2,197.5,66.1,196.3,66.4z"/>
		<path class="st4" d="M179,111.2c0.4-1,0.9-1.9,1.3-2.8c0.4-0.8,0.7-1.6,0.9-2.4c0.4-1.3,0.7-2.5,1-3.6c1.1-4.3,1.3-7.1,0-11
			c-0.2-0.5-0.4-1.1-0.6-1.7c0.6,4.1-0.2,7.6-1.3,10.4c-0.3,0.8-0.6,1.5-0.9,2.2c-0.1,0.2-0.2,0.5-0.3,0.7c-0.5,1.2-1.1,2.7-1.7,4.5
			c-0.8,2.6-1.5,5.7-1.7,8.6c0,0.8,0,1.5,0,2.2c0.1,2.2,0.6,4.2,1.7,5.9c0.3,0.4,0.6,0.9,1,1.3c-0.5-1.4-0.8-2.7-1-3.9
			c-0.2-1.7-0.2-3.3,0-4.8C177.6,114.7,178.3,112.9,179,111.2z"/>
		<path class="st4" d="M198.7,83.8c-0.2-0.3-0.7-0.2-1,0c-0.7,0.4-1.4,0.6-2,0.7c-0.1,0-0.2,0-0.4,0c-0.4,0-0.8-0.1-1.1-0.3
			c-0.4-0.2-1.3-0.6-2-1.2c-0.1,0-0.1-0.1-0.2-0.1c0.1,0.1,0.1,0.1,0.2,0.2c0.5,0.7,0.9,0.9,1.3,1.2c0.6,0.4,1.1,0.6,1.9,0.7
			c0.1,0,0.2,0,0.4,0c0.1,0,0.3,0,0.4,0c0.9-0.1,1.4-0.8,2.1-0.8C198.4,84,198.9,84.1,198.7,83.8z"/>
		<path class="st4" d="M204,81.6c-0.4,0.1-2.1,0.5-1.5-0.5c-0.1,0.1-0.2,0.1-0.3,0.2c-0.7,0.4-1.4,0.4-2.2,0.3c-1.5-0.3-3-1-4.3-0.9
			c-0.1,0-0.2,0-0.4,0.1c-0.2,0-0.3,0.1-0.5,0.2c-0.7,0.4-1.4,0.6-2.3,0.6c-0.1,0-0.2,0-0.3,0c-0.2,0-0.4,0-0.5,0
			c-0.6,0.1-0.9,0.3-1.8,0.9c0.7-0.2,1.3-0.4,1.8-0.4c0.2,0,0.4,0,0.5,0c1.2,0.1,1.7,0.7,3.1,1.2c0.1,0,0.2,0.1,0.4,0.1l0,0
			c1.5,0.3,2.3-1.6,3.7-0.1c0.3,0.3,0.5,0.7,0.6,1c0.1,0.3,0.1,0.7,0,1c0,0.2-0.1,0.4-0.2,0.6c-0.4,0.8-0.9,1.4-1.8,1.9
			c0.9-0.1,1.5-0.7,2-1.5c0.6-1,1.1-2.2,1.7-2.8c0.2-0.2,0.3-0.3,0.6-0.5c0.7-0.5,1.6-1,2.6-1.3c0.4-0.1,0.8-0.2,1.2-0.3
			c-0.4,0-0.8,0-1.2,0.1C204.5,81.5,204.2,81.5,204,81.6z M195.3,81.4C195.4,81.4,195.4,81.4,195.3,81.4c0.1,0,0.2,0,0.2,0
			c0.1,0.1,0,0.4-0.1,0.4c0,0,0,0-0.1,0C195,81.7,195,81.5,195.3,81.4z M196.3,82.7c-0.2,0.1-0.4,0.2-0.6,0.2c-0.1,0-0.2,0-0.4,0
			c-0.2-0.1-0.3-0.1-0.5-0.2c-0.1-0.1,0-0.1,0.1-0.1c0.1,0,0.3-0.1,0.4-0.2c0.1-0.1,0.3-0.2,0.4-0.3l0,0c0.1-0.1,0.2-0.4,0.2-0.5
			c0-0.2,0.4-0.2,0.5-0.1C196.7,81.7,196.6,82.5,196.3,82.7z"/>
		<path class="st4" d="M204.1,97c0.2-0.2,0.4-0.3,0.7-0.4c0.6-0.3,1.2-0.6,1.4-0.9c-0.5-0.2-0.9-0.4-1.4-0.7
			c-1.2-0.7-2.1-1.6-2.6-2.7c-0.2-0.5-0.3-1-0.2-1.5c0-0.1,0-0.2,0-0.2c0,0-0.2,0-0.2,0.3c-0.1,1.1,0.1,1.8,0.5,2.5
			c0.5,0.7,1.1,1.3,1.4,1.9c0.4,0.7-0.6,1.3-0.8,1.9C202.7,97.7,203.4,97.5,204.1,97z"/>
		<path class="st4" d="M204.8,70.9c-0.8-0.3-1.6-0.7-2.6-1c-0.4-0.1-0.9-0.3-1.4-0.4c-0.3-0.1-0.6-0.1-0.8-0.1
			c-1.5-0.2-3-0.1-4.3,0.3c-0.1,0-0.2,0.1-0.4,0.1c-1.1,0.3-2,0.8-2.6,1.4c0.9-0.3,1.8-0.4,2.6-0.5c0.1,0,0.2,0,0.4,0
			c1.5,0,2.9,0.3,4.3,0.7c0.8,0.2,1.5,0.5,2.2,0.7c0.9,0.3,1.8,0.5,2.6,0.7c1.2,0.2,2.2,0.2,3-0.3c0.4-0.2,0.7-0.5,1-0.9
			c-0.3,0-0.7,0-1,0C206.7,71.6,205.8,71.3,204.8,70.9z"/>
		<path class="st4" d="M188,122.1c-2.2-3.3-1.3-7.4-0.7-8.9c0.2-0.5,0.4-0.9,0.7-1.3c0.3-0.4,0.5-0.8,0.8-1.1
			c1.1-1.4,2.3-2.5,2.9-4.1c0.2-0.7,0.3-1.4,0.3-2.3c-0.1,0.3-0.2,0.5-0.3,0.8c-0.7,1.7-1.8,2.7-2.9,3.5c-0.3,0.2-0.5,0.4-0.8,0.6
			c-0.7,0.5-1.5,1.1-2.1,1.9c-0.3,0.3-0.5,0.6-0.7,1c-0.2,0.3-0.4,0.7-0.6,1.1c-1,2.2-0.7,5.4,0.6,7.6c0.2,0.4,0.5,0.7,0.7,1
			c0.6,0.7,1.3,1.2,2.1,1.4c0.3,0.1,0.5,0.1,0.8,0.2c0.1,0,0.2,0,0.3,0c-0.1-0.1-0.2-0.2-0.3-0.3C188.5,122.8,188.2,122.5,188,122.1
			z"/>
		<path class="st4" d="M166.4,68.3c1.2,0.7,2.8,0.9,4.4,0.9l0.2,0c0.4,0,0.8,0,1.2-0.1c1.2-0.1,2.4-0.3,3.5-0.5
			c0.6-0.1,1.1-0.3,1.7-0.4c0.6-0.2,1.2-0.3,1.7-0.5l0.1,0c0.4-0.1,0.8-0.2,1.1-0.3c0.6-0.2,1.2-0.3,1.9-0.4c1-0.1,2-0.1,3,0.1
			c0.3,0.1,0.5,0.1,0.7,0.2c0.7,0.2,1.5,0.6,2.1,1.2c0.3,0.2,0.6,0.5,0.8,0.8c0.2,0.3,0.5,0.5,0.7,0.8c-0.2-0.8-0.4-1.5-0.7-2.1
			c-0.2-0.5-0.5-1-0.8-1.3c-0.6-0.7-1.3-1.3-2.1-1.6c-0.2-0.1-0.5-0.2-0.7-0.3c-0.9-0.3-1.9-0.3-3-0.3c-0.6,0-1.2,0.1-1.9,0.2
			c-0.4,0.1-0.8,0.1-1.3,0.2c-0.5,0.1-1.1,0.2-1.7,0.3c-0.6,0.1-1.1,0.2-1.7,0.4c-1.2,0.3-2.3,0.6-3.5,0.8c-0.4,0.1-0.8,0.2-1.2,0.2
			l-0.2,0c-1.7,0.3-3.2,0.4-4.4,0.1c-0.8-0.2-1.5-0.5-2.1-1.1C164.7,66.9,165.4,67.8,166.4,68.3z"/>
		<path class="st4" d="M191.5,112.9c0.1-0.1,0.1-0.2,0.2-0.3c0.2-0.4,0.4-0.8,0.5-1.2c0.6-1.8,0.9-3.9,0.8-6c-0.1,1-0.4,1.8-0.8,2.5
			c-0.2,0.3-0.3,0.6-0.5,0.9c-0.9,1.4-2.1,2.5-2.9,3.5c-0.1,0.1-0.1,0.2-0.2,0.3c-0.3,0.4-0.5,0.8-0.6,1.2c-0.6,1.5-0.5,3.3,0,4.7
			c0.2,0.6,0.5,1.1,0.8,1.6c0.4,0.6,0.9,1,1.5,1.3C188.5,118.7,190.2,115,191.5,112.9z"/>
		<path class="st4" d="M178.7,129.6c-0.4-1-0.9-1.9-1.4-2.8c-0.6-1-1.2-1.9-1.7-3.1c-0.7-1.6-1.3-3.6-1.3-6.4
			c-1.9,4.3-0.3,7.4,1.3,10.7c0.1,0.3,0.3,0.5,0.4,0.8c0.6,1.2,1,2.4,1.3,3.7c0.3,1.5,0.3,3,0,4.6c-0.2,0.8-0.4,1.7-0.8,2.6
			c0.3-0.3,0.6-0.5,0.8-0.8c0.8-0.9,1.3-1.9,1.7-2.8c0.7-2,0.5-4.1,0-5.7C178.9,130.1,178.8,129.8,178.7,129.6z"/>
		<path class="st4" d="M182.1,125.8c-0.7-1.3-1.3-2.5-1.9-3.7c-0.5-1.2-1-2.4-1.3-3.7c-0.2-0.9-0.3-1.8-0.4-2.8
			c-0.6,2.7-0.4,5.1,0.4,7.4c0.3,1,0.8,1.9,1.3,2.8c0.2,0.4,0.5,0.9,0.8,1.3c0.3,0.4,0.8,1.4,1.1,2.7c0.4,1.4,0.5,3.2,0,5.2
			c-0.1,0.4-0.3,0.9-0.5,1.3c0.2-0.2,0.3-0.5,0.5-0.7c1.5-2.5,2-5.9,0.7-8.6C182.5,126.6,182.3,126.2,182.1,125.8z"/>
		<path class="st4" d="M221.8,86.4v-0.1c0-0.2-0.1-0.4-0.3-0.5c-0.6-0.4-1.2-1.2-1.8-1.9c-0.6-0.7-1.3-1.3-2-1.4l-0.8-0.2
			c-1.2-0.2-2.2-0.4-3-0.7c-0.7-0.2-1.4-0.6-2.3-1.1c-0.2-0.1-0.3-0.2-0.5-0.3c-1.2-0.8-1.5-2-2.1-3.1c-0.2-0.3-0.5-0.7-1-1.1
			c-0.9-0.8-2.1-1.5-3-2c-0.2-0.1-0.5-0.2-0.7-0.3c-0.3,0,0.1,0.4,0.7,0.7c0.4,0.3,0.8,0.5,1,0.7c0.8,0.6,1.5,1.1,2.1,1.7
			c0.1,0.1,0.2,0.3,0.3,0.4c0.3,0.4,0.2,1.2-0.3,1c-0.1,0-0.1,0-0.2-0.1c-0.6-0.3-1.3-1-1.8-1.3c-0.2,0.1,0,0.3,0.7,1
			c0.4,0.4,0.9,0.7,1.4,0.9l0.1,0.1c0.9,0.5,0.8,0.4,1.5,0.9c0.6,0.5,1.3,0.9,2,1.4c0.7,0.4,1.5,0.8,2.3,1.1
			c0.3,0.1,0.6,0.2,0.9,0.3c0.9,0.2,1.6,0.4,2.2,0.5c1.3,0.4,1.9,0.7,2.9,1.8c0.3,0.3,0.5,0.6,0.9,1c-0.3-0.1-0.6-0.1-0.9-0.1
			c-0.5,0-0.9,0.2-1.2,0.3c-0.8-0.2-1.3-0.2-1.7-0.2c-0.8,0-1.3,0.3-2.2,0.6c-0.2,0-0.5,0.1-0.8,0.2c-0.2,0-0.4,0-0.5,0
			c-0.8-0.2-1.3-1-1.8-1c-0.1,0-0.2,0-0.3,0.1c-0.2,0.1-0.2,0.2,0.3,0.7l0.1,0.1c0.6,0.7,1.3,1.6,1.6,1.8c0.2,0.1,0.4,0.3,0.6,0.4
			c0.6,0.5,1.1,0.9,1.7,1.3c0.5,0.3,1,1.2,1.3,2c0.2,0.4,0.3,0.7,0.4,1c0.4,0.9,0.1,2.2-0.4,2.7c-0.1,0.1-0.3,0.2-0.4,0.3l-2.6,0.6
			l-1.1,0.3c-0.1,0-0.7,0.1-1.1,0.2c-0.5,0.1-1,0.3-1.1,0.3c0.1,1.2-0.1,3.1-1,3.9c-0.3,0.3-0.6,0.2-0.6-0.2
			c0.1-1.3-0.2-2.9-0.3-3.3c-0.2,0-0.4,0-0.6,0.1c-0.7,0.1-1.7,0.4-3,0.6c-0.3,0.1-0.6,0.1-0.9,0.2c-0.6,0.1-1.1,0.1-1.6,0.2
			c-0.8,0.1-1.6,0.2-2.2,0.4c-0.2,0.1-0.4,0.1-0.6,0.2c-1.1,0.4-2,1.2-2.7,1.8c-0.4,0.4-0.8,0.9-1.1,1.5c-0.1,0.2-0.2,0.5-0.4,0.7
			c-0.8,1.9-1.2,4.4-1.2,6.5c0,2.1,0.7,4.1,1.2,6.1c0,0.2,0.1,0.3,0.1,0.5c0.1,0.3,0.1,0.6,0.2,1c0.7,2.4,2.2,5.7,4.3,6.6
			c0.2,0.1,0.5,0.2,0.8,0.2c0.5,0.1,1,0,1.5-0.2c0.8-0.2,1.5-0.6,2.3-0.6c0.1,0,0.2,0,0.2,0c0.7,0.1,1,0.2,1.2,0.3
			c-0.5,0.7-0.8,1.3-1.2,1.8c-0.8,1-1.5,1.4-2.6,1.5c-0.6,0-1.2,0-2.1-0.1l-0.2,0c-2.1-0.2-3.4-0.7-4.3-1.6
			c-0.1-0.1-0.2-0.3-0.4-0.4c-1-1.2-1.4-3.1-2-5.9c-0.4-1.6-0.6-4.9-0.4-6.6c0-0.1-0.4,0.1-0.7,0.5c-0.2,0.2-0.4,0.5-0.5,0.8
			c-0.1,0.1-0.1,0.2-0.2,0.4c-0.2,1.2-0.1,2.8,0.2,4.5c0.1,0.8,0.3,1.6,0.5,2.4c0.5,2.1,1.3,4,1.9,5.1c0.3,0.5,0.7,0.9,1.3,1.3
			c0.1,0.1,0.2,0.1,0.4,0.2c1.2,0.6,2.8,0.9,4.3,1c0.8,0,1.6,0,2.2-0.2c0.3-0.1,0.6-0.1,0.9-0.2c0.7-0.2,1.2-0.6,1.6-1.1
			c0.9-1,1.6-2.4,2.6-3.3c0.2-0.1,0.4-0.3,0.5-0.8c0-0.1,0-0.2,0-0.4c0-0.3,0-0.5,0-0.8c-0.1-0.9-0.5-1.7-0.5-2.8
			c0.1-0.2,0.3-0.5,0.5-0.8c0.4-0.6,0.7-1.2,0.8-1.4c0.2-0.4-0.2-0.9-0.6-0.7c-0.1,0-0.2,0.1-0.3,0.1c-0.3,0.1-0.5,0.3-0.8,0.4
			c-0.4-1.8-0.3-4.2-0.3-5.9c0.1-2.4,0.3-4.3,1.1-6.2c0-0.1,0.1-0.2,0.1-0.3c0.2-1,1.7-2.5,3.5-3.7c0.8-0.5,1.6-1,2.3-1.3
			c0.8-0.4,1.5-0.6,2-0.6c0.1,0.6,0,1.6,0.1,2.2c0,0.7,0.6,0.6,0.9,0.1c0,0,0.1-0.1,0.1-0.1c0.4-0.7,0.8-1.8,1.1-2.7
			c0.6-0.3,1.3-0.5,1.8-0.8c0.4-0.2,0.7-0.5,0.9-0.8c0.9-1.4,1-4.3,0.8-6.2c-0.1-0.9-0.3-2-0.3-2.9c0.1-0.1,0.1-0.2,0.2-0.3
			C221.4,87.4,221.8,86.9,221.8,86.4z M197.5,112.2c-0.4-1.5-1-3.8-0.4-5.6c0.8-0.2,1.9-0.1,2.8,0.2c0.7,0.2,1.2,0.5,1.6,0.8
			c0.3,0.2,0.5,0.5,0.7,0.7c1.3,1.7,0.9,3.5,0.2,5.6c0,0.1-0.1,0.4-0.2,0.6c-0.1,0.4-0.2,0.8-0.2,1.1c-0.5,0.7-1.2,1.5-1.6,1.9
			c0-0.3-0.2-0.7-0.4-1.2c-0.2-0.5-0.5-1-0.6-1.1C198.5,114.4,197.9,113.4,197.5,112.2z M200.7,120.2c-0.2-0.2-0.5-0.4-0.6-0.7
			c0-0.1-0.1-0.2-0.1-0.3c-0.1-0.2,0-0.4,0.1-0.5c0.1-0.2,0.4-0.3,0.5-0.5c0.5-0.5,1.1-1.1,1.5-1.6c0.1-0.1,0.2-0.2,0.2-0.2
			c0.2-0.1,0.4,0,0.4,0.4c0,0.3-0.2,0.8-0.4,1.1c-0.1,0.1-0.1,0.3-0.2,0.3C201.8,118.8,201.2,119.8,200.7,120.2z M207.8,117.3
			C207.8,117.2,207.8,117.2,207.8,117.3c0.3-0.2,0.4-0.1,0.5,0c0.1,0.2-0.1,0.6-0.4,1c-0.7,1-2.2,2.4-2.7,2.6
			c-0.1,0-0.2,0.1-0.3,0.1c-0.6,0-1.2-0.2-1.7-0.3c-0.4,0-0.6,0.1-0.8,0.4c0,0-0.1,0.1-0.1,0.1c-0.2,0.2-0.6,0.2-0.7-0.2
			c-0.2-0.1-0.2-0.5-0.1-0.6c0.1-0.4,0.5-1,0.8-1.5c0.2-0.3,0.4-0.7,0.5-0.9c0.2,0.3,0.4,0.4,0.7,0.7c0.2,0.2,0.6,0.5,0.8,0.6
			c0.1,0.1,0.4,0.4,0.6,0.9c0.1,0.1,0.1,0.3,0.2,0.5c0.2,0.1,0.3-0.1,0.1-0.4c-0.2-0.4-0.5-0.9-0.2-1.1
			C205.6,118.5,206.1,118.3,207.8,117.3z M216.8,100.7c-0.1,0.2-0.2,0.4-0.3,0.5c-0.2,0.3-0.3,0.4-0.4,0.2c0,0,0-1.9,0-2.7
			c0-0.3,0.3-0.9,0.7-1.2c0.3-0.3,0.6-0.4,0.7,0C217.5,98.1,217.2,99.7,216.8,100.7z M219.7,96.6L219.7,96.6
			c-0.3-0.5-0.8-0.7-1.2-0.8c0.4-1.4-0.1-2.9,0.9-4.1c0.1-0.1,0.2-0.2,0.2-0.2c0.1-0.1,0.2-0.2,0.3-0.5c0.1-0.3,0-0.9,0.1-1.1
			c0.2-0.3,0.2-0.6,0.4-0.8c0.2,0.6,0.2,1.6,0.3,2.2C220.9,92.4,220.7,95.6,219.7,96.6z M219.9,88.9c-0.1,0.2-0.2,0-0.1-0.4
			c0.1-0.4,0.3-0.8,0.1-0.9c-0.1,0-0.1,0.1-0.2,0.2c-0.1,0.3-0.3,0.8-0.3,1c0,0.4-0.6,1.8-1,1.8c-0.3,0,0.4-1.1,0.3-1.6
			c-0.1-0.9-0.7-1.5-1.5-2c-0.7-0.5,1.2-0.1,1.4-0.1c0.4,0,0.7-0.1,0.9-0.2c0.2-0.1,0.3-0.2,0.5-0.2c0.9-0.2,1.4-0.1,0.9,0.9
			C220.8,87.6,220.3,88.6,219.9,88.9z"/>
		<path class="st4" d="M213.7,116.7c-1.9-4.1,0.2-10.7-2.3-14.1c-0.1-0.1-0.2-0.2-0.3-0.3c-1.6,1-2.8,3.1-3.4,6.4
			c-0.4,2.1-0.5,4.7-0.3,7.9c0.1,0,0.2,0,0.3-0.1c0.6-0.1,0.9-0.1,1.1,0.2c0.6,0.9-0.4,1.9-1,2.7c0.7,1.5,3.1,5.4,2.4,8.3
			c0.7-0.7,1-1.8,1.1-3c0-0.6,0-1.2,0-1.8c-0.3-4.5-2.5-10.3-1.4-12.4c0,0.6,0.5,2.7,1.4,4.7c0.6,1.3,1.4,2.6,2.3,3.2
			c0.5,0.4,1.1,0.6,1.7,0.5C214.7,118.3,214.1,117.5,213.7,116.7z"/>
		<path class="st4" d="M216.5,106.4c-0.1-2.2-1-4.3-2.1-5.9c-0.2,0.1-0.4,0.2-0.6,0.2c-0.6,0.3-1.1,0.6-1.7,1.1c1,0.9,1.4,2,1.7,3.3
			c0.3,1.6,0.3,3.3,0.4,4.9c0.1,1.6,0.7,4.7,2.7,5.9c0.1,0,0.2,0.1,0.3,0.1c-0.1-0.2-0.2-0.3-0.3-0.5
			C215.4,112.4,216.7,109.6,216.5,106.4z"/>
		<path class="st4" d="M182.6,114.9c0.2-1.8,1.2-3.2,2.4-4.4c0.2-0.2,0.5-0.5,0.7-0.7c0.7-0.7,1.5-1.3,2.1-2
			c0.3-0.3,0.6-0.6,0.8-0.9c0.8-1,1.3-2,1.2-3.2c-0.3,0.7-0.7,1.4-1.2,1.9c-0.3,0.3-0.5,0.5-0.8,0.8c-0.6,0.5-1.4,1-2.1,1.5
			c-0.2,0.2-0.5,0.3-0.7,0.5c-1.1,0.7-2.1,1.5-3,2.6c-0.8,0.9-1.5,2-1.9,3.4c-0.1,0.3-0.2,0.6-0.2,0.9c-0.3,1.6-0.2,3,0.2,4.2
			c0.4,1.4,1.1,2.7,1.9,3.8c1.4,2.2,2.8,4.1,2.4,6.4c0.2-0.3,0.4-0.5,0.5-0.7c0.7-1.2,0.5-2.5,0-3.9
			C184.1,122.5,182.1,119.4,182.6,114.9z"/>
		<path class="st4" d="M150.4,102.7c0.1-0.3,0.2-0.5,0.3-0.8c1.1-2.7,2.3-5.1,3-7.7c0.9-3.2,1.2-6.6,0-10.9l0-0.1
			c-0.4,4.1-1.6,7.2-3,9.8c-2.4,4.6-5.4,7.6-6.1,11.8c-0.7,4.1,0.8,11.8,4.3,14.9C147.1,114.7,147.9,108.7,150.4,102.7z"/>
		<path class="st4" d="M174.6,129.8c-1.4-3.5-2.5-5.7-2-9.4c-0.2,0.2-0.3,0.5-0.5,0.7c-0.6,1-1,2.1-1.2,3.3c-0.2,1.1-0.2,2.3,0,3.4
			c0.2,1.3,0.6,2.6,1.1,3.8l0.1,0.2c0.9,2,2.1,5.4,0.9,8.6c1.6-1.1,2.4-2.8,2.6-4.7c0.1-0.6,0.1-1.3,0-1.9
			C175.5,132.5,175.1,131.1,174.6,129.8z"/>
		<path class="st4" d="M145.3,97.9c1.4-4,4-6.5,5.4-9.9c1-2.4,1.3-5.4,0.2-9.7c-0.1,0.5-0.1,1-0.2,1.5c-1.7,9.9-8.9,12.1-10.8,18.6
			c-0.5,1.9-0.8,3.7-0.9,5.4v0.9c0.1,4.5,1.8,8,4.3,8.8C141.5,108.6,143.1,104,145.3,97.9z"/>
		<path class="st4" d="M153.7,71.6c0.6-0.6,1.2-1,2-1.3c1.2-0.5,2.7-0.7,4.3-0.6c0.4,0,0.9,0.1,1.4,0.3c0.3,0.1,0.7,0.3,1,0.4
			c1.2,0.6,2.6,1.4,3.9,2.2c1.6,1,3.1,1.8,4.4,2.1c0.1,0,0.1,0,0.2,0l0,0c0.4,0.1,0.8,0.1,1.1,0.1c1.3,0,2.4-0.3,3.5-0.8
			c0.6-0.3,1.1-0.6,1.7-0.9c0.6-0.3,1.1-0.7,1.7-1c0.4-0.3,0.8-0.5,1.3-0.7c0.6-0.3,1.2-0.6,1.9-0.9c1-0.3,1.9-0.5,3-0.4
			c0.2,0,0.5,0.1,0.7,0.1c0.7,0.2,1.4,0.5,2.1,0.9c0.1,0.1,0.3,0.2,0.4,0.3c-0.1-0.2-0.3-0.5-0.4-0.7c-0.7-0.9-1.4-1.5-2.1-1.8
			c-0.2-0.1-0.5-0.2-0.7-0.3c-0.9-0.3-1.9-0.2-3,0c-0.6,0.1-1.2,0.3-1.9,0.5c-0.4,0.1-0.8,0.3-1.3,0.4c-0.5,0.2-1.1,0.4-1.7,0.6
			c-0.5,0.2-1.1,0.4-1.7,0.5c-1.1,0.3-2.3,0.6-3.5,0.7c-0.4,0-0.8,0.1-1.2,0.1c-0.1,0-0.1,0-0.2,0c-1.3,0-2.7-0.3-4.2-0.9l-0.3-0.1
			c-1.1-0.5-2.4-1-3.9-1.5c-0.3-0.1-0.7-0.2-1-0.3c-1.9-0.6-3.9-0.9-5.7-0.6l-0.1,0c-0.8,0.1-1.4,0.4-2,0.7
			c-2.7,1.5-3.3,4.8-1.9,7.9C152,74.3,152.7,72.7,153.7,71.6z"/>
		<path class="st4" d="M153.7,114.5c0.4-2.2,1.1-4.4,2-6.7l0.1-0.1c2.7-6.5,3.7-11.1,1.8-19c-0.4,3.3-1.1,5.9-1.9,8.2
			c-0.6,1.6-1.3,3.1-2,4.4c-1.1,2.2-2.3,4.1-3,6.1c-0.3,0.8-0.5,1.6-0.7,2.5c-0.4,2.1-0.1,5.3,0.7,8.3c0.6,2.3,1.7,4.5,3,6
			c0.2,0.2,0.4,0.4,0.6,0.6c-0.3-0.7-0.5-1.4-0.6-2.1C153.2,120.1,153.2,117.4,153.7,114.5z"/>
		<path class="st4" d="M170.8,132.5c0-0.2-0.1-0.4-0.1-0.5c-0.9-4-2.6-8.9-0.9-12.1c-2.1,2.1-3.1,4.1-3.4,6c-0.2,1.1-0.2,2.2,0,3.2
			c0.7,4.3,3.6,8.2,2.6,12.5c0.9-0.9,1.5-2.1,1.9-3.4c0.1-0.3,0.1-0.5,0.2-0.8c0.2-1.2,0.2-2.6,0-3.8
			C171,133.2,170.9,132.8,170.8,132.5z"/>
		<path class="st4" d="M164,124.1c-0.1-3,1.3-4.9,2.4-7.3c1-2.1,1.6-4.6,0.5-8.4c0.1,1.5-0.1,2.8-0.5,4.1c-0.9,3-2.9,5.6-3.9,8.5
			c-0.5,1.3-0.7,2.7-0.6,4.3c0.1,1.2,0.3,2.3,0.6,3.4c0.7,2,1.9,3.7,3.9,5.6l0.1,0.1c0-0.1-0.1-0.1-0.1-0.2
			C165.3,132,164.3,129.1,164,124.1z"/>
		<path class="st4" d="M159.6,95c0.8,10.7-0.9,11.8-3,18.2c-0.4,1.1-0.6,2.2-0.8,3.3c-0.4,2.1-0.4,4.1,0,6.1
			c0.5,2.5,1.9,4.9,4.3,6.7c-2.2-5.3-1.3-8.9-0.2-11.5c0.8-1.8,1.3-3.6,1.6-5.3c0.5-2.9,0.4-5.6,0-8.5
			C161.1,101.1,160.4,98.1,159.6,95z"/>
	</g>
	<g>
		<g>
			<path class="st1" d="M178.4,130.8c2.6-3.5,6.3-5.7,10.4-6.9c3.8-1.1,7.7-1.8,11.6-2.7c0.9-0.2,1.7-0.5,2.6-0.7
				c-0.4-3.1-1.6-5.7-3.1-8.2c-1.1-1.8-2.3-3.6-3.6-5.3c-1.3-1.7-2.2-3.5-2.5-5.5c-0.6-3.9-1.3-7.8-1.8-11.7c-0.4-2.9-1.9-5-4.7-6
				c-2.2-0.8-4.4-1.3-7-2c2,0,3.6-0.1,5.1,0c2.1,0.2,4.1,0.6,6.2,1c2.6,0.5,3.7,1.9,3.8,4.6c0.1,4.6,1,9.1,2.5,13.5
				c0.4,1.2,1.1,2.3,2,3.2c2.9,3.2,5.5,6.6,7.1,10.8c0.9,2.4,1.4,4.8,1.1,7.3c-0.2,1.9-0.5,2.3-2.4,2.5c-2,0.3-4.1,0.4-6.1,0.6
				c-6.5,0.4-12.9,1.3-18.9,4.4c-0.4,0.2-0.8,0.4-1.2,0.6C179.1,130.4,178.8,130.6,178.4,130.8z"/>
			<path class="st1" d="M161.7,148.4c1.9-3.1,4.2-5.5,6.9-7.6c3.3-2.6,7.1-4.3,11-5.9c0.7-0.3,1.4-0.6,2.1-0.8
				c2.1-0.6,3.3-1.9,3.1-4.2c-0.1-1,0.4-1.3,1.3-1.5c1.6-0.3,3.2-0.6,5.2-1c0,1.5,0.1,2.7,0,3.9c-0.5,4.7-0.7,5-5.2,6.3
				c-6,1.7-12,3.4-17.5,6.5C166.2,145.4,164,146.9,161.7,148.4z"/>
			<path class="st1" d="M164.7,93.4c2.7-2.1,5.3-4,7.8-6c2.5-2,5-2.1,6.9-0.1c0.1,0.1,0.2,0.3,0.4,0.6c-0.9,0.6-1.9,1.1-2.8,1.6
				c-1.5,0.9-3,1.9-4.4,2.9c-2.3,1.5-4.4,3.5-6.8,4.6c-3.5,1.5-3.6,1.4-4.5-2.3c-1.3-5.6-0.4-11,1.4-16.4c0.1-0.2,0.2-0.4,0.3-0.6
				c0.1-0.2,0.2-0.3,0.4-0.6C162.9,82.7,162.8,88.2,164.7,93.4z"/>
			<path class="st1" d="M217.3,72c-4.6,1.3-9,2.4-13.3,3.7c-1,0.3-1.9,0.7-2.7,1.3c-2.1,1.5-4.2,3.1-6.3,4.7
				c-0.6,0.5-1.2,0.6-1.9,0.3c-1.6-0.5-3.1-0.9-4.7-1.4C197.1,75,206.8,72.5,217.3,72z"/>
			<path class="st5" d="M170.7,86.6c2.3-1.8,2.4-4.2,2.2-6.8c-0.1-1.8,0-2.1,1-2.9C176,80.2,174.5,84.9,170.7,86.6z"/>
			<path class="st1" d="M174,74.8c0.1-2.5,2.5-5.5,4.6-5.4c1.3,0.1,2.5,1.2,3.7,1.9c0.7,0.4,1.3,0.9,2,1.3c0.3,0.2,0.4,0.5,0.4,0.9
				c-0.1-0.1-0.2-0.3-0.3-0.3c-2,0.3-2.9-1.5-4.2-2.4c-0.8-0.5-1.5-0.5-2.4-0.1C176.2,71.7,174.9,72.9,174,74.8z"/>
			<path class="st1" d="M185.6,80.6c-0.8,0.1-1.4,0.3-2,0.2c-0.3,0-0.6-0.6-0.7-0.9c-0.1-0.3,0.2-0.7,0.4-0.9
				c0.6-0.4,1.3-0.7,1.9-1.2c0.3-0.2,0.6-0.7,1-1.2c-0.1,0.4,0,1.1-0.2,1.1C184.5,78.3,184.9,79.4,185.6,80.6z"/>
			<path class="st1" d="M179.4,80.3c-1.6,0.3-2.7-0.6-4-1.9c1.6,0.6,2.9,1,4.2,1.5C179.5,80,179.5,80.1,179.4,80.3z"/>
			<path class="st1" d="M181.9,94.1c0,0,3.2,5.6,2.9,9.8c0,0-0.5,7.5,3,10c3.5,2.5,2.1,1.5,2.1,1.5s0-4.2-3.4-11.5
				C186.5,104,185.4,97,181.9,94.1z"/>
		</g>
		<g>
			<path class="st1" d="M204.2,56.3c-0.7-0.4-1.4-0.8-2-1.2c-0.1-0.1-0.3,0-0.4,0c-2.6,1.4-4.1,3.5-4.7,6.4c0.8,0.1,1.6,0.2,2.3,0.3
				C200,59.1,201.5,57.3,204.2,56.3z M201.5,54.8c-0.5-0.1-0.9-0.2-1.4-0.2c-0.8,0-1.7-0.1-2.3,0.6c-0.5,0.5-1,1.1-1.5,1.7
				c-0.7,1-1.1,2.1-1.1,3.4c0,0.2,0.1,0.4,0.2,0.5c0.4,0.2,0.9,0.4,1.3,0.7C197.4,58.5,199,56.3,201.5,54.8z M202.3,57.5
				c-0.5,0.5-0.9,1-1.3,1.5c-0.1,0.1-0.1,0.4,0,0.5c0.8,1.8,2.1,3,3.9,3.6c0.1,0,0.4-0.1,0.4-0.2c0.2-0.7,0.4-1.3,0.5-2
				c0-0.1-0.1-0.3-0.1-0.3C204.3,59.9,203.3,58.9,202.3,57.5z M205,63.5c-2.1-0.7-3.5-2.1-4.4-4c-0.1,0.3-0.2,0.4-0.3,0.6
				c-0.6,1-0.5,1.9,0.3,2.8c0.7,0.8,1.4,1.6,2.5,1.8c0.3,0.1,0.7,0,0.9-0.1C204.3,64.4,204.6,64,205,63.5z M200.5,63.5
				c-0.3-0.4-0.5-0.7-0.7-1c-0.2-0.3-0.4-0.4-0.7-0.4c-1.7,0-3.3-0.6-4.7-1.6c-0.1-0.1-0.2-0.1-0.3-0.2c-0.1,0-0.1,0.1-0.2,0.1
				c0.2,0.8,0.4,1.6,0.6,2.4c0,0.2,0.3,0.4,0.5,0.4C196.8,63.7,198.6,63.8,200.5,63.5z M202.1,64.9c-0.4-0.3-0.7-0.6-1.1-0.8
				c-0.2-0.1-0.4-0.2-0.6-0.2c-1.3,0-2.6,0-3.8,0c-0.5,0-1-0.2-1.6-0.3c0.6,0.9,1.3,1.6,2.2,2.1c0.2,0.1,0.4,0.2,0.5,0.2
				C199.1,65.8,200.7,65.6,202.1,64.9z M202.6,57.4c0.9,1.3,1.9,2.3,3.2,3c0-1.4-0.5-2.5-1.2-3.5c-0.1-0.1-0.3-0.2-0.5-0.2
				C203.6,56.9,203.1,57.1,202.6,57.4z M194.9,60.3c0.1-1.9,1-3.4,2.1-4.8c-1.4,0.8-2.3,2-2.7,3.6C194.1,59.8,194.1,59.9,194.9,60.3
				z M198.7,66.2c1.6,0.4,3.2,0.1,4.7-0.9c-0.7-0.3-0.7-0.2-1.3,0C200.9,65.6,199.7,65.9,198.7,66.2z"/>
			<path class="st1" d="M204.2,56.3c-2.7,1.1-4.2,2.9-4.8,5.5c-0.8-0.1-1.5-0.2-2.3-0.3c0.6-2.9,2.2-5.1,4.7-6.4
				c0.1-0.1,0.3-0.1,0.4,0C202.8,55.4,203.5,55.8,204.2,56.3z"/>
			<path class="st1" d="M201.5,54.8c-2.5,1.6-4,3.7-4.7,6.6c-0.5-0.2-0.9-0.4-1.3-0.7c-0.1-0.1-0.2-0.3-0.2-0.5
				c0-1.2,0.5-2.4,1.1-3.4c0.4-0.6,0.9-1.2,1.5-1.7c0.6-0.6,1.5-0.5,2.3-0.6C200.6,54.6,201,54.7,201.5,54.8z"/>
			<path class="st1" d="M202.3,57.5c0.9,1.4,2,2.4,3.3,3.1c0.1,0.1,0.2,0.2,0.1,0.3c-0.2,0.7-0.3,1.3-0.5,2c0,0.1-0.3,0.2-0.4,0.2
				c-1.8-0.7-3.1-1.9-3.9-3.6c-0.1-0.1,0-0.4,0-0.5C201.4,58.5,201.8,58.1,202.3,57.5z"/>
			<path class="st1" d="M205,63.5c-0.4,0.4-0.7,0.9-1,1.2c-0.2,0.2-0.6,0.2-0.9,0.1c-1.1-0.2-1.8-1-2.5-1.8
				c-0.8-0.9-0.9-1.8-0.3-2.8c0.1-0.2,0.2-0.4,0.3-0.6C201.5,61.5,202.9,62.8,205,63.5z"/>
			<path class="st1" d="M200.5,63.5c-1.9,0.3-3.7,0.2-5.5-0.3c-0.2-0.1-0.4-0.2-0.5-0.4c-0.2-0.8-0.4-1.6-0.6-2.4
				c0.1,0,0.1-0.1,0.2-0.1c0.1,0.1,0.2,0.1,0.3,0.2c1.4,1.1,2.9,1.6,4.7,1.6c0.3,0,0.5,0.1,0.7,0.4C200,62.8,200.2,63.1,200.5,63.5z
				"/>
			<path class="st1" d="M202.1,64.9c-1.4,0.7-2.9,0.9-4.5,0.9c-0.2,0-0.4-0.1-0.5-0.2c-0.9-0.5-1.6-1.2-2.2-2.1
				c0.6,0.1,1.1,0.3,1.6,0.3c1.3,0,2.6,0,3.8,0c0.2,0,0.5,0.1,0.6,0.2C201.4,64.3,201.7,64.6,202.1,64.9z"/>
			<path class="st1" d="M202.6,57.4c0.5-0.2,1-0.5,1.5-0.7c0.1,0,0.4,0.1,0.5,0.2c0.8,1,1.2,2.1,1.2,3.5
				C204.5,59.6,203.5,58.6,202.6,57.4z"/>
			<path class="st1" d="M194.9,60.3c-0.8-0.4-0.8-0.5-0.6-1.2c0.4-1.6,1.3-2.8,2.7-3.6C195.9,56.9,195,58.4,194.9,60.3z"/>
			<path class="st1" d="M198.7,66.2c1.1-0.3,2.2-0.6,3.4-1c0.6-0.2,0.6-0.2,1.3,0C201.8,66.3,200.3,66.6,198.7,66.2z"/>
		</g>
	</g>
	<g>
		<g>
			<polygon class="st2" points="161.7,50.1 162.4,54.2 158.7,52.3 154.9,54.2 155.6,50.1 152.6,47.1 156.8,46.5 158.7,42.8 
				160.5,46.5 164.7,47.1 			"/>
		</g>
	</g>
</g>
</svg>
