<?xml version="1.0" encoding="utf-8"?>
<!-- Generator: Adobe Illustrator 24.0.0, SVG Export Plug-In . SVG Version: 6.00 Build 0)  -->
<svg version="1.1" id="Layer_1" xmlns="http://www.w3.org/2000/svg" xmlns:xlink="http://www.w3.org/1999/xlink" x="0px" y="0px"
	 viewBox="0 0 356 200" style="enable-background:new 0 0 356 200;" xml:space="preserve">
<style type="text/css">
	.st0{fill:#F9B72C;}
</style>
<g>
	<g>
		<path d="M100.8,101.8c0.6,0.6,1,1.5,1,2.5v15.8c0,1.1-0.4,1.9-1.1,2.5c-4.6,3.8-10.1,5.8-16.2,5.8c-4.7,0-9-1.2-13-3.5
			c-3.9-2.3-7-5.5-9.2-9.6c-2.3-4.1-3.4-8.6-3.4-13.5s1.1-9.3,3.4-13.4c2.3-4,5.3-7.2,9.2-9.6s8.2-3.5,13-3.5c3.4,0,6.3,0.4,8.7,1.3
			c2.5,0.9,4.9,2.3,7.5,4.4c0.5,0.4,0.9,0.8,1.1,1.2c0.2,0.4,0.3,0.9,0.3,1.5c0,0.9-0.3,1.6-1,2.2c-0.6,0.6-1.4,0.9-2.3,0.9
			c-0.8,0-1.5-0.3-2.3-0.9c-1.8-1.5-3.6-2.7-5.3-3.3c-1.7-0.7-4-1-6.7-1c-3.4,0-6.6,0.9-9.5,2.7c-2.9,1.8-5.2,4.3-6.9,7.4
			c-1.7,3.1-2.6,6.5-2.6,10.2s0.9,7.1,2.6,10.2s4,5.5,6.9,7.4c2.9,1.8,6.1,2.7,9.5,2.7c3.7,0,7.3-1.1,10.7-3.3V107H86
			c-1,0-1.8-0.3-2.5-0.9c-0.6-0.6-1-1.3-1-2.2c0-0.9,0.3-1.6,1-2.2c0.6-0.6,1.5-0.9,2.5-0.9h12.4
			C99.4,100.9,100.2,101.2,100.8,101.8z"/>
		<path d="M220.7,76.9c0.6,0.6,0.9,1.4,0.9,2.5v30.2c0,3.4-0.8,6.6-2.4,9.4c-1.6,2.8-3.8,5-6.6,6.6s-5.8,2.4-9.2,2.4
			s-6.5-0.8-9.3-2.4s-5-3.8-6.6-6.6c-1.6-2.8-2.4-5.9-2.4-9.4c0-3.4,0.7-6.6,2.2-9.4s3.5-5,6.1-6.6s5.5-2.4,8.7-2.4
			c2.6,0,4.9,0.5,7.2,1.6c2.2,1.1,4.1,2.5,5.6,4.4V79.3c0-1,0.3-1.8,1-2.5c0.6-0.6,1.4-0.9,2.4-0.9C219.2,75.9,220,76.2,220.7,76.9z
			 M209.3,120.4c1.8-1.1,3.2-2.6,4.2-4.5s1.5-4,1.5-6.4c0-2.3-0.5-4.5-1.5-6.3c-1-1.9-2.4-3.4-4.2-4.4c-1.8-1.1-3.8-1.6-6-1.6
			s-4.2,0.5-6,1.6s-3.2,2.6-4.2,4.4c-1,1.9-1.6,4-1.6,6.3s0.5,4.5,1.6,6.4c1,1.9,2.5,3.4,4.2,4.5c1.8,1.1,3.8,1.6,6,1.6
			C205.6,122,207.6,121.5,209.3,120.4z"/>
	</g>
	<g>
		<path class="st0" d="M292,97.7l-29.4-29.4c-2.2-2.2-5.9-2.2-8.1,0l-9.6,9.6c0.2,0.1,0.3,0.2,0.5,0.4c0.8,0.8,1.2,1.8,1.2,3
			c0,1.1-0.4,2.1-1.2,3c-0.8,0.8-1.8,1.2-3,1.2s-2.1-0.4-3-1.2c-0.1-0.1-0.3-0.3-0.4-0.5l-14,14c-2.2,2.2-2.2,5.9,0,8.1l14.1,14.1
			V94.4c0-1,0.3-1.8,0.9-2.4c0.6-0.6,1.4-0.9,2.3-0.9c1,0,1.8,0.3,2.4,0.9c0.6,0.6,0.9,1.4,0.9,2.4v28.3c0,0.9-0.3,1.7-0.9,2.3
			c-0.1,0.1-0.2,0.2-0.3,0.3l10,10c2.2,2.2,5.9,2.2,8.1,0l15.5-15.5v-12.7c0-3.4-0.9-6-2.8-7.8c-1.8-1.8-4.3-2.6-7.3-2.6
			c-1.8,0-3.4,0.4-4.9,1.1s-2.6,1.7-3.4,2.9c-0.8,1.2-1.2,2.6-1.2,4.1v17.9c0,0.9-0.3,1.7-0.9,2.3c-0.6,0.6-1.4,0.9-2.4,0.9
			c-0.9,0-1.7-0.3-2.3-0.9s-0.9-1.4-0.9-2.3V94.4c0-1,0.3-1.8,0.9-2.4c0.6-0.6,1.4-0.9,2.3-0.9c1,0,1.8,0.3,2.4,0.9s0.9,1.4,0.9,2.4
			v0.7c1.4-1.4,3-2.4,4.8-3.1c1.9-0.7,3.9-1.1,6-1.1c2.9,0,5.6,0.6,7.9,1.9s4.2,3.1,5.5,5.6c1.3,2.4,2,5.4,2,8.8v6.2l7.4-7.4
			C294.3,103.6,294.3,100,292,97.7z"/>
	</g>
	<circle cx="123.6" cy="108.6" r="19.4"/>
	<circle cx="163.3" cy="108.9" r="19.4"/>
	<g>
		<path d="M141,132.3h0.5v6.5h3.7l-0.1,0.5H141V132.3z"/>
		<path d="M144.6,134.3c0.3-0.8,0.4-1.9,0.4-2.4h0.5c0,0.7-0.3,1.9-0.5,2.4H144.6z"/>
		<path d="M149.6,138.3c0,0.4,0,0.8,0.1,0.9h-0.5c0-0.1-0.1-0.3-0.1-0.8c-0.2,0.4-0.6,0.9-1.6,0.9c-1.2,0-1.6-0.7-1.6-1.5
			c0-1.1,0.8-1.6,2.3-1.6c0.4,0,0.7,0,0.9,0v-0.5c0-0.5-0.1-1.2-1.3-1.2c-1,0-1.2,0.5-1.3,0.9H146c0.1-0.5,0.4-1.4,1.8-1.4
			c1.1,0,1.8,0.5,1.8,1.6V138.3z M149.1,136.7c-0.2,0-0.6,0-1,0c-1.1,0-1.8,0.3-1.8,1.1c0,0.6,0.4,1.1,1.1,1.1c1.4,0,1.6-0.9,1.6-2
			L149.1,136.7L149.1,136.7z"/>
		<path d="M151.2,137.8c0.2,0.6,0.6,1,1.4,1c0.9,0,1.2-0.4,1.2-1s-0.2-0.8-1.4-1.1c-1.3-0.3-1.6-0.7-1.6-1.3c0-0.7,0.5-1.3,1.6-1.3
			s1.7,0.7,1.7,1.4h-0.5c-0.1-0.4-0.4-0.9-1.3-0.9c-0.9,0-1.1,0.4-1.1,0.8c0,0.5,0.2,0.7,1.2,0.9c1.4,0.3,1.7,0.8,1.7,1.5
			c0,0.9-0.7,1.5-1.8,1.5s-1.8-0.6-1.9-1.5L151.2,137.8L151.2,137.8z"/>
		<path d="M155.7,137.8c0.2,0.6,0.6,1,1.4,1c0.9,0,1.2-0.4,1.2-1s-0.2-0.8-1.4-1.1c-1.3-0.3-1.6-0.7-1.6-1.3c0-0.7,0.5-1.3,1.6-1.3
			s1.7,0.7,1.7,1.4h-0.5c-0.1-0.4-0.4-0.9-1.3-0.9c-0.9,0-1.1,0.4-1.1,0.8c0,0.5,0.2,0.7,1.2,0.9c1.4,0.3,1.7,0.8,1.7,1.5
			c0,0.9-0.7,1.5-1.8,1.5s-1.8-0.6-1.9-1.5L155.7,137.8L155.7,137.8z"/>
		<path d="M163.7,137.8c0,0.5,0,1.3,0,1.4h-0.5c0-0.1,0-0.5,0-0.9c-0.2,0.6-0.7,1-1.6,1c-0.7,0-1.6-0.3-1.6-1.8v-3.3h0.5v3.2
			c0,0.7,0.2,1.4,1.2,1.4c1.1,0,1.5-0.6,1.5-2v-2.6h0.5L163.7,137.8L163.7,137.8z"/>
		<path d="M165.3,135.6c0-0.8,0-1.2,0-1.4h0.5c0,0.2,0,0.5,0,1.1c0.3-0.7,0.9-1.2,1.7-1.2v0.5c-1,0.1-1.7,0.8-1.7,2v2.6h-0.5V135.6z
			"/>
		<path d="M171.8,138.3c0,0.4,0,0.8,0.1,0.9h-0.5c0-0.1-0.1-0.3-0.1-0.8c-0.2,0.4-0.6,0.9-1.6,0.9c-1.2,0-1.6-0.7-1.6-1.5
			c0-1.1,0.8-1.6,2.3-1.6c0.4,0,0.7,0,0.9,0v-0.5c0-0.5-0.1-1.2-1.3-1.2c-1,0-1.2,0.5-1.3,0.9h-0.5c0.1-0.5,0.4-1.4,1.8-1.4
			c1.1,0,1.8,0.5,1.8,1.6L171.8,138.3L171.8,138.3z M171.3,136.7c-0.2,0-0.6,0-1,0c-1.1,0-1.8,0.3-1.8,1.1c0,0.6,0.4,1.1,1.1,1.1
			c1.4,0,1.6-0.9,1.6-2L171.3,136.7L171.3,136.7z"/>
		<path d="M173.4,135.5c0-0.4,0-0.9,0-1.3h0.5c0,0.2,0,0.8,0,0.9c0.2-0.5,0.6-1.1,1.6-1.1c0.9,0,1.7,0.5,1.7,1.9v3.2h-0.5V136
			c0-0.9-0.4-1.5-1.2-1.5c-1.2,0-1.6,1-1.6,2.1v2.5h-0.5V135.5z"/>
		<path d="M182.5,137.7c-0.2,0.9-0.8,1.6-1.9,1.6c-1.2,0-2.1-0.9-2.1-2.6c0-1.4,0.7-2.6,2.2-2.6c1.3,0,1.8,0.9,1.9,1.6H182
			c-0.1-0.6-0.5-1.1-1.4-1.1c-1.1,0-1.6,0.9-1.6,2.1c0,1.2,0.6,2.1,1.6,2.1c0.7,0,1.2-0.4,1.4-1.1H182.5z"/>
		<path d="M183.8,136.8c0,1.3,0.7,2.1,1.6,2.1c0.9,0,1.3-0.5,1.4-0.9h0.5c-0.2,0.7-0.7,1.4-2,1.4c-1.5,0-2.1-1.3-2.1-2.6
			c0-1.4,0.7-2.6,2.2-2.6s2,1.3,2,2.3c0,0.1,0,0.3,0,0.4L183.8,136.8L183.8,136.8z M187,136.3c0-1-0.5-1.8-1.5-1.8s-1.5,0.7-1.6,1.8
			H187z"/>
		<path d="M195.1,131.9v5.9c0,0.5,0,0.9,0,1.4h-0.5c0-0.1,0-0.6,0-0.8c-0.2,0.6-0.8,1-1.7,1c-1.3,0-2.1-1.1-2.1-2.5
			c0-1.5,0.8-2.7,2.2-2.7c1,0,1.4,0.4,1.5,0.7v-3L195.1,131.9L195.1,131.9z M191.4,136.8c0,1.4,0.7,2.1,1.6,2.1
			c1.3,0,1.7-0.9,1.7-2.3c0-1.3-0.3-2-1.6-2C192.1,134.6,191.4,135.4,191.4,136.8z"/>
		<path d="M200.4,137.8c0,0.5,0,1.3,0,1.4H200c0-0.1,0-0.5,0-0.9c-0.2,0.6-0.7,1-1.6,1c-0.7,0-1.6-0.3-1.6-1.8v-3.3h0.5v3.2
			c0,0.7,0.2,1.4,1.2,1.4c1.1,0,1.5-0.6,1.5-2v-2.6h0.5L200.4,137.8L200.4,137.8z"/>
		<path d="M204.7,131.9h0.5v3.2c0.2-0.5,0.7-1,1.7-1c1.2,0,2,1,2,2.5c0,1.6-0.8,2.7-2.2,2.7c-0.8,0-1.3-0.3-1.6-0.9
			c0,0.3,0,0.6,0,0.8h-0.5c0-0.6,0-1.1,0-1.7v-5.6H204.7z M208.4,136.6c0-1.2-0.6-2-1.6-2c-1.2,0-1.7,0.8-1.7,2.1
			c0,1.2,0.4,2.1,1.6,2.1C207.7,138.9,208.4,138,208.4,136.6z"/>
		<path d="M210.2,131.9h0.5v1h-0.5V131.9z M210.2,134.2h0.5v5h-0.5V134.2z"/>
		<path d="M212.4,136.8c0,1.3,0.7,2.1,1.6,2.1c0.9,0,1.3-0.5,1.4-0.9h0.5c-0.2,0.7-0.7,1.4-2,1.4c-1.5,0-2.1-1.3-2.1-2.6
			c0-1.4,0.7-2.6,2.2-2.6s2,1.3,2,2.3c0,0.1,0,0.3,0,0.4L212.4,136.8L212.4,136.8z M215.5,136.3c0-1-0.5-1.8-1.5-1.8
			s-1.5,0.7-1.6,1.8H215.5z"/>
		<path d="M217.3,135.5c0-0.4,0-0.9,0-1.3h0.5c0,0.2,0,0.8,0,0.9c0.2-0.5,0.6-1.1,1.6-1.1c0.9,0,1.7,0.5,1.7,1.9v3.2h-0.5V136
			c0-0.9-0.4-1.5-1.2-1.5c-1.2,0-1.6,1-1.6,2.1v2.5h-0.5V135.5z"/>
		<path d="M224.9,136.4v0.5h-2.5v-0.5H224.9z"/>
		<path d="M226.5,136.8c0,1.3,0.7,2.1,1.6,2.1c0.9,0,1.3-0.5,1.4-0.9h0.5c-0.2,0.7-0.7,1.4-2,1.4c-1.5,0-2.1-1.3-2.1-2.6
			c0-1.4,0.7-2.6,2.2-2.6s2,1.3,2,2.3c0,0.1,0,0.3,0,0.4L226.5,136.8L226.5,136.8z M229.6,136.3c0-1-0.5-1.8-1.5-1.8
			s-1.5,0.7-1.6,1.8H229.6z M228.4,131.9l1.1,1.5h-0.6l-0.8-1.2l-0.8,1.2h-0.6l1.1-1.5H228.4z"/>
		<path d="M230.7,134.2h0.9v-1.5h0.5v1.5h1.2v0.5h-1.2v3.2c0,0.6,0.1,0.9,0.6,0.9c0.1,0,0.4,0,0.5-0.1v0.4c-0.2,0.1-0.4,0.1-0.6,0.1
			c-0.6,0-1-0.3-1-1.1v-3.5h-0.9V134.2z"/>
		<path d="M234.2,135.6c0-0.8,0-1.2,0-1.4h0.5c0,0.2,0,0.5,0,1.1c0.3-0.7,0.9-1.2,1.7-1.2v0.5c-1,0.1-1.7,0.8-1.7,2v2.6h-0.5V135.6z
			"/>
		<path d="M237.5,136.8c0,1.3,0.7,2.1,1.6,2.1c0.9,0,1.3-0.5,1.4-0.9h0.5c-0.2,0.7-0.7,1.4-2,1.4c-1.5,0-2.1-1.3-2.1-2.6
			c0-1.4,0.7-2.6,2.2-2.6s2,1.3,2,2.3c0,0.1,0,0.3,0,0.4L237.5,136.8L237.5,136.8z M240.6,136.3c0-1-0.5-1.8-1.5-1.8
			s-1.5,0.7-1.6,1.8H240.6z"/>
	</g>
</g>
<g>
	<path d="M286.6,72.9h-1.4v-0.3h3.1v0.3h-1.4v3.9h-0.3L286.6,72.9L286.6,72.9z"/>
	<path d="M292.6,74.9c0-0.8,0-1.6,0-2l0,0c-0.2,0.6-1,2.6-1.5,3.9h-0.3c-0.4-1-1.3-3.3-1.5-3.9l0,0c0,0.5,0,1.4,0,2.2v1.8H289v-4.2
		h0.5c0.6,1.4,1.3,3.3,1.4,3.8l0,0c0.1-0.3,0.9-2.4,1.5-3.8h0.5v4.2h-0.3V74.9z"/>
</g>
</svg>
