<?xml version="1.0" encoding="utf-8"?>
<!-- Generator: Adobe Illustrator 24.0.0, SVG Export Plug-In . SVG Version: 6.00 Build 0)  -->
<svg version="1.1" id="Layer_1" xmlns="http://www.w3.org/2000/svg" xmlns:xlink="http://www.w3.org/1999/xlink" x="0px" y="0px"
	 viewBox="0 0 356 200" style="enable-background:new 0 0 356 200;" xml:space="preserve">
<style type="text/css">
	.st0{fill:#FFFFFF;stroke:#231F20;stroke-miterlimit:10;}
	.st1{fill:url(#SVGID_1_);}
	.st2{fill:url(#SVGID_2_);}
	.st3{fill:#1B75BB;}
	.st4{fill:#ED7823;}
	.st5{fill:#FFFFFF;}
	.st6{opacity:0.11;fill:#FFFFFF;stroke:#231F20;stroke-miterlimit:10;enable-background:new    ;}
</style>
<path class="st0" d="M161.3,75.6"/>
<g>
	<linearGradient id="SVGID_1_" gradientUnits="userSpaceOnUse" x1="119.202" y1="61.2999" x2="201.2409" y2="61.2999">
		<stop  offset="0" style="stop-color:#25A9E0"/>
		<stop  offset="1" style="stop-color:#1B75BB"/>
	</linearGradient>
	<path class="st1" d="M123.6,98.2c-0.8,0-1.4-0.5-1.7-1.2c-1.5-4.5-2.4-9.2-2.6-13.9c-1.8-30.4,21.4-56.7,51.9-58.6
		c10.1-0.6,20.2,1.5,29.1,6.2c0.9,0.5,1.2,1.5,0.7,2.4s-1.5,1.2-2.4,0.7c-8.3-4.4-17.7-6.4-27.2-5.8c-13.8,0.8-26.4,7-35.6,17.3
		c-9.3,10.4-13.8,23.7-13,37.5c0.3,4.4,1.1,8.8,2.5,13c0.3,0.9-0.2,1.9-1.1,2.3C123.9,98.2,123.8,98.2,123.6,98.2z"/>
	<linearGradient id="SVGID_2_" gradientUnits="userSpaceOnUse" x1="119.7688" y1="88.0007" x2="212.8" y2="88.0007">
		<stop  offset="0" style="stop-color:#25A9E0"/>
		<stop  offset="1" style="stop-color:#1B75BB"/>
	</linearGradient>
	<path class="st2" d="M141.4,40c-17.9,13.2-26.2,36.8-19.1,59.2c8.9,28.2,39,43.8,67.2,34.9c0,0,9.8-7.5-4.3-20
		c0,0-18.6-12.5-29.2-17.4c0,0-16.3-9-19.5-20.1c0,0,5.7,8.9,26,17.2s41.4,15.3,45.8,29.4l4.5-4.1c0,0-0.4-7.1-15.1-16.2
		c0,0-17.5-7.5-27.5-11.3c0,0-48.3-12.9-29-49.8l1-2.4L141.4,40z"/>
</g>
<g>
	<g>
		<path class="st3" d="M99.3,155c-0.1,0.1-0.3,0.3-0.5,0.4c-0.2,0.1-0.4,0.3-0.7,0.4c-0.3,0.1-0.6,0.2-1,0.3s-0.8,0.1-1.3,0.1
			c-0.6,0-1.1-0.1-1.6-0.3s-0.9-0.5-1.2-0.8s-0.6-0.8-0.8-1.3c-0.2-0.5-0.3-1.1-0.3-1.8v-0.5c0-0.7,0.1-1.3,0.3-1.8
			c0.2-0.5,0.4-1,0.8-1.3c0.3-0.4,0.7-0.6,1.2-0.8s0.9-0.3,1.5-0.3s1.1,0.1,1.5,0.2c0.4,0.1,0.8,0.3,1.1,0.6
			c0.3,0.3,0.5,0.6,0.7,0.9c0.1,0.4,0.2,0.8,0.3,1.2h-2c0-0.2-0.1-0.4-0.1-0.6c-0.1-0.2-0.2-0.3-0.3-0.4c-0.1-0.1-0.3-0.2-0.4-0.3
			c-0.2-0.1-0.4-0.1-0.6-0.1s-0.5,0.1-0.7,0.2s-0.4,0.3-0.5,0.5s-0.3,0.5-0.3,0.8c-0.1,0.3-0.1,0.7-0.1,1.1v0.5
			c0,0.9,0.1,1.5,0.4,1.9s0.8,0.6,1.4,0.6c0.2,0,0.3,0,0.4,0s0.2-0.1,0.3-0.1s0.2-0.1,0.3-0.1c0.1,0,0.1-0.1,0.2-0.1v-1.3h-1.4v-1.4
			h3.5v3.6H99.3z"/>
		<path class="st3" d="M102.6,154.4h3.6v1.6h-5.7v-8.6h2.1V154.4z"/>
		<path class="st3" d="M114.1,151.9c0,0.7-0.1,1.3-0.3,1.8c-0.2,0.5-0.4,1-0.8,1.3s-0.7,0.6-1.2,0.8s-1,0.3-1.5,0.3
			c-0.6,0-1.1-0.1-1.5-0.3c-0.5-0.2-0.9-0.5-1.2-0.8s-0.6-0.8-0.8-1.3c-0.2-0.5-0.3-1.1-0.3-1.8v-0.4c0-0.7,0.1-1.3,0.3-1.8
			c0.2-0.5,0.4-1,0.8-1.3s0.7-0.6,1.2-0.8s1-0.3,1.5-0.3s1.1,0.1,1.5,0.3c0.5,0.2,0.9,0.5,1.2,0.8c0.3,0.4,0.6,0.8,0.8,1.3
			c0.2,0.5,0.3,1.1,0.3,1.8V151.9z M111.9,151.5c0-0.9-0.1-1.5-0.4-2c-0.3-0.4-0.7-0.7-1.2-0.7c-0.6,0-1,0.2-1.2,0.7
			c-0.3,0.4-0.4,1.1-0.4,2v0.4c0,0.8,0.1,1.5,0.4,1.9c0.3,0.5,0.7,0.7,1.3,0.7c0.5,0,0.9-0.2,1.2-0.7c0.3-0.5,0.4-1.1,0.4-2v-0.3
			H111.9z"/>
		<path class="st3" d="M115.1,156v-8.6h3.1c0.5,0,1,0,1.4,0.1s0.8,0.2,1.1,0.4c0.3,0.2,0.5,0.4,0.7,0.7s0.2,0.6,0.2,1.1
			c0,0.2,0,0.4-0.1,0.6c0,0.2-0.1,0.4-0.2,0.5c-0.1,0.2-0.2,0.3-0.4,0.4c-0.2,0.1-0.3,0.2-0.6,0.3c0.3,0.1,0.5,0.2,0.7,0.3
			s0.3,0.3,0.4,0.4c0.1,0.2,0.2,0.3,0.2,0.5s0.1,0.4,0.1,0.6c0,0.9-0.3,1.5-0.8,1.9s-1.4,0.6-2.4,0.6h-3.4V156z M117.2,151h1.1
			c0.5,0,0.8-0.1,1-0.2c0.2-0.2,0.3-0.4,0.3-0.7c0-0.4-0.1-0.6-0.3-0.8c-0.2-0.2-0.5-0.2-1-0.2h-1L117.2,151L117.2,151z
			 M117.2,152.4v2.1h1.4c0.2,0,0.4,0,0.5-0.1s0.3-0.1,0.4-0.2c0.1-0.1,0.2-0.2,0.2-0.3s0.1-0.2,0.1-0.4s0-0.3-0.1-0.5
			c0-0.1-0.1-0.2-0.2-0.3s-0.2-0.2-0.3-0.2c-0.1-0.1-0.3-0.1-0.5-0.1H117.2z"/>
		<path class="st3" d="M127.9,154.4H125l-0.5,1.6h-2.2l3.2-8.6h2l3.2,8.6h-2.2L127.9,154.4z M125.5,152.8h1.9l-0.9-3L125.5,152.8z"
			/>
		<path class="st3" d="M133.3,154.4h3.6v1.6h-5.7v-8.6h2.1L133.3,154.4L133.3,154.4z"/>
		<path class="st3" d="M147.2,149h-2.6v7h-2.1v-7H140v-1.6h7.2V149z"/>
		<path class="st3" d="M153.5,152.4h-3.3v2.1h3.9v1.6h-5.9v-8.6h6v1.6h-3.9v1.8h3.3v1.5H153.5z"/>
		<path class="st3" d="M161.9,153.1c0,0.5-0.1,0.9-0.3,1.2c-0.2,0.4-0.4,0.7-0.7,1s-0.7,0.5-1.1,0.6c-0.4,0.1-0.9,0.2-1.4,0.2
			c-0.6,0-1.1-0.1-1.5-0.3c-0.5-0.2-0.8-0.5-1.1-0.8c-0.3-0.4-0.6-0.8-0.7-1.3c-0.2-0.5-0.2-1.1-0.2-1.8v-0.5c0-0.6,0.1-1.2,0.3-1.8
			c0.2-0.5,0.4-1,0.7-1.3c0.3-0.4,0.7-0.6,1.1-0.8c0.4-0.2,0.9-0.3,1.5-0.3s1.1,0.1,1.5,0.2c0.4,0.2,0.8,0.4,1.1,0.6
			c0.3,0.3,0.5,0.6,0.7,1s0.3,0.8,0.3,1.2H160c0-0.2,0-0.5-0.1-0.6c-0.1-0.2-0.1-0.3-0.3-0.5c-0.1-0.1-0.3-0.2-0.5-0.3
			s-0.4-0.1-0.7-0.1s-0.5,0-0.7,0.1s-0.3,0.2-0.5,0.5c-0.1,0.2-0.2,0.5-0.3,0.8s-0.1,0.7-0.1,1.2v0.5c0,0.5,0,0.8,0.1,1.2
			c0.1,0.3,0.1,0.6,0.3,0.8c0.1,0.2,0.3,0.4,0.5,0.5s0.4,0.1,0.7,0.1c0.5,0,0.8-0.1,1.1-0.3s0.4-0.6,0.4-1.1h2V153.1z"/>
		<path class="st3" d="M170.1,156H168v-3.6h-3v3.6h-2.1v-8.6h2.1v3.4h3.1v-3.4h2.1v8.6H170.1z"/>
		<path class="st3" d="M178.6,156h-2.1l-3.1-5.4v5.4h-2.1v-8.6h2.1l3.1,5.4v-5.4h2.1V156z"/>
		<path class="st3" d="M182.2,156h-2.1v-8.6h2.1V156z"/>
		<path class="st3" d="M190.9,151.9c0,0.8-0.1,1.5-0.4,2.1c-0.3,0.6-0.6,1.1-1.1,1.4l1.4,1.1l-1.3,1.1l-1.9-1.5c-0.2,0-0.3,0-0.5,0
			c-0.6,0-1.1-0.1-1.5-0.3c-0.5-0.2-0.9-0.5-1.2-0.8c-0.3-0.4-0.6-0.8-0.8-1.3s-0.3-1.1-0.3-1.8v-0.4c0-0.7,0.1-1.3,0.3-1.8
			s0.4-1,0.8-1.3c0.3-0.4,0.7-0.6,1.2-0.8s1-0.3,1.5-0.3s1.1,0.1,1.5,0.3c0.5,0.2,0.9,0.5,1.2,0.8c0.3,0.4,0.6,0.8,0.8,1.3
			s0.3,1.1,0.3,1.8V151.9z M188.8,151.5c0-0.9-0.1-1.5-0.4-2c-0.3-0.4-0.7-0.7-1.2-0.7c-0.6,0-1,0.2-1.2,0.7c-0.3,0.4-0.4,1.1-0.4,2
			v0.4c0,0.8,0.1,1.5,0.4,2c0.3,0.5,0.7,0.7,1.3,0.7c0.5,0,0.9-0.2,1.2-0.7s0.4-1.1,0.4-2v-0.4H188.8z"/>
		<path class="st3" d="M198.8,147.4v5.6c0,0.5-0.1,1-0.2,1.3c-0.2,0.4-0.4,0.7-0.7,1s-0.7,0.5-1.1,0.6c-0.4,0.1-0.9,0.2-1.4,0.2
			s-1-0.1-1.4-0.2c-0.4-0.1-0.8-0.3-1.1-0.6s-0.5-0.6-0.7-1s-0.2-0.8-0.2-1.3v-5.6h2.1v5.6c0,0.5,0.1,0.9,0.3,1.2s0.6,0.4,1,0.4
			s0.8-0.1,1-0.4c0.2-0.2,0.3-0.6,0.3-1.2v-5.6H198.8z"/>
		<path class="st3" d="M205.4,152.4h-3.3v2.1h3.9v1.6h-5.9v-8.6h6v1.6h-3.9v1.8h3.3v1.5H205.4z"/>
		<path class="st3" d="M214.3,153.7c0-0.1,0-0.3-0.1-0.4c0-0.1-0.1-0.2-0.2-0.3c-0.1-0.1-0.3-0.2-0.5-0.3s-0.5-0.2-0.8-0.3
			c-0.4-0.1-0.7-0.3-1.1-0.4c-0.4-0.2-0.7-0.3-0.9-0.6c-0.3-0.2-0.5-0.5-0.7-0.8s-0.2-0.6-0.2-1s0.1-0.7,0.2-1
			c0.2-0.3,0.4-0.6,0.7-0.8s0.6-0.4,1.1-0.5c0.4-0.1,0.8-0.2,1.3-0.2s0.9,0.1,1.3,0.2c0.4,0.1,0.7,0.3,1,0.5s0.5,0.5,0.7,0.8
			s0.2,0.7,0.2,1.1h-2.1c0-0.2,0-0.3-0.1-0.4c0-0.1-0.1-0.3-0.2-0.3c-0.1-0.1-0.2-0.2-0.4-0.2c-0.1-0.1-0.3-0.1-0.5-0.1
			s-0.4,0-0.5,0.1c-0.1,0-0.3,0.1-0.4,0.2c-0.1,0.1-0.2,0.2-0.2,0.3c-0.1,0.1-0.1,0.2-0.1,0.3s0,0.2,0.1,0.4
			c0.1,0.1,0.2,0.2,0.3,0.3s0.3,0.2,0.5,0.3s0.4,0.2,0.7,0.2c0.5,0.1,0.9,0.3,1.2,0.5c0.4,0.2,0.7,0.4,0.9,0.6
			c0.2,0.2,0.4,0.5,0.6,0.8c0.1,0.3,0.2,0.6,0.2,1s-0.1,0.7-0.2,1c-0.2,0.3-0.4,0.6-0.6,0.8c-0.3,0.2-0.6,0.4-1,0.5
			s-0.8,0.2-1.3,0.2c-0.3,0-0.6,0-0.9-0.1c-0.3,0-0.6-0.1-0.8-0.2c-0.3-0.1-0.5-0.2-0.7-0.4s-0.4-0.3-0.6-0.6
			c-0.2-0.2-0.3-0.5-0.4-0.7c-0.1-0.3-0.1-0.6-0.1-0.9h2.1c0,0.3,0,0.5,0.1,0.6c0.1,0.2,0.2,0.3,0.3,0.4c0.1,0.1,0.3,0.2,0.5,0.2
			s0.4,0.1,0.6,0.1c0.2,0,0.4,0,0.5-0.1c0.1,0,0.3-0.1,0.3-0.2c0.1-0.1,0.2-0.2,0.2-0.3C214.3,154,214.3,153.9,214.3,153.7z"/>
		<path class="st3" d="M222.8,152.4h-3.3v2.1h3.9v1.6h-5.9v-8.6h6v1.6h-3.9v1.8h3.3v1.5H222.8z"/>
		<path class="st3" d="M227.5,153h-1.1v3h-2.1v-8.6h3.4c0.5,0,0.9,0.1,1.4,0.2c0.4,0.1,0.7,0.3,1,0.5s0.5,0.5,0.7,0.8
			s0.2,0.7,0.2,1.1c0,0.3,0,0.6-0.1,0.9c-0.1,0.3-0.2,0.5-0.3,0.7s-0.3,0.4-0.5,0.5s-0.4,0.3-0.6,0.4l1.8,3.5v0.1H229L227.5,153z
			 M226.3,151.4h1.3c0.4,0,0.7-0.1,0.9-0.3s0.3-0.5,0.3-0.9s-0.1-0.7-0.3-0.9s-0.5-0.3-0.9-0.3h-1.3V151.4z"/>
		<path class="st3" d="M235.4,153.7l1.7-6.3h2.3l-2.9,8.6h-2.3l-2.9-8.6h2.3L235.4,153.7z"/>
		<path class="st3" d="M242.3,156h-2.1v-8.6h2.1V156z"/>
		<path class="st3" d="M250.7,153.1c0,0.5-0.1,0.9-0.3,1.2c-0.2,0.4-0.4,0.7-0.7,1s-0.7,0.5-1.1,0.6c-0.4,0.1-0.9,0.2-1.4,0.2
			c-0.6,0-1.1-0.1-1.5-0.3c-0.5-0.2-0.8-0.5-1.1-0.8c-0.3-0.4-0.6-0.8-0.7-1.3c-0.2-0.5-0.2-1.1-0.2-1.8v-0.5c0-0.6,0.1-1.2,0.3-1.8
			c0.2-0.5,0.4-1,0.7-1.3c0.3-0.4,0.7-0.6,1.1-0.8c0.4-0.2,0.9-0.3,1.5-0.3s1.1,0.1,1.5,0.2c0.4,0.2,0.8,0.4,1.1,0.6
			c0.3,0.3,0.5,0.6,0.7,1s0.3,0.8,0.3,1.2h-2.1c0-0.2,0-0.5-0.1-0.6c-0.1-0.2-0.1-0.3-0.3-0.5c-0.1-0.1-0.3-0.2-0.5-0.3
			s-0.4-0.1-0.7-0.1s-0.5,0-0.7,0.1s-0.3,0.2-0.5,0.5c-0.1,0.2-0.2,0.5-0.3,0.8s-0.1,0.7-0.1,1.2v0.5c0,0.5,0,0.8,0.1,1.2
			c0.1,0.3,0.1,0.6,0.3,0.8c0.1,0.2,0.3,0.4,0.5,0.5s0.4,0.1,0.7,0.1c0.5,0,0.8-0.1,1.1-0.3s0.4-0.6,0.4-1.1h2V153.1z"/>
		<path class="st3" d="M257.1,152.4h-3.3v2.1h3.9v1.6h-5.9v-8.6h6v1.6h-3.9v1.8h3.3v1.5H257.1z"/>
		<path class="st3" d="M263,153.7c0-0.1,0-0.3-0.1-0.4c0-0.1-0.1-0.2-0.2-0.3s-0.3-0.2-0.5-0.3s-0.5-0.2-0.8-0.3
			c-0.4-0.1-0.7-0.3-1.1-0.4c-0.4-0.2-0.7-0.3-0.9-0.6c-0.3-0.2-0.5-0.5-0.7-0.8s-0.2-0.6-0.2-1s0.1-0.7,0.2-1
			c0.2-0.3,0.4-0.6,0.7-0.8c0.3-0.2,0.6-0.4,1.1-0.5c0.4-0.1,0.8-0.2,1.3-0.2s0.9,0.1,1.3,0.2c0.4,0.1,0.7,0.3,1,0.5
			s0.5,0.5,0.7,0.8s0.2,0.7,0.2,1.1h-2c0-0.2,0-0.3-0.1-0.4c0-0.1-0.1-0.3-0.2-0.3c-0.1-0.1-0.2-0.2-0.4-0.2
			c-0.1-0.1-0.3-0.1-0.5-0.1s-0.4,0-0.5,0.1c-0.1,0-0.3,0.1-0.4,0.2c-0.1,0.1-0.2,0.2-0.2,0.3c-0.1,0.1-0.1,0.2-0.1,0.3
			s0,0.2,0.1,0.4c0.1,0.1,0.2,0.2,0.3,0.3c0.1,0.1,0.3,0.2,0.5,0.3s0.4,0.2,0.7,0.2c0.5,0.1,0.9,0.3,1.2,0.5
			c0.4,0.2,0.7,0.4,0.9,0.6c0.2,0.2,0.4,0.5,0.6,0.8c0.1,0.3,0.2,0.6,0.2,1s-0.1,0.7-0.2,1c-0.2,0.3-0.4,0.6-0.6,0.8
			c-0.3,0.2-0.6,0.4-1,0.5s-0.8,0.2-1.3,0.2c-0.3,0-0.6,0-0.9-0.1c-0.3,0-0.6-0.1-0.8-0.2c-0.3-0.1-0.5-0.2-0.7-0.4
			s-0.4-0.3-0.6-0.6c-0.2-0.2-0.3-0.5-0.4-0.7c-0.1-0.3-0.1-0.6-0.1-0.9h2.1c0,0.3,0,0.5,0.1,0.6c0.1,0.2,0.2,0.3,0.3,0.4
			c0.1,0.1,0.3,0.2,0.5,0.2s0.4,0.1,0.6,0.1s0.4,0,0.5-0.1c0.1,0,0.3-0.1,0.3-0.2c0.1-0.1,0.2-0.2,0.2-0.3
			C262.9,154,263,153.9,263,153.7z"/>
	</g>
</g>
<g>
	<rect x="127.6" y="160.9" class="st4" width="96.2" height="13.1"/>
	<g>
		<path class="st5" d="M137.1,168.5h2v0.9H136v-4.7h1.1V168.5z"/>
		<path class="st5" d="M139.5,164.9c0,0.1,0,0.2-0.1,0.3c0,0.1-0.1,0.2-0.1,0.3c-0.1,0.1-0.1,0.2-0.2,0.3c-0.1,0.1-0.1,0.2-0.2,0.2
			l-0.5-0.3c0-0.1,0.1-0.1,0.1-0.2c0-0.1,0.1-0.1,0.1-0.2s0-0.2,0.1-0.2c0-0.1,0-0.2,0-0.3v-0.5h0.8L139.5,164.9L139.5,164.9z"/>
		<path class="st5" d="M141.5,169.4c-0.3,0-0.5,0-0.8-0.1c-0.2-0.1-0.4-0.2-0.6-0.4c-0.2-0.2-0.3-0.3-0.4-0.5
			c-0.1-0.2-0.1-0.4-0.1-0.7v-0.1c0-0.3,0-0.5,0.1-0.7s0.2-0.4,0.3-0.6c0.1-0.2,0.3-0.3,0.5-0.4c0.2-0.1,0.5-0.1,0.7-0.1
			s0.5,0,0.7,0.1s0.4,0.2,0.5,0.3s0.2,0.3,0.3,0.5s0.1,0.4,0.1,0.7v0.4h-2.2c0,0.2,0.1,0.4,0.3,0.5c0.1,0.1,0.3,0.2,0.5,0.2
			c0.1,0,0.3,0,0.4-0.1c0.1-0.1,0.3-0.1,0.4-0.3l0.5,0.6c-0.1,0.1-0.1,0.2-0.2,0.2c-0.1,0.1-0.2,0.1-0.3,0.2
			c-0.1,0.1-0.2,0.1-0.4,0.1C141.9,169.4,141.7,169.4,141.5,169.4z M141.4,166.6c-0.1,0-0.2,0-0.2,0c-0.1,0-0.1,0.1-0.2,0.1
			c0,0.1-0.1,0.1-0.1,0.2c0,0.1,0,0.2-0.1,0.3h1.1v-0.1c0-0.2,0-0.3-0.1-0.4C141.7,166.7,141.6,166.6,141.4,166.6z"/>
		<path class="st5" d="M144.9,166.8l0.5-1h1.1l-0.9,1.7l1,1.8h-1.1l-0.6-1l-0.5,1h-1.1l1-1.8l-0.9-1.7h1.1L144.9,166.8z"/>
		<path class="st5" d="M150.1,167.6c0,0.3,0,0.5-0.1,0.7s-0.1,0.4-0.3,0.6c-0.1,0.2-0.3,0.3-0.4,0.4c-0.2,0.1-0.4,0.1-0.6,0.1
			c-0.2,0-0.3,0-0.5-0.1s-0.2-0.1-0.3-0.3v1.6h-1.1v-4.9h1v0.3c0.1-0.1,0.2-0.2,0.4-0.3c0.1-0.1,0.3-0.1,0.5-0.1s0.4,0,0.6,0.1
			c0.2,0.1,0.3,0.2,0.4,0.4c0.1,0.2,0.2,0.3,0.3,0.6C150.1,167.1,150.1,167.3,150.1,167.6L150.1,167.6z M149,167.6
			c0-0.1,0-0.3,0-0.4c0-0.1-0.1-0.2-0.1-0.3s-0.1-0.1-0.2-0.2c-0.1,0-0.2-0.1-0.3-0.1s-0.2,0-0.3,0.1c-0.1,0-0.1,0.1-0.2,0.2v1.4
			c0,0.1,0.1,0.2,0.2,0.2s0.2,0.1,0.3,0.1s0.2,0,0.3-0.1c0.1,0,0.1-0.1,0.2-0.2c0-0.1,0.1-0.2,0.1-0.3S149,167.8,149,167.6
			L149,167.6z"/>
		<path class="st5" d="M152.3,169.4c-0.3,0-0.5,0-0.8-0.1c-0.2-0.1-0.4-0.2-0.6-0.4c-0.2-0.2-0.3-0.3-0.4-0.5
			c-0.1-0.2-0.1-0.4-0.1-0.7v-0.1c0-0.3,0-0.5,0.1-0.7s0.2-0.4,0.3-0.6c0.1-0.2,0.3-0.3,0.5-0.4c0.2-0.1,0.5-0.1,0.7-0.1
			s0.5,0,0.7,0.1s0.4,0.2,0.5,0.3s0.2,0.3,0.3,0.5s0.1,0.4,0.1,0.7v0.4h-2.2c0,0.2,0.1,0.4,0.3,0.5c0.1,0.1,0.3,0.2,0.5,0.2
			c0.1,0,0.3,0,0.4-0.1c0.1-0.1,0.3-0.1,0.4-0.3l0.5,0.6c-0.1,0.1-0.1,0.2-0.2,0.2c-0.1,0.1-0.2,0.1-0.3,0.2
			c-0.1,0.1-0.2,0.1-0.4,0.1C152.6,169.4,152.5,169.4,152.3,169.4z M152.2,164.4h1.2l-0.9,1h-0.9L152.2,164.4z M152.2,166.6
			c-0.1,0-0.2,0-0.2,0c-0.1,0-0.1,0.1-0.2,0.1c0,0.1-0.1,0.1-0.1,0.2c0,0.1,0,0.2-0.1,0.3h1.1v-0.1c0-0.2,0-0.3-0.1-0.4
			C152.5,166.7,152.4,166.6,152.2,166.6z"/>
		<path class="st5" d="M156.3,166.8L156.3,166.8c-0.1,0-0.1,0-0.2,0s-0.1,0-0.1,0h-0.1c-0.2,0-0.3,0-0.4,0.1
			c-0.1,0.1-0.2,0.1-0.2,0.2v2.2h-1.1v-3.5h1v0.5c0.1-0.2,0.2-0.3,0.3-0.4c0.1-0.1,0.3-0.1,0.4-0.1c0.1,0,0.1,0,0.2,0
			c0.1,0,0.1,0,0.1,0L156.3,166.8z"/>
		<path class="st5" d="M156.7,164.9c0-0.1,0-0.1,0-0.2c0-0.1,0.1-0.1,0.1-0.2c0.1,0,0.1-0.1,0.2-0.1c0.1,0,0.2,0,0.2,0
			c0.1,0,0.2,0,0.2,0c0.1,0,0.1,0.1,0.2,0.1c0.1,0,0.1,0.1,0.1,0.2c0,0.1,0,0.1,0,0.2c0,0.1,0,0.1,0,0.2c0,0.1-0.1,0.1-0.1,0.2
			c-0.1,0-0.1,0.1-0.2,0.1c-0.1,0-0.2,0-0.2,0c-0.1,0-0.2,0-0.2,0c-0.1,0-0.1-0.1-0.2-0.1c-0.1,0-0.1-0.1-0.1-0.2
			C156.7,165.1,156.7,165,156.7,164.9z M157.9,169.4h-1.1v-3.5h1.1V169.4z"/>
		<path class="st5" d="M160.3,169.4c-0.3,0-0.5,0-0.8-0.1c-0.2-0.1-0.4-0.2-0.6-0.4c-0.2-0.2-0.3-0.3-0.4-0.5
			c-0.1-0.2-0.1-0.4-0.1-0.7v-0.1c0-0.3,0-0.5,0.1-0.7s0.2-0.4,0.3-0.6c0.1-0.2,0.3-0.3,0.5-0.4c0.2-0.1,0.5-0.1,0.7-0.1
			s0.5,0,0.7,0.1s0.4,0.2,0.5,0.3s0.2,0.3,0.3,0.5s0.1,0.4,0.1,0.7v0.4h-2.2c0,0.2,0.1,0.4,0.3,0.5c0.1,0.1,0.3,0.2,0.5,0.2
			c0.1,0,0.3,0,0.4-0.1c0.1-0.1,0.3-0.1,0.4-0.3l0.5,0.6c-0.1,0.1-0.1,0.2-0.2,0.2c-0.1,0.1-0.2,0.1-0.3,0.2
			c-0.1,0.1-0.2,0.1-0.4,0.1C160.6,169.4,160.4,169.4,160.3,169.4z M160.1,166.6c-0.1,0-0.2,0-0.2,0c-0.1,0-0.1,0.1-0.2,0.1
			c0,0.1-0.1,0.1-0.1,0.2c0,0.1,0,0.2-0.1,0.3h1.1v-0.1c0-0.2,0-0.3-0.1-0.4C160.4,166.7,160.3,166.6,160.1,166.6z"/>
		<path class="st5" d="M163.2,165.9v0.4c0.1-0.2,0.3-0.3,0.4-0.4c0.2-0.1,0.4-0.1,0.6-0.1c0.2,0,0.3,0,0.4,0.1
			c0.1,0,0.3,0.1,0.3,0.2c0.1,0.1,0.2,0.2,0.2,0.4c0.1,0.2,0.1,0.4,0.1,0.6v2.2h-1.1v-2.2c0-0.1,0-0.2,0-0.3s-0.1-0.1-0.1-0.2
			s-0.1-0.1-0.2-0.1c-0.1,0-0.1,0-0.2,0c-0.1,0-0.2,0-0.3,0.1c-0.1,0-0.1,0.1-0.2,0.2v2.5H162v-3.5h1.2V165.9z"/>
		<path class="st5" d="M167.4,168.6c0.2,0,0.3,0,0.4-0.1c0.1-0.1,0.1-0.2,0.1-0.3h1c0,0.2,0,0.4-0.1,0.5c-0.1,0.2-0.2,0.3-0.3,0.4
			c-0.1,0.1-0.3,0.2-0.5,0.3s-0.4,0.1-0.6,0.1c-0.3,0-0.5,0-0.7-0.1s-0.4-0.2-0.5-0.4s-0.2-0.3-0.3-0.6c-0.1-0.2-0.1-0.5-0.1-0.7
			v-0.1c0-0.3,0-0.5,0.1-0.7s0.2-0.4,0.3-0.6c0.1-0.2,0.3-0.3,0.5-0.4c0.2-0.1,0.4-0.1,0.7-0.1c0.2,0,0.4,0,0.6,0.1
			c0.2,0.1,0.3,0.2,0.5,0.3c0.1,0.1,0.2,0.3,0.3,0.4c0.1,0.2,0.1,0.4,0.1,0.6h-1c0-0.1,0-0.2,0-0.2c0-0.1,0-0.1-0.1-0.2
			c0-0.1-0.1-0.1-0.2-0.1c-0.1,0-0.1,0-0.2,0c-0.1,0-0.2,0-0.3,0.1s-0.1,0.1-0.2,0.2c0,0.1-0.1,0.2-0.1,0.3s0,0.2,0,0.4v0.1
			c0,0.1,0,0.3,0,0.4c0,0.1,0,0.2,0.1,0.3c0,0.1,0.1,0.2,0.2,0.2C167.2,168.6,167.3,168.6,167.4,168.6z"/>
		<path class="st5" d="M171.1,169.4c-0.3,0-0.5,0-0.8-0.1c-0.2-0.1-0.4-0.2-0.6-0.4c-0.2-0.2-0.3-0.3-0.4-0.5
			c-0.1-0.2-0.1-0.4-0.1-0.7v-0.1c0-0.3,0-0.5,0.1-0.7s0.2-0.4,0.3-0.6c0.1-0.2,0.3-0.3,0.5-0.4c0.2-0.1,0.5-0.1,0.7-0.1
			s0.5,0,0.7,0.1s0.4,0.2,0.5,0.3s0.2,0.3,0.3,0.5s0.1,0.4,0.1,0.7v0.4h-2.2c0,0.2,0.1,0.4,0.3,0.5c0.1,0.1,0.3,0.2,0.5,0.2
			c0.1,0,0.3,0,0.4-0.1c0.1-0.1,0.3-0.1,0.4-0.3l0.5,0.6c-0.1,0.1-0.1,0.2-0.2,0.2c-0.1,0.1-0.2,0.1-0.3,0.2
			c-0.1,0.1-0.2,0.1-0.4,0.1C171.4,169.4,171.2,169.4,171.1,169.4z M170.9,166.6c-0.1,0-0.2,0-0.2,0c-0.1,0-0.1,0.1-0.2,0.1
			c0,0.1-0.1,0.1-0.1,0.2c0,0.1,0,0.2-0.1,0.3h1.1v-0.1c0-0.2,0-0.3-0.1-0.4C171.3,166.7,171.1,166.6,170.9,166.6z"/>
		<path class="st5" d="M176.6,169.4c0,0,0-0.1-0.1-0.1c0-0.1,0-0.1,0-0.2c-0.1,0.1-0.2,0.2-0.3,0.3s-0.3,0.1-0.5,0.1s-0.3,0-0.5-0.1
			c-0.1-0.1-0.3-0.1-0.4-0.2c-0.1-0.1-0.2-0.2-0.3-0.3s-0.1-0.3-0.1-0.4c0-0.2,0-0.3,0.1-0.5c0.1-0.1,0.2-0.3,0.3-0.4
			c0.1-0.1,0.3-0.2,0.5-0.2c0.2-0.1,0.5-0.1,0.7-0.1h0.3V167c0-0.1,0-0.3-0.1-0.4c-0.1-0.1-0.2-0.1-0.3-0.1s-0.2,0-0.3,0.1
			s-0.1,0.2-0.1,0.3h-1.1c0-0.2,0-0.3,0.1-0.5c0.1-0.1,0.2-0.3,0.3-0.4c0.1-0.1,0.3-0.2,0.5-0.2c0.2-0.1,0.4-0.1,0.6-0.1
			c0.2,0,0.4,0,0.6,0.1c0.2,0.1,0.3,0.1,0.5,0.2s0.2,0.2,0.3,0.4s0.1,0.3,0.1,0.5v1.4c0,0.1,0,0.2,0,0.3s0,0.2,0,0.2
			c0,0.1,0,0.1,0,0.2c0,0,0,0.1,0.1,0.1v0.1h-0.9V169.4z M176.6,165.4h-0.9l-0.9-1h1.2L176.6,165.4z M175.9,168.6
			c0.1,0,0.2,0,0.3-0.1s0.2-0.1,0.2-0.2v-0.6h-0.3c-0.1,0-0.2,0-0.3,0s-0.1,0.1-0.2,0.1c0,0-0.1,0.1-0.1,0.2c0,0.1,0,0.1,0,0.2
			c0,0.1,0,0.2,0.1,0.2C175.7,168.6,175.8,168.6,175.9,168.6z"/>
		<path class="st5" d="M181.2,168.1l0.6-2.2h1.2l-1.1,3.5h-1.1l-1.1-3.5h1.2L181.2,168.1z"/>
		<path class="st5" d="M183.1,167.6c0-0.3,0-0.5,0.1-0.7s0.2-0.4,0.3-0.6c0.1-0.2,0.3-0.3,0.5-0.4c0.2-0.1,0.5-0.1,0.7-0.1
			c0.3,0,0.5,0,0.7,0.1s0.4,0.2,0.5,0.4s0.3,0.3,0.3,0.6c0.1,0.2,0.1,0.5,0.1,0.7v0.1c0,0.3,0,0.5-0.1,0.7s-0.2,0.4-0.3,0.6
			c-0.1,0.2-0.3,0.3-0.5,0.4c-0.2,0.1-0.5,0.1-0.7,0.1c-0.3,0-0.5,0-0.7-0.1s-0.4-0.2-0.5-0.4s-0.3-0.3-0.3-0.6
			C183.1,168.1,183.1,167.9,183.1,167.6L183.1,167.6z M184.2,167.6c0,0.1,0,0.3,0,0.4c0,0.1,0.1,0.2,0.1,0.3s0.1,0.2,0.2,0.2
			c0.1,0,0.2,0.1,0.3,0.1s0.2,0,0.3-0.1c0.1,0,0.1-0.1,0.2-0.2c0-0.1,0.1-0.2,0.1-0.3s0-0.2,0-0.4v-0.1c0-0.1,0-0.2,0-0.4
			c0-0.1-0.1-0.2-0.1-0.3s-0.1-0.2-0.2-0.2c-0.1-0.1-0.2-0.1-0.3-0.1s-0.2,0-0.3,0.1s-0.1,0.1-0.2,0.2c0,0.1-0.1,0.2-0.1,0.3
			C184.2,167.3,184.2,167.4,184.2,167.6L184.2,167.6z"/>
		<path class="st5" d="M188.2,165v0.9h0.6v0.8h-0.6v1.6c0,0.1,0,0.1,0,0.2c0,0,0,0.1,0.1,0.1c0,0,0.1,0,0.1,0.1c0,0,0.1,0,0.2,0
			c0.1,0,0.1,0,0.2,0h0.1v0.8c-0.1,0-0.2,0.1-0.3,0.1s-0.2,0-0.3,0c-0.2,0-0.3,0-0.5-0.1c-0.1,0-0.3-0.1-0.3-0.2
			c-0.1-0.1-0.2-0.2-0.2-0.3s-0.1-0.3-0.1-0.5v-1.7h-0.4V166h0.4v-1H188.2z"/>
		<path class="st5" d="M191.3,166.8L191.3,166.8c-0.1,0-0.1,0-0.2,0H191h-0.1c-0.2,0-0.3,0-0.4,0.1c-0.1,0.1-0.2,0.1-0.2,0.2v2.2
			h-1.1v-3.5h1v0.5c0.1-0.2,0.2-0.3,0.3-0.4c0.1-0.1,0.3-0.1,0.4-0.1c0.1,0,0.1,0,0.2,0c0.1,0,0.1,0,0.1,0L191.3,166.8z"/>
		<path class="st5" d="M193.4,169.4c-0.3,0-0.5,0-0.8-0.1c-0.2-0.1-0.4-0.2-0.6-0.4c-0.2-0.2-0.3-0.3-0.4-0.5
			c-0.1-0.2-0.1-0.4-0.1-0.7v-0.1c0-0.3,0-0.5,0.1-0.7s0.2-0.4,0.3-0.6c0.1-0.2,0.3-0.3,0.5-0.4c0.2-0.1,0.5-0.1,0.7-0.1
			s0.5,0,0.7,0.1s0.4,0.2,0.5,0.3s0.2,0.3,0.3,0.5s0.1,0.4,0.1,0.7v0.4h-2.2c0,0.2,0.1,0.4,0.3,0.5c0.1,0.1,0.3,0.2,0.5,0.2
			c0.1,0,0.3,0,0.4-0.1c0.1-0.1,0.3-0.1,0.4-0.3l0.5,0.6c-0.1,0.1-0.1,0.2-0.2,0.2c-0.1,0.1-0.2,0.1-0.3,0.2
			c-0.1,0.1-0.2,0.1-0.4,0.1C193.7,169.4,193.5,169.4,193.4,169.4z M193.2,166.6c-0.1,0-0.2,0-0.2,0c-0.1,0-0.1,0.1-0.2,0.1
			c0,0.1-0.1,0.1-0.1,0.2c0,0.1,0,0.2-0.1,0.3h1.1v-0.1c0-0.2,0-0.3-0.1-0.4C193.5,166.7,193.4,166.6,193.2,166.6z"/>
		<path class="st5" d="M200.2,167.6c0,0.3,0,0.5-0.1,0.7s-0.1,0.4-0.3,0.6c-0.1,0.2-0.3,0.3-0.4,0.4c-0.2,0.1-0.4,0.1-0.6,0.1
			c-0.2,0-0.3,0-0.5-0.1s-0.2-0.1-0.3-0.3v1.6h-1.1v-4.9h1v0.3c0.1-0.1,0.2-0.2,0.4-0.3c0.1-0.1,0.3-0.1,0.5-0.1s0.4,0,0.6,0.1
			c0.2,0.1,0.3,0.2,0.4,0.4c0.1,0.2,0.2,0.3,0.3,0.6C200.2,167.1,200.2,167.3,200.2,167.6L200.2,167.6z M199.1,167.6
			c0-0.1,0-0.3,0-0.4c0-0.1-0.1-0.2-0.1-0.3s-0.1-0.1-0.2-0.2c-0.1,0-0.2-0.1-0.3-0.1s-0.2,0-0.3,0.1c-0.1,0-0.1,0.1-0.2,0.2v1.4
			c0,0.1,0.1,0.2,0.2,0.2c0.1,0.1,0.2,0.1,0.3,0.1s0.2,0,0.3-0.1c0.1,0,0.1-0.1,0.2-0.2c0-0.1,0.1-0.2,0.1-0.3
			S199.1,167.8,199.1,167.6L199.1,167.6z"/>
		<path class="st5" d="M200.5,167.6c0-0.3,0-0.5,0.1-0.7s0.2-0.4,0.3-0.6c0.1-0.2,0.3-0.3,0.5-0.4c0.2-0.1,0.5-0.1,0.7-0.1
			c0.3,0,0.5,0,0.7,0.1s0.4,0.2,0.5,0.4s0.3,0.3,0.3,0.6c0.1,0.2,0.1,0.5,0.1,0.7v0.1c0,0.3,0,0.5-0.1,0.7s-0.2,0.4-0.3,0.6
			c-0.1,0.2-0.3,0.3-0.5,0.4c-0.2,0.1-0.5,0.1-0.7,0.1c-0.3,0-0.5,0-0.7-0.1s-0.4-0.2-0.5-0.4s-0.3-0.3-0.3-0.6
			S200.5,167.9,200.5,167.6L200.5,167.6z M201.6,167.6c0,0.1,0,0.3,0,0.4c0,0.1,0.1,0.2,0.1,0.3s0.1,0.2,0.2,0.2
			c0.1,0,0.2,0.1,0.3,0.1s0.2,0,0.3-0.1c0.1,0,0.1-0.1,0.2-0.2c0-0.1,0.1-0.2,0.1-0.3s0-0.2,0-0.4v-0.1c0-0.1,0-0.2,0-0.4
			c0-0.1-0.1-0.2-0.1-0.3s-0.1-0.2-0.2-0.2c-0.1-0.1-0.2-0.1-0.3-0.1s-0.2,0-0.3,0.1s-0.1,0.1-0.2,0.2c0,0.1-0.1,0.2-0.1,0.3
			C201.6,167.3,201.6,167.4,201.6,167.6L201.6,167.6z"/>
		<path class="st5" d="M206.5,166.8L206.5,166.8c-0.1,0-0.1,0-0.2,0s-0.1,0-0.1,0h-0.1c-0.2,0-0.3,0-0.4,0.1
			c-0.1,0.1-0.2,0.1-0.2,0.2v2.2h-1.1v-3.5h1v0.5c0.1-0.2,0.2-0.3,0.3-0.4c0.1-0.1,0.3-0.1,0.4-0.1c0.1,0,0.1,0,0.2,0
			c0.1,0,0.1,0,0.1,0L206.5,166.8z"/>
		<path class="st5" d="M208.4,165v0.9h0.6v0.8h-0.6v1.6c0,0.1,0,0.1,0,0.2c0,0,0,0.1,0.1,0.1c0,0,0.1,0,0.1,0.1c0,0,0.1,0,0.2,0
			c0.1,0,0.1,0,0.2,0h0.1v0.8c-0.1,0-0.2,0.1-0.3,0.1s-0.2,0-0.3,0c-0.2,0-0.3,0-0.5-0.1c-0.1,0-0.3-0.1-0.3-0.2
			c-0.1-0.1-0.2-0.2-0.2-0.3s-0.1-0.3-0.1-0.5v-1.7H207V166h0.4v-1H208.4z"/>
		<path class="st5" d="M211.1,169.4c-0.3,0-0.5,0-0.8-0.1c-0.2-0.1-0.4-0.2-0.6-0.4c-0.2-0.2-0.3-0.3-0.4-0.5
			c-0.1-0.2-0.1-0.4-0.1-0.7v-0.1c0-0.3,0-0.5,0.1-0.7s0.2-0.4,0.3-0.6c0.1-0.2,0.3-0.3,0.5-0.4c0.2-0.1,0.5-0.1,0.7-0.1
			s0.5,0,0.7,0.1s0.4,0.2,0.5,0.3s0.2,0.3,0.3,0.5s0.1,0.4,0.1,0.7v0.4h-2.2c0,0.2,0.1,0.4,0.3,0.5c0.1,0.1,0.3,0.2,0.5,0.2
			c0.1,0,0.3,0,0.4-0.1c0.1-0.1,0.3-0.1,0.4-0.3l0.5,0.6c-0.1,0.1-0.1,0.2-0.2,0.2c-0.1,0.1-0.2,0.1-0.3,0.2
			c-0.1,0.1-0.2,0.1-0.4,0.1C211.4,169.4,211.2,169.4,211.1,169.4z M210.9,164.4h1.2l-0.9,1h-0.9L210.9,164.4z M210.9,166.6
			c-0.1,0-0.2,0-0.2,0c-0.1,0-0.1,0.1-0.2,0.1c0,0.1-0.1,0.1-0.1,0.2c0,0.1,0,0.2-0.1,0.3h1.1v-0.1c0-0.2,0-0.3-0.1-0.4
			C211.2,166.7,211.1,166.6,210.9,166.6z"/>
		<path class="st5" d="M214.7,169.4c-0.3,0-0.5,0-0.8-0.1c-0.2-0.1-0.4-0.2-0.6-0.4c-0.2-0.2-0.3-0.3-0.4-0.5
			c-0.1-0.2-0.1-0.4-0.1-0.7v-0.1c0-0.3,0-0.5,0.1-0.7s0.2-0.4,0.3-0.6c0.1-0.2,0.3-0.3,0.5-0.4c0.2-0.1,0.5-0.1,0.7-0.1
			s0.5,0,0.7,0.1s0.4,0.2,0.5,0.3s0.2,0.3,0.3,0.5s0.1,0.4,0.1,0.7v0.4h-2c0,0.2,0.1,0.4,0.3,0.5c0.1,0.1,0.3,0.2,0.5,0.2
			c0.1,0,0.3,0,0.4-0.1c0.1-0.1,0.3-0.1,0.4-0.3l0.5,0.6c-0.1,0.1-0.1,0.2-0.2,0.2c-0.1,0.1-0.2,0.1-0.3,0.2
			c-0.1,0.1-0.2,0.1-0.4,0.1C215,169.4,214.8,169.4,214.7,169.4z M214.5,166.6c-0.1,0-0.2,0-0.2,0c-0.1,0-0.1,0.1-0.2,0.1
			c0,0.1-0.1,0.1-0.1,0.2c0,0.1,0,0.2-0.1,0.3h1.1v-0.1c0-0.2,0-0.3-0.1-0.4C214.9,166.7,214.7,166.6,214.5,166.6z"/>
	</g>
</g>
<g>
	<path class="st4" d="M196.6,74.9c-3.4,0.2-6.6,1.1-9.8,2.3c0-0.1-0.1-0.2-0.1-0.3c0-2.3,0-4.7-0.1-7c0-0.3,5.7-2.4,8.5-2.9
		c2-0.4,4-0.6,6.1-0.6c3.5-0.1,6.9,0.4,10.1,1.6c1.7,0.6,3.4,1.2,5,2c1.3,0.6,2.4,1.5,3.5,2.3c2.2,1.7,4.1,3.7,5.9,5.8
		c1.7,1.9,3.7,3.5,6.4,4.1c1.9,0.4,3.5-0.2,4.8-1.6c0.7-0.7,1.2-1.5,1.3-2.5s-0.2-1.8-0.8-2.6c-0.8-1-1.8-1.7-2.9-2.3
		c-1.6-0.8-3.3-1.4-5-2.1c-1.4-0.6-2.8-1.2-4-2.1c-1.7-1.2-2.8-3-3.4-4.9c-1.5-4.9-0.7-9.3,3-13.1c1.8-1.8,4.1-2.8,6.6-3.3
		c1.5-0.3,2.9-0.3,4.4-0.2c3.9,0.2,7.3,1.5,10.2,4.1c0.1,0.1,0.2,0.1,0.3,0.2c-0.6,0.7-1.1,1.2-1.7,1.8c-1.2,1.4-2.5,2.7-3.7,4.1
		c-0.2,0.3-0.4,0.3-0.7,0.1c-1.3-0.7-2.7-1.4-4.1-2c-1-0.4-2-0.6-3.1-0.3c-1.4,0.4-2.5,1.8-2.7,3.3c-0.2,1.8,0.7,3,2,4.1
		c1.2,1,2.7,1.6,4.1,2.2c2.2,1,4.4,1.9,6.4,3.4c2.5,1.9,4,4.3,4.5,7.4c0.7,4.5-0.9,8.1-4.1,11.2c-2.1,2-4.6,3.3-7.5,3.9
		c-1.6,0.3-3.2,0.4-4.9,0.2c-2.7-0.2-5.3-1.1-7.6-2.6c-1.4-1-2.6-2.2-3.7-3.5c-2.7-3.2-2.9-3-2.9-3c-2.4-2.4-4.1-4.2-6.6-5.3
		c-1.1-0.5-2.7-1.1-5-1.2c0,0.2,0,0.4,0,0.6c0,3.6,0,7.1,0,10.7c0,0.3-0.1,0.6-0.4,0.8c-2.7,1.7-5.3,3.4-8,5.1
		c-0.1,0.1-0.2,0.1-0.3,0.2c0-1.3,0-2.5,0-3.9c-0.2,0.1-0.4,0.1-0.5,0.2c-2.2,1-4.5,1.6-6.9,1.8c-5.7,0.5-10.8-0.9-15.1-4.7
		c-3.6-3.1-6.1-6.9-7.2-11.6c-0.4-1.6-0.6-3.2-0.6-4.9c-0.1-2.8,0.2-5.6,1.2-8.3c1.1-3.2,3-6,5.5-8.4c2.4-2.3,5.2-4.1,8.5-5
		c1.6-0.5,3.3-0.7,5-0.8c2.7-0.1,5.4,0.2,7.9,1c4.2,1.4,7.3,4.1,9.8,7.7c0.1,0.2,0.3,0.4,0.4,0.6c0.2,0.3,0.2,0.5-0.1,0.8
		c-1.8,1.7-3.6,3.3-5.4,5c-0.1,0.1-0.2,0.1-0.3,0.2c-0.6-0.8-1.1-1.6-1.8-2.4c-1.9-2.2-4.2-3.5-7.1-4c-4.5-0.7-8.2,0.9-11.2,4.2
		c-1.6,1.8-2.6,3.8-3,6.1c-0.6,4,0.2,7.7,2.8,10.9c1.8,2.2,4.1,3.7,6.9,4.3c3.8,0.8,7.1-0.1,10.1-2.5c0.4-0.3,0.7-0.7,0.9-1.1
		c0.1-0.4,0.1-0.7,0.1-0.9C196.5,77,196.5,76.2,196.6,74.9z"/>
	<path class="st4" d="M216.8,67.8c-0.8-0.4-1.6-0.7-2.4-1c-2.1-0.8-4.2-1.5-6.4-1.7c-0.1,0-0.2-0.2-0.3-0.3c0-0.1,0-0.2,0-0.4
		c0-5.2,0-10.3,0-15.5c0-0.6,0-0.6-0.6-0.6c-2.9,0-5.8,0-8.7,0c-0.4,0-0.5-0.1-0.5-0.5c0-2.7,0.1-5.4,0.1-8.1c0-0.4,0.2-0.4,0.5-0.4
		c6.3,0,12.7,0,19,0c2.9,0,5.7,0,8.6,0c0.4,0,0.5,0.1,0.5,0.5c0,2.7,0,5.3,0,8c0,0.4-0.1,0.5-0.5,0.5c-2.9,0-5.8,0-8.7,0
		c-0.7,0-0.7,0-0.7,0.7c0,6.1,0,12.2,0,18.3C216.8,67.4,216.8,67.6,216.8,67.8z"/>
</g>
<path class="st6" d="M161.2,146.7"/>
</svg>
