<?xml version="1.0" encoding="utf-8"?>
<!-- Generator: Adobe Illustrator 24.0.0, SVG Export Plug-In . SVG Version: 6.00 Build 0)  -->
<svg version="1.1" id="Layer_1" xmlns="http://www.w3.org/2000/svg" xmlns:xlink="http://www.w3.org/1999/xlink" x="0px" y="0px"
	 viewBox="0 0 356 200" style="enable-background:new 0 0 356 200;" xml:space="preserve">
<style type="text/css">
	.st0{fill:#273B91;}
	.st1{fill:#FFC517;}
	.st2{display:none;fill:#FFC517;}
</style>
<g>
	<g>
		<path class="st0" d="M85.4,104.6l-0.1-23.8l-11.6,19.4H68L56.5,81.4v23.2H44.8v-45h10.5l15.8,26l15.4-26H97l0.1,45
			C97.1,104.6,85.4,104.6,85.4,104.6z"/>
		<path class="st0" d="M148.9,92.2c0,7.8-6.4,12.3-18.5,12.3h-24.3v-45h23c11.8,0,17.6,4.8,17.6,11.8c0,4.3-2.2,7.8-6,9.8
			C145.7,82.9,148.9,86.8,148.9,92.2z M118.7,68.8v8.7h8.7c4.2,0,6.4-1.5,6.4-4.4c0-2.8-2.2-4.3-6.4-4.3
			C127.4,68.8,118.7,68.8,118.7,68.8z M136,90.8c0-3.1-2.3-4.6-6.7-4.6h-10.7v9.1h10.7C133.7,95.4,136,93.9,136,90.8z"/>
		<path class="st0" d="M185.6,95.8h-19l-3.5,8.7h-13l19.9-45h12.5l19.9,45h-13.2L185.6,95.8z M181.9,86.4L176.1,72l-5.8,14.4H181.9z
			"/>
		<path class="st0" d="M248.8,59.6v45h-10.5l-19.9-24v24H206v-45h10.5l19.9,24v-24H248.8z"/>
	</g>
	<g>
		<path class="st1" d="M85.5,122.1c0.3-10.2,2.5-18.2,6.8-23.9c4.3-5.8,9.8-8.6,16.5-8.6c5.4,0,9.8,1.3,13,4
			c3.3,2.7,4.9,5.8,4.9,9.4c0,2.8-0.8,5.2-2.4,7.1c-1.3,1.5-2.7,2.5-4.3,3.1c-1.6,0.6-3.5,1.2-5.8,1.5c1.8,7.5,4.4,13.9,7.6,19.1
			c3.2,5.2,6.1,7.9,8.7,8.3c0.2,0,0.6,0.1,1,0.1c1.8,0,3.6-0.9,5.4-2.8c0.3-0.3,0.6-0.4,1-0.4s0.8,0.2,1.3,0.7
			c0.5,0.4,0.7,0.9,0.7,1.4c0,0.2-0.1,0.4-0.2,0.6c-0.9,1.5-2.2,2.8-3.9,4.1s-3.6,1.9-5.8,1.9c-3,0-5.9-1.7-8.9-5.2
			s-5.5-7.7-7.5-12.6c-2-4.9-3.3-9.8-4-14.6c-1.4,0.1-2.4,0.1-3.1,0.1c-0.2,1.2-0.4,2.8-0.6,4.8s-0.4,3.6-0.6,4.7s-0.3,2.6-0.6,4.3
			c-0.2,1.7-0.5,3.1-0.8,4c-0.3,1-0.6,2.1-1,3.4c-0.4,1.3-0.8,2.2-1.3,3c-0.5,0.7-1.1,1.4-1.7,2.1c-1.2,1.2-2.9,1.9-5,1.9
			c-3,0-5.3-1.7-7-5s-2.6-8-2.6-14L85.5,122.1z M107.2,111.2c4.4-0.1,7.6-0.6,9.6-1.5c2.4-1.1,3.7-3.3,3.7-6.7
			c0-2.4-0.9-4.3-2.7-5.8c-1.8-1.5-4.7-2.2-8.6-2.2c-5.6,0-10,2.5-13.2,7.4s-4.8,11.4-4.8,19.2c0,5.1,0.5,9.2,1.3,12.2
			s2,4.5,3.6,4.5h0.1c0.9,0,1.6-1,2.2-3.1c0.3-1.1,0.7-2.7,1.2-4.9s1.2-7.3,2.1-15.3c-2.3-0.4-3.5-1.3-3.5-2.6
			c0-1.3,0.4-1.9,1.3-1.9c0.5,0,1.5,0.1,2.8,0.3c1.5-5.7,3.4-8.6,5.8-8.6c1.6,0,2.4,0.6,2.4,1.9c0,0.6-0.5,1.5-1.5,3
			C108,108.5,107.4,109.9,107.2,111.2z"/>
		<path class="st1" d="M129,128.2c0-3.9,1.4-7.3,4.1-10.3c2.8-3,5.7-4.5,8.8-4.5c1.8,0,2.6,0.5,2.6,1.3v0.4h1.5
			c1.2,0,1.8,0.6,1.8,1.7v0.4l-1.8,11.1c0,0.2-0.1,0.4-0.1,0.7c0,1,0.4,1.5,1.1,1.5c1.6,0,3.6-1.4,5.8-4.3c0.3-0.4,0.6-0.6,0.9-0.6
			c0.4,0,0.8,0.3,1.1,1s0.4,1.2,0.4,1.7c0,0.5,0,0.9-0.1,1.1c-1,1.4-2.3,2.6-3.9,3.8c-1.6,1.1-3.1,1.7-4.5,1.7s-2.5-0.4-3.3-1.1
			c-0.8-0.7-1.3-1.8-1.4-3.1v0.1c-0.7,1.4-1.7,2.4-2.9,3.2s-2.7,1.2-4.4,1.2s-3.1-0.7-4.1-2C129.5,131.9,129,130.2,129,128.2z
			 M136.2,130.7c1.2,0,2.3-0.6,3.3-1.9c1-1.3,1.8-2.7,2.2-4.2l1.7-7.2c-2.5,0-4.7,1.2-6.7,3.5c-2,2.4-3,4.6-3,6.7
			C133.8,129.6,134.6,130.7,136.2,130.7z"/>
		<path class="st1" d="M151.5,127.5c0-3.5,1.1-6.7,3.3-9.6s4.8-4.3,7.6-4.3c0.7,0,1.5,0.1,2.2,0.4c2-14.2,6-21.3,12-21.3
			c1.3,0,2.4,0.4,3.2,1.3c0.9,0.9,1.4,1.9,1.4,3c0,0.3,0.1,0.7,0.1,1.3c0,3.8-1.1,7.6-3.3,11.6c-1.2,2.2-2.2,3.9-2.9,5.1
			s-1.9,3-3.7,5.5s-2.8,4-3,4.4v0.6c0,3.7,1,5.5,3,5.5c2.2,0,4.5-1.6,6.9-4.7c0.2-0.2,0.6-0.3,1-0.3c0.5,0,0.9,0.2,1.3,0.6
			c0.4,0.4,0.6,0.8,0.6,1.3c0,0.5-0.2,1-0.5,1.5c-3,3.8-6.3,5.7-10,5.7c-2.9,0-5-1.5-6.3-4.4c-1.2,3-3.5,4.6-6.7,4.6
			c-1.8,0-3.4-0.7-4.6-2.1C152.1,131.6,151.5,129.8,151.5,127.5z M159,130.7c1.2,0,2.2-0.6,2.9-1.7c0.7-1.1,1.3-3.2,1.8-6.2l0.8-4.9
			c-2.3,0-4.2,0.9-5.7,2.8s-2.2,4-2.2,6.3v0.7C156.7,129.7,157.5,130.7,159,130.7z M175.7,98c-1.4,0-2.5,1.2-3.4,3.5
			c-0.5,1.2-1,2.6-1.4,4.3c-0.5,1.7-1.2,6-2.2,12.9c0.2-0.3,0.3-0.6,0.5-0.9c0.1-0.1,0.6-0.9,1.5-2.3c0.9-1.5,1.8-2.9,2.5-4.1
			c0.7-1.3,1.5-3,2.4-5.2s1.3-4.1,1.3-5.7C177,98.8,176.5,98,175.7,98z"/>
		<path class="st1" d="M177.3,128.7c0-1.9,0.3-4.1,1-6.6s1.4-4.4,2.1-5.7c0.7-1.2,1.3-2,1.8-2.2s1-0.4,1.7-0.4
			c0.6,0,1.2,0.2,1.6,0.4c0.5,0.3,0.7,0.6,0.7,1c0,0.3-0.2,0.9-0.7,1.8s-1.1,2.5-1.9,5c-0.8,2.5-1.2,4.5-1.2,6c0,2,0.7,3,2.2,3
			c1.8,0,4-1.5,6.5-4.4c0.3-0.4,0.8-0.6,1.3-0.6s0.9,0.2,1.3,0.5c0.4,0.4,0.6,0.8,0.6,1.3s-0.2,1-0.7,1.6c-3.2,3.7-6.5,5.6-9.9,5.6
			c-1.9,0-3.5-0.6-4.6-1.8C177.9,132.1,177.3,130.6,177.3,128.7z M186.8,109.5c-2.3,0-3.5-1-3.5-3c0-1.1,0.4-1.9,1.1-2.5
			c0.7-0.6,1.7-0.9,2.9-0.9c2.1,0,3.2,1,3.2,2.9c0,1.1-0.3,2-1,2.6S187.9,109.5,186.8,109.5z"/>
		<path class="st1" d="M189.3,128.2c0-3.9,1.4-7.3,4.1-10.3c2.8-3,5.7-4.5,8.8-4.5c1.8,0,2.6,0.5,2.6,1.3v0.4h1.5
			c1.2,0,1.8,0.6,1.8,1.7v0.4l-1.8,11.1c0,0.2-0.1,0.4-0.1,0.7c0,1,0.4,1.5,1.1,1.5c1.6,0,3.6-1.4,5.8-4.3c0.3-0.4,0.6-0.6,0.9-0.6
			c0.4,0,0.8,0.3,1.1,1s0.4,1.2,0.4,1.7c0,0.5,0,0.9-0.1,1.1c-1,1.4-2.3,2.6-3.9,3.8c-1.6,1.1-3.1,1.7-4.5,1.7s-2.5-0.4-3.3-1.1
			c-0.8-0.7-1.3-1.8-1.4-3.1v0.1c-0.7,1.4-1.7,2.4-2.9,3.2s-2.7,1.2-4.4,1.2s-3.1-0.7-4.1-2C189.9,131.9,189.3,130.2,189.3,128.2z
			 M196.6,130.7c1.2,0,2.3-0.6,3.3-1.9c1-1.3,1.8-2.7,2.2-4.2l1.7-7.2c-2.5,0-4.7,1.2-6.7,3.5c-2,2.4-3,4.6-3,6.7
			C194.2,129.6,195,130.7,196.6,130.7z"/>
		<path class="st1" d="M213.6,124.4v-0.7c-0.6,0.4-1,0.6-1.4,0.6s-0.7-0.2-1-0.5c-0.3-0.4-0.4-0.8-0.4-1.3s0.3-0.9,0.8-1.2
			c0.5-0.3,1.3-0.7,2.4-1.2c0.7-5.7,2.2-11.1,4.5-16.3c1.2-2.6,2.6-4.8,4.3-6.5s3.4-2.5,5-2.5s2.8,0.4,3.5,1.2
			c0.7,0.8,1.1,1.8,1.1,3v0.4c-0.3,3.2-1.4,6.3-3.6,9.4c-2.1,3.1-4.6,5.9-7.5,8.2c3.6-1.2,5.8-1.8,6.8-1.8c0.3,0,0.7,0.2,1,0.5
			c0.3,0.4,0.5,0.8,0.5,1.4s-0.4,1-1.1,1.1c-2.2,0.3-5.5,1.4-10,3.3c-0.1,1.4-0.1,2.4-0.1,3.2c0,4.1,0.9,6.1,2.6,6.1
			c2.1,0,4.4-1.5,7.1-4.5c0.3-0.3,0.7-0.5,1.1-0.5c0.4,0,0.9,0.2,1.3,0.5c0.4,0.4,0.6,0.8,0.6,1.3s-0.3,1.1-0.8,1.6
			c-3.3,3.7-6.6,5.5-10,5.5c-2.5,0-4.2-0.9-5.2-2.8C214.1,130.4,213.6,127.8,213.6,124.4z M227.4,100.1c-1.2,0-2.4,0.9-3.6,2.7
			c-2.2,3.3-3.7,7.5-4.6,12.6c0.1-0.1,0.6-0.7,1.6-1.7c1-1.1,1.6-1.7,1.8-2s0.7-0.9,1.5-1.8c0.8-1,1.3-1.7,1.6-2.2s0.6-1.2,1.1-2.1
			c0.4-0.9,0.7-1.7,0.9-2.4c0.1-0.8,0.2-1.5,0.2-2.1S227.7,100.1,227.4,100.1z"/>
		<path class="st1" d="M229.7,128.7c0-1.9,0.3-4.1,1-6.6s1.4-4.4,2.1-5.7c0.7-1.2,1.3-2,1.8-2.2s1-0.4,1.7-0.4
			c0.6,0,1.2,0.2,1.6,0.4c0.4,0.3,0.7,0.6,0.7,1c0,0.3-0.2,0.9-0.7,1.8s-1.1,2.5-1.9,5c-0.8,2.5-1.2,4.5-1.2,6c0,2,0.7,3,2.2,3
			c1.8,0,4-1.5,6.5-4.4c0.3-0.4,0.8-0.6,1.3-0.6s0.9,0.2,1.3,0.5c0.4,0.4,0.6,0.8,0.6,1.3s-0.2,1-0.7,1.6c-3.2,3.7-6.5,5.6-9.9,5.6
			c-1.9,0-3.5-0.6-4.6-1.8C230.3,132.1,229.7,130.6,229.7,128.7z M239.1,109.5c-2.3,0-3.5-1-3.5-3c0-1.1,0.4-1.9,1.1-2.5
			c0.7-0.6,1.7-0.9,2.9-0.9c2.1,0,3.2,1,3.2,2.9c0,1.1-0.3,2-1,2.6C241.2,109.2,240.3,109.5,239.1,109.5z"/>
		<path class="st1" d="M248.6,135.2c-2.1,0-3.9-0.8-5.3-2.3c-1.4-1.5-2.1-3.5-2.1-5.8c0-3.5,1.1-6.6,3.4-9.3c2.3-2.7,5-4.1,8.1-4.1
			c1.8,0,3.3,0.6,4.5,1.9s1.8,2.9,1.8,4.9c0,0.4-0.1,1.1-0.3,2.1c2.8-0.5,5.5-2.3,8.3-5.4c0.2-0.2,0.4-0.3,0.7-0.3
			c0.3,0,0.6,0.2,0.9,0.6s0.5,0.8,0.5,1.2c0,0.4-0.1,0.7-0.3,0.9c-2.9,3.6-6.4,5.9-10.7,7.1C256.8,132.3,253.6,135.2,248.6,135.2z
			 M249.5,131.1c1.1,0,2.2-0.6,3.1-1.9c1-1.2,1.5-2.5,1.6-3.7c-1.6-0.7-2.4-1.6-2.4-2.6s0.6-2.1,1.7-3.2c0-0.6-0.2-1-0.4-1.2
			c-0.2-0.3-0.6-0.4-1-0.4c-1.6,0-3,1-4.2,2.9s-1.7,3.9-1.7,5.9C246.3,129.6,247.4,131.1,249.5,131.1z"/>
		<path class="st1" d="M280.5,130.5c1.6-0.3,3.6-1.6,5.9-3.8c0.2-0.2,0.4-0.3,0.7-0.3c0.3,0,0.7,0.3,1,0.9c0.4,0.6,0.5,1,0.5,1.3
			s0,0.6-0.1,0.7c-1.4,1.8-3.1,3.1-5.1,4c-2.1,0.9-3.8,1.4-5.1,1.4c-2.5,0-3.7-1.3-3.7-4c0-1.4,0.4-3.4,1.3-6.1s1.3-4.1,1.3-4.3
			c0-0.2,0-0.3-0.1-0.3H277c-0.7,0.3-2.3,2-4.6,5.1c-2.3,3.1-3.8,5.3-4.3,6.6s-1,2.1-1.3,2.5c-0.4,0.4-1,0.5-1.8,0.5
			c-1.6,0-2.4-1.7-2.4-4.9c0.1-4.5,1-9.2,2.8-14.1c0.6-1.5,1.5-2.3,2.8-2.3c0.5,0,0.9,0.2,1.3,0.5c0.3,0.3,0.5,0.7,0.5,1.1
			s0,0.6-0.1,0.7c-1,2.8-1.8,6-2.4,9.5c2.2-3.9,4.4-6.8,6.6-8.8c2.1-2,4-3.1,5.7-3.1c0.9,0,1.6,0.3,2.2,0.8s1,1.1,1,1.7
			c0,0.9-0.5,3.1-1.6,6.4s-1.7,5.3-1.8,5.9c-0.1,0.6-0.1,1.1-0.1,1.6s0.1,0.7,0.4,0.6C280.2,130.6,280.4,130.5,280.5,130.5z"/>
	</g>
	<g id="Object_12_">
		<path class="st2" d="M291.7,62.8l-6.5,12.7c3.8,1.9,4,5.7,4,6.8l14.5,0.2C303.6,69.2,293.3,63.6,291.7,62.8z"/>
		<path class="st1" d="M281,56.4c-14.4,0-26.1,11.7-26.1,26.1s11.7,26.1,26.1,26.1s26.1-11.7,26.1-26.1
			C307.2,68.2,295.4,56.4,281,56.4z M286,82.6c0,2.7-2.2,5-5,5s-5-2.2-5-5c0-2.7,2.2-5,5-5S286,79.8,286,82.6z M258.6,83.5
			L258.6,83.5c-0.1,0-0.2-0.1-0.3-0.2c0-0.1-1.4-13.6,11.5-21c0.1,0,0.1,0,0.2,0s0.1,0.1,0.2,0.1l7.3,13.1c0,0.1,0,0.1,0,0.2
			s-0.1,0.1-0.1,0.2c-0.2,0.1-4.3,2-3.8,6.7c0,0.1,0,0.1-0.1,0.2c0,0.1-0.1,0.1-0.2,0.1L258.6,83.5z M293.4,101.9
			c-0.1,0.1-5.2,3.8-12.5,3.8c-3.4,0-7.4-0.8-11.5-3.2c-0.1,0-0.1-0.1-0.1-0.2s0-0.1,0-0.2l7.7-12.9c0-0.1,0.1-0.1,0.2-0.1
			s0.1,0,0.2,0c0.2,0.1,3.9,2.7,7.7,0c0.1,0,0.1-0.1,0.2,0c0.1,0,0.1,0.1,0.2,0.1l8,12.4C293.5,101.7,293.5,101.8,293.4,101.9z
			 M304.1,82.9c0,0-0.1,0.1-0.2,0.1l0,0l-15-0.2c-0.1,0-0.1,0-0.2-0.1c0-0.1-0.1-0.1-0.1-0.2c0-0.2,0.4-4.7-3.9-6.7
			c-0.1,0-0.1-0.1-0.1-0.1c0-0.1,0-0.1,0-0.2l6.8-13.1c0.1-0.1,0.2-0.2,0.3-0.1C291.8,62.4,304.2,67.8,304.1,82.9
			C304.1,82.8,304.1,82.9,304.1,82.9z"/>
		<path class="st2" d="M277.3,89.7l-7.4,12.4c11.6,6.6,21.5,0.5,23-0.5l-7.7-12C281.7,92,278.2,90.2,277.3,89.7z"/>
		<path class="st2" d="M277,75.5l-7.1-12.6c-11.5,6.7-11.2,18.4-11.1,20.2l14.2-0.7C272.8,78.1,276,76,277,75.5z"/>
		<path class="st2" d="M281,87c2.5,0,4.5-2,4.5-4.5s-2-4.5-4.5-4.5s-4.5,2-4.5,4.5C276.6,85,278.6,87,281,87z"/>
		<path class="st2" d="M281,55.9c-14.7,0-26.6,11.9-26.6,26.6s11.9,26.6,26.6,26.6s26.6-11.9,26.6-26.6S295.7,55.9,281,55.9z
			 M281,108.7c-14.4,0-26.1-11.7-26.1-26.1s11.7-26.1,26.1-26.1s26.1,11.7,26.1,26.1C307.2,97,295.4,108.7,281,108.7z"/>
		<path class="st2" d="M273.5,82.7c0-0.1,0.1-0.1,0.1-0.2c-0.4-4.7,3.7-6.6,3.8-6.7c0.1,0,0.1-0.1,0.1-0.2s0-0.1,0-0.2l-7.3-13.1
			c0-0.1-0.1-0.1-0.2-0.1s-0.1,0-0.2,0c-13,7.4-11.5,20.9-11.5,21s0.1,0.2,0.3,0.2l0,0l14.7-0.7C273.4,82.8,273.5,82.8,273.5,82.7z
			 M258.8,83c-0.1-1.8-0.4-13.4,11.1-20.2l7.1,12.6c-0.9,0.5-4.2,2.6-3.9,6.8L258.8,83z"/>
		<path class="st2" d="M285.5,89.1c0-0.1-0.1-0.1-0.2-0.1s-0.1,0-0.2,0c-3.9,2.8-7.6,0.2-7.7,0c-0.1,0-0.1-0.1-0.2,0
			c-0.1,0-0.1,0.1-0.2,0.1l-7.7,12.9c0,0.1,0,0.1,0,0.2s0.1,0.1,0.1,0.2c4.1,2.4,8.1,3.2,11.5,3.2c7.3,0,12.4-3.7,12.5-3.8
			c0.1-0.1,0.1-0.2,0.1-0.3L285.5,89.1z M269.9,102.1l7.4-12.4c0.9,0.5,4.3,2.3,7.9,0l7.7,12C291.4,102.6,281.5,108.7,269.9,102.1z"
			/>
		<path class="st2" d="M291.7,62.3c-0.1-0.1-0.3,0-0.3,0.1l-6.8,13.1c0,0.1,0,0.1,0,0.2s0.1,0.1,0.1,0.1c4.3,2,3.9,6.5,3.9,6.7
			c0,0.1,0,0.1,0.1,0.2c0,0.1,0.1,0.1,0.2,0.1l15,0.2l0,0c0.1,0,0.1,0,0.2-0.1c0,0,0.1-0.1,0.1-0.2
			C304.2,67.8,291.8,62.3,291.7,62.3z M289.2,82.3c0-1.1-0.2-4.9-4-6.8l6.5-12.7c1.6,0.8,11.8,6.3,11.9,19.7L289.2,82.3z"/>
		<path class="st2" d="M276.1,82.6c0,2.7,2.2,5,5,5s5-2.2,5-5c0-2.7-2.2-5-5-5S276.1,79.8,276.1,82.6z M281,78.1
			c2.5,0,4.5,2,4.5,4.5s-2,4.5-4.5,4.5s-4.5-2-4.5-4.5C276.6,80.1,278.6,78.1,281,78.1z"/>
	</g>
	<g>
		<path class="st0" d="M244.7,138.8c-0.9,0-1.5,0.6-1.5,1.7s0.7,1.7,1.5,1.7c0.9,0,1.5-0.6,1.5-1.7S245.6,138.8,244.7,138.8z"/>
		<path class="st0" d="M232.4,137.1h-1.5v2.7h1.5c1.1,0,1.7-0.5,1.7-1.4C234.1,137.6,233.5,137.1,232.4,137.1z"/>
		<path class="st0" d="M256.6,138.7c-0.8,0-1.4,0.5-1.5,1.3h3C258,139.2,257.4,138.7,256.6,138.7z"/>
		<path class="st0" d="M209.6,131.3v17.8h79.1v-17.8H209.6z M232.5,141.3h-1.6v2.2h-1.8v-7.9h3.4c2.1,0,3.4,1.1,3.4,2.9
			C235.9,140.2,234.6,141.3,232.5,141.3z M240.8,139c-0.1,0-0.3,0-0.4,0c-1,0-1.6,0.5-1.6,1.7v2.9H237v-6h1.7v0.8
			c0.4-0.6,1.1-0.9,2.1-0.9V139z M244.7,143.6c-1.9,0-3.3-1.3-3.3-3.1s1.4-3.1,3.3-3.1c1.9,0,3.3,1.3,3.3,3.1
			S246.6,143.6,244.7,143.6z M251.6,143.6c-1.4,0-2.3-0.7-2.3-2.2v-2.5h-0.9v-1.3h0.9v-1.5h1.8v1.5h1.5v1.3h-1.5v2.5
			c0,0.5,0.3,0.8,0.8,0.8c0.3,0,0.5-0.1,0.7-0.2l0.5,1.2C252.7,143.4,252.2,143.6,251.6,143.6z M259.7,140.9h-4.6
			c0.2,0.8,0.8,1.2,1.7,1.2c0.6,0,1.1-0.2,1.5-0.6l0.9,1c-0.6,0.6-1.4,1-2.5,1c-2.1,0-3.4-1.3-3.4-3.1s1.4-3.1,3.2-3.1
			c1.8,0,3.1,1.2,3.1,3.1C259.8,140.6,259.7,140.8,259.7,140.9z M263.8,142.1c0.6,0,1-0.2,1.4-0.8l1.4,0.7c-0.4,1-1.4,1.5-2.7,1.5
			c-2,0-3.4-1.3-3.4-3.1s1.4-3.1,3.4-3.1c1.3,0,2.3,0.5,2.7,1.5l-1.4,0.7c-0.3-0.6-0.8-0.8-1.4-0.8c-0.9,0-1.6,0.6-1.6,1.7
			C262.2,141.5,262.9,142.1,263.8,142.1z M270.1,143.6c-1.4,0-2.3-0.7-2.3-2.2v-2.5h-0.9v-1.3h0.9v-1.5h1.8v1.5h1.5v1.3h-1.5v2.5
			c0,0.5,0.3,0.8,0.8,0.8c0.3,0,0.5-0.1,0.7-0.2l0.5,1.2C271.2,143.4,270.7,143.6,270.1,143.6z"/>
	</g>
</g>
</svg>
