<?xml version="1.0" encoding="utf-8"?>
<!-- Generator: Adobe Illustrator 24.0.0, SVG Export Plug-In . SVG Version: 6.00 Build 0)  -->
<svg version="1.1" id="Layer_1" xmlns="http://www.w3.org/2000/svg" xmlns:xlink="http://www.w3.org/1999/xlink" x="0px" y="0px"
	 viewBox="0 0 356 200" style="enable-background:new 0 0 356 200;" xml:space="preserve">
<style type="text/css">
	.st0{fill:url(#SVGID_1_);}
	.st1{fill:#FFFFFF;}
	.st2{fill:#1974BA;}
	.st3{fill:#6BC8EC;}
</style>
<g>
	<linearGradient id="SVGID_1_" gradientUnits="userSpaceOnUse" x1="175.1227" y1="25.5" x2="175.1227" y2="174.1917">
		<stop  offset="2.793296e-03" style="stop-color:#68CCEF"/>
		<stop  offset="0.2242" style="stop-color:#5BBEE6"/>
		<stop  offset="0.6422" style="stop-color:#3A99D0"/>
		<stop  offset="1" style="stop-color:#1974BA"/>
	</linearGradient>
	<path class="st0" d="M175.2,25.5c0,0,46.7,57.7,51.2,78.3c0,0,17.2,41.8-28.7,65.6c-48.5,19.2-71-25.5-71-25.5
		s-25.8-41.3,29.5-73.3C156.3,70.6,183.7,61.6,175.2,25.5z"/>
	<g>
		<path class="st1" d="M204.8,153.5c0,0,1.4-1.3,3.5-1.8s4.2-1.9,5.1-3.3c0.8-1.4-1.7,6.8-6.6,8.7
			C201.9,159,201.3,155.3,204.8,153.5z"/>
		<path class="st1" d="M214.5,146.1c0,0,0.9-3.1,0.3-3.8c0,0,1.2-1,1.5,0.6C216.3,142.8,215.7,145.1,214.5,146.1z"/>
	</g>
	<g>
		<g>
			<g>
				<g>
					<path class="st2" d="M129.8,103.8l-2.7,29l-8.7,0.9l1.2-13.2l-7,11.2l-4.2,0.4l-5.4-9.8l-1.3,13.1l-8.7,0.9l2.8-29l7.8-0.8
						l7.7,14.5l10.4-16.3L129.8,103.8z"/>
					<path class="st2" d="M93,143.2c-1.8,0-3.6-0.7-4.9-2c-1.5-1.5-2.2-3.5-2-5.6l2.8-29c0.3-3.3,2.9-5.9,6.2-6.2l7.8-0.8
						c2.8-0.3,5.5,1.1,6.8,3.6l2.2,4l4-6.3c1.1-1.8,3-3,5.1-3.2l8.2-0.8c2.1-0.2,4.1,0.5,5.6,2s2.2,3.5,2,5.5l-2.7,29
						c-0.3,3.3-2.9,5.9-6.2,6.2l-8.7,0.9c-2.1,0.2-4.1-0.5-5.6-2c0,0,0,0-0.1-0.1h-0.1l-4.2,0.4c-0.5,0.1-1,0-1.5,0
						c-1.1,1.8-3,3.1-5.2,3.3l-8.7,0.9C93.4,143.2,93.2,143.2,93,143.2z"/>
				</g>
				<g>
					<path class="st2" d="M159.7,120.3c0.6,6.3-5.1,9.7-12.4,10.4l-16.4,1.7l2.8-29l15.1-1.5c6.8-0.7,10.5,1.4,10.9,5.8
						c0.3,3.3-1.4,5.9-4.4,7.6C157.9,116,159.5,117.7,159.7,120.3z M150.2,121c-0.1-1.3-1.3-1.8-2.5-1.6l-6.2,0.6l-0.4,4.6l6.2-0.6
						C149.1,123.8,150.4,122.8,150.2,121z M142.5,109.3l-0.4,4.3l4.9-0.5c2.2-0.2,3.1-1.3,2.9-2.8c-0.1-1.2-1.1-1.7-2.7-1.5
						L142.5,109.3z"/>
					<path class="st2" d="M130.9,139.3c-1.8,0-3.6-0.7-4.9-2c-1.5-1.5-2.2-3.5-2-5.6l2.8-29c0.3-3.3,2.9-5.9,6.2-6.2l15.1-1.5
						c4.7-0.5,8.7,0.1,11.8,1.8c3.8,2.1,6.2,5.7,6.7,10.1c0.3,2.8-0.2,5.5-1.5,7.8c0.8,1.5,1.3,3.1,1.5,4.9
						c0.5,5.4-1.5,10.2-5.9,13.5c-3.2,2.4-7.6,4-12.6,4.5l-16.4,1.7C131.4,139.3,131.2,139.3,130.9,139.3z"/>
				</g>
				<g>
					<path class="st2" d="M181.8,122.2l-10.9,1.1l-2.3,5.3l-10.1,1l15.2-30.3l9.4-1l9.6,27.8l-9.6,1L181.8,122.2z M179.8,115.5
						l-2.1-7.1l-3.4,7.7L179.8,115.5z"/>
					<path class="st2" d="M158.5,136.5c-2.3,0-4.4-1.1-5.7-3c-1.4-2.1-1.6-4.8-0.5-7l15.2-30.3c1.1-2.1,3.1-3.5,5.5-3.8l9.4-1
						c3.2-0.3,6.2,1.6,7.2,4.6l9.6,27.8c0.7,2,0.4,4.2-0.7,6c-1.1,1.8-3,2.9-5.1,3.2l-9.6,1c-3.1,0.3-6-1.5-7.1-4.3l-1.2,0.1
						l-0.7,1.6c-1,2.3-3.1,3.8-5.6,4.1l-10.1,1C158.9,136.5,158.7,136.5,158.5,136.5z M168.6,128.6L168.6,128.6L168.6,128.6z"/>
				</g>
				<g>
					<path class="st2" d="M224.4,94.2l-2.8,29l-7.9,0.8l-9.5-12.4l-1.3,13.5l-9.4,1l2.8-29l7.9-0.8l9.5,12.4l1.3-13.5L224.4,94.2z"
						/>
					<path class="st2" d="M193.5,132.9c-1.8,0-3.6-0.7-4.9-2c-1.5-1.5-2.2-3.5-2-5.6l2.8-29c0.3-3.3,2.9-5.9,6.2-6.2l7.9-0.8
						c2.1-0.2,4.2,0.6,5.7,2.1c1.1-1.7,3-3,5.1-3.2l9.4-1c2.1-0.2,4.1,0.5,5.6,2s2.2,3.5,2,5.6l-2.8,29c-0.3,3.3-2.9,5.9-6.2,6.2
						l-7.9,0.8c-2.1,0.2-4.2-0.6-5.7-2.1c-1.1,1.8-3,3-5.1,3.2l-9.4,1C194,132.9,193.8,132.9,193.5,132.9z"/>
				</g>
				<g>
					<path class="st2" d="M225.8,110.6c-1-10,5.7-17.8,16.2-18.9c8.9-0.9,15,3.8,15.7,11.3c1,10-5.7,17.8-16.2,18.9
						C232.6,122.7,226.5,118,225.8,110.6z M248.1,104.5c-0.3-3.3-2.6-5.3-6.1-5c-4.7,0.5-7,4.8-6.6,9.5c0.3,3.3,2.6,5.3,6.1,5
						C246.2,113.5,248.5,109.2,248.1,104.5z"/>
					<path class="st2" d="M239.3,128.8c-11.1,0-19.4-6.9-20.5-17.6l0,0c-0.7-6.8,1.2-13.1,5.4-18c4.1-4.7,10.1-7.7,16.9-8.4
						c12.5-1.3,22.1,5.9,23.3,17.4c1.4,13.9-8,25-22.4,26.4C241.2,128.8,240.3,128.8,239.3,128.8z"/>
				</g>
			</g>
		</g>
	</g>
	<g>
		<g>
			<g>
				<path class="st1" d="M129.9,103.6l-2.7,29l-8.7,0.9l1.2-13.2l-7,11.2l-4.2,0.4l-5.4-9.8l-1.3,13.1l-8.7,0.9l2.8-29l7.8-0.8
					l7.7,14.5l10.4-16.3L129.9,103.6z"/>
				<path class="st1" d="M93,140.6c-1.2,0-2.3-0.5-3.2-1.3c-1-1-1.4-2.3-1.3-3.6l2.8-29c0.2-2.1,1.9-3.8,4-4.1l7.8-0.8
					c1.8-0.2,3.6,0.8,4.4,2.4l4.1,7.7l6.2-9.8c0.7-1.2,2-1.9,3.4-2.1l8.2-0.8c1.3-0.1,2.7,0.3,3.6,1.3c1,1,1.4,2.3,1.3,3.6l-2.7,29
					c-0.2,2.1-1.9,3.8-4,4.1l-8.7,0.9c-1.3,0.1-2.7-0.3-3.6-1.3c-0.3-0.3-0.6-0.7-0.8-1.1c-0.4,0.2-0.9,0.3-1.3,0.3l-4.2,0.4
					c-1,0.1-1.9-0.1-2.7-0.6c-0.3,2-1.9,3.6-4,3.8l-8.7,0.9C93.3,140.6,93.2,140.6,93,140.6z M109.7,125l0.8,1.4l0.7-1.1
					c0,0,0,0-0.1,0C110.7,125.2,110.2,125.1,109.7,125z M99.9,111.1l-0.8,8.7c0.6-1.1,1.7-1.9,3-2.2c0.9-0.2,1.8-0.1,2.6,0.2
					L101,111L99.9,111.1z M119.8,115.8c0.4,0,0.8,0.1,1.2,0.2c1.4,0.5,2.4,1.6,2.9,2.9l1-10.3l-0.5,0.1L119.8,115.8z"/>
			</g>
			<g>
				<path class="st1" d="M159.8,120.1c0.6,6.3-5.1,9.7-12.4,10.4l-16.4,1.7l2.8-29l15.1-1.5c6.8-0.7,10.5,1.4,10.9,5.8
					c0.3,3.3-1.4,5.9-4.4,7.6C157.9,115.7,159.5,117.5,159.8,120.1z M150.2,120.8c-0.1-1.3-1.3-1.8-2.5-1.6l-6.2,0.6l-0.4,4.6
					l6.2-0.6C149.1,123.6,150.4,122.6,150.2,120.8z M142.6,109.1l-0.4,4.3l4.9-0.5c2.2-0.2,3.1-1.3,2.9-2.8
					c-0.1-1.2-1.1-1.7-2.7-1.5L142.6,109.1z"/>
				<path class="st1" d="M131,136.7c-1.2,0-2.3-0.5-3.2-1.3c-1-1-1.4-2.3-1.3-3.6l2.8-29c0.2-2.1,1.9-3.8,4-4.1l15.1-1.5
					c4.2-0.4,7.7,0.1,10.4,1.5c3.1,1.7,5.1,4.6,5.4,8.3c0.3,2.8-0.4,5.4-1.9,7.6c1,1.4,1.7,3.2,1.9,5.1l0,0c0.5,4.5-1.3,8.5-5,11.3
					c-2.8,2.2-6.8,3.6-11.4,4l-16.4,1.7C131.3,136.7,131.1,136.7,131,136.7z M137.9,107.3l-1.9,19.9l1.4-0.1c-0.6-0.9-0.9-2-0.8-3.1
					l0.4-4.6c0.1-1.3,0.8-2.4,1.7-3.1c-0.8-0.9-1.2-2.2-1.1-3.4l0.4-4.3c0-0.5,0.2-1,0.4-1.4L137.9,107.3z M154.6,119.5
					c0.1,0.3,0.1,0.6,0.2,0.9l0,0c0.1,1,0,2-0.3,2.9c0.7-0.8,1-1.6,0.9-2.7l0,0C155.2,120.1,155.2,119.8,154.6,119.5z M152.9,106.1
					c0.9,1,1.4,2.2,1.5,3.5c0,0.2,0,0.3,0,0.5c1-0.9,0.9-1.8,0.8-2.2c-0.1-0.8-0.4-1-0.7-1.2C154.3,106.5,153.8,106.3,152.9,106.1z"
					/>
			</g>
			<g>
				<path class="st1" d="M181.8,122l-10.9,1.1l-2.3,5.2l-10.1,1L173.7,99l9.4-1l9.6,27.8l-9.6,1L181.8,122z M179.8,115.3l-2.1-7.1
					l-3.4,7.7L179.8,115.3z"/>
				<path class="st1" d="M158.5,133.9c-1.5,0-2.9-0.7-3.7-2c-0.9-1.4-1.1-3.1-0.3-4.6L169.7,97c0.7-1.4,2-2.3,3.6-2.5l9.4-1
					c2.1-0.2,4,1,4.7,3l9.6,27.8c0.5,1.3,0.3,2.7-0.5,3.9c-0.7,1.2-2,1.9-3.3,2.1l-9.6,1c-2.2,0.2-4.2-1.1-4.8-3.2l-0.4-1.3
					l-4.5,0.5l-1.3,2.9c-0.7,1.5-2.1,2.5-3.7,2.7l-10.1,1C158.8,133.9,158.7,133.9,158.5,133.9z M168.6,128.4L168.6,128.4
					L168.6,128.4z M183.5,117.8c1.3,0.5,2.3,1.5,2.7,2.9l0.4,1.3h0.2l-2.4-6.9C184.3,116,184.1,117,183.5,117.8L183.5,117.8z
					 M169.8,116.9l-1.2,2.3c0.6-0.3,1.2-0.5,1.9-0.6h0.2c0-0.1-0.1-0.1-0.1-0.2C170.2,118,170,117.5,169.8,116.9z M177.7,103.6
					c0.1,0,0.2,0,0.3,0c1,0.1,2,0.5,2.8,1.2l-0.6-1.8l-3.4,0.3l-0.2,0.4C176.8,103.7,177.2,103.6,177.7,103.6z"/>
			</g>
			<g>
				<path class="st1" d="M224.4,93.9l-2.8,29l-7.9,0.8l-9.5-12.4l-1.3,13.5l-9.4,1l2.8-29l7.9-0.8l9.5,12.4l1.3-13.5L224.4,93.9z"/>
				<path class="st1" d="M193.6,130.4c-1.2,0-2.3-0.5-3.2-1.3c-1-1-1.4-2.3-1.3-3.6l2.8-29c0.2-2.1,1.9-3.8,4-4.1l7.9-0.8
					c1.6-0.2,3.1,0.5,4,1.7l2.5,3.3l0.2-2.1c0.2-2.1,1.9-3.8,4-4.1l9.4-1c1.3-0.1,2.7,0.3,3.6,1.3c1,1,1.4,2.3,1.3,3.6l-2.8,29
					c-0.2,2.1-1.9,3.8-4,4.1l-7.9,0.8c-1.6,0.2-3.1-0.5-4-1.7l-2.5-3.3l-0.2,2.1c-0.2,2.1-1.9,3.8-4,4.1l-9.4,1
					C193.9,130.4,193.7,130.4,193.6,130.4z M200.5,100.9l-1.9,19.9h0.2l0.9-9.8c0.2-1.8,1.5-3.4,3.2-3.9c1.8-0.5,3.7,0.1,4.8,1.6
					l8,10.4l1.7-0.2l1.9-19.9h-0.2l-0.9,9.8c-0.2,1.8-1.5,3.4-3.2,3.9c-1.8,0.5-3.7-0.1-4.8-1.6l-8-10.4L200.5,100.9z"/>
			</g>
			<g>
				<path class="st1" d="M225.8,110.4c-1-10,5.7-17.8,16.2-18.9c8.9-0.9,15,3.8,15.7,11.3c1,10-5.7,17.8-16.2,18.9
					C232.7,122.5,226.6,117.8,225.8,110.4z M248.1,104.3c-0.3-3.3-2.6-5.3-6.1-5c-4.7,0.5-7,4.8-6.6,9.5c0.3,3.3,2.6,5.3,6.1,5
					C246.3,113.3,248.6,109,248.1,104.3z"/>
				<path class="st1" d="M239.4,126.2c-9.9,0-17.2-6.1-18.1-15.4l0,0c-0.6-6.1,1.1-11.8,4.9-16.2c3.7-4.3,9.1-7,15.4-7.6
					c5.4-0.6,10.3,0.6,14,3.3c3.8,2.8,6.2,7,6.7,12c1.3,12.5-7.2,22.5-20.2,23.8C241.1,126.2,240.3,126.2,239.4,126.2z M230.3,109.9
					c0.3,3.1,1.8,5.2,4.3,6.4c-0.1-0.1-0.1-0.1-0.2-0.2c-2-1.6-3.2-4.1-3.5-6.9c-0.3-2.6,0.1-5.1,1-7.3
					C230.6,104.2,230,106.9,230.3,109.9L230.3,109.9z M249,96.9c2,1.6,3.3,4,3.6,6.9l0,0c0.3,2.6-0.1,5.1-1,7.3c1.4-2.2,2-4.9,1.7-8
					c-0.2-2.4-1.3-4.3-3-5.6C249.9,97.4,249.5,97.1,249,96.9z M242.8,103.8c-0.1,0-0.3,0-0.4,0c-0.9,0.1-1.5,0.4-1.9,1.1
					c-0.5,0.8-0.8,2.1-0.6,3.4c0.1,0.5,0.2,0.8,0.3,0.8c0.1,0.1,0.4,0.1,0.9,0.1c0.9-0.1,1.5-0.4,1.9-1.1c0.5-0.8,0.8-2.1,0.6-3.4
					C243.5,104,243.4,103.8,242.8,103.8z"/>
			</g>
		</g>
	</g>
	<g>
		<g>
			<g>
				<path class="st2" d="M129.9,103.6l-2.7,29l-8.7,0.9l1.2-13.2l-7,11.2l-4.2,0.4l-5.4-9.8l-1.3,13.1l-8.7,0.9l2.8-29l7.8-0.8
					l7.7,14.5l10.4-16.3L129.9,103.6z"/>
				<path class="st2" d="M159.8,120.1c0.6,6.3-5.1,9.7-12.4,10.4l-16.4,1.7l2.8-29l15.1-1.5c6.8-0.7,10.5,1.4,10.9,5.8
					c0.3,3.3-1.4,5.9-4.4,7.6C157.9,115.7,159.5,117.5,159.8,120.1z M150.2,120.8c-0.1-1.3-1.3-1.8-2.5-1.6l-6.2,0.6l-0.4,4.6
					l6.2-0.6C149.1,123.6,150.4,122.6,150.2,120.8z M142.6,109.1l-0.4,4.3l4.9-0.5c2.2-0.2,3.1-1.3,2.9-2.8
					c-0.1-1.2-1.1-1.7-2.7-1.5L142.6,109.1z"/>
				<path class="st2" d="M181.8,122l-10.9,1.1l-2.3,5.2l-10.1,1L173.7,99l9.4-1l9.6,27.8l-9.6,1L181.8,122z M179.8,115.3l-2.1-7.1
					l-3.4,7.7L179.8,115.3z"/>
				<path class="st2" d="M224.4,93.9l-2.8,29l-7.9,0.8l-9.5-12.4l-1.3,13.5l-9.4,1l2.8-29l7.9-0.8l9.5,12.4l1.3-13.5L224.4,93.9z"/>
				<path class="st2" d="M225.8,110.4c-1-10,5.7-17.8,16.2-18.9c8.9-0.9,15,3.8,15.7,11.3c1,10-5.7,17.8-16.2,18.9
					C232.7,122.5,226.6,117.8,225.8,110.4z M248.1,104.3c-0.3-3.3-2.6-5.3-6.1-5c-4.7,0.5-7,4.8-6.6,9.5c0.3,3.3,2.6,5.3,6.1,5
					C246.3,113.3,248.6,109,248.1,104.3z"/>
			</g>
		</g>
	</g>
	<g>
		<path class="st1" d="M170.4,139.7l2.3,2.8l-1.1,0.1l-1.8-2.2l-1,1l-0.1,1.4l-1,0.1l0.5-5.7l1-0.1l-0.3,2.9l2.9-3.1l1.3-0.1
			L170.4,139.7L170.4,139.7z"/>
		<path class="st1" d="M177.5,137.7l-0.4,4.3l-0.9,0.1v-0.4c-0.3,0.4-0.8,0.6-1.3,0.6c-1,0.1-1.9-0.5-2.1-1.7
			c-0.1-1.4,0.8-2.6,2.1-2.7c0.7-0.1,1.2,0.1,1.5,0.5l0.1-0.6L177.5,137.7z M176.3,139.7c-0.1-0.7-0.5-1-1.2-0.9
			c-0.8,0.1-1.4,0.8-1.3,1.7c0.1,0.7,0.5,1,1.2,0.9C175.8,141.3,176.4,140.6,176.3,139.7z"/>
		<path class="st1" d="M182.8,137.2l-0.4,3.7c-0.2,1.6-1,2.4-2.4,2.5c-0.8,0.1-1.5,0-2-0.4l0.4-0.8c0.4,0.3,0.9,0.4,1.6,0.3
			c0.9-0.1,1.3-0.6,1.4-1.4v-0.2c-0.3,0.3-0.8,0.6-1.3,0.6c-1.1,0.1-2-0.5-2.1-1.6c-0.1-1.3,0.8-2.4,2.2-2.6
			c0.6-0.1,1.2,0.1,1.6,0.6l0.1-0.7L182.8,137.2z M181.6,139.1c-0.1-0.6-0.5-0.9-1.2-0.9c-0.8,0.1-1.4,0.7-1.3,1.6
			c0.1,0.6,0.5,0.9,1.2,0.9C181.1,140.6,181.7,139.9,181.6,139.1z"/>
		<path class="st1" d="M187.7,139.1l-3.4,0.3c0.1,0.7,0.5,1,1.3,0.9c0.5,0,0.9-0.3,1.2-0.6l0.5,0.6c-0.4,0.4-1,0.7-1.7,0.8
			c-1.3,0.1-2.2-0.5-2.3-1.6c-0.1-1.4,0.8-2.6,2.2-2.7c1.2-0.1,2,0.5,2.1,1.7C187.7,138.7,187.7,138.9,187.7,139.1z M184.4,138.8
			l2.4-0.2c-0.1-0.7-0.5-1-1.2-0.9C184.9,137.7,184.5,138.1,184.4,138.8z"/>
		<path class="st1" d="M192.7,137.5c0,0.2,0,0.3,0,0.5l-0.2,2.4l-1,0.1l0.2-2.4c0-0.1,0-0.2,0-0.3c-0.1-0.5-0.3-0.7-0.9-0.7
			c-0.7,0.1-1.2,0.5-1.3,1.4l-0.2,2.2l-1,0.1l0.4-4.3l0.9-0.1v0.5c0.4-0.4,0.8-0.6,1.4-0.7C191.9,136.2,192.6,136.6,192.7,137.5z"/>
		<path class="st1" d="M202.6,135.1l-1.9,4.5l-1,0.1l-0.9-2.9l-1.4,3.1l-1,0.1l-1.2-4.2l0.9-0.1l0.9,3.1l1.4-3.3l0.8-0.1l0.9,3.1
			l1.4-3.3L202.6,135.1z"/>
		<path class="st1" d="M207.1,134.7l-0.4,4.3l-0.9,0.1v-0.4c-0.3,0.4-0.8,0.6-1.3,0.6c-1,0.1-1.9-0.5-2.1-1.7
			c-0.1-1.4,0.8-2.6,2.1-2.7c0.7-0.1,1.2,0.1,1.5,0.5l0.1-0.6L207.1,134.7z M206,136.7c-0.1-0.7-0.5-1-1.2-0.9
			c-0.8,0.1-1.4,0.8-1.3,1.7c0.1,0.7,0.5,1,1.2,0.9C205.5,138.3,206.1,137.6,206,136.7z"/>
		<path class="st1" d="M209.1,137.3c0,0.1,0,0.1,0,0.2c0,0.3,0.2,0.5,0.5,0.4c0.2,0,0.4-0.1,0.5-0.2l0.2,0.7c-0.3,0.2-0.6,0.3-1,0.4
			c-0.7,0.1-1.3-0.3-1.3-1c0-0.1,0-0.2,0-0.3l0.2-2l-0.7,0.1l0.1-0.8l0.7-0.1l0.1-1l1-0.1l-0.1,1l1.1-0.1l-0.1,0.8l-1.1,0.1
			L209.1,137.3z"/>
		<path class="st1" d="M215.1,136.3l-3.4,0.3c0.1,0.7,0.5,1,1.3,0.9c0.5,0,0.9-0.3,1.2-0.6l0.5,0.6c-0.4,0.4-1,0.7-1.7,0.8
			c-1.3,0.1-2.2-0.5-2.3-1.6c-0.1-1.4,0.8-2.6,2.2-2.7c1.2-0.1,2,0.5,2.1,1.7C215.1,135.9,215.1,136.1,215.1,136.3z M211.8,136
			l2.4-0.2c-0.1-0.7-0.5-1-1.2-0.9C212.3,134.9,211.9,135.3,211.8,136z"/>
		<path class="st1" d="M218.5,133.5l-0.1,1c-0.1,0-0.2,0-0.2,0c-0.8,0.1-1.3,0.5-1.3,1.4l-0.2,2.1l-1,0.1l0.4-4.3l0.9-0.1l-0.1,0.6
			C217.3,133.7,217.8,133.5,218.5,133.5z"/>
	</g>
	<path class="st3" d="M162.7,63.1l-0.6-0.9c14.5-8.8,8.7-35.2,8.6-35.4l1-0.2C172,27.7,177.9,53.9,162.7,63.1z"/>
</g>
</svg>
