<?xml version="1.0" encoding="utf-8"?>
<!-- Generator: Adobe Illustrator 24.0.0, SVG Export Plug-In . SVG Version: 6.00 Build 0)  -->
<svg version="1.1" id="Layer_1" xmlns="http://www.w3.org/2000/svg" xmlns:xlink="http://www.w3.org/1999/xlink" x="0px" y="0px"
	 viewBox="0 0 356 200" style="enable-background:new 0 0 356 200;" xml:space="preserve">
<style type="text/css">
	.st0{fill:#2B4669;}
	.st1{fill:#20B8DB;}
	.st2{display:none;fill:#2B4669;}
</style>
<g>
	<g>
		<path class="st0" d="M75.3,147.7h-3.9l0.7-3.5h12.4l-0.7,3.5h-3.9l-2,9.9h-4.5L75.3,147.7z"/>
		<path class="st0" d="M93.7,153.7l2.2,3.9h-4.7l-1.9-3.4h-1.1l-0.7,3.4H83l2.7-13.4h6c3.6,0,5.6,1.6,5.6,4.4
			C97.3,151,96,152.8,93.7,153.7z M91,147.7h-1.5l-0.6,3.1h1.9c1.2,0,2-0.7,2-1.8C92.7,148.1,92.1,147.7,91,147.7z"/>
		<path class="st0" d="M107.1,155.3H102l-1.3,2.3h-4.8l8.6-13.4h4.5l3.2,13.4h-4.5L107.1,155.3z M106.5,152l-0.7-3.4l-2,3.4H106.5z"
			/>
		<path class="st0" d="M128.7,144.2l-2.7,13.4h-3.7l-3.9-6.3l-1.2,6.3h-4.4l2.7-13.4h3.7l3.9,6.3l1.2-6.3H128.7z"/>
		<path class="st0" d="M127.7,156.6l1.7-3.3c1.5,0.9,3,1.2,4.5,1.2c1.2,0,1.8-0.3,1.8-0.8c0-1.4-6.4-0.6-6.4-4.8c0-3.1,2.6-5,6.8-5
			c2,0,3.8,0.4,5,1.2l-1.6,3.3c-1.1-0.7-2.4-1-3.7-1s-2,0.4-2,0.9c0,1.5,6.4,0.5,6.4,4.7c0,3-2.6,5-6.8,5
			C131.1,157.9,129,157.3,127.7,156.6z"/>
		<path class="st0" d="M143.5,144.2h4.5l-2.7,13.4h-4.5L143.5,144.2z"/>
		<path class="st0" d="M152.4,147.7h-3.9l0.7-3.5h12.4l-0.7,3.5H157l-2,9.9h-4.5L152.4,147.7z"/>
		<path class="st0" d="M178.5,154.2l1,1l-2.9,2.6l-1.1-1.1c-1.3,0.8-2.8,1.2-4.4,1.2c-2.9,0-5.2-1.3-5.2-3.6c0-2,1.4-3.3,3.4-4.2
			c-0.4-0.6-0.6-1.3-0.6-2c0-2.6,2.4-4.2,5.1-4.2c2.4,0,4.2,1.1,4.2,3.1c0,1.7-1.2,2.8-3,3.6l1.2,1.2c0.3-0.5,0.6-1.1,0.9-1.7l3.3,1
			C179.9,152.3,179.3,153.3,178.5,154.2z M173.4,154.4l-2.1-2.2c-0.6,0.3-1,0.8-1,1.3c0,0.6,0.5,1.1,1.6,1.1
			C172.4,154.7,172.9,154.6,173.4,154.4z M172.6,147.7c0,0.3,0.1,0.5,0.5,0.9c1.1-0.5,1.3-0.9,1.3-1.3c0-0.4-0.3-0.6-0.7-0.6
			C173.1,146.7,172.6,147.1,172.6,147.7z"/>
		<path class="st0" d="M191.4,147.7h-3.9l0.7-3.5h12.4l-0.7,3.5H196l-2,9.9h-4.5L191.4,147.7z"/>
		<path class="st0" d="M209.7,153.7l2.2,3.9h-4.7l-1.9-3.4h-1.1l-0.7,3.4H199l2.7-13.4h6c3.6,0,5.6,1.6,5.6,4.4
			C213.3,151,212,152.8,209.7,153.7z M207.1,147.7h-1.5l-0.6,3.1h1.9c1.2,0,2-0.7,2-1.8C208.8,148.1,208.1,147.7,207.1,147.7z"/>
		<path class="st0" d="M223.1,155.3H218l-1.3,2.3h-4.8l8.6-13.4h4.5l3.2,13.4h-4.5L223.1,155.3z M222.5,152l-0.7-3.4l-2,3.4H222.5z"
			/>
		<path class="st0" d="M231.5,144.2h6.1c4.2,0,6.9,2.2,6.9,5.7c0,4.7-3.5,7.7-8.4,7.7h-7.2L231.5,144.2z M236.2,154.1
			c2.4,0,3.7-1.7,3.7-3.9c0-1.6-1-2.4-2.8-2.4h-1.7l-1.3,6.4h2.1V154.1z"/>
		<path class="st0" d="M247.3,144.2h4.5l-2.7,13.4h-4.5L247.3,144.2z"/>
		<path class="st0" d="M267.3,144.2l-2.7,13.4h-3.7l-3.9-6.3l-1.2,6.3h-4.4l2.7-13.4h3.7l3.9,6.3l1.2-6.3H267.3z"/>
		<path class="st0" d="M277.1,150.5h3.9l-1.2,5.8c-1.4,1-3.3,1.6-5.5,1.6c-4.2,0-6.9-2.4-6.9-6c0-4.7,3.5-8,8.6-8
			c2.8,0,4.8,0.9,6.1,2.6L279,149c-0.9-1.1-1.8-1.5-3.1-1.5c-2.4,0-3.9,1.7-3.9,4.1c0,1.6,1.1,2.6,3,2.6c0.4,0,0.9-0.1,1.3-0.2
			L277.1,150.5z"/>
	</g>
	<g>
		<path class="st1" d="M194.3,104.1c-0.1,0-0.1,0-0.2,0H187c0.3,0.7,0.4,1.5,0.2,2.3l-0.2,1c1-1.3,2-2.5,3.7-3
			c-0.1,2.3-0.6,5.7-2.7,7.1c-0.1,0.1-0.3,0.2-0.4,0.3c-0.5,0.3-1.1,0.5-1.6,0.8l-0.9,4.5c0.4,1,0.7,2,0.2,3
			c-0.5,0.1-0.9,0.2-1.4,0.3c0,0,0,0.1-0.1,0.1c1,0.1,2,0.6,2.7,1.4c0.1,0.1,0.1,0.2,0.2,0.3l18.9-18.2L194.3,104.1L194.3,104.1z"/>
		<path class="st1" d="M245.5,113.7c-0.4-0.8-1.3-1.3-2.1-1.8s-1.7-1-2.2-1.8l-0.3-0.7c-0.4-0.9-1.1-1.7-1.5-2.5
			c-0.1-0.2-0.1-0.3-0.2-0.5c-0.1-0.3-0.1-0.7-0.1-1.1c0.2-1.3,0.6-2.5,1-3.7l-19.3,18.5H233c0.1,0,0.1,0,0.2,0h22.3
			c-0.2-0.2-0.3-0.4-0.5-0.6c-1.3-0.2-2.8,0-4.1-0.1s-2.6-0.2-3.7-0.7c-0.3-0.1-0.6-0.3-0.8-0.4c-0.2-0.2-0.5-0.4-0.7-0.6
			c-0.3-0.3-0.5-0.7-0.6-1.1c0-0.1-0.1-0.3-0.1-0.4C246,116,245.9,114.5,245.5,113.7z"/>
		<path class="st1" d="M243.6,93.7c0.4,0.4,0.7,0.9,1.1,1.4c1.2,1.9,2.8,3.6,4.6,5.1c0.4,0.3,0.7,0.6,1.1,0.9
			c0.8,0.6,1.6,1.1,2.5,1.6l1.4-1.3l-2.1,6.6l-0.2,0c0.2,0.4,0.6,0.7,0.9,0.9c0.2,0.1,0.4,0.3,0.6,0.4c0.2,0.1,0.4,0.3,0.5,0.4
			c1.6,1.4,2.1,3.5,1.3,5.3c0.2-0.1,0.7,0.3,0.8,0.2c0.3,0.2,0.6,0.5,0.8,0.7c0.3,0.2,0.6,0.5,0.9,0.7c1.7,1.4,3.6,2.6,5.9,3.1
			c-0.5,0.1-1,0.3-1.4,0.5h22.9c-0.4-0.8-0.9-1.6-1.5-2.3c-0.2-0.3-0.5-0.5-0.8-0.8c-0.5-0.4-1-0.8-1.6-1.1
			c-1.1-0.7-2.2-1.2-3.3-1.7c-0.2-0.1-0.4-0.2-0.7-0.3c-0.3-0.6-0.7-1.2-1.2-1.7c-0.7-0.8-1.7-1.4-2.7-1.9c-1.1-0.5-2.3-0.8-3.5-0.9
			c-0.4-0.6-0.8-1.2-1.4-1.8c-0.3-0.4-0.6-0.7-1-1.1s-0.7-0.8-1.1-1.1c-1.7-1.6-3.4-3-4.2-3.7c-0.6-0.8-1.1-1.4-1.6-2.1
			c-0.4-0.5-0.7-0.9-1.1-1.3c-0.9-1-1.7-1.9-2.4-2.7c-0.2-0.2-0.4-0.4-0.6-0.6c-0.4-0.4-0.8-0.8-1.1-1.2c-1-1.1-2-2.3-3.2-4l0,0
			c-0.5-0.6-1.3-1-2.2-1c-0.3,0-0.6,0.1-0.9,0.1c-0.1,0-0.3,0.1-0.4,0.1c-1.8,0.9-3.2,1.4-4.7,2L243.6,93.7z"/>
		<path class="st1" d="M140.8,82.9c1.2,0,2.3,0.5,3.1,1.5c0.8,0.9,1.1,2.1,0.8,3.3v0.2c-0.1,0.6-0.4,1.2-0.8,1.7l-3.3,4.3
			c1.5,0.8,2.4,2.5,2,4.3l-4.9,25.1h0.1l3.7-18.3c0.2-1.1,0.9-2,1.8-2.6c-0.6-0.9-0.8-2-0.6-3l2.9-13c-0.1-0.1-0.1-0.2-0.2-0.3
			c-0.3-0.3-0.5-0.6-0.7-1c-0.1-0.2-0.2-0.3-0.3-0.5s-0.2-0.3-0.3-0.5l-4.5-4.3l2.5,1c-0.5-0.7-1-1.5-1.6-2.1
			c-0.1-0.1-0.2-0.2-0.3-0.3c-0.1-0.1-0.2-0.2-0.3-0.4c-0.2-0.2-0.4-0.5-0.5-0.8c-0.2-0.6-0.2-1.2,0.3-1.7c0.5-0.4,1.5-0.4,1.9,0.1
			c1.6,0.6,3.6,0.8,5.4,1c1.7,0.2,3.6-0.2,4.8-1.2c0.9-0.8,1-2,1.8-2.9c0.1-0.1,0.2-0.2,0.4-0.3c0.2-0.1,0.3-0.4,0.3-0.6
			c0-0.3-0.1-0.5-0.2-0.7c-0.2-0.4-0.8-0.6-1.3-0.8c-0.1,0-0.3-0.1-0.4-0.1c-0.1,0-0.3-0.1-0.4-0.1c-0.3-0.1-0.5-0.2-0.7-0.4
			c-0.4-0.3-0.4-1,0.1-1.2c0.2-0.7,0.7-1.4,1.4-2c0.3-0.3,0.7-0.6,1-0.9c0.4-0.3,0.7-0.5,1.1-0.7c1.4-0.7,2.9-1.3,4.2-2.1
			s2.4-2.1,2.3-3.4c1.1-0.1,2.3-0.5,3.4-1c0.8-0.4,1.5-0.9,2.1-1.5c0.2-0.2,0.3-0.4,0.5-0.6c0.1-0.2,0.2-0.4,0.3-0.5
			c0.2-0.4,0.4-0.7,0.5-1.1c0.4-1,0.7-2,1.2-2.9l5.8-5c-0.1,1.4-0.6,2.8-1.3,4c-0.2,0.2-0.3,0.5-0.5,0.7c-0.3,0.5-0.7,0.9-1.2,1.4
			c0.1,0.6,0.7,0.7,1.4,0.8c0.5,0.1,1.1,0.1,1.6,0.3c0.2,0.1,0.3,0.1,0.4,0.2c0.1,0.1,0.1,0.1,0.2,0.2c0.4,0.5,0.4,1.2,0.1,1.8
			c-0.4,0.6-1.1,1.1-1.7,1.6c-0.7,0.5-1.4,0.9-1.8,1.6c-0.5,0.8-1.5,1.2-2.5,1.8c-0.2,0.1-0.4,0.2-0.6,0.3c-0.4,0.2-0.7,0.5-0.9,0.8
			c-0.9,1.2-1.3,2.8-0.3,4c2-0.7,4.7-0.8,6.1,0.6c1.4,1.4,1.6,3.6,0.4,5.1c-1.2,1.6,0.9,4.4,2.8,5.5c0.2,0.1,0.5,0.3,0.6,0.5
			c0.2,0.4-0.3,0.8-0.7,1.1c-0.8,0.6-1.5,1.4-2.1,2.2c-0.4,0.6-0.7,1.3-0.8,2h22.3h0.6h5.4c-1.3-2.1-3.1-4-5.3-5.4
			c-0.2-0.1-0.4-0.2-0.7-0.3c-0.3-0.1-0.5-0.2-0.8-0.3c-0.6-0.2-1.3-0.5-2-0.7c-1-0.3-2.1-0.6-2.9-0.7c-0.1,0-0.2,0-0.4-0.1
			c-0.9-0.2-1.5-0.3-1.5-0.3s1.9-0.3,4.1-0.4c-1.1-2.5-1.1-5.2-0.6-7.8c0.3-1.4,0.7-2.8,0.4-4.3c-0.2-0.9-0.6-1.7-1.1-2.5
			c-0.1-0.2-0.2-0.3-0.3-0.5c-0.2-0.3-0.4-0.6-0.7-0.9c1.6,0.6,2.9,1.4,3.7,2.6c0.1,0.2,0.2,0.4,0.3,0.6c0.3,0.6,0.4,1.2,0.5,1.8
			s0.2,1.2,0.4,1.8c0.3,1.1,0.8,2,1.5,3c0.6,0.7,1.2,1.5,1.8,2.2c1.1,1.3,2.2,2.5,2.9,3.9c0.5,1.1,0.6,2.3,0.3,3.4
			c0,0.1,0,0.2-0.1,0.3c0,0.2-0.1,0.4,0,0.5c0,0.1,0.1,0.2,0.1,0.2c0.2,0.3,0.6,0.3,1,0.3c2.9,0.3,5.8,1.3,8.3,2.4
			c0.2,0.5,0.5,0.9,0.9,1.2H228c-0.1,0-0.2-0.1-0.3-0.1c-0.6-0.2-1.3-0.4-2-0.5c-0.5-1-1.2-2-2-2.9c-1.3-1.5-2.9-2.8-4.7-3.8
			c-2.2-1.3-4.5-2.1-6.8-2.5c-0.8-0.2-1.7-0.3-2.6-0.3c-0.2-0.3-0.4-0.7-0.6-1c-0.4-0.7-0.8-1.5-1.2-2.2c-0.3-0.5-0.6-1.1-0.8-1.6
			c-0.3-0.5-0.5-1.1-0.8-1.6l-0.5-1.1c-0.4-0.8-1.3-1.3-2.3-1.3h-0.1c-1,0-2,0.1-3,0.2c-0.4,0-0.8,0.1-1.2,0.1
			c-1.5-2.6-3.3-5.4-5.4-8.2c-0.5-0.6-0.9-1.3-1.4-1.9c-0.5-0.6-1.3-0.9-2.1-0.9c-0.2,0-0.5,0-0.7,0.1s-0.5,0.1-0.7,0.1
			c-0.7,0.1-1.4,0.3-2.1,0.4c-0.1,0-0.2,0-0.3,0.1c-0.1,0-0.2,0-0.3,0.1c-0.1-0.3-0.3-0.7-0.4-1c-0.6-1.5-1.4-3-2.4-4.5
			c-1.4-2.1-3.5-4.7-7.1-6.1c-0.3-0.1-0.7-0.2-1.1-0.2c-0.5,0-1,0.1-1.5,0.4c-0.2,0.1-0.4,0.3-0.6,0.5c-0.5,0.6-1,1.3-1.4,1.9
			c-0.3,0.4-0.5,0.8-0.7,1.2c0,0,0,0-0.1,0c-0.3-0.1-0.6-0.2-0.9-0.3c-0.2,0-0.3,0-0.5,0c-0.4,0-0.9,0.1-1.2,0.3
			c-0.2,0.1-0.5,0.2-0.6,0.4c-0.7,0.7-1.4,1.4-2.1,2.1c-0.7,0.7-1.4,1.5-2,2.2c-0.4,0.5-0.9,1-1.3,1.5c-0.3,0.4-0.6,0.8-1,1.1
			c-2,2.3-3.9,4.4-6.1,6.1c-4.3,3.2-8.3,7-12.1,11.5c-0.1-0.2-0.3-0.3-0.4-0.4c-0.2-0.3-0.5-0.5-0.9-0.6c-0.3-0.1-0.7-0.2-1.1-0.2
			c-0.1,0-0.2,0-0.2,0c-0.1,0-0.1,0-0.2,0c-0.8,0.1-1.5,0.5-1.8,1.1c-0.1,0.1-0.2,0.3-0.2,0.4c-0.8,1.4-1.4,2.9-2,4.3
			c-0.1,0.3-0.2,0.6-0.4,0.9c-0.9,2.1-1.8,4.1-3.5,5.3c-0.5,0.4-1,0.8-1.5,1.2h10V82.9z"/>
		<path class="st1" d="M105.7,104.2L105.7,104.2c0.8-0.5,1.1-1.3,1-2.1c-0.1-1.9-2.1-3.4-2.1-5.3c0-0.4,0.1-0.9,0.2-1.4
			c0.2-0.5,0.4-0.9,0.7-1.2c0.2-0.2,0.3-0.3,0.5-0.5c0.2-0.1,0.4-0.3,0.6-0.4c0.4-0.3,0.8-0.5,1.3-0.7c-0.2-1.1-0.1-2.4,0.5-3.4
			c0.1-0.2,0.3-0.4,0.6-0.5c0.5-0.1,0.9,0.2,1.2,0.5c0.1,0.1,0.2,0.2,0.3,0.4c0.1,0.1,0.1,0.2,0.2,0.4c0.1,0.3,0.2,0.5,0.3,0.8
			c0,0.2,0.1,0.4,0.1,0.6c0.1,0.2,0.3,0.3,0.5,0.4c1.2-2-0.3-4.8,0.8-6.8c0.1-0.2,0.2-0.4,0.4-0.5c0.3-0.3,0.6-0.6,0.9-0.9
			c0.2-0.1,0.3-0.3,0.5-0.4c0.6-0.5,1-0.6,1.7-0.7c-1.1,2.6-1.4,5.5-0.9,8.3c0.2,1,0.5,1.9,1.1,2.9l7.1-9c0.2-0.3,0.5-0.5,0.7-0.7
			c-0.6-1.5-1.2-3.1-1.8-4.5c-0.1-0.2-0.2-0.4-0.3-0.7c0-0.1-0.1-0.1-0.1-0.2c-0.3-0.5-0.8-0.9-1.4-1.1c-0.1,0-0.3-0.1-0.5-0.1
			c-0.1,0-0.3,0-0.4,0c-0.3,0-0.7,0.1-1,0.2c-0.1,0-0.2,0.1-0.3,0.1c-3,1.5-5.6,3.4-8.1,5.4c-0.4,0.3-0.7,0.6-1.1,0.8l-0.4,0.3
			c-0.4,0.3-0.7,0.6-1.1,0.9c-0.3,0.3-0.7,0.6-1,1c0,0,0,0-0.1,0.1c-0.5,0.5-0.9,1-1.3,1.5c-0.3,0.4-0.7,0.8-1,1.3
			c-1,1.3-1.9,2.8-2.7,4.4c-0.1-0.1-0.2-0.1-0.3-0.1L105.7,104.2z"/>
		<path class="st1" d="M109.7,101.5c-0.4-0.4-0.7-0.8-0.9-1.2c0.2,0.7,0.3,1.4,0.3,2.1L109.7,101.5z"/>
	</g>
	<g>
		<g>
			<polygon class="st0" points="140.8,87.3 140.8,87.1 126.3,87.1 105.2,113.9 94.3,87.1 80.5,87.1 70.4,137.5 85.9,137.5 
				90.4,114.8 98.2,132.9 105.7,132.9 115.2,120.5 			"/>
			<polygon class="st0" points="117.9,124.6 115.4,137.5 130.9,137.5 138.7,97.5 			"/>
			
				<rect x="94.4" y="108.4" transform="matrix(0.6063 -0.7952 0.7952 0.6063 -36.9289 147.1899)" class="st2" width="71.5" height="5"/>
		</g>
		<g>
			<polygon class="st0" points="159.6,118 180.9,118 183.4,105.8 162.1,105.8 145.4,105.8 139.1,137.5 180.9,137.5 183.5,124.7 
				158.3,124.7 			"/>
			<polygon class="st0" points="194.1,100.3 197.1,87.1 149.6,87.1 146.6,100.3 			"/>
		</g>
		<path class="st0" d="M238.8,97.5l-27.9,26.8h23.7l-2.7,13.2h-46.3l2.1-10.4l27.9-26.8h-21.9l2.7-13.2h44.4L238.8,97.5z"/>
		<polygon class="st0" points="282.3,137.5 285.6,124.3 233.1,124.3 229.9,137.5 		"/>
	</g>
</g>
</svg>
