<?xml version="1.0" encoding="utf-8"?>
<!-- Generator: Adobe Illustrator 24.0.0, SVG Export Plug-In . SVG Version: 6.00 Build 0)  -->
<svg version="1.1" id="Layer_1" xmlns="http://www.w3.org/2000/svg" xmlns:xlink="http://www.w3.org/1999/xlink" x="0px" y="0px"
	 viewBox="0 0 356 200" style="enable-background:new 0 0 356 200;" xml:space="preserve">
<style type="text/css">
	.st0{fill:#B4B1B1;}
</style>
<g>
	<g>
		<path d="M76.1,65.5h11.2v46H76.1L54.2,84.9v26.7H43v-46h10.2l22.9,27.1V65.5z"/>
		<path d="M117.2,112.3c-13.1,0-23.7-10.6-23.7-23.7S104.1,65,117.2,65s23.7,10.6,23.7,23.7S130.3,112.3,117.2,112.3z M117.2,101.2
			c7,0,12.6-5.6,12.6-12.6S124.2,76,117.2,76s-12.6,5.6-12.6,12.6C104.6,95.6,110.2,101.2,117.2,101.2z"/>
		<path d="M163.7,102.1c3.5,0,6.4-1.9,6.4-6.4V65.5h11.2v31.3c0,10.2-8.1,15.1-17.7,15.1c-9.5,0-17.6-4.9-17.6-15.1V65.5h11.2v30.1
			C157.2,100.1,160.1,102.1,163.7,102.1z"/>
		<path d="M215.9,111.6h-6.6l-8.6-25.7l-3.9,25.7h-11.2l7.3-46h11.9l7.9,24.9l8.4-24.9h11.7l6.7,46h-11.2l-3.7-25.7L215.9,111.6z"/>
		<path class="st0" d="M255.8,75.4v8.2h12.8v9.9h-12.8v8.3h13.5v9.9h-24.8v-46h24.8v9.9h-13.5V75.4z"/>
		<path class="st0" d="M301.4,65.5h12.8l-18.1,21.1l19.6,24.9h-13.3l-14.8-18.8v18.8h-11.2v-46h11.2v16.6L301.4,65.5z"/>
	</g>
	<g>
		<path d="M119.4,126.3h3.8l3,10.9l3.1-10.9h4.9l-5.7,18.8h-3.9l-3.4-10.2l-3.4,10.2h-3.9l-5.4-18.8h4.9l2.9,10.9L119.4,126.3z"/>
		<path d="M160.1,145.4c-5.7,0-10.4-4.3-10.4-9.7c0-5.3,4.6-9.7,10.4-9.7c5.7,0,10.4,4.3,10.4,9.7
			C170.5,141,165.9,145.4,160.1,145.4z M160.1,140.8c3.1,0,5.5-2.3,5.5-5.1s-2.5-5.1-5.5-5.1c-3.1,0-5.5,2.3-5.5,5.1
			S157.1,140.8,160.1,140.8z"/>
		<path d="M187.5,145v-18.8h7.6c3.6,0,6.5,2.2,6.5,5.9c0,2.8-1.7,4.8-4.1,5.5l5.1,7.3h-5.4l-4.7-6.9v6.9h-5V145z M194.6,134
			c1.4,0,2-0.8,2-1.9c0-1.1-0.8-1.9-2-1.9h-2.2v3.8L194.6,134L194.6,134z"/>
		<path d="M230,141v4h-10.3v-18.8h4.9V141H230z"/>
		<path d="M254.2,145h-6.9v-18.8h6.9c6.5,0,9.8,4.7,9.8,9.4C264,140.4,260.7,145,254.2,145z M253.4,141c3.4,0,5.3-2.6,5.3-5.3
			c0-2.8-2-5.4-5.3-5.4h-1.3V141H253.4z"/>
	</g>
</g>
</svg>
