<?xml version="1.0" encoding="utf-8"?>
<!-- Generator: Adobe Illustrator 24.0.0, SVG Export Plug-In . SVG Version: 6.00 Build 0)  -->
<svg version="1.1" id="Layer_1" xmlns="http://www.w3.org/2000/svg" xmlns:xlink="http://www.w3.org/1999/xlink" x="0px" y="0px"
	 viewBox="0 0 356 200" style="enable-background:new 0 0 356 200;" xml:space="preserve">
<style type="text/css">
	.st0{fill:#D0121C;}
	.st1{fill:#FFFFFF;}
</style>
<g>
	<path d="M219.2,160v4.4c0,7,16.5,12.6,36.8,12.6s36.8-5.7,36.8-12.6V160c0-6.2-12.9-11.3-29.9-12.4l-1.9,8v-8.2v-22.1
		c0,0,0.1,0,0.1-0.1c3.1-1.8,6.2-3.6,8.1-6.3c2.7-3.9,0.7-7.8-0.9-11c-0.9-1.7-1.7-3.3-1.9-4.8c0.3-0.3,0.5-0.6,0.7-0.9
		c1.3-0.2,2.4-0.8,3.3-1.9c1.1-1.2,1.6-2.8,1.6-4.5c0-1.6-0.5-3.1-1.4-4.2c0.4-1.4,0.7-2.8,0.9-3.5c0.5-0.1,1.1-0.2,1.6-0.4
		c1.4-0.4,2.8-0.8,4.1-1.8c0.2-0.1,0.3-0.2,0.5-0.4l0.1-0.1l0.1-0.1l0.2-0.2c0.1-0.1,0.3-0.3,0.4-0.5s0.2-0.3,0.3-0.5
		c0.4-0.6,0.8-1.2,1.1-1.9c0.6-1.3,1-2.6,1.4-3.8c0.2-0.6,0.4-1.3,0.5-1.9l-2.6-3.4l3.1,1.4c0.1-0.7,0.3-1.4,0.4-2.1l-3-3.9l3.4,1.7
		c0.1-0.7,0.2-1.4,0.3-2l-3.2-4.2l3.6,1.9c0.1-0.7,0.2-1.4,0.3-2l-3.3-4.4l3.6,2.1c0.1-0.7,0.2-1.4,0.3-2.1l-3.4-4.5l3.7,2.2
		c0.1-0.7,0.2-1.4,0.3-2.1l-3.5-4.6l3.7,2.4c0.1-0.8,0.2-1.5,0.2-2.2l-3.5-4.7l3.7,2.4c0.1-0.8,0.1-1.6,0.2-2.3l-3.4-4.6l3.6,2.4
		c0.1-2.3,0.1-4.1,0-5.5c0-0.4-0.1-0.7-0.1-1s-0.1-0.5-0.1-0.7l-0.1-0.6l0,0c0,0-0.1-0.2-0.2-0.6c-0.1-0.4-0.3-1-0.7-1.7
		c-0.7-1.4-1.8-3.3-3.7-5.4c-1.8-2.1-4.3-4.4-7.6-6.5c-0.8-0.5-1.7-1-2.7-1.4s-2-0.8-3.1-1c-1.2-0.2-2.3-0.3-3.4-0.2
		c-1.2,0-2.3,0.1-3.5,0.2c-2.4,0.2-4.8,0.7-7.3,1.3c-2.5,0.6-5,1.3-7.6,2.4c-0.6,0.3-1.3,0.6-1.9,0.9c-0.6,0.4-1.2,0.8-1.8,1.4
		c-1,1.1-1.8,2.4-2.5,3.7c-1.3,2.7-2,5.5-2.6,8.4c-0.6,2.9-1.2,5.8-1.7,8.7c-0.5,3-1.1,5.9-1.6,9c-0.5,3-1,6.1-1.3,9.2
		s-0.4,6.3,0.1,9.6c0.3,1.6,0.8,3.2,1.8,4.7c0.4,0.6,1,1.3,1.5,1.9s1.1,1.2,1.7,1.7c2.5,2.1,5.4,3.6,8.4,4.6
		c0.3,0.1,0.5,0.2,0.8,0.2c-0.1,1.1-0.1,2.5-0.2,3.9l0,0c-0.2,2.9-0.2,5.3-0.2,6.8l0,0l0,0l0,0c0,4,1.7,6.7,4.5,7V128
		c-2.3,2-4.1,4.1-5.8,6.4c-3.3,4.7-3.6,9.2-2.5,13.7C229,150,219.2,154.6,219.2,160z M248.8,131.6c-0.9,1.7-2.2,3.2-3.2,4.9
		c-0.6,1-1.1,2.1-1.6,3.1c-0.3,0.8-0.6,1.6-0.9,2.5c0.3-2.1,1-4.1,2.1-6C246.3,134.5,247.6,133.1,248.8,131.6z M251,132.8v14.6
		c-1.7,0.1-3.3,0.2-4.8,0.3c-1-3.9-0.7-7.6,1.9-11.4C249,135.1,250,134,251,132.8z M248.5,95c0.1-1.9,0.2-3.8,0.4-5.7
		c0.1-1.2,0.1-2.2,0.1-3h9.9c-0.1,0.9-0.1,2.5-0.2,4.1l0,0c-0.1,2-0.2,4-0.1,6.1c0.1,1.4,0.2,2.8,0.6,4.1c0.3,1,0.8,1.8,1.3,2.7
		c-0.7-0.9-1.5-1.8-1.9-2.9c-0.6-1.3-0.9-2.7-1.2-4.1c-0.3-2-0.5-4-0.8-6l-5.9-0.1c-0.4,1.7-0.8,3.3-1.1,5c-0.2,1.2-0.4,2.4-0.4,3.6
		c0.1,1,0.2,1.9,0.5,2.9c-0.5-1-0.8-2-1-3.1C248.4,97.6,248.5,96.3,248.5,95z M254.1,158.4c0-1.1-0.1-2.2-0.1-3.4
		c0-2.8-0.1-5.5-0.1-8.3c-0.1-6.3-0.1-12.6-0.1-18.9c0-6.4,0-12.8,0.1-19.1c0.1-5.5,0.3-11.1,1-16.6c0,2.2,0,4.3,0,6.5
		c0,12.4,0.1,24.9,0.1,37.3c0,7.6,0.1,15.3,0.1,22.9c0,0.6-1,0.6-1,0C254.1,158.7,254.1,158.5,254.1,158.4z M235.1,60.7
		c1.2-0.4,2.4-0.9,3.6-1.2c1-0.3,2.1-0.5,3.2-0.7c-0.1,1.4-0.1,2.8-0.1,4.2c-1.3-0.2-2.6-0.3-3.8-0.4c-1-0.1-2-0.1-3,0
		C234.9,62,235,61.3,235.1,60.7z M235.7,56.5c2.1-0.8,4.3-1.5,6.5-2.1c-0.1,1.4-0.3,2.7-0.3,4.1c-1.1-0.1-2.2-0.2-3.3-0.2
		c-1,0-2.1,0-3.1,0C235.5,57.7,235.6,57.1,235.7,56.5z M236.4,52.3c2.1-0.8,4.1-1.6,6.3-2.2c-0.2,1.3-0.3,2.7-0.5,4
		c-2-0.1-4.1-0.1-6.1,0C236.2,53.5,236.3,52.9,236.4,52.3z M243.2,45.7c-0.2,1.3-0.3,2.7-0.5,4c-2,0-3.9,0-5.9,0.1
		c0.1-0.6,0.2-1.2,0.3-1.8l0,0C239.1,47.2,241.2,46.4,243.2,45.7z M237.9,43.8c2-0.9,3.9-1.7,5.9-2.5c-0.2,1.3-0.4,2.7-0.6,4
		c-1.9,0-3.8,0.1-5.7,0.3C237.7,45,237.8,44.3,237.9,43.8C237.9,43.7,237.9,43.8,237.9,43.8z M238.7,39.5c2-1,4-1.9,6-2.7
		c-0.3,1.4-0.6,2.7-0.8,4.1c-1.9,0.1-3.7,0.2-5.6,0.4C238.5,40.7,238.6,40.1,238.7,39.5z M246.1,32.1c-0.5,1.4-0.9,2.9-1.2,4.4
		c-1.9,0.2-3.7,0.3-5.6,0.6c0.1-0.6,0.3-1.3,0.5-1.9C241.8,34.1,243.9,33.1,246.1,32.1z M273.3,25.6c-0.6-0.1-1.1-0.2-1.7-0.3
		c-0.6-0.1-1.4-0.3-2,0c-1.1,0.5-1.4,2.1-2.1,2.9c0.1-1.3,0.6-3.2,2-3.6c0.8-0.2,1.6,0,2.4,0.3C272,25,273.3,25.4,273.3,25.6z
		 M276.2,37.9c-1.8-1.2-3.7-2.4-5.7-3.3c-1.7-0.9-3.5-1.4-5.4-1.6c-0.2,0-0.4-0.1-0.5-0.1c-2.4-0.3-4.9-0.1-7.3,0.4
		c-1.4,0.3-2.8,0.6-4.1,1c-0.6,0.2-1.2,0.4-1.8,0.6c-0.1,0-0.9,0.4-1.1,0.5c0.2-1.5,0.4-3,0.5-4.5c4.8,0.1,9.5-0.8,14.2-0.4l0,0
		c2.1,0.6,4.1,1.5,5.9,2.9C272.8,34.7,274.6,36.2,276.2,37.9z M266.1,61.2c2.4,1.2,4.6,2.8,6.8,4.5c-2.9-1.4-5.9-2.8-9-3.6
		c-0.8-0.2-1.6-0.4-2.4-0.4c-0.1,0-0.2,0-0.4,0H261c-4.7-0.9-9.8-0.8-14.3,0.7c0.2-1.4,0.4-2.9,0.7-4.3c0-0.1,0-0.1,0-0.2
		c0.3,0.1,0.8,0.1,0.9,0.1c0.6,0,1.1,0.1,1.7,0.1c1.3,0.1,2.6,0.2,3.8,0.3c2.5,0.2,5,0.4,7.4,0.8l0,0
		C262.9,59.8,264.5,60.4,266.1,61.2C265.7,61.1,266.5,61.4,266.1,61.2z M247.3,57.7c0.2-1.4,0.5-2.9,0.7-4.3
		c0.2,0.1,0.5,0.1,0.6,0.1c0.6,0.1,1.3,0.1,1.9,0.1c2.4,0.1,4.8,0.2,7.2,0.4c1.4,0.1,2.9,0.2,4.3,0.4c0,0,0,0,0,0.1
		c1.7,0.5,3.2,1.2,4.8,2c0,0-0.1,0-0.1-0.1c0,0,0,0,0.1,0.1c0.2,0.1,0.1,0,0,0c2.4,1.2,4.5,2.9,6.7,4.6c-2.9-1.5-5.8-3-9-3.7
		c-0.8-0.2-1.6-0.4-2.4-0.4c-0.1,0-0.2,0-0.3,0c-0.3-0.1-0.7-0.1-1-0.2c-2.4-0.4-4.8-0.4-7.3-0.2c-1.3,0.1-2.5,0.3-3.8,0.6
		c-0.6,0.1-1.1,0.3-1.7,0.5C247.9,57.6,247.5,57.6,247.3,57.7z M248,53.2c0.2-1.4,0.4-2.9,0.6-4.3c0.1,0.1,0.3,0.1,0.5,0.1
		c0.7,0,1.3,0.1,2,0.1c2.5,0.1,5,0.1,7.5,0.3c1.4,0.1,2.8,0.1,4.2,0.4v0.1c1.6,0.5,3.1,1.2,4.6,2c-0.1,0-0.1-0.1,0,0s0.1,0.1,0,0
		c2.4,1.3,4.5,3,6.5,4.7c-2.8-1.5-5.7-3.1-8.8-3.8c-0.9-0.2-1.7-0.4-2.6-0.5c-0.1,0-0.2,0-0.2,0l0,0c-0.6-0.1-1.3-0.2-2-0.3
		c-2.9-0.3-6-0.1-8.8,0.5C250.4,52.5,249.2,52.8,248,53.2L248,53.2z M248.7,48.7c0.2-1.4,0.4-2.9,0.5-4.3c0.1,0.1,0.3,0,0.5,0.1
		c0.3,0,0.7,0,1,0c2.7,0.1,5.3,0,8,0.1c1.5,0,3.2,0,4.7,0.3V45c1.7,0.5,3.2,1.2,4.7,2c-0.1,0-0.1-0.1,0,0s0.1,0.1,0,0
		c2.3,1.3,4.4,3,6.4,4.8c-2.7-1.6-5.5-3.2-8.6-3.9c-0.8-0.2-1.6-0.4-2.4-0.5c-0.2,0-0.4-0.1-0.5-0.1l0,0l0,0
		c-0.6-0.1-1.3-0.2-1.9-0.3c-2.9-0.2-5.8,0-8.7,0.6c-1.2,0.3-2.5,0.6-3.6,1C248.8,48.7,248.7,48.7,248.7,48.7z M249.2,44.3
		c0.2-1.5,0.3-2.9,0.5-4.4c0.1,0.1,0.5,0.1,0.6,0.1c2.7,0,5.4-0.1,8.1-0.1c1.4,0,2.7,0,4.1,0.1c0.5,0.1,0.9,0.1,1.4,0.1
		c0,0,0,0,0,0.1c1.7,0.5,3.2,1.2,4.8,2.1c-0.1,0-0.1-0.1,0,0s0.1,0.1,0,0c2.3,1.3,4.4,3.1,6.3,4.9c-2.7-1.6-5.4-3.2-8.5-4.1
		c-0.8-0.2-1.6-0.4-2.5-0.6c-0.1,0-0.3-0.1-0.5-0.1c0,0,0,0,0,0.1c-0.4-0.1-0.8-0.1-1.3-0.2c-2.8-0.2-5.6,0-8.3,0.5
		c-1.3,0.3-2.6,0.6-3.9,1C250.1,43.9,249.4,44.1,249.2,44.3z M249.7,39.8c0.2-1.5,0.3-2.9,0.5-4.4c0.2,0.1,1.1,0,1.3,0
		c0.7,0,1.4,0,2.1-0.1c1.6-0.1,3.2-0.1,4.7-0.2c1.5-0.1,3-0.1,4.5,0c0.5,0,1.1,0,1.6,0.1l0,0c0.7,0.2,1.4,0.4,2.1,0.7
		c1,0.4,1.9,1,2.8,1.5c0.1,0.1,0.1,0.1,0,0c2.3,1.4,4.3,3.2,6.2,5c-2.7-1.7-5.5-3.4-8.5-4.3c-0.8-0.2-1.6-0.5-2.4-0.5
		c-0.2,0-0.4-0.1-0.6-0.1l0,0c-0.3-0.1-0.6-0.1-0.9-0.1c-2.6-0.3-5.4,0-7.9,0.6c-1.3,0.3-2.6,0.6-3.9,1c-0.5,0.2-1.1,0.3-1.5,0.6
		C249.8,39.8,249.8,39.8,249.7,39.8z M276.2,76.9c0.6-2.1,1-4.3,1.3-6.5c0.9-6.1,1.6-12.3,2.3-18.4c0.7-5.4,1.3-10.8,1.7-16.2
		c0,2,0,4-0.1,5.9c-0.2,6.3-1,12.5-1.7,18.7C279.1,65.9,278.5,71.8,276.2,76.9z M271.8,74.1c0.6-2.3,1-4.6,1.4-7
		c0.9-6.2,1.6-12.4,2.4-18.6c0.6-5.2,1.3-10.5,1.8-15.7c0.1,2.2,0,4.5-0.1,6.7c-0.4,6.2-1.1,12.3-1.9,18.5c-0.4,3-0.9,6.1-1.5,9
		C273.3,69.4,272.8,71.8,271.8,74.1z M264.3,84.2c-2.1-1-3.9-2.5-5.3-4.3c-1.4-1.9-2.6-3.9-3.3-6.2c-0.6-1.8-1.1-3.7-1.1-5.6
		c-0.5,2.5-0.1,5.2,0.7,7.6c0.9,2.9,2.3,5.5,4.3,7.7c0.3,0.3,0.6,0.6,0.9,0.9c-1.3-0.5-2.6-1.2-3.8-2.2c-2.2-1.7-3.9-4.1-5.1-6.6
		c-1-2.2-1.7-4.7-1.5-7.1c-0.4,2.5,0,5.1,0.8,7.5c0.9,2.8,2.5,5.5,4.6,7.6c0.3,0.3,0.6,0.6,1,0.9c-0.8-0.3-1.7-0.7-2.4-1.2
		c-0.9-0.6-1.8-1.2-2.7-1.9c-0.9-0.7-1.6-1.6-2.3-2.4c-1.6-1.9-2.6-4.4-3.2-6.8c-0.2-1.1-0.3-2.2-0.3-3.2c-0.8,5,1.2,10.5,4.8,14
		c0.5,0.5,0.9,0.9,1.4,1.3c-0.5-0.2-0.9-0.4-1.4-0.6c-4.5-2.2-8-6.3-9.1-11.2c-0.2-1-0.3-2.1-0.2-3.1c-0.8,4.8,1,9.9,4.5,13.3
		c0.5,0.5,1,0.9,1.6,1.4c-1.5-0.7-2.9-1.5-4.2-2.5c-1.8-1.3-3.3-3-4.3-5c-1.1-2.2-1.6-4.6-1.5-7.1c-0.5,2.7-0.3,5.4,0.7,7.9
		c0.9,2.3,2.5,4.3,4.3,5.9c0.4,0.4,0.9,0.8,1.4,1.1c-1.6-0.8-3.1-1.8-4.5-2.9c-0.6-0.5-1.1-1-1.6-1.5c-0.5-0.6-0.9-1.1-1.3-1.8
		c-0.8-1.1-1.2-2.5-1.5-3.9c-0.5-2.8-0.4-5.9-0.1-8.8c1.1-0.4,2.2-0.7,3.4-1s2.5-0.5,3.7-0.7c0,0.2,0,0.4,0,0.6
		c0,0.7,0.1,1.5,0.1,2.2c0.2-2.5,0.7-5,1.1-7.5c0.5-3.1,1-6.2,1.4-9.2c0.8-6,1.4-12.1,2.5-18.1c0.1-0.7,0.3-1.3,0.4-2
		c-0.4,0.9-0.7,1.9-1,2.8c-1.9,0.2-3.8,0.5-5.6,0.7c0.3-0.9,0.7-1.8,1.1-2.7c0.6-1.2,1.3-2.3,2.1-3.2c0.2-0.2,0.5-0.5,0.9-0.7
		c-0.5,1.1-0.8,2.3-1,3.4c0.6-1.7,1.6-3.5,3.1-4.6c0.1,0,0.1-0.1,0.2-0.1c0.6-0.3,1.2-0.5,1.8-0.7c-0.6,1.1-0.9,2.4-1,3.6
		c0.5-1.5,1.4-3.3,2.7-4.2c1-0.3,1.9-0.6,2.9-0.8c-0.7,1.1-1,2.4-1.1,3.7c0.5-1.7,1.5-3.3,3.1-4.1c1-0.2,2-0.4,3-0.6
		c0,0.1-0.1,0.1-0.1,0.2c-0.8,1.2-1.1,2.6-1.2,4c0.6-1.9,1.7-3.8,3.5-4.5c0.2,0,0.5-0.1,0.7-0.1c0.7-0.1,1.3-0.1,2-0.2
		c-1,1.1-1.6,2.5-1.7,4.1c0.6-2.1,2-3.7,4.1-4.1c0.7,0,1.3,0.1,1.9,0.2c1.7,0.3,3.3,1.1,4.7,1.9c-2.7-0.5-5.1-1.4-6.1,2.2
		c-0.2,0.8-0.4,1.7-0.6,2.6c-1.3-0.2-2.8-0.1-4.1,0c-2.9,0.2-5.8,1-8.5,2c-0.7,0.2-1.4,0.5-2,0.8v-0.1c0.1-0.7,0.2-1.3,0.3-2
		c-1.8,5.2-2.7,10.7-3.4,16.1c-0.8,6-1.6,12.1-1.6,18.2c0,0.8,0.1,1.7,0.1,2.5c0.1-1,0.2-2,0.4-3.1c2,0.3,4,0.4,6,0.6
		c2.5,0.2,5,0.6,7.4,1c0.1,0,0.3,0,0.4,0.1l0,0c2.3,0.6,4.4,1.6,6.5,2.7c1.9,1.1,3.6,2.3,5.4,3.6c-2.8-1.3-5.7-2.6-8.7-3.3
		c-0.3,1.7-0.6,3.4-0.8,5.2c-0.1,1.2-0.1,2.4,0.1,3.6c0.2,0.9,0.4,1.7,0.7,2.5c-0.4-0.8-0.8-1.6-1.1-2.5c-0.4-1.2-0.6-2.4-0.6-3.7
		c-0.1-1.8,0-3.7,0.1-5.5c-0.6-0.1-1.2-0.2-1.9-0.3c-0.4,3.7-0.4,6.9,0.4,9.9c1,3.8,4.7,7.3,8.3,9.2c-0.4-0.1-0.8-0.1-1.3-0.2
		C266.4,85,265.4,84.7,264.3,84.2z M263,99.5c-1.1-1-1.5-2.3-1.6-3.8c0.1-2.8,2.4-5.5,5.3-4.8c-1.1,0.4-2.1,0.9-2.8,1.8
		c-0.7,0.9-1.1,2.1-1,3.2c0,1.1,0.4,2.1,1.2,2.9c0.7,0.9,1.7,1.3,2.7,1.7C265.4,100.8,264,100.4,263,99.5z M261.8,122
		c2.1-1.3,4.4-2.9,5.4-5.1c1.3-2.3,0.1-5.1-1-7.2c1.6,2.3,2.8,5.4,1.1,8C266.1,119.6,264,121,261.8,122z M260.9,121.2v-15.9h0.1
		c0.3,0,0.6-0.1,0.8-0.1c0.1,0,0.1,0,0.2,0c0.2,0,0.4-0.1,0.6-0.1c0.1,0,0.1,0,0.2,0s0.3-0.1,0.4-0.1c0.4,1.5,1.2,3,1.9,4.4
		c1.7,3.3,2.6,5.4,1.2,7.5C265.1,118.5,263,119.9,260.9,121.2z M222.4,164.4c3.3,2,6.9,3.2,10.7,4.1c4.1,1,8.4,1.7,12.6,2
		c11.5,1,23,0.5,34.3-1.9c-3.3,1.1-6.7,2-10.2,2.6c-4.4,0.8-8.9,1.1-13.4,1.2c-6.2,0.1-12.6-0.4-18.7-1.7
		C232.3,169.6,226.9,167.8,222.4,164.4z"/>
	<g>
		<g>
			<path d="M76.2,130.9c-7.2,0.9-13.6-3.8-14.5-11.4S66,105.9,73.1,105c7.2-0.9,13.6,3.8,14.5,11.4C88.5,123.9,83.4,130,76.2,130.9z
				 M75.4,124.3c3.6-0.4,5.5-3.2,5-7.2s-3-6.2-6.6-5.8c-3.7,0.4-5.5,3.2-5,7.2S71.7,124.8,75.4,124.3z"/>
			<path d="M74.5,136.7c-9.5,0-17.4-6.9-18.6-16.6c-0.6-5.2,0.8-10.2,3.9-14.1c3.1-3.8,7.5-6.2,12.6-6.8c5-0.6,10,0.7,13.8,3.7
				c4,3,6.5,7.6,7.1,12.8c0.6,5.2-0.8,10.2-3.9,14.1c-3.1,3.8-7.5,6.3-12.6,6.9l0,0C76.1,136.7,75.3,136.7,74.5,136.7z M74.5,117.2
				c0,0.2,0,0.4,0,0.7c0,0.3,0.1,0.5,0.1,0.7c0-0.2,0-0.4,0-0.7S74.6,117.3,74.5,117.2z"/>
		</g>
		<g>
			<path d="M104.7,116.2c-0.3-2.3-1.7-3.5-3.7-3.3c-2.1,0.3-3.2,1.8-2.9,4.1l1.3,10.8l-7,0.8L90,108.5l7-0.8l0.3,2.9
				c1-1.9,2.9-3.4,5.8-3.8c4.7-0.6,8,2.4,8.6,7.7l1.4,11.7l-7,0.8L104.7,116.2z"/>
			<path d="M87.2,135.1l-3.8-31.6l16.6-2c0.7-0.2,1.5-0.4,2.3-0.5c3.9-0.5,7.6,0.6,10.4,3.1c2.6,2.3,4.2,5.6,4.7,9.6l2.1,17.5
				L87.2,135.1z"/>
		</g>
		<g>
			<path d="M131.8,98.3c6.3-0.8,9.9,2.5,10.4,7c0.4,3.3-1.1,6.4-4.7,8l6.9,9.2l-7.9,0.9l-6.1-8.7l-0.8,0.1l1.1,9.3l-7,0.8l-3-25.3
				L131.8,98.3z M131.9,104.2l-3.5,0.4l0.6,5.3l3.5-0.4c1.9-0.2,2.8-1.3,2.5-3C134.9,104.9,133.8,104,131.9,104.2z"/>
			<path d="M118.7,131.3l-4.4-36.8l16.8-2c5.6-0.7,9.3,1,11.5,2.6c3,2.2,4.9,5.5,5.4,9.5c0.4,3.6-0.5,7-2.5,9.6l9.6,12.8
				L118.7,131.3z"/>
		</g>
		<g>
			<path d="M156.5,121.2c-6,0.7-10.7-2.7-11.5-9.1s3-10.8,9-11.5s10.6,2.6,11.4,8.9c0.1,0.5,0.1,1.1,0.1,1.7l-13.3,1.6
				c0.4,2.3,1.8,3.1,3.4,2.9c1.4-0.2,2-1,2.3-1.9l7.5-0.9C164.9,117,161.5,120.6,156.5,121.2z M151.8,109.3l6.2-0.7
				c-0.2-1.8-1.7-2.6-3.3-2.4C153,106.3,151.9,107.4,151.8,109.3z"/>
			<path d="M155,127.1c-3.6,0-7-1.1-9.7-3.2c-3.3-2.6-5.4-6.5-6-11.1c-1.1-9.4,4.6-16.8,14-18c4.4-0.5,8.6,0.5,11.8,3
				c2.7,2.1,4.6,5,5.5,8.6l1.2-0.1l-0.6,5.9l-0.1,4.2l-0.7,0.1c-1.8,5.6-6.9,9.9-13.3,10.6l0,0C156.5,127,155.7,127.1,155,127.1z"/>
		</g>
		<g>
			<path d="M168.4,105l-2.2,0.3l-0.7-5.8l2.2-0.3V99c-0.7-5.6,2.6-8.9,9.2-9.2l0.7,6c-2.1,0-2.9,0.7-2.8,2.5l3.2-0.4l0.7,5.8
				l-3.2,0.4l1.7,14.3l-7.1,0.9L168.4,105z"/>
			<path d="M165.1,125.7l-1.7-14.3l-2.2,0.3l-2.1-17.3l3.2-0.4c0.6-2.2,1.6-3.8,2.5-4.9c1.8-2.1,5.3-4.8,11.8-5.1l5.4-0.3l0.9,7.7
				h0.1l2.1,17.3l-3.2,0.4l1.7,14.3L165.1,125.7z"/>
		</g>
		<g>
			<path d="M187.9,96.5c2.9-0.3,5,0.7,6.3,2.3l-0.3-2.8l7-0.8l2.4,20.1l-7,0.8l-0.3-2.8c-0.8,1.9-2.7,3.4-5.6,3.8
				c-4.8,0.6-9-2.9-9.8-9.3S183.1,97.1,187.9,96.5z M190.9,102.4c-2,0.2-3.5,1.9-3.2,4.6s2.2,4,4.2,3.8s3.5-1.9,3.2-4.6
				C194.7,103.4,192.8,102.1,190.9,102.4z"/>
			<path d="M189.3,123c-3.4,0-6.7-1.2-9.3-3.6c-2.9-2.6-4.7-6.4-5.3-10.9c-1.1-9.3,4.1-16.8,12.4-17.8l0,0c0.9-0.1,1.9-0.1,2.8-0.1
				l16-1.9l3.8,31.6l-16,1.9c-0.8,0.3-1.7,0.5-2.6,0.6C190.5,122.9,189.9,123,189.3,123z M189.3,106.8c0.1,0.5,1.1,1.5,2.3,1.3l0,0
				c0.1,0,0.2,0,0.3-0.1l0.7-1.7l-1.1-1.4c-0.1,0-0.2,0-0.3,0C190,105.1,189.3,106.2,189.3,106.8z M189.3,106.8L189.3,106.8
				L189.3,106.8z"/>
		</g>
		<g>
			<path d="M203.6,89.3c-0.2-2,1.2-3.9,3.7-4.2c2.5-0.3,4.3,1.1,4.5,3.2c0.2,2-1.2,3.8-3.7,4.1C205.7,92.7,203.9,91.3,203.6,89.3z
				 M204.9,94.7l7-0.8l2.4,20.1l-7,0.8L204.9,94.7z"/>
			<path d="M202.2,121.3l-3.4-28.1c-0.5-1-0.8-2-1-3.2c-0.3-2.6,0.4-5.2,2.2-7.2c1.6-1.9,3.9-3.1,6.6-3.4c5.5-0.7,10.3,2.9,11,8.2
				c0.1,1.2,0.1,2.3-0.2,3.4l3.4,28L202.2,121.3z M207.5,86.7L207.5,86.7c-0.6,0.1-1.4,0.9-1.5,2.1l3.2-0.4
				C209,87.3,208.1,86.7,207.5,86.7z M209.4,88.6L209.4,88.6L209.4,88.6z"/>
		</g>
		<g>
			<path d="M217.7,99.1l-2.5,0.3l-0.7-5.8l2.5-0.3l-0.6-4.9l7.1-0.9l0.6,4.9l3.7-0.4l0.7,5.8l-3.7,0.4l0.8,6.7
				c0.1,1.1,0.7,1.5,1.8,1.3l2-0.2l0.7,6l-3,0.4c-4.4,0.5-7.9-0.9-8.6-6.7L217.7,99.1z"/>
			<path d="M225.5,118.3c-2.8,0-5.3-0.7-7.4-2.1c-2.1-1.4-4.7-4.3-5.4-9.8l-0.1-0.9l-2.5,0.3L208,88.5l2.5-0.3l-0.6-4.9l18.6-2.2
				l0.6,4.9l3.7-0.4l1.7,14.1l0,0l2.1,17.5l-8.8,1.1C227,118.3,226.3,118.3,225.5,118.3z"/>
		</g>
	</g>
	<g>
		<path d="M129.2,169.4l-2.9-47.6l22.6-1.4c5.8-0.3,10.8,1.1,14.6,4.2c3.7,3,5.9,7.5,6.2,12.6c0.3,4.8-1.3,9.1-4.3,12.4l11,16.9
			L129.2,169.4z"/>
		<polygon points="156,167.8 170.6,119.2 180.2,118.7 181.2,114.7 182.7,118.5 192.4,117.9 212.6,164.4 186.7,166 184.7,161 
			183.2,161.1 181.9,166.3 		"/>
		<path d="M198.4,165.3l-2.9-47.6l21-1.3c7.1-0.4,13.3,1.5,18.1,5.7c4.6,4,7.4,9.9,7.8,16.6l0,0c0.4,6.6-1.6,12.8-5.7,17.4
			c-4.2,4.7-10.3,7.5-17.3,8L198.4,165.3z"/>
		
			<rect x="232.6" y="114.8" transform="matrix(0.9982 -5.985846e-02 5.985846e-02 0.9982 -7.8605 14.8989)" width="24.3" height="47.7"/>
		<path d="M271.3,161.2c-5.9,0-11.6-2-16-5.8c-4.9-4.2-7.8-10.3-8.2-17s1.8-13.1,6.2-17.9c4.3-4.7,10.2-7.4,16.7-7.8
			s12.8,1.7,17.5,5.8c4.9,4.2,7.8,10.2,8.2,17c0.4,6.7-1.8,13.1-6.1,17.9c-4.2,4.7-10.2,7.5-16.7,7.9l0,0
			C272.4,161.2,271.8,161.2,271.3,161.2z"/>
	</g>
	<g>
		<path class="st0" d="M75.6,130.9c-7.2,0.9-13.6-3.8-14.5-11.4s4.3-13.6,11.4-14.5c7.2-0.9,13.6,3.8,14.5,11.4
			C87.9,124,82.7,130,75.6,130.9z M74.8,124.4c3.6-0.4,5.5-3.2,5-7.2s-3-6.2-6.6-5.8c-3.7,0.4-5.5,3.2-5,7.2
			C68.7,122.5,71.1,124.8,74.8,124.4z"/>
		<path class="st0" d="M104,116.3c-0.3-2.3-1.7-3.5-3.7-3.3c-2.1,0.3-3.2,1.8-2.9,4.1l1.3,10.8l-7,0.8l-2.4-20.1l7-0.8l0.3,2.9
			c1-1.9,2.9-3.4,5.8-3.8c4.7-0.6,8,2.4,8.6,7.7l1.4,11.7l-7,0.8L104,116.3z"/>
		<path class="st0" d="M131.1,98.3c6.3-0.8,9.9,2.5,10.4,7c0.4,3.3-1.1,6.4-4.7,8l6.9,9.2l-7.9,0.9l-6.1-8.7l-0.8,0.1l1.1,9.3
			l-7,0.8l-3-25.3L131.1,98.3z M131.3,104.2l-3.5,0.4l0.6,5.3l3.5-0.4c1.9-0.2,2.8-1.3,2.5-3C134.3,104.9,133.2,104,131.3,104.2z"/>
		<path class="st0" d="M155.9,121.2c-6,0.7-10.7-2.7-11.5-9.1s3-10.8,9-11.5s10.6,2.6,11.4,8.9c0.1,0.5,0.1,1.1,0.1,1.7l-13.3,1.6
			c0.4,2.3,1.8,3.1,3.4,2.9c1.4-0.2,2-1,2.3-1.9l7.5-0.9C164.3,117.1,160.9,120.6,155.9,121.2z M151.2,109.3l6.2-0.7
			c-0.2-1.8-1.7-2.6-3.3-2.4C152.4,106.4,151.3,107.4,151.2,109.3z"/>
		<path class="st0" d="M167.8,105.1l-2.2,0.3l-0.7-5.8l2.2-0.3v-0.2c-0.7-5.6,2.6-8.9,9.2-9.2l0.7,6c-2.1,0-2.9,0.7-2.8,2.5l3.2-0.4
			l0.7,5.8l-3.2,0.4l1.7,14.3l-7.1,0.9L167.8,105.1z"/>
		<path class="st0" d="M187.2,96.5c2.9-0.3,5,0.7,6.3,2.3l-0.3-2.8l7-0.8l2.4,20.1l-7,0.8l-0.3-2.8c-0.8,1.9-2.7,3.4-5.6,3.8
			c-4.8,0.6-9-2.9-9.8-9.3C179.1,101.4,182.5,97.1,187.2,96.5z M190.2,102.4c-2,0.2-3.5,1.9-3.2,4.6s2.2,4,4.2,3.8s3.5-1.9,3.2-4.6
			C194.1,103.4,192.2,102.2,190.2,102.4z"/>
		<path class="st0" d="M203,89.4c-0.2-2,1.2-3.9,3.7-4.2c2.5-0.3,4.3,1.1,4.5,3.2c0.2,2-1.2,3.8-3.7,4.1
			C205,92.7,203.2,91.4,203,89.4z M204.2,94.7l7-0.8l2.4,20.1l-7,0.8L204.2,94.7z"/>
		<path class="st0" d="M217.1,99.1l-2.5,0.3l-0.7-5.8l2.5-0.3l-0.6-4.9l7.1-0.9l0.6,4.9l3.7-0.4l0.7,5.8l-3.7,0.4l0.8,6.7
			c0.1,1.1,0.7,1.5,1.8,1.3l2-0.2l0.7,6l-3,0.4c-4.4,0.5-7.9-0.9-8.6-6.7L217.1,99.1z"/>
	</g>
	<g>
		<path class="st1" d="M148.8,127.4c8.5-0.5,13.2,4.1,13.6,10.4c0.3,4.5-2,8.4-6.7,10.3l8.2,12.6l-11.7,0.7l-7.1-11.8l0,0l0.7,12.2
			l-10.6,0.6l-2-34L148.8,127.4z M148.4,136.3l-4.2,0.3l0.3,5.8l4.2-0.3c2-0.1,3-1,2.9-3.1C151.5,137.3,150.4,136.2,148.4,136.3z"/>
		<path class="st1" d="M188.6,153.9l-11.3,0.7l-1.4,5.2l-11.2,0.7l10.4-34.7l12.3-0.7l14.4,33.2l-11.2,0.7L188.6,153.9z
			 M181.9,136.8l-2.5,9.6l6.1-0.4L181.9,136.8z"/>
		<path class="st1" d="M235,139.1c0.6,9.7-5.8,17.5-16.6,18.1l-14.2,0.8l-2-34l14.1-0.8C227.2,122.7,234.4,129.4,235,139.1z
			 M216.8,147.8c4.7-0.3,7.7-3.1,7.4-8s-3.6-7.4-8.3-7.1l-2.5,0.2l0.9,15.2L216.8,147.8z"/>
		<path class="st1" d="M237.8,122l10.6-0.6l2,34l-10.6,0.6L237.8,122z"/>
		<path class="st1" d="M271.9,154.4c-9.6,0.6-17.9-6.2-18.6-16.4c-0.6-10.2,6.8-17.9,16.5-18.5s17.8,6.2,18.5,16.4
			C288.8,146.1,281.4,153.8,271.9,154.4z M271.3,144.5c4.3-0.3,6.4-3.4,6.2-7.9c-0.3-4.6-2.8-7.4-7.1-7.2c-4.4,0.3-6.5,3.4-6.2,8
			C264.4,141.8,266.9,144.7,271.3,144.5z"/>
	</g>
	<g>
		<path d="M95,166.9c-0.1,0-0.3,0.1-0.5,0.1s-0.5,0-0.9,0c-0.7,0-1.5-0.3-2.6-1.1s-1.9-2-2.5-3.8c0-0.2-0.1-0.4-0.1-0.6
			c0-0.2,0-0.4-0.1-0.6c-0.1-1.3-0.1-2.8,0.1-4.5s0.6-3.7,1.1-5.9s1.2-4.4,1.9-6.6c0.8-2.2,1.6-4.5,2.6-6.7s1.9-4.1,2.8-5.7
			c0.9-1.6,1.8-2.8,2.6-3.6c0.3-0.2,0.5-0.3,0.8-0.3s0.6,0,1,0.1s0.9,0.3,1.4,0.7l0.3,0.1c1,0.5,1.5,1,1.6,1.6c0,0.2,0,0.4-0.3,0.6
			c-1.7,1.8-3.3,4.1-4.9,7.1c-1.5,3-2.7,6.1-3.7,9.3s-1.7,6.3-2.1,9.3c-0.3,2.1-0.3,4-0.2,5.6c0,0.3,0.1,0.6,0.2,1s0.2,0.9,0.3,1.5
			c0.3,1.1,1.3,1.7,2.8,1.6C96.2,166.6,95.6,166.8,95,166.9z"/>
		<path d="M118.4,143.6c0.1-0.1,0.3-0.2,0.6-0.2c0.3,0,0.6,0.1,0.8,0.2c0.3,0.1,0.5,0.3,0.6,0.5c0.2,0.2,0.2,0.4,0.1,0.7
			c-0.6,1.2-1.3,2.5-2,3.9c-0.8,1.4-1.6,2.9-2.4,4.2c-0.9,1.4-1.8,2.7-2.7,3.8c-0.9,1.1-1.9,2-2.8,2.5c-0.5,0.3-1,0.4-1.6,0.3
			c-0.6-0.1-1.1-0.2-1.6-0.5s-0.9-0.6-1.2-1c-0.4-0.4-0.6-0.8-0.6-1.2c-0.1-0.5-0.1-1.3,0.1-2.3c0.1-1,0.3-1.9,0.5-2.7
			c-0.4,0.5-0.8,1.1-1.2,1.7c-0.4,0.7-0.9,1.4-1.4,2.1c-0.5,0.8-1,1.5-1.6,2.3s-1.1,1.5-1.8,2.1c-0.3,0.3-0.8,0.5-1.4,0.4
			c-0.6,0-1.3-0.2-1.9-0.4c-0.6-0.3-1.2-0.6-1.7-1s-0.7-0.9-0.7-1.4c0-1.3,0.2-2.7,0.7-4.2c0.4-1.5,1-3,1.6-4.4
			c0.7-1.4,1.4-2.8,2.2-4c0.8-1.3,1.7-2.3,2.5-3.1c0.6-0.6,1.2-0.9,1.7-1s1.1-0.1,1.6,0.1c0.5,0.2,1.1,0.4,1.6,0.7s1.1,0.6,1.7,1
			c0.4-0.4,0.7-0.9,1-1.4s0.7-1,1.1-1.4c0.2-0.3,0.6-0.5,1.1-0.4c0.5,0,1.1,0.2,1.5,0.5c0.5,0.3,0.9,0.6,1.2,1
			c0.3,0.4,0.4,0.8,0.1,1.2c-1,2.1-1.9,3.9-2.5,5.5s-1,2.9-1.3,4s-0.4,1.9-0.3,2.4c0,0.5,0.2,0.8,0.4,0.8c0.7-0.1,1.7-1.1,3-3
			C114.9,150,116.5,147.2,118.4,143.6z M106,146.3c0.1-0.1,0.1-0.4,0.1-0.7s-0.1-0.7-0.2-0.9c-0.1-0.3-0.3-0.5-0.6-0.5
			c-0.2-0.1-0.5,0.1-0.9,0.6c-0.7,0.8-1.4,1.7-2,2.8s-1.1,2.1-1.6,3.1c-0.4,1-0.8,2-1,2.8c-0.3,0.9-0.4,1.5-0.3,1.9
			c0.4-0.3,0.8-0.9,1.4-1.6c0.6-0.7,1.2-1.6,1.8-2.5c0.6-0.9,1.2-1.8,1.8-2.7C105.1,147.7,105.6,147,106,146.3z"/>
	</g>
</g>
</svg>
