<?xml version="1.0" encoding="utf-8"?>
<!-- Generator: Adobe Illustrator 24.0.0, SVG Export Plug-In . SVG Version: 6.00 Build 0)  -->
<svg version="1.1" id="Layer_1" xmlns="http://www.w3.org/2000/svg" xmlns:xlink="http://www.w3.org/1999/xlink" x="0px" y="0px"
	 viewBox="0 0 356 200" style="enable-background:new 0 0 356 200;" xml:space="preserve">
<style type="text/css">
	.st0{fill:#214266;}
	.st1{fill:#0DB1DA;}
	.st2{fill:none;stroke:#205269;stroke-width:4;stroke-linecap:round;stroke-linejoin:round;stroke-miterlimit:10;}
	.st3{fill:#346D9E;}
</style>
<g>
	<g>
		<path class="st0" d="M114.4,155.6c0.3,0.6,0.4,1,0.4,1.3c0,0.6-0.5,1.2-1.6,1.6c-0.5,0.2-1,0.4-1.3,0.4c-0.3,0-0.6-0.1-0.8-0.2
			c-0.2-0.2-0.4-0.3-0.5-0.5c-0.2-0.3-0.8-1.8-2-4.6l-0.8,0h-3.2v2.8c0,0.4,0,0.7,0,0.9c0,0.2-0.1,0.4-0.2,0.7
			c-0.2,0.5-0.9,0.7-2,0.7c-1.2,0-1.9-0.3-2.1-0.9c-0.1-0.3-0.2-0.7-0.2-1.3v-14c0-0.4,0-0.7,0-0.9c0-0.2,0.1-0.4,0.2-0.7
			c0.2-0.5,0.9-0.7,2-0.7h5.4c1.5,0,2.9,0.5,4.3,1.6c0.7,0.5,1.2,1.2,1.7,2.1c0.4,0.9,0.7,1.9,0.7,3c0,1.9-0.6,3.5-1.9,4.7
			C113.1,152.6,113.7,153.9,114.4,155.6z M104.8,149.2h3.2c0.5,0,1-0.2,1.5-0.6c0.5-0.4,0.7-0.9,0.7-1.7c0-0.7-0.2-1.3-0.7-1.7
			c-0.5-0.4-1-0.6-1.5-0.6h-3.2V149.2z"/>
		<path class="st0" d="M128.5,150.5c0,1-0.3,1.8-0.8,2.3c-0.5,0.5-1.1,0.7-1.7,0.7h-6c0,0.5,0.3,0.9,0.8,1.2
			c0.6,0.3,1.1,0.5,1.7,0.5c1,0,1.7-0.1,2.3-0.3l0.3-0.1c0.4-0.2,0.7-0.3,1-0.3c0.5,0,1,0.4,1.4,1.1c0.2,0.5,0.3,0.8,0.3,1.2
			c0,1.5-1.8,2.2-5.4,2.2c-1.2,0-2.3-0.2-3.3-0.6c-1-0.4-1.7-1-2.3-1.7c-1.1-1.4-1.6-2.9-1.6-4.6c0-2.1,0.7-3.8,2-5.1
			c1.4-1.3,3.1-1.9,5.1-1.9c2.3,0,4,0.8,5.1,2.5C128.2,148.6,128.5,149.5,128.5,150.5z M123.2,151.3c0.6,0,1-0.3,1-0.8
			c0-0.4-0.1-0.7-0.4-0.9c-0.3-0.2-0.7-0.4-1.3-0.4s-1.1,0.2-1.6,0.7c-0.5,0.4-0.8,0.9-0.8,1.4H123.2z"/>
		<path class="st0" d="M137.5,145.5c1.7,0,3.1,0.6,4.2,1.9c1.1,1.3,1.7,2.8,1.7,4.7v4.4c0,0.4,0,0.7,0,0.9c0,0.2-0.1,0.4-0.2,0.6
			c-0.2,0.5-0.9,0.7-2,0.7c-1.2,0-1.9-0.3-2.1-0.9c-0.1-0.3-0.2-0.7-0.2-1.3v-4.4c0-0.7-0.2-1.2-0.6-1.6c-0.4-0.4-0.9-0.6-1.6-0.6
			s-1.2,0.2-1.6,0.6c-0.4,0.4-0.6,0.9-0.6,1.6v4.5c0,0.4,0,0.7,0,0.9c0,0.2-0.1,0.4-0.2,0.6c-0.2,0.5-0.9,0.7-1.9,0.7
			c-1.1,0-1.7-0.2-1.9-0.7c-0.1-0.3-0.2-0.5-0.2-0.7c0-0.2,0-0.5,0-0.9v-8.9c0-0.4,0-0.6,0-0.8c0-0.2,0.1-0.4,0.2-0.6
			c0.2-0.4,0.9-0.6,1.9-0.6c1,0,1.7,0.2,1.9,0.6c0.2,0.3,0.3,0.6,0.3,1c0.1-0.1,0.2-0.3,0.5-0.5c0.2-0.2,0.5-0.4,0.7-0.5
			C136.2,145.7,136.8,145.5,137.5,145.5z"/>
		<path class="st0" d="M153.9,146.9c0.1-0.9,0.8-1.4,2-1.4c0.7,0,1.1,0.1,1.5,0.2s0.5,0.3,0.7,0.5c0.1,0.3,0.2,0.5,0.2,0.7
			c0,0.2,0,0.5,0,0.9v8.8c0,0.4,0,0.7,0,0.9c0,0.2-0.1,0.4-0.2,0.7c-0.2,0.4-0.8,0.7-1.7,0.7c-0.9,0-1.5-0.1-1.8-0.3
			c-0.3-0.2-0.5-0.6-0.5-1c-0.6,0.9-1.7,1.3-3.1,1.3c-1.5,0-2.8-0.7-4-2c-1.2-1.3-1.9-2.9-1.9-4.6c0-1.8,0.6-3.3,1.9-4.6
			c1.2-1.3,2.6-2,4.1-2c0.6,0,1.1,0.1,1.6,0.3c0.5,0.2,0.8,0.4,1,0.6C153.7,146.6,153.8,146.7,153.9,146.9z M149.4,152.1
			c0,0.6,0.2,1.1,0.7,1.5s1,0.7,1.6,0.7s1.1-0.2,1.5-0.7c0.4-0.5,0.6-1,0.6-1.5s-0.2-1.1-0.6-1.5c-0.4-0.5-0.9-0.7-1.6-0.7
			c-0.7,0-1.2,0.2-1.6,0.7C149.6,151.1,149.4,151.6,149.4,152.1z"/>
		<path class="st0" d="M164.5,143c-0.1,0.2-0.3,0.4-0.7,0.5s-0.7,0.2-1.3,0.2s-1,0-1.3-0.2c-0.3-0.1-0.5-0.3-0.7-0.5
			c-0.1-0.3-0.2-0.5-0.2-0.7c0-0.2,0-0.5,0-0.9s0-0.7,0-0.9c0-0.2,0.1-0.4,0.2-0.6c0.2-0.5,0.9-0.7,2-0.7c1.1,0,1.7,0.2,1.9,0.7
			c0.1,0.3,0.2,0.5,0.2,0.7c0,0.2,0,0.5,0,0.9s0,0.7,0,0.9C164.7,142.6,164.6,142.8,164.5,143z M160.3,147.7c0-0.4,0-0.7,0-0.9
			c0-0.2,0.1-0.4,0.2-0.7c0.2-0.4,0.9-0.7,2-0.7c0.8,0,1.4,0.1,1.7,0.4c0.3,0.2,0.4,0.6,0.5,1.1c0,0.2,0,0.4,0,0.7v8.8
			c0,0.4,0,0.7,0,0.9c0,0.2-0.1,0.4-0.2,0.7c-0.2,0.4-0.9,0.7-1.9,0.7c-1.1,0-1.7-0.2-1.9-0.7c-0.1-0.3-0.2-0.5-0.2-0.7
			c0-0.2,0-0.5,0-0.9V147.7z"/>
		<path class="st0" d="M166.8,157.6c-0.3-0.2-0.5-0.5-0.5-1c0-0.4,0.3-1.1,1-2c0.2-0.3,0.5-0.4,0.9-0.4c0.4,0,1,0.2,1.7,0.6
			c0.7,0.4,1.3,0.6,1.9,0.6c1,0,1.5-0.2,1.5-0.6c0-0.3-0.6-0.6-1.7-0.7c-1.1-0.2-2.1-0.5-3.1-1.2c-0.5-0.3-0.9-0.8-1.2-1.4
			c-0.3-0.6-0.5-1.4-0.5-2.3c0-2.6,1.8-4,5.5-4c1.2,0,2.4,0.3,3.7,0.9c0.6,0.3,0.9,0.6,0.9,1s-0.2,0.9-0.6,1.5
			c-0.4,0.6-0.7,0.9-1.1,0.9c-0.2,0-0.6-0.1-1.1-0.4c-0.5-0.3-1.1-0.4-1.8-0.4c-1,0-1.5,0.2-1.5,0.6c0,0.5,0.6,0.8,1.7,1
			c1.1,0.1,2.2,0.4,3.2,1c0.5,0.2,0.9,0.6,1.2,1.2c0.3,0.6,0.5,1.3,0.5,2.2c0,0.9-0.2,1.6-0.5,2.2c-0.3,0.6-0.8,1.1-1.4,1.4
			c-1.1,0.5-2.4,0.8-4,0.8S168.3,158.5,166.8,157.6z"/>
		<path class="st0" d="M179.1,157.6c-0.3-0.2-0.5-0.5-0.5-1c0-0.4,0.3-1.1,1-2c0.2-0.3,0.5-0.4,0.9-0.4c0.4,0,1,0.2,1.7,0.6
			c0.7,0.4,1.3,0.6,1.9,0.6c1,0,1.5-0.2,1.5-0.6c0-0.3-0.6-0.6-1.7-0.7c-1.1-0.2-2.1-0.5-3.1-1.2c-0.5-0.3-0.9-0.8-1.2-1.4
			c-0.3-0.6-0.5-1.4-0.5-2.3c0-2.6,1.8-4,5.5-4c1.2,0,2.4,0.3,3.7,0.9c0.6,0.3,0.9,0.6,0.9,1s-0.2,0.9-0.6,1.5
			c-0.4,0.6-0.7,0.9-1.1,0.9c-0.2,0-0.6-0.1-1.1-0.4c-0.5-0.3-1.1-0.4-1.8-0.4c-1,0-1.5,0.2-1.5,0.6c0,0.5,0.6,0.8,1.7,1
			c1.1,0.1,2.2,0.4,3.2,1c0.5,0.2,0.9,0.6,1.2,1.2c0.3,0.6,0.5,1.3,0.5,2.2c0,0.9-0.2,1.6-0.5,2.2c-0.3,0.6-0.8,1.1-1.4,1.4
			c-1.1,0.5-2.4,0.8-4,0.8C182.2,159,180.6,158.5,179.1,157.6z"/>
		<path class="st0" d="M199.9,146.9c0.1-0.9,0.8-1.4,2-1.4c0.7,0,1.1,0.1,1.5,0.2c0.3,0.1,0.5,0.3,0.7,0.5c0.1,0.3,0.2,0.5,0.2,0.7
			c0,0.2,0,0.5,0,0.9v8.8c0,0.4,0,0.7,0,0.9c0,0.2-0.1,0.4-0.2,0.7c-0.2,0.4-0.8,0.7-1.7,0.7s-1.5-0.1-1.8-0.3
			c-0.3-0.2-0.5-0.6-0.5-1c-0.6,0.9-1.7,1.3-3.1,1.3c-1.5,0-2.8-0.7-4-2c-1.2-1.3-1.9-2.9-1.9-4.6c0-1.8,0.6-3.3,1.9-4.6
			c1.2-1.3,2.6-2,4.1-2c0.6,0,1.1,0.1,1.6,0.3c0.5,0.2,0.8,0.4,1,0.6C199.7,146.6,199.8,146.7,199.9,146.9z M195.4,152.1
			c0,0.6,0.2,1.1,0.7,1.5c0.4,0.4,1,0.7,1.6,0.7c0.6,0,1.1-0.2,1.5-0.7c0.4-0.5,0.6-1,0.6-1.5s-0.2-1.1-0.6-1.5
			c-0.4-0.5-0.9-0.7-1.6-0.7c-0.7,0-1.2,0.2-1.6,0.7S195.4,151.6,195.4,152.1z"/>
		<path class="st0" d="M213.7,145.5c1.7,0,3.1,0.6,4.2,1.9c1.1,1.3,1.7,2.8,1.7,4.7v4.4c0,0.4,0,0.7,0,0.9c0,0.2-0.1,0.4-0.2,0.6
			c-0.2,0.5-0.9,0.7-2,0.7c-1.2,0-1.9-0.3-2.1-0.9c-0.1-0.3-0.2-0.7-0.2-1.3v-4.4c0-0.7-0.2-1.2-0.6-1.6c-0.4-0.4-0.9-0.6-1.6-0.6
			s-1.2,0.2-1.6,0.6c-0.4,0.4-0.6,0.9-0.6,1.6v4.5c0,0.4,0,0.7,0,0.9c0,0.2-0.1,0.4-0.2,0.6c-0.2,0.5-0.9,0.7-1.9,0.7
			c-1.1,0-1.7-0.2-1.9-0.7c-0.1-0.3-0.2-0.5-0.2-0.7c0-0.2,0-0.5,0-0.9v-8.9c0-0.4,0-0.6,0-0.8c0-0.2,0.1-0.4,0.2-0.6
			c0.2-0.4,0.9-0.6,1.9-0.6c1,0,1.7,0.2,1.9,0.6c0.2,0.3,0.3,0.6,0.3,1c0.1-0.1,0.2-0.3,0.5-0.5c0.2-0.2,0.5-0.4,0.7-0.5
			C212.4,145.7,213,145.5,213.7,145.5z"/>
		<path class="st0" d="M225.7,152.1c0,0.7,0.2,1.3,0.7,1.7c0.5,0.4,1,0.6,1.5,0.6s1-0.2,1.5-0.5c0.5-0.3,0.8-0.5,1.1-0.5
			c0.5,0,1.1,0.4,1.8,1.3c0.4,0.5,0.6,0.9,0.6,1.3c0,0.6-0.5,1.2-1.4,1.8c-1,0.7-2.1,1-3.5,1c-1.6,0-3.1-0.6-4.5-1.7
			c-0.7-0.5-1.2-1.3-1.7-2.2c-0.4-0.9-0.7-1.9-0.7-3c0-1.1,0.2-2.1,0.7-2.9c0.4-0.9,1-1.6,1.7-2.1c1.4-1.1,2.9-1.7,4.5-1.7
			c0.6,0,1.3,0.1,1.9,0.3s1,0.3,1.3,0.5l0.4,0.3c0.3,0.2,0.5,0.4,0.7,0.5c0.4,0.3,0.7,0.7,0.7,1.1s-0.2,0.9-0.5,1.4
			c-0.6,0.9-1.2,1.4-1.7,1.4c-0.3,0-0.8-0.2-1.4-0.6c-0.3-0.3-0.7-0.4-1.3-0.4c-0.6,0-1.1,0.2-1.6,0.6S225.7,151.4,225.7,152.1z"/>
		<path class="st0" d="M247,150.5c0,1-0.3,1.8-0.8,2.3c-0.5,0.5-1.1,0.7-1.7,0.7h-6c0,0.5,0.3,0.9,0.8,1.2c0.6,0.3,1.1,0.5,1.7,0.5
			c1,0,1.7-0.1,2.3-0.3l0.3-0.1c0.4-0.2,0.7-0.3,1-0.3c0.5,0,1,0.4,1.4,1.1c0.2,0.5,0.3,0.8,0.3,1.2c0,1.5-1.8,2.2-5.4,2.2
			c-1.2,0-2.3-0.2-3.3-0.6c-1-0.4-1.7-1-2.3-1.7c-1.1-1.4-1.6-2.9-1.6-4.6c0-2.1,0.7-3.8,2-5.1c1.4-1.3,3.1-1.9,5.1-1.9
			c2.3,0,4,0.8,5.1,2.5C246.7,148.6,247,149.5,247,150.5z M241.7,151.3c0.6,0,1-0.3,1-0.8c0-0.4-0.1-0.7-0.4-0.9
			c-0.3-0.2-0.7-0.4-1.3-0.4s-1.1,0.2-1.6,0.7c-0.5,0.4-0.8,0.9-0.8,1.4H241.7z"/>
	</g>
	<g>
		<path class="st1" d="M133.3,166.9h-1.4c-0.5-1.1-1.5-1.7-2.8-1.7c-1.9,0-3.4,1.4-3.4,3.6c0,2.2,1.4,3.6,3.4,3.6c1.8,0,3-1.2,3.2-3
			h-3.7v-1h4.9v0.9c-0.2,2.3-2,4.1-4.5,4.1c-2.6,0-4.6-1.9-4.6-4.7s2-4.7,4.6-4.7C131,164.1,132.6,165.1,133.3,166.9z"/>
		<path class="st1" d="M136.3,173.4h-1.2v-7.2h1.2v1.2c0.4-0.8,1.2-1.3,2.3-1.3v1.2h-0.3c-1.1,0-2,0.5-2,2.2V173.4z"/>
		<path class="st1" d="M143,166.1c1.3,0,2.3,0.7,2.7,1.4v-1.3h1.2v7.2h-1.2V172c-0.4,0.8-1.4,1.5-2.7,1.5c-1.9,0-3.4-1.5-3.4-3.7
			C139.6,167.5,141.1,166.1,143,166.1z M143.2,167.1c-1.3,0-2.4,1-2.4,2.7c0,1.7,1.1,2.7,2.4,2.7s2.4-1,2.4-2.7
			C145.7,168.1,144.6,167.1,143.2,167.1z"/>
		<path class="st1" d="M152,166.1c1.8,0,3,0.9,3.3,2.4H154c-0.2-0.9-1-1.4-2-1.4c-1.3,0-2.3,0.9-2.3,2.7c0,1.8,1,2.7,2.3,2.7
			c1.1,0,1.8-0.5,2-1.4h1.3c-0.4,1.4-1.5,2.4-3.3,2.4c-2,0-3.5-1.4-3.5-3.7C148.5,167.5,149.9,166.1,152,166.1z"/>
		<path class="st1" d="M160,173.5c-2,0-3.6-1.4-3.6-3.7c0-2.3,1.5-3.7,3.6-3.7c2.1,0,3.5,1.5,3.5,3.4c0,0.3,0,0.5,0,0.7h-5.8
			c0.1,1.5,1.1,2.3,2.3,2.3c1.1,0,1.8-0.6,2-1.3h1.3C162.9,172.5,161.8,173.5,160,173.5z M157.7,169.3h4.5c0-1.4-1-2.2-2.3-2.2
			C158.8,167.1,157.8,167.9,157.7,169.3z"/>
		<path class="st1" d="M171.4,173.5c-1.8,0-3.1-1-3.2-2.5h1.3c0.1,0.8,0.6,1.5,1.9,1.5c1.2,0,1.8-0.7,1.8-1.5c0-2.5-5-0.9-5-4.3
			c0-1.5,1.2-2.5,3-2.5c1.7,0,2.9,1,3,2.4h-1.3c-0.1-0.6-0.7-1.3-1.8-1.3c-1,0-1.8,0.5-1.8,1.5c0,2.4,4.9,0.9,4.9,4.3
			C174.5,172.2,173.4,173.5,171.4,173.5z"/>
		<path class="st1" d="M179.4,173.5c-2,0-3.6-1.4-3.6-3.7c0-2.3,1.5-3.7,3.6-3.7c2.1,0,3.5,1.5,3.5,3.4c0,0.3,0,0.5,0,0.7H177
			c0.1,1.5,1.1,2.3,2.3,2.3c1.1,0,1.8-0.6,2-1.3h1.3C182.3,172.5,181.1,173.5,179.4,173.5z M177,169.3h4.5c0-1.4-1-2.2-2.3-2.2
			C178.1,167.1,177.2,167.9,177,169.3z"/>
		<path class="st1" d="M185.6,173.4h-1.2v-7.2h1.2v1.2c0.4-0.8,1.2-1.3,2.3-1.3v1.2h-0.3c-1.1,0-2,0.5-2,2.2V173.4z"/>
		<path class="st1" d="M189.7,166.2l2.2,6.1l2.2-6.1h1.3l-2.8,7.2h-1.4l-2.8-7.2H189.7z"/>
		<path class="st1" d="M196.5,164.2c0-0.5,0.4-0.8,0.8-0.8c0.4,0,0.8,0.4,0.8,0.8s-0.4,0.8-0.8,0.8
			C196.8,165,196.5,164.7,196.5,164.2z M196.7,166.2h1.2v7.2h-1.2V166.2z"/>
		<path class="st1" d="M203,166.1c1.8,0,3,0.9,3.3,2.4H205c-0.3-0.9-1-1.4-2-1.4c-1.3,0-2.3,0.9-2.3,2.7c0,1.8,1,2.7,2.3,2.7
			c1.1,0,1.8-0.5,2-1.4h1.3c-0.4,1.4-1.5,2.4-3.3,2.4c-2,0-3.5-1.4-3.5-3.7C199.4,167.5,200.9,166.1,203,166.1z"/>
		<path class="st1" d="M211,173.5c-2,0-3.6-1.4-3.6-3.7c0-2.3,1.5-3.7,3.6-3.7c2.1,0,3.5,1.5,3.5,3.4c0,0.3,0,0.5,0,0.7h-5.8
			c0.1,1.5,1.1,2.3,2.3,2.3c1.1,0,1.8-0.6,2-1.3h1.3C213.9,172.5,212.8,173.5,211,173.5z M208.7,169.3h4.5c0-1.4-1-2.2-2.3-2.2
			C209.8,167.1,208.8,167.9,208.7,169.3z"/>
		<path class="st1" d="M218.6,173.5c-1.7,0-2.9-0.9-2.9-2.2h1.2c0.1,0.7,0.7,1.2,1.7,1.2c0.9,0,1.5-0.5,1.5-1.1
			c0-1.6-4.3-0.7-4.3-3.3c0-1.1,1-2,2.6-2c1.6,0,2.6,0.9,2.7,2.3h-1.2c-0.1-0.7-0.6-1.2-1.6-1.2c-0.9,0-1.4,0.4-1.4,1
			c0,1.7,4.2,0.8,4.2,3.3C221.2,172.6,220.1,173.5,218.6,173.5z"/>
	</g>
	<path class="st2" d="M128.4,107.3c-5.3-8.2-8.4-17.9-8.4-28.4c0-28.9,23.4-52.3,52.3-52.3S224.7,50,224.7,79s-23.4,52.3-52.3,52.3
		c-6.7,0-13.1-1.2-18.9-3.5"/>
	<g>
		<path class="st3" d="M136.3,110.4c0,0,6.3-18.5,21-20.8c0,0,4.7-0.3,11.6,0.3c6.9,0.6,10.8,0.4,13.6-1.5c2.8-1.9,6.8-2.4,3.2,3.7
			c0,0-2.5,5.5-11.4,5.7c-5.5,0.2-15.6-1.8-10.8,3c0,0,6.1,3.8,13.7,0.9c7.6-2.9,13.7-8.4,18.9-13.3c5.2-4.9,7.5-5.3,8.3-5.8
			c0.8-0.5,5.4-1.1,1,3.9c0,0-5.9,5.5-10.5,12.1c-4.6,6.6-13.7,17.6-32.1,16.8c-12.8-1-18.7-0.5-22.8,3.8c0,0-7,4.4-2.4,15.2
			C137.7,134.4,131.3,128.2,136.3,110.4z"/>
		<g>
			<g>
				<path class="st1" d="M180.3,49.5c0-1.1,0-1.6,0-2.1c-0.2-2.1,0.5-3,2.8-2.9c3.3,0.2,3.7,0.1,3.3,3.5c-0.6,4.9,0.9,8.5,5.2,11
					c0.9,0.5,1.8,1.2,2.2,2c0.4,0.9,0.7,2.1,0.4,3c-0.2,0.7-1.5,1.4-2.3,1.4c-1.7,0-2.1,0.8-2,2.3c0.1,2.6,0,5.2,0,7.8
					c0,0.6-0.1,1.4-0.5,1.8c-6.2,6-12.5,11.9-18.9,18c-2.8-2.4-5.3-4.4-7.6-6.5c-4-3.7-7.9-7.6-11.7-11.5c-0.6-0.6-0.8-1.6-0.9-2.5
					c-0.1-3.1,0-6.2,0-9.4c-1.9-0.2-4,0.4-4.6-2c-0.6-2.2,1.2-2.9,2.5-4c6.8-5.7,13.5-11.5,20.3-17.2c1.4-1.2,2.6-0.8,3.8,0.3
					C174.6,44.8,177.2,46.9,180.3,49.5z M168.9,70.8c-2.3,0-4.5,0-7,0c0,1.8-0.1,3.6,0.1,5.2c0.1,0.6,1,1.5,1.6,1.6
					c1.7,0.2,3.4,0.1,5.3,0.1C168.9,75.2,168.9,73,168.9,70.8z M171,61.9c0,2.1-0.1,3.8,0.1,5.5c0,0.5,0.7,1.4,1.1,1.4
					c1.9,0.1,3.8,0.1,5.9,0.1c0-1.3,0-2.3,0-3.3c0-3.6-0.1-3.7-3.6-3.7C173.4,61.9,172.3,61.9,171,61.9z M171,77.7
					c1.9,0,3.6,0.1,5.2-0.1c0.6-0.1,1.6-0.9,1.7-1.5c0.2-1.7,0.1-3.5,0.1-5.3c-2.4,0-4.6,0-6.9,0C171,73.1,171,75.2,171,77.7z
					 M168.8,62c-6.8-0.5-6.8-0.5-6.9,5c0,1.7,0.7,1.9,2.1,1.9c1.6-0.1,3.1,0,4.8,0C168.8,66.4,168.8,64.3,168.8,62z"/>
			</g>
		</g>
		<path class="st0" d="M137,114.6c0,0,6.3-18.5,21-20.8c0,0,4.7-0.3,11.6,0.3c6.9,0.6,10.8,0.4,13.6-1.5c2.8-1.9,6.8-2.4,3.2,3.7
			c0,0-2.5,5.5-11.4,5.7c-5.5,0.2-15.6-1.8-10.8,3c0,0,6.1,3.8,13.7,0.9c7.6-2.9,13.7-8.4,18.9-13.3c5.2-4.9,7.5-5.3,8.3-5.8
			c0.8-0.5,5.4-1.1,1,3.9c0,0-5.9,5.5-10.5,12.1c-4.6,6.6-13.7,17.6-32.1,16.8c-12.8-1-18.7-0.5-22.8,3.8c0,0-5.7,5.1-1.1,15.9
			C139.7,139.3,132.1,132.4,137,114.6z"/>
	</g>
</g>
</svg>
