<?xml version="1.0" encoding="utf-8"?>
<!-- Generator: Adobe Illustrator 24.0.0, SVG Export Plug-In . SVG Version: 6.00 Build 0)  -->
<svg version="1.1" id="Layer_1" xmlns="http://www.w3.org/2000/svg" xmlns:xlink="http://www.w3.org/1999/xlink" x="0px" y="0px"
	 viewBox="0 0 356 200" style="enable-background:new 0 0 356 200;" xml:space="preserve">
<style type="text/css">
	.st0{fill:#2A6BB4;}
	.st1{fill:#43B749;}
</style>
<g>
	<g>
		<path class="st0" d="M125.1,160.6c-0.3-0.4-0.4-0.7-0.4-1s0.2-0.7,0.7-1.1c0.3-0.3,0.6-0.4,0.9-0.4s0.8,0.3,1.3,0.8
			c0.2,0.2,0.4,0.4,0.7,0.5c0.3,0.2,0.6,0.3,0.8,0.2c1,0,1.6-0.4,1.5-1.3c0-0.3-0.1-0.5-0.4-0.6c-0.3-0.2-0.6-0.3-1.1-0.4
			c-0.4-0.1-0.9-0.2-1.4-0.4c-0.5-0.2-1-0.4-1.4-0.6s-0.8-0.6-1.1-1.1c-0.3-0.5-0.4-1.1-0.4-1.8c0-1,0.3-1.8,1.1-2.6
			c0.7-0.7,1.7-1.1,3-1.1c0.7,0,1.3,0.1,1.8,0.2c0.6,0.2,0.9,0.3,1.2,0.5l0.4,0.3c0.3,0.3,0.5,0.6,0.5,0.8s-0.1,0.5-0.4,0.9
			c-0.4,0.6-0.8,0.8-1.2,0.9c-0.2,0-0.5-0.1-0.9-0.3c0,0-0.1-0.1-0.2-0.2c-0.1-0.1-0.2-0.2-0.3-0.2c-0.2-0.1-0.5-0.2-0.9-0.2
			s-0.7,0.1-0.9,0.3s-0.4,0.4-0.4,0.7s0.1,0.6,0.4,0.7c0.3,0.2,0.6,0.3,1.1,0.4c0.4,0.1,0.9,0.2,1.4,0.3s1,0.3,1.4,0.5
			s0.8,0.5,1.1,1s0.4,1.1,0.4,1.8s-0.1,1.4-0.4,1.9c-0.3,0.6-0.7,1-1.1,1.3c-0.9,0.6-1.9,0.9-2.9,0.9c-0.5,0-1-0.1-1.5-0.2
			c-0.5-0.1-0.9-0.3-1.1-0.5c-0.6-0.4-1-0.7-1.3-1L125.1,160.6z"/>
		<path class="st0" d="M147.7,150.2c0.1,0.2,0.1,0.3,0.2,0.5c0,0.1,0,0.3,0,0.6l0.1,9.3c0,0.8-0.2,1.2-0.6,1.4
			c-0.2,0.1-0.5,0.1-0.8,0.1s-0.6,0-0.8-0.1s-0.3-0.1-0.4-0.2s-0.2-0.2-0.2-0.3c-0.1-0.2-0.1-0.5-0.1-0.9L145,155
			c-0.3,0.3-0.7,0.9-1.2,1.7s-0.9,1.2-1,1.4s-0.2,0.3-0.3,0.4c-0.1,0.1-0.2,0.2-0.4,0.3s-0.4,0.2-0.7,0.2s-0.5-0.1-0.7-0.2
			c-0.2-0.1-0.4-0.2-0.4-0.3l-0.1-0.2c-0.2-0.3-0.7-0.9-1.3-1.8c-0.7-0.9-1-1.4-1.1-1.5l0.1,5.6c0,0.3,0,0.4,0,0.6
			c0,0.1-0.1,0.3-0.2,0.4c-0.2,0.3-0.6,0.5-1.3,0.5s-1.1-0.1-1.3-0.4c-0.1-0.2-0.1-0.3-0.2-0.4c0-0.1,0-0.3,0-0.6l-0.1-9.3
			c0-0.3,0-0.5,0-0.6s0.1-0.3,0.2-0.4c0.2-0.3,0.6-0.4,1.3-0.5c0.3,0,0.6,0,0.8,0.1s0.4,0.1,0.4,0.2l0.1,0.1l3.9,4.9
			c1.9-2.5,3.1-4.2,3.7-5c0.2-0.3,0.6-0.5,1.3-0.5S147.5,149.9,147.7,150.2z"/>
		<path class="st0" d="M156.3,150.6l4.6,9.3c0.2,0.4,0.3,0.7,0.3,0.9c0,0.4-0.3,0.8-1,1.1c-0.4,0.2-0.7,0.3-0.9,0.3s-0.4,0-0.5-0.1
			s-0.2-0.2-0.3-0.3s-0.2-0.3-0.3-0.5l-0.9-1.8l-4.6,0.1l-0.9,1.8c-0.1,0.2-0.2,0.4-0.3,0.5s-0.2,0.2-0.3,0.3s-0.3,0.2-0.5,0.2
			s-0.5-0.1-0.9-0.3c-0.7-0.3-1-0.7-1-1.1c0-0.2,0.1-0.5,0.3-0.9l4.4-9.4c0.1-0.3,0.3-0.5,0.6-0.6c0.2-0.2,0.5-0.2,0.8-0.2
			C155.5,149.7,156,150,156.3,150.6z M155,154.6l-1.1,2.3h2.2L155,154.6z"/>
		<path class="st0" d="M165.1,159.4l4.6-0.1c0.4,0,0.6,0,0.8,0.1s0.3,0.2,0.3,0.4c0.1,0.2,0.1,0.4,0.1,0.7s0,0.5-0.1,0.7
			s-0.1,0.3-0.3,0.4c-0.2,0.1-0.5,0.2-0.9,0.2l-6,0.1c-0.8,0-1.2-0.2-1.4-0.6c-0.1-0.2-0.1-0.5-0.1-0.9l-0.1-9.3c0-0.3,0-0.5,0-0.6
			s0.1-0.3,0.2-0.4c0.2-0.3,0.6-0.5,1.3-0.5c0.8,0,1.2,0.2,1.4,0.6c0.1,0.2,0.1,0.5,0.1,0.9L165.1,159.4z"/>
		<path class="st0" d="M174.9,159.3l4.6-0.1c0.4,0,0.6,0,0.8,0.1s0.3,0.2,0.3,0.4s0.1,0.4,0.1,0.7s0,0.5-0.1,0.7s-0.1,0.3-0.3,0.4
			c-0.2,0.1-0.5,0.2-0.9,0.2l-6,0.1c-0.8,0-1.2-0.2-1.4-0.6c-0.1-0.2-0.1-0.5-0.1-0.9l-0.1-9.3c0-0.3,0-0.5,0-0.6s0.1-0.3,0.2-0.4
			c0.2-0.3,0.6-0.5,1.3-0.5c0.8,0,1.2,0.2,1.4,0.6c0.1,0.2,0.1,0.5,0.1,0.9L174.9,159.3z"/>
		<path class="st0" d="M186.7,149.3l9.3-0.1c0.4,0,0.6,0,0.8,0.1s0.3,0.2,0.3,0.4c0.1,0.2,0.1,0.4,0.1,0.7s0,0.5-0.1,0.7
			s-0.1,0.3-0.3,0.4c-0.2,0.1-0.5,0.2-0.9,0.2h-3.2l0.1,8.4c0,0.3,0,0.4,0,0.6c0,0.1-0.1,0.3-0.1,0.4c-0.1,0.2-0.2,0.3-0.4,0.3
			c-0.2,0.1-0.5,0.1-0.8,0.1s-0.6,0-0.8-0.1s-0.4-0.2-0.4-0.3c-0.1-0.2-0.1-0.3-0.2-0.4c0-0.1,0-0.3,0-0.6l-0.1-8.4h-3.2
			c-0.4,0-0.6,0-0.8-0.1s-0.3-0.2-0.3-0.4c-0.1-0.2-0.1-0.4-0.1-0.7s0-0.5,0.1-0.7s0.1-0.3,0.3-0.4
			C186,149.4,186.3,149.3,186.7,149.3z"/>
		<path class="st0" d="M202.9,149c1.7,0,3.1,0.6,4.3,1.7c1.2,1.2,1.9,2.7,1.9,4.4s-0.5,3.3-1.7,4.5c-1.1,1.3-2.6,1.9-4.3,1.9
			s-3.1-0.6-4.3-1.8s-1.8-2.7-1.8-4.4c0-0.9,0.1-1.8,0.5-2.6s0.8-1.5,1.3-2c0.6-0.6,1.2-1,1.9-1.3C201.4,149.2,202.1,149,202.9,149z
			 M199.9,155.4c0,1,0.3,1.8,1,2.4c0.6,0.6,1.4,0.9,2.2,0.9s1.5-0.3,2.1-0.9c0.6-0.6,0.9-1.4,0.9-2.4s-0.3-1.8-1-2.4
			c-0.6-0.6-1.4-0.9-2.2-0.9s-1.5,0.3-2.1,1C200.2,153.6,199.9,154.4,199.9,155.4z"/>
		<path class="st0" d="M223.1,154.6c0.7,0.8,1,1.6,1,2.6c0,1.1-0.4,2.1-1.1,2.8c-0.7,0.8-1.6,1.1-2.7,1.2h-4.4
			c-0.8,0-1.2-0.2-1.4-0.6c-0.1-0.2-0.1-0.5-0.1-0.9l-0.1-9.3c0-0.3,0-0.5,0-0.6s0.1-0.3,0.2-0.4c0.2-0.3,0.6-0.5,1.3-0.5h4.2
			c1,0,1.9,0.3,2.6,1c0.7,0.7,1.1,1.6,1.1,2.6C223.8,153.3,223.6,154,223.1,154.6z M221.2,157.1c0-0.3,0-0.5-0.1-0.6
			c-0.1-0.2-0.2-0.3-0.3-0.3c-0.2-0.1-0.5-0.1-0.9-0.1s-0.7-0.1-0.9-0.2c-0.2-0.2-0.3-0.5-0.3-1s0.1-0.8,0.3-1s0.5-0.2,1-0.2
			c0.4,0,0.7-0.1,0.8-0.4c0-0.1,0-0.3,0-0.6s-0.1-0.5-0.3-0.6s-0.5-0.2-0.8-0.2h-2.3l0.1,6.3h2.7
			C220.9,158.3,221.2,157.9,221.2,157.1z"/>
		<path class="st0" d="M225.2,150.4c0-0.3,0-0.5,0-0.6s0.1-0.3,0.2-0.4c0.2-0.3,0.6-0.5,1.3-0.5c0.8,0,1.2,0.2,1.4,0.6
			c0.1,0.2,0.1,0.5,0.1,0.9l0.1,9.3c0,0.3,0,0.5,0,0.6s-0.1,0.3-0.2,0.4c-0.2,0.3-0.6,0.5-1.3,0.5c-0.8,0-1.2-0.2-1.4-0.6
			c-0.1-0.2-0.1-0.5-0.1-0.9L225.2,150.4z"/>
		<path class="st0" d="M235.9,153.7h2.9c0.6,0,1,0.2,1.1,0.5c0.1,0.2,0.2,0.5,0.2,0.9v3.7c0,0.4-0.1,0.7-0.5,1
			c-0.9,1-2.3,1.5-4.2,1.5c-1.7,0-3.1-0.6-4.4-1.8s-1.9-2.8-1.9-4.5s0.6-3.3,1.8-4.5s2.7-1.8,4.4-1.8c1.3,0,2.6,0.4,3.7,1.3
			c0.3,0.2,0.5,0.5,0.5,0.7s-0.1,0.6-0.4,0.9c-0.4,0.6-0.8,0.9-1.2,0.9c-0.2,0-0.6-0.1-1-0.4c-0.5-0.3-1-0.5-1.7-0.4
			c-0.8,0-1.6,0.3-2.3,0.9c-0.7,0.6-1,1.4-1,2.4s0.4,1.8,1,2.5c0.7,0.7,1.4,1,2.3,1c0.6,0,1.2-0.1,1.7-0.3v-1.8h-1.3
			c-0.3,0-0.6,0-0.7-0.1c-0.1-0.1-0.2-0.2-0.3-0.4c0-0.2-0.1-0.4-0.1-0.7s0-0.5,0.1-0.7c0-0.2,0.1-0.3,0.3-0.4
			C235.3,153.7,235.6,153.7,235.9,153.7z"/>
	</g>
	<g>
		<path class="st1" d="M162.7,168l3,6.1c0.1,0.2,0.2,0.4,0.2,0.6c0,0.3-0.2,0.5-0.6,0.7c-0.2,0.1-0.4,0.2-0.6,0.2
			c-0.1,0-0.3,0-0.4-0.1s-0.2-0.1-0.2-0.2c0-0.1-0.1-0.2-0.2-0.3l-0.6-1.2h-3l-0.6,1.2c-0.1,0.1-0.1,0.3-0.2,0.3
			c0,0.1-0.1,0.1-0.2,0.2c-0.1,0.1-0.2,0.1-0.3,0.1s-0.3-0.1-0.6-0.2c-0.4-0.2-0.6-0.4-0.6-0.7c0-0.1,0.1-0.3,0.2-0.6l2.9-6.1
			c0.1-0.2,0.2-0.3,0.4-0.4c0.2-0.1,0.3-0.2,0.5-0.2C162.3,167.4,162.6,167.6,162.7,168z M161.9,170.6l-0.7,1.5h1.5L161.9,170.6z"/>
		<path class="st1" d="M168.9,169.6c0.5,0,0.8,0.1,0.9,0.4c0,0.1,0.1,0.3,0.1,0.5s0,0.4-0.1,0.5s-0.1,0.2-0.2,0.3
			c-0.2,0.1-0.4,0.1-0.7,0.1h-0.7v2.9c0,0.3,0,0.5-0.1,0.6s-0.2,0.2-0.3,0.3c-0.1,0-0.3,0.1-0.6,0.1c-0.2,0-0.4,0-0.5-0.1
			c-0.1,0-0.2-0.1-0.3-0.2c-0.1-0.1-0.1-0.2-0.1-0.3s0-0.2,0-0.4v-2.9h-0.4c-0.2,0-0.3-0.1-0.4-0.1c-0.1-0.1-0.2-0.4-0.2-0.8
			c0-0.6,0.2-0.9,0.6-0.9h0.4V169c0-0.6,0.2-1.1,0.6-1.5c0.4-0.5,1-0.7,1.7-0.7c0.2,0,0.3,0,0.4,0c0.1,0,0.2,0,0.3,0.1
			c0.2,0.1,0.3,0.4,0.3,0.8c0,0.3-0.1,0.6-0.2,0.8c-0.1,0.1-0.3,0.2-0.5,0.2c-0.1,0-0.2,0-0.3,0c-0.3,0-0.4,0.1-0.4,0.3v0.6
			L168.9,169.6z"/>
		<path class="st1" d="M174.4,169.6c0.1,0,0.3,0.1,0.3,0.2c0.1,0.1,0.1,0.3,0.1,0.5s-0.1,0.5-0.2,0.8c-0.1,0.3-0.3,0.4-0.6,0.4
			c-0.1,0-0.3,0-0.4-0.1c-0.1-0.1-0.3-0.1-0.5-0.1s-0.4,0.1-0.5,0.2c-0.2,0.1-0.3,0.3-0.3,0.5v2.3c0,0.2,0,0.3,0,0.4
			c0,0.1,0,0.2-0.1,0.3c-0.1,0.2-0.4,0.3-0.8,0.3c-0.3,0-0.6-0.1-0.8-0.2c-0.1-0.1-0.2-0.3-0.2-0.5c0-0.1,0-0.2,0-0.3v-3.8
			c0-0.2,0-0.3,0-0.4c0-0.1,0-0.2,0.1-0.3c0.1-0.2,0.4-0.3,0.8-0.3c0.4,0,0.7,0.1,0.8,0.2c0.1,0.1,0.1,0.2,0.1,0.4
			c0-0.1,0.1-0.1,0.2-0.2c0.1-0.1,0.2-0.2,0.4-0.3s0.4-0.2,0.6-0.2c0.2,0,0.3,0,0.4,0C174.1,169.5,174.2,169.6,174.4,169.6z"/>
		<path class="st1" d="M177.2,168.4c-0.1,0.1-0.1,0.2-0.3,0.2c-0.1,0-0.3,0.1-0.6,0.1s-0.4,0-0.6-0.1c-0.1,0-0.2-0.1-0.3-0.2
			c-0.1-0.1-0.1-0.2-0.1-0.3s0-0.2,0-0.4s0-0.3,0-0.4c0-0.1,0-0.2,0.1-0.3c0.1-0.2,0.4-0.3,0.8-0.3c0.5,0,0.7,0.1,0.8,0.3
			c0.1,0.1,0.1,0.2,0.1,0.3s0,0.2,0,0.4s0,0.3,0,0.4C177.3,168.2,177.3,168.3,177.2,168.4z M175.5,170.5c0-0.2,0-0.3,0-0.4
			c0-0.1,0-0.2,0.1-0.3c0.1-0.2,0.4-0.3,0.8-0.3c0.3,0,0.6,0.1,0.7,0.2c0.1,0.1,0.2,0.3,0.2,0.5c0,0.1,0,0.2,0,0.3v3.8
			c0,0.2,0,0.3,0,0.4s0,0.2-0.1,0.3c-0.1,0.2-0.4,0.3-0.8,0.3c-0.5,0-0.7-0.1-0.8-0.3c-0.1-0.1-0.1-0.2-0.1-0.3s0-0.2,0-0.4
			L175.5,170.5z"/>
		<path class="st1" d="M180.1,172.4c0,0.3,0.1,0.5,0.3,0.7s0.4,0.3,0.7,0.2c0.2,0,0.4-0.1,0.6-0.2c0.2-0.1,0.4-0.2,0.5-0.2
			c0.2,0,0.5,0.2,0.8,0.6c0.2,0.2,0.3,0.4,0.3,0.6c0,0.3-0.2,0.5-0.6,0.8c-0.4,0.3-0.9,0.4-1.5,0.5c-0.7,0-1.3-0.2-2-0.7
			c-0.3-0.2-0.5-0.5-0.7-0.9s-0.3-0.8-0.3-1.3s0.1-0.9,0.3-1.3c0.2-0.4,0.4-0.7,0.7-0.9c0.6-0.5,1.2-0.7,1.9-0.7
			c0.3,0,0.5,0,0.8,0.1s0.5,0.1,0.6,0.2l0.2,0.1c0.1,0.1,0.2,0.2,0.3,0.2c0.2,0.1,0.3,0.3,0.3,0.5s-0.1,0.4-0.2,0.6
			c-0.3,0.4-0.5,0.6-0.7,0.6c-0.1,0-0.3-0.1-0.6-0.2c-0.1-0.1-0.3-0.2-0.6-0.2s-0.5,0.1-0.7,0.3C180.2,171.8,180.1,172,180.1,172.4z
			"/>
		<path class="st1" d="M187.6,170c0-0.4,0.3-0.6,0.9-0.6c0.3,0,0.5,0,0.6,0.1s0.2,0.1,0.3,0.2c0.1,0.1,0.1,0.2,0.1,0.3s0,0.2,0,0.4
			v3.8c0,0.2,0,0.3,0,0.4c0,0.1,0,0.2-0.1,0.3c-0.1,0.2-0.3,0.3-0.7,0.3s-0.7,0-0.8-0.1s-0.2-0.2-0.2-0.4c-0.3,0.4-0.7,0.6-1.3,0.6
			s-1.2-0.3-1.8-0.8c-0.5-0.6-0.8-1.2-0.8-2s0.3-1.4,0.8-2s1.1-0.9,1.8-0.9c0.2,0,0.5,0,0.7,0.1s0.3,0.2,0.4,0.2
			C187.5,169.9,187.6,169.9,187.6,170z M185.7,172.3c0,0.2,0.1,0.5,0.3,0.6c0.2,0.2,0.4,0.3,0.7,0.3s0.5-0.1,0.7-0.3
			s0.3-0.4,0.3-0.7c0-0.2-0.1-0.5-0.3-0.7s-0.4-0.3-0.7-0.3s-0.5,0.1-0.7,0.3S185.7,172.1,185.7,172.3z"/>
		<path class="st1" d="M195.1,173.4h3c0.2,0,0.4,0,0.5,0.1s0.2,0.1,0.2,0.3c0,0.1,0.1,0.3,0.1,0.5s0,0.3,0,0.5
			c0,0.1-0.1,0.2-0.2,0.2c-0.1,0.1-0.3,0.1-0.6,0.1h-3.9c-0.5,0-0.8-0.1-0.9-0.4c0-0.1-0.1-0.3-0.1-0.6l-0.1-6.1c0-0.2,0-0.3,0-0.4
			c0-0.1,0-0.2,0.1-0.3c0.1-0.2,0.4-0.3,0.8-0.3c0.5,0,0.8,0.1,0.9,0.4c0,0.1,0.1,0.3,0.1,0.6L195.1,173.4z"/>
		<path class="st1" d="M201.6,171.2h-0.7v1.5c0,0.2,0,0.3,0.1,0.4c0.1,0.1,0.2,0.1,0.4,0.1s0.3,0,0.4,0s0.2,0,0.3,0.1
			c0.2,0.1,0.3,0.3,0.3,0.7c0,0.5-0.1,0.7-0.3,0.8c-0.1,0.1-0.2,0.1-0.3,0.1s-0.2,0-0.4,0c-0.8,0-1.3-0.2-1.7-0.5s-0.6-0.9-0.6-1.7
			v-1.6c-0.1,0-0.3,0-0.4,0s-0.3-0.1-0.4-0.2c-0.1-0.1-0.2-0.3-0.2-0.6s0-0.5,0-0.7s0.1-0.2,0.1-0.3c0.1-0.1,0.3-0.1,0.4-0.1h0.4
			v-1.1c0-0.2,0-0.3,0-0.4c0-0.1,0-0.2,0.1-0.3c0.1-0.2,0.4-0.3,0.8-0.3c0.5,0,0.8,0.1,0.9,0.4c0,0.1,0.1,0.3,0.1,0.6v1.1
			c0.3,0,0.6,0,0.7-0.1s0.3,0,0.4,0c0.1,0,0.2,0,0.3,0.1c0.2,0.1,0.3,0.4,0.3,0.8c0,0.5-0.1,0.7-0.3,0.8c-0.1,0.1-0.2,0.1-0.3,0.1
			C201.9,171.2,201.8,171.2,201.6,171.2z"/>
		<path class="st1" d="M207,166.8c0.1-0.1,0.1-0.2,0.3-0.2c0.1,0,0.3-0.1,0.6-0.1c0.2,0,0.4,0,0.6,0.1s0.2,0.1,0.3,0.2
			c0.1,0.1,0.1,0.2,0.1,0.3s0,0.2,0,0.4l0.1,6.5c0,0.2,0,0.3,0,0.4c0,0.1,0,0.2-0.1,0.3c-0.1,0.2-0.4,0.3-0.9,0.3s-0.8-0.2-0.9-0.5
			c-0.3,0.4-0.7,0.5-1.3,0.5c-0.7,0-1.3-0.3-1.8-0.8c-0.5-0.6-0.8-1.2-0.8-2s0.3-1.4,0.8-2s1.1-0.9,1.8-0.9c0.5,0,1,0.2,1.3,0.5
			v-2.3c0-0.2,0-0.3,0-0.4C206.9,167,206.9,166.9,207,166.8z M205.3,172.7c0.2,0.2,0.4,0.3,0.7,0.3s0.5-0.1,0.7-0.3s0.3-0.4,0.3-0.7
			c0-0.2-0.1-0.5-0.3-0.7s-0.4-0.3-0.7-0.3s-0.5,0.1-0.7,0.3s-0.3,0.4-0.3,0.7S205.1,172.5,205.3,172.7z"/>
	</g>
	<g>
		<path class="st1" d="M148.7,58.8c-0.8,1-1.5,2.1-2.3,2.9c-3.1,3.2-3.9,9.7-1.8,13.5c2,3.5,4.8,4.5,8.6,3.8
			c2.2-0.4,4.6-0.1,6.8,0.3c2.4,0.4,3,2.1,3.2,4.6c0.3,3,1.7,6,2.6,8.9c0.2,0.9,0.6,2,0.3,2.7c-3,5.9,0.9,10.6,2.8,15.6
			c1.2,3.2,4.4,1.7,5.8,0.1c2.1-2.4,3.4-5.5,5-8.4c1-1.6,2-3.2,3.2-5.3c3.2,5.8,2.8,6.6-0.3,10.2c-2,2.3-2.9,5.6-4.4,8.4
			c-0.9,1.7-1.9,3.6-3.4,4.7c-1.7,1.2-4,1.8-6.1,2.4c-3.8,1-2.9-2.6-3.6-4.3c-1.5-3.5-2.6-7.2-3.7-10.8c-0.3-1,0.2-2.3,0.2-3.4
			c0.1-2.6,0.4-5.2,0-7.7c-0.4-2.9-1.1-5.9-2.5-8.4c-0.9-1.6-3.5-2.3-5.4-3.1c-0.7-0.3-1.8,0.3-2.7,0.4c-8.8,1.8-12.9-2.6-12.8-11.8
			c0.1-6.4,4.5-9.8,7-14.5c0.5-0.9,1.8-1.3,2.7-1.9C148.2,58.2,148.5,58.5,148.7,58.8z"/>
		<path class="st1" d="M193.2,80.3c0,6.5-4.6,9.8-8.7,13.4C180.9,88.7,185.4,81.7,193.2,80.3z"/>
	</g>
	<g>
		<path class="st0" d="M170.9,76.3c3.4-0.5,6.1-2,8-4.4c1.6-2.1,2.2-4.3,1.8-6.8s-1.7-4.4-3.9-5.9c-1.8-1.2-4.2-1.9-7.1-2.3
			c-0.2,0-0.5-0.1-0.7-0.1s-0.4-0.1-0.6-0.1c-1.8-0.3-2.3-0.8-1.3-1.5s1.8-0.9,2.4-0.4c0.3,0.2,0.4,0.4,0.4,0.6
			c0,0.2,0.2,0.4,0.4,0.6c0.2,0.2,0.5,0.2,0.7,0.2c0.4,0,1.1-0.1,2-0.3s1.7-0.5,2.5-0.8s1.5-0.8,2-1.3s0.7-1.1,0.5-1.7
			c-0.6-1.7-1.6-3-2.9-4c-1.4-1-2.9-1.6-4.6-1.8c-1.7-0.3-3.4-0.2-5.1,0.2c-1.7,0.4-3.3,1.2-4.6,2.3c-2.2,1.9-3.4,4.1-3.6,6.8
			c-0.1,2,0.2,3.6,0.8,4.8s1.4,2.1,2.4,2.8c1.4,0.9,2.8,1.5,4.3,1.6c1.5,0.2,3,0.4,4.6,0.8c0.6,0.2,1,0.4,1.2,0.6
			c0.3,0.6,0.1,1-0.5,1.3s-1.2,0.3-1.7,0.2c-0.4-0.1-0.7-0.4-0.8-0.7c-0.1-0.1-0.1-0.2-0.1-0.3c-0.1-0.5-0.6-0.8-1.5-1
			s-1.8-0.3-2.9-0.2c-0.6,0-1.3,0.1-2,0.3c-0.7,0.1-1.3,0.4-1.9,0.7c-1.3,0.7-1.8,1.5-1.5,2.6c0.7,2.3,2.1,4.1,4.3,5.5
			C164.5,76.2,167.5,76.8,170.9,76.3z"/>
		<path class="st0" d="M202.6,65.9c-0.5,0-1.6,0-3.2,0.2c-1.6,0.1-3.3,0.3-4.9,0.4c1-1.1,2.5-2,4.6-2.7s3.6-2.1,4.6-4.1
			c1.2-2.3,1.2-4.8,0-7.3c-1.2-2.6-2.9-4.4-5.1-5.4c-2.3-1.1-4.8-1.4-7.5-0.9c-2.6,0.5-4.8,1.8-6.6,3.8c-0.6,0.6-1.2,1.7-1.8,3.2
			c-0.7,1.5-0.7,2.6-0.2,3.1c0.4,0.5,1,0.8,1.5,1c0.6,0.2,1.2,0.3,1.8,0.4c0.9,0.1,1.9,0.2,2.8,0.2c1,0,1.6-0.3,2-0.7
			c0.2-0.2,0.3-0.5,0.3-0.7c0-0.8,0.3-1.2,0.9-1.4c0.6-0.2,1.2-0.2,1.8,0s0.9,0.5,1,1s-0.4,0.9-1.4,1.4c-2.6,1.2-4.9,2.6-6.8,4.2
			c-1.9,1.6-3.1,3.9-3.7,7c-0.1,0.4-0.1,1.6,0,3.6c0.1,1.9,0.3,3,0.8,3.3h0.1c5.7-4,12.3-7.2,19.5-9.3
			C202.9,66,202.8,65.9,202.6,65.9z"/>
		<path class="st0" d="M217.1,61.6c0.8-0.4,1.8-0.4,2.8,0.1c0.7,0.3,1.2,0.8,1.6,1.3c1.2-0.1,2.4-0.1,3.7-0.1c2.2,0,4.4,0.1,6.5,0.3
			c-0.1-0.9-0.2-1.8-0.6-2.7c-0.6-1.6-1.8-2.9-3.6-3.9h-0.1c1.2-2.1,1.4-4.2,0.5-6.5s-2.5-3.8-4.8-4.7c-1.6-0.6-3.3-0.9-5.2-1
			s-3.7,0-5.3,0.2c-1.7,0.3-3.1,0.6-4.2,1.2c-1.2,0.5-1.8,1.1-1.9,1.7c-0.1,1-0.2,2.9-0.1,5.7c0.1,2.8,0.2,5.8,0.4,8.8
			c0.1,1.1,0.2,2.1,0.3,3.1c3-0.7,6.2-1.3,9.4-1.6C216.5,62.4,216.7,61.8,217.1,61.6z M216,51.5c0.1-0.4,0.5-0.6,1.3-0.7
			c0.9,0,1.6,0.2,2,0.5c0.5,0.4,0.7,0.8,0.7,1.3c0,0.8-0.3,1.4-1,1.9s-1.5,0.7-2.2,0.5c-0.4-0.1-0.6-0.6-0.8-1.5
			C215.9,52.8,215.9,52.1,216,51.5z"/>
	</g>
	<path class="st1" d="M178,136.2c-30.8,0-55.8-25-55.8-55.8s25-55.8,55.8-55.8c8.4,0,16.5,2.5,16.6,2.5c5.8,1.9,12.1,5.3,18.6,10
		c0.9,0.7,1.2,2,0.5,2.9s-2,1.2-2.9,0.5c-6.2-4.4-12-7.6-17.4-9.4c0,0-7.6-2.3-15.3-2.3c-28.5,0-51.6,23.2-51.6,51.6
		s23.2,51.6,51.6,51.6c14.5,0,28.5-6,38.4-16.5c9.2-9.7,13.9-22.1,13.2-35c-0.4-7.5-2-9.2-2.3-9.4h0.1h-0.1c-5.8-0.3-11.5,0.4-17,2
		c-4.1,1.2-8.1,2.9-11.9,5.1c-1,0.6-2.3,0.3-2.9-0.7c-0.6-1-0.3-2.3,0.7-2.9c4-2.4,8.4-4.2,12.8-5.5c5.9-1.7,12-2.5,18.2-2.2
		c0.5,0,1.5,0.1,2.5,1c2.2,1.8,3.4,5.9,3.8,12.5c0.7,14.1-4.4,27.6-14.4,38.1C208.7,129.7,193.6,136.2,178,136.2z"/>
</g>
</svg>
