<?xml version="1.0" encoding="utf-8"?>
<!-- Generator: Adobe Illustrator 24.0.0, SVG Export Plug-In . SVG Version: 6.00 Build 0)  -->
<svg version="1.1" id="Layer_1" xmlns="http://www.w3.org/2000/svg" xmlns:xlink="http://www.w3.org/1999/xlink" x="0px" y="0px"
	 viewBox="0 0 356 200" style="enable-background:new 0 0 356 200;" xml:space="preserve">
<style type="text/css">
	.st0{fill:#224099;}
</style>
<g>
	<path class="st0" d="M121.3,101.3c-0.1-30.4,24.7-55.2,55-55.3c30.4,0,55,24.7,55.1,55.2c0,30.5-24.6,55.2-55,55.2
		C146.1,156.5,121.4,131.8,121.3,101.3z M182.2,102.7c4.5,2.7,9.3,4.8,14.9,4.4c4.7-0.3,7.9-3.4,8.2-8.2c0.1-1.8,0.1-3.6-0.4-5.3
		c-3.2-12.2-11-20.6-21.8-26.4c-3.2-1.7-6.9-2.7-10.6-3.2c-6.1-0.8-10.2,3.1-10.2,9.2c-0.1,5.1,1.8,9.6,4.6,14.1c1.1-0.7,2-1.4,3-2
		c2.6-1.4,5.1-3,7.7-4.2c3.4-1.5,6.4-0.3,8.8,2.3c2.3,2.5,3.3,5.5,1.7,8.7C186.3,95.7,184.2,99,182.2,102.7z M150.8,80.3
		c-5.6-1-11.1-1.9-16.6-3.2c-2.3-0.6-3.3-0.1-4,2c-0.4,1.1-1,2.1-1.4,3.2c-2.1,5.4-3.5,11-3.6,17c8,0,15.8,0,23.4,0
		C149.4,92.8,150.1,86.6,150.8,80.3z M221.4,125.7c3.8-6.9,5.9-14.3,6.2-22.6c-6.9,0-13.5,0-20.2,0c-0.4,0-0.9,0.1-1,0.3
		c-0.9,2-3.2,3.2-3,5.8c0.1,1.4-0.2,2.9-0.3,4.4c-0.4,2.9-0.8,5.8-1.2,8.6C208.4,123.4,214.7,124.5,221.4,125.7z M201.6,80.5
		c3.3,5.9,6.4,11.8,6,18.8c6.8,0,13.3,0,20,0c-0.2-7.8-2.2-15-5.8-21.7c-0.2-0.4-1.1-0.9-1.6-0.8C214.2,78,208.1,79.2,201.6,80.5z
		 M187.9,51.5c7.1,7.2,10.4,15.7,13,25.1c6.1-1,12.1-2.1,18.5-3.1C211.6,62.1,201.4,55,187.9,51.5z M219.4,129.1
		C213,128,207,127,200.9,126c-2.6,9.3-6,17.8-12.9,25.1C201.5,147.5,211.6,140.4,219.4,129.1z M164.9,51.5
		c-13.4,3.4-23.6,10.5-31.5,21.9c6.4,1.1,12.4,2.1,18.5,3.1C154.5,67.2,157.9,58.7,164.9,51.5z M148.5,103.8
		c-0.2-0.2-0.4-0.4-0.6-0.6c-7.5,0-14.9,0-22.6,0c0.2,8.2,2.4,15.6,6.3,22.7c2.2-0.5,4.3-1.1,6.5-1.6c-1.7-4.5-0.2-7.7,3-10.9
		C143.9,110.6,146,107.1,148.5,103.8z M133.7,129.2c6.3,10.3,22.4,21.5,30.7,21.2c-6.8-6.8-9.9-15.5-12.6-24.7
		c-2.6,2.1-5.1,3.6-7.9,2.6C140.3,127.1,137.2,128.7,133.7,129.2z M178.3,50.2c0,4.6,0,8.5,0,12.1c3.3,1.7,6.6,3.2,9.5,5.1
		s5.6,4.3,8.6,6.7C192.7,64.3,189.4,54.6,178.3,50.2z M186.1,147.2c4.5-3.9,10.4-15.8,10.7-21.5c-2.9-0.2-5.8-0.4-8.8-0.5
		c-1,0-3.5,2.6-3.3,3.6c0.6,2.7,0.4,5.2,0.2,7.9C184.8,140.1,185.7,143.5,186.1,147.2z M174.5,50.8c-7.1,0.7-17.3,14.5-18.1,24.7
		c3.6-7.9,7.9-14.9,18.1-13.6C174.5,58,174.5,54.4,174.5,50.8z M199.8,110.5c-5.1,2-10,3.9-15,5.9c0.4,1,0.8,2.2,1.3,3.4
		c0.3,0.6,0.7,1.5,1.1,1.5c3.6,0.3,7.2,0.5,10.9,0.7C198.8,117.9,199.3,114.1,199.8,110.5z M159.7,136.1c-0.2,0.3-0.5,0.5-0.7,0.8
		c2.7,3.6,5.3,7.3,8,10.9c1.2,1.6,2.7,2.1,4.7,1.3c0.2-2.5,0.3-5,0.4-6.8c-3.7-2.1-7-4.1-10.3-5.9
		C161.3,136.1,160.4,136.2,159.7,136.1z M181.4,82.7c-1.4,0.1-2,1-1.9,2.6c0.2,2.1,2.5,4.6,4.6,5c1.6,0.3,2.6-0.4,2.8-2
		C187.2,85.9,184.1,82.7,181.4,82.7z M159.1,121.1c0.1,0.2,0.1,0.5,0.2,0.7c2.2-0.1,4.4-0.2,6.6-0.3c0.9,0,2.2,0.2,2.7-0.2
		c1.9-2.1,3.8-1.8,5.8-0.3c0-1.5,0-2.7,0-4.5C169.1,118,164.1,119.5,159.1,121.1z M156.3,125.7c0.7,2.8,0,5.8,2.7,7.4
		c3.1-2.3,0.7-5.1,1.1-7.7C159,125.5,157.8,125.6,156.3,125.7z M183,121.1c-0.9-5.1-1.4-5.5-4.6-4.5
		C178.1,120.5,179.2,121.6,183,121.1z M171,133.6c-1.1,5.3-3.9,1-6.3,0.9c3.9,3.3,5.9,2.6,6.8,0.1c0.8,0,1.6,0.2,2.3,0
		c1.7-0.8,3.1-2,5.3-1.7c1.3,0.2,2.7-0.9,4.1-1.5c0.5-0.2,1.1-0.5,1.6-0.8c-1.8-0.1-3.6-0.4-4.1,0.3c-1.4,1.8-2.9,1.7-4.6,1
		C174.8,134.1,173.2,134.6,171,133.6z"/>
	<path class="st0" d="M222.2,61.9c-0.7-0.7-1.3-1.2-2.1-1.9c2.4-2.9-0.6-3.7-1.9-5.4c-0.8,0.4-1.6,0.7-2.4,1
		c-1.4-1.1-2.9-2.3-4.3-3.4c0.5-1.4,1.5-2.9,1.3-4.2c-0.1-0.8-1.7-1.6-2.8-2.5c-1,1.4-1.8,2.6-2.7,3.9c-0.7-0.4-1.4-0.9-2.2-1.3
		c2.3-3.4,4.4-6.7,6.7-10.2c1.7,1.1,3.5,2.1,5,3.4c1,0.9,2.1,2.4,1.9,3.5c-0.2,1.3-1.6,2.4-2.8,3.3c-0.7,1.7-1.3,3.4-2.3,5.7
		c3.4-1.7,6.4-3,9.2-4.6c1.9-1.1,3.3-1.2,4.5,1.1C225.8,54,224.1,57.9,222.2,61.9z M211.1,43.9c1.1,0.7,2,1.5,3,1.8
		c0.5,0.2,1.5-0.2,1.9-0.6c0.3-0.3,0.1-1.4-0.2-1.8c-0.8-0.8-1.8-1.4-2.9-2.1C212.3,42.2,211.8,43,211.1,43.9z M222.3,55.6
		c0.7-1.4,1.3-2.6,2.3-4.4c-1.8,1-3,1.7-4.4,2.4C221,54.3,221.6,54.9,222.3,55.6z"/>
	<path class="st0" d="M175.4,28.7c1.4,0.1,2.4,0.1,3.7,0.2c0.5,2.9,1,5.8,1.5,8.7c0.1,0,0.3,0,0.4,0c0.6-1.9,1.1-3.7,1.7-5.6
		c0.9-3.1,0.9-3.1,4.6-2.3c-0.3,3.9-0.5,7.8-0.8,11.8c-0.9-0.1-1.5-0.1-2.3-0.1c0.2-2.9,0.3-5.6,0.5-8.2c-0.1,0-0.2,0-0.4,0
		c-0.7,2.3-1.3,4.5-2.1,6.7c-0.2,0.6-1.1,1.4-1.6,1.3c-0.6-0.1-1.4-0.9-1.5-1.5c-0.5-2.2-0.7-4.5-1.5-6.8c-0.2,2.6-0.4,5.2-0.6,8
		c-0.7,0-1.4,0-2.3,0C174.9,36.8,175.1,32.9,175.4,28.7z"/>
	<path class="st0" d="M192.5,171.4c-0.5-2.9-0.9-5.4-1.4-8c-0.2,0-0.3,0-0.5,0c-0.1,2.7-0.3,5.4-0.4,8.1c-1.8,1.1-2.7,0.7-3.3-1.2
		c-0.7-2-1.6-3.9-2.7-5.8c0.4,2.6,0.9,5.2,1.3,8c-0.7,0.2-1.4,0.3-2.3,0.6c-0.7-3.9-1.4-7.7-2-11.4c3.3-1.4,3.4-1.4,4.8,1.8
		c0.7,1.6,1.4,3.3,2.1,4.9c0,0.1,0.1,0.1,0.5,0.4c0.1-2,0.3-3.7,0.4-5.5c0.2-3.4,0.2-3.4,3.9-3.7c0.7,3.7,1.3,7.5,2,11.5
		C194,171,193.4,171.2,192.5,171.4z"/>
	<path class="st0" d="M231.4,60.2c-2.7,1.8-4.8,3.3-7,4.8c-0.5-0.7-0.9-1.2-1.4-1.9c3.3-2.3,6.5-4.5,9.8-6.8
		c1.4,1.1,1.9,2.1,0.9,3.9c-1.1,2-2,4.1-2.7,6.5c2-1.4,4-2.7,6.1-4.2c0.4,0.5,0.9,1.1,1.6,1.9c-3.4,2.3-6.7,4.6-9.9,6.8
		c-1.8-1.1-1.7-2.4-0.8-3.9C229.2,65.1,230.1,62.9,231.4,60.2z"/>
	<path class="st0" d="M206.3,39.8c-1-1.1-1.7-1.8-2.4-2.5c-0.6-0.6-1.1-1.3-1.9-1.6c-1.9-0.8-3.3,0.2-4.2,1.8
		c-1.3,2.2-1.1,4.1,0.3,5.3c1.4,1.2,2.7,1.1,4.6-0.5c-0.8-0.4-1.5-0.8-2.1-1.2c0.4-2.3,0.5-2.3,5.1,0.1c-0.7,1.9-1.5,3.8-2.2,5.6
		c-0.3,0.1-0.5,0.2-0.6,0.1c-1-1.7-2.6-1.2-4.1-1.4c-3.1-0.4-4.9-3.2-4.4-6.5c0.6-3.7,3.6-6.4,6.8-5.9
		C204.7,33.6,206.7,36,206.3,39.8z"/>
	<path class="st0" d="M131.4,44.3c3.1-1.4,5.2-5.3,9.2-3.5c2.7,1.2,4.3,3.7,4.3,6.7c0.1,4.2-4.2,4.6-6.5,7.1
		C136.1,51.1,133.9,47.9,131.4,44.3z M134.9,44.8c1.5,2.2,2.9,4.2,4.4,6.3c3.7-2.3,4-3.4,1.9-6.3C139.3,42.2,138.1,42.2,134.9,44.8z
		"/>
	<path class="st0" d="M241.8,131.8c-0.4,1.7-1.2,2.5-2.9,2.4c-1.1-0.1-2.3,0.1-3.5,0.1s-2.3,0-3.7,0.5c2.1,1.2,4.3,2.4,6.5,3.7
		c-0.4,0.7-0.8,1.3-1.2,2.1c-3.5-1.9-6.8-3.8-10.1-5.7c0.3-1.9,1.3-2.6,3.1-2.5c2.2,0.1,4.4,0,6.6,0c0-0.2,0.1-0.4,0.1-0.6
		c-2-1.2-4.1-2.3-6.3-3.6c0.4-0.7,0.8-1.3,1.2-2.1C235.1,128.1,238.4,130,241.8,131.8z"/>
	<path class="st0" d="M210.7,155.9c-1.5,0-2.6-0.2-3.5,0c-1.2,0.3-2.8,0.7-3.5,1.6c-1.3,1.7-0.5,3.7,0.9,5c0.8,0.8,2.5,1.2,3.7,1
		c1.5-0.3,2.3-1.6,2-3.5c-0.9,0.3-1.6,0.6-2.5,1c-0.3-0.5-0.5-1.1-0.9-1.7c1.5-0.8,2.8-1.5,4.5-2.3c1,1.9,1.9,3.7,2.9,5.7
		c-0.5,0.3-1,0.7-1.3,0.6c-0.9-0.5-1.2-0.2-1.8,0.7c-1.7,2.6-5.4,3-7.8,1.1c-3-2.3-3.6-6.7-1.4-9.3
		C203.9,153.5,208.4,152.4,210.7,155.9z"/>
	<path class="st0" d="M221.4,150.1c1.4,1.2,2.8,2.5,4.4,3.8c-0.7,0.6-1.3,1.1-1.9,1.6c-1.3-1-2.4-2.3-3.7-2.6c-0.8-0.2-2,1.2-3.1,2
		c1,1.3,1.9,2.5,2.8,3.8c-0.7,0.5-1.2,1-2,1.6c-2.5-3.1-4.9-6.1-7.4-9.3c1.6-1.3,2.9-2.6,4.5-3.5c1.2-0.7,3-1.4,4.1-1
		c1.1,0.5,1.7,2.3,2.6,3.5C221.6,150,221.5,150.1,221.4,150.1z M215.8,153.4c1-0.8,2-1.5,2.7-2.3c0.3-0.4,0.4-1.5,0.1-1.8
		c-0.4-0.4-1.4-0.7-1.9-0.4c-1,0.5-1.8,1.3-2.8,2.1C214.5,151.9,215.1,152.6,215.8,153.4z"/>
	<path class="st0" d="M115.4,68.8c3.8,0.1,6.9,2.9,6.8,6.2c0,3.4-2.6,6.1-5.8,5.9c-3.9-0.1-7.1-3-7-6.3
		C109.5,71.2,112.1,68.7,115.4,68.8z M119.9,75.2c0-2-2.5-4-5-3.9c-1.8,0-3.2,1.5-3.1,3.3c0.1,1.9,2.4,3.7,4.8,3.7
		C118.6,78.3,119.9,77,119.9,75.2z"/>
	<path class="st0" d="M120.4,123.7c0,3.3-3,6-6.7,6c-3.2,0-5.9-2.8-5.9-6.2c0-3.2,3.1-5.8,6.9-5.8
		C117.9,117.6,120.4,120.2,120.4,123.7z M118.2,123.4c0-1.8-1.4-3.2-3.3-3.2c-2.3,0-4.7,1.7-4.8,3.6c-0.1,1.7,1.3,3.2,3.2,3.2
		C115.8,127.2,118.2,125.4,118.2,123.4z"/>
	<path class="st0" d="M157.6,170.7c-3.4,0-6.1-2.4-6.1-5.6c0-3.8,2.5-6.9,5.7-6.9c3.6-0.1,6.2,2.4,6.2,5.8
		C163.5,167.6,160.9,170.6,157.6,170.7z M157.8,160.4c-2,0-3.6,2-3.7,4.5c0,1.9,1.2,3.4,3,3.5c2,0.1,3.9-2.1,3.8-4.7
		C161,161.8,159.6,160.4,157.8,160.4z"/>
	<path class="st0" d="M237.6,80.7c-0.4,1.4-0.6,2.2-0.8,3.1s-0.5,1.8-0.3,2.6c0.2,0.7,1.1,1.3,1.7,1.9c0.4-0.7,1-1.4,1.1-2.2
		c0.2-1.2,0-2.5,0.2-3.7c0.4-2.2,2.6-3.3,4.6-2.4c2.1,1,2.6,3,2.8,5c0.1,1.8-0.6,3.3-3.3,4.2c0.3-1.3,0.6-2.2,0.6-3.1
		c0.1-1,0.1-2.1-0.1-3c-0.1-0.4-1-0.9-1.4-0.8s-0.9,0.8-0.9,1.3c-0.1,1.3,0,2.6,0,3.9c-0.1,1.6-0.9,3.1-2.5,3.1
		c-1.3,0-3-0.6-3.8-1.5C232.9,86.1,233.7,82.3,237.6,80.7z"/>
	<path class="st0" d="M243,116.1c0.5-0.7,1.1-1.4,1.5-2.1c0.5-0.8,1.1-1.5,1.2-2.3c0.1-0.8-0.6-1.6-0.9-2.3
		c-0.6,0.5-1.3,0.9-1.7,1.5c-0.6,1-0.8,2.2-1.4,3.2c-1.1,2-3.4,2.5-5.1,0.9c-1.7-1.6-1.5-3.6-0.9-5.6c0.6-1.9,1.7-3,4.6-2.9
		c-0.7,1.1-1.2,1.8-1.7,2.6c-0.4,0.7-1,1.4-1.1,2.2c0,0.7,0.6,1.4,0.9,2.1c0.5-0.5,1.2-0.8,1.5-1.4c0.6-1.1,0.9-2.5,1.6-3.6
		c1.1-1.9,3.3-2.3,4.9-0.8c1.9,1.7,1.5,3.9,1,6.1c-0.5,2-1.8,3.1-3.9,3.1C243.5,116.5,243.3,116.3,243,116.1z"/>
	<path class="st0" d="M154.3,39.5c-1.9,0.9-3.6,1.6-5.4,2.5c0.4,1,0.8,1.8,1.2,2.8c2-0.8,3.9-1.6,6-2.5c0.3,0.5,0.7,1.1,1.1,1.8
		c-2.9,1.3-5.7,2.5-8.6,3.8c-1.6-3.7-3.2-7.3-4.9-11.2c2.7-1.2,5.4-2.4,8.2-3.6c0.3,0.6,0.6,1.2,1,1.9c-2,0.9-3.8,1.7-5.9,2.6
		c0.3,0.8,0.6,1.5,1,2.4c1.9-0.8,3.6-1.5,5.4-2.3C153.6,38.2,153.9,38.7,154.3,39.5z"/>
	<path class="st0" d="M137.4,149.9c-1.7-1.6-3.2-2.9-4.8-4.3c-0.6,0.7-1.1,1.2-1.7,1.9c1.4,1.3,2.8,2.6,4.3,4
		c-0.4,0.5-0.8,1-1.3,1.6c-1.5-1.3-2.9-2.6-4.5-4c-0.6,0.7-1.2,1.4-2,2.2c1.6,1.5,3.2,2.9,4.9,4.5c-0.4,0.5-0.8,1-1.4,1.6
		c-2.3-2.1-4.5-4.1-6.9-6.3c2.7-3,5.3-5.8,8-8.8c2.2,2,4.3,4,6.6,6.1C138.3,148.9,137.9,149.3,137.4,149.9z"/>
	<path class="st0" d="M157.4,39.6c1.2,0.3,2.1,0.5,3,0.7s2,0.5,2.8,0.3c0.7-0.2,1.2-1.2,1.7-1.8c-0.7-0.3-1.4-0.9-2.1-1
		c-1.1-0.2-2.3,0-3.5-0.2c-2.1-0.3-3.4-2.3-2.7-4.3c0.8-2.3,2.8-2.9,5-3.1c2.1-0.1,3.5,0.7,4.5,3.5c-1.4-0.4-2.3-0.7-3.2-0.8
		c-0.8-0.2-1.7-0.4-2.4-0.2c-0.6,0.2-1.1,1.1-1.6,1.7c0.6,0.3,1.2,0.9,1.8,1c1.2,0.2,2.5,0,3.7,0.1c2.5,0.3,3.8,2.9,2.6,5
		s-3.4,2.6-5.6,2.6C159.4,43,158.1,42.1,157.4,39.6z"/>
	<path class="st0" d="M135.9,156c0.6,0.9,1,1.7,1.5,2.4c0.6,0.8,1.2,1.8,2,2.3c0.5,0.3,1.5-0.1,2.3-0.1c-0.2-0.7-0.3-1.4-0.7-2
		c-0.7-1-1.7-1.8-2.5-2.7c-1.2-1.6-0.9-3.5,0.7-4.7c1.5-1.1,3.8-0.7,5.8,0.9c1.9,1.6,2.2,2.9,0.9,5.5c-0.6-0.9-1-1.7-1.5-2.4
		c-0.6-0.8-1.1-1.7-1.9-2.1c-0.5-0.3-1.3,0.2-2,0.3c0.2,0.6,0.2,1.3,0.6,1.8c0.8,1,1.9,1.9,2.7,2.9c1.3,1.6,0.9,3.5-0.6,4.7
		c-1.5,1.1-4.1,0.7-6.2-1C134.9,160.1,134.6,158.8,135.9,156z"/>
	<path class="st0" d="M235.1,143.6c-0.8,0.9-1.3,1.4-1.8,2c-0.7-0.3-1.5-0.5-2.4-0.8c-0.9,1-1.9,2.1-2.9,3.3
		c0.4,0.7,0.7,1.4,1.2,2.2c-0.4,0.6-0.9,1.2-1.7,2.1c-2-3.7-4-7.1-5.8-10.6c-0.2-0.4,0.4-1.4,0.9-1.9c0.4-0.4,1.2-0.6,1.7-0.4
		C227.8,140.8,231.3,142.2,235.1,143.6z M226.9,146.2c0.7-0.8,1.2-1.5,1.9-2.3c-1.5-0.6-2.6-1.1-4.4-1.9
		C225.4,143.8,226.1,144.9,226.9,146.2z"/>
	<path class="st0" d="M127.4,60.3c0.1,2.1,2.8,4.5-0.6,6.3c-0.5-1.7-1.2-3.2-1.6-4.9c-0.3-1.5-1.2-2-2.6-2.1
		c-1.5-0.1-3.1-0.4-5.4-0.7c1.4-1,2.1-1.9,3.1-2.1c1-0.2,2.2,0.3,3.4,0.5c-0.3-2.2-2.6-4.4,0.6-6c0.2,0.4,0.5,0.8,0.5,1.3
		c0.4,4.3,2.8,5.9,6.9,5.7c0.6,0,1.2,0.2,1.8,0.4C132.3,62.3,129.6,60.2,127.4,60.3z"/>
	<path class="st0" d="M125.1,145.3c-3.3,1.6-5.6,0.9-7.2-1.5c-1.7-2.6-1.2-5.4,1.4-7.6c2.8-2.4,5.9-2.5,8.1-0.3
		c2.2,2.2,2.5,4.7,0.1,7.9c-0.3-1.5-0.5-2.5-0.7-3.5c0-0.2,0.2-0.5,0.1-0.7c-0.2-1.7-1.1-2.7-2.8-2.8c-2-0.1-4.9,2.3-4.9,4.2
		c0,1.7,1,2.6,2.7,2.9C122.9,144.1,123.8,144.7,125.1,145.3z"/>
	<path class="st0" d="M118.2,86.3c0.1,2-0.7,2.6-2.5,2.7c-3.5,0.2-7,0.6-10.5,1c-0.1-2.1,0.6-2.9,2.5-2.8c2.2,0.1,4.4,0,6.6,0
		c0-0.2,0.1-0.5,0.1-0.7c-2.5-1.4-5-2.8-7.6-4.3c0.2-0.8,0.4-1.6,0.7-2.6C111.1,81.8,114.6,84,118.2,86.3z"/>
	<path class="st0" d="M174.7,163.3c-1.8-0.2-3.6-0.3-5.7-0.5c-0.2,0.9-0.3,1.7-0.5,2.6c1.9,0.2,3.5,0.5,5.1,0.7
		c-0.1,1.9-0.1,1.9-5.2,1.6c-0.2,1.5-0.5,3.1-0.7,4.8c-0.8-0.1-1.5-0.2-2.4-0.3c0.4-4,0.7-7.8,1.1-11.8c2.6,0.2,5.1,0.4,7.5,0.7
		c0.5,0.1,0.9,0.9,1.3,1.4C175.1,162.9,174.9,163.1,174.7,163.3z"/>
	<path class="st0" d="M109.1,112.9c2.1,0.3,4.2,0.6,6.4,0.8c1.7,0.1,2.5,0.9,2.3,2.9c-3.8-0.7-7.7-1.4-11.5-2.2
		c-0.4-0.1-0.9-0.9-0.8-1.4c0-0.6,0.3-1.4,0.8-1.6c3.2-1.8,6.5-3.5,9.8-5.3c1,1.8,0.6,2.8-1.2,3.6c-2,0.8-3.9,1.8-5.8,2.7
		C109,112.6,109.1,112.7,109.1,112.9z"/>
	<path class="st0" d="M231.7,77.6c-0.4-0.8-0.7-1.4-1.2-2.2c3.1-1.4,6-2.8,9.1-4.2c-0.5-1.1-0.9-2.2-1.4-3.3
		c0.6-0.3,1.1-0.6,1.9-0.9c1.4,3,2.7,5.9,4.1,9c-0.6,0.3-1.1,0.6-1.8,1c-0.6-1.1-1.1-2.2-1.7-3.3C237.7,74.9,234.8,76.2,231.7,77.6z
		"/>
	<path class="st0" d="M245,123.4c-0.3,0.8-0.5,1.5-0.8,2.4c-3.1-1-6-2-9.1-3c-0.4,1.1-0.9,2.1-1.4,3.4c-0.6-0.2-1.2-0.4-1.8-0.7
		c0.9-2.8,1.7-5.5,2.8-8c0.2-0.5,1.2-0.7,1.8-1.1c0.1,0.2,0.3,0.4,0.4,0.6c-0.3,1-0.6,2-1,3.3C238.9,121.2,241.9,122.3,245,123.4z"
		/>
	<path class="st0" d="M114.6,63.9c0.5-0.8,0.9-1.4,1.4-2.2c3.4,2.1,6.8,4.3,10.3,6.5c-0.4,0.7-0.8,1.4-1.3,2.2
		C121.5,68.2,118.1,66.1,114.6,63.9z"/>
	<path class="st0" d="M191,42.8c-1-0.2-1.6-0.4-2.5-0.6c0.9-3.9,1.7-7.7,2.7-11.8c0.9,0.2,1.6,0.4,2.5,0.6
		C192.8,35,191.9,38.8,191,42.8z"/>
	<path class="st0" d="M122.6,128.6c0.5,0.8,0.8,1.4,1.3,2.2c-3.5,1.9-6.9,3.7-10.4,5.6c-0.4-0.7-0.8-1.3-1.4-2.2
		C115.7,132.3,119.1,130.5,122.6,128.6z"/>
	<path class="st0" d="M194.7,158.4c0.9-0.3,1.6-0.6,2.4-0.9c1.3,3.8,2.5,7.4,3.8,11.2c-0.9,0.3-1.6,0.5-2.4,0.9
		C197.2,165.9,196,162.2,194.7,158.4z"/>
	<path class="st0" d="M242.3,96.8c0.6,0.9,1.7,1.9,1.6,2.7c-0.2,0.9-1.4,2-2.3,2.1c-0.6,0.1-1.9-1.3-2-2.1c-0.1-0.9,1-1.8,1.6-2.7
		C241.5,96.8,241.9,96.8,242.3,96.8z"/>
	<path class="st0" d="M113,99.8c-0.9,0.7-1.8,1.9-2.6,1.8c-0.8-0.1-2-1.3-2.2-2.2c-0.1-0.6,1.2-2,2-2.1c0.9-0.1,1.9,0.9,2.8,1.5
		C113,99.2,113,99.5,113,99.8z"/>
	<path class="st0" d="M189.5,86.9c1.1-0.1,2.3-0.4,3.4-0.3c1.8,0.1,3.5,0.4,5.2,0.9c0.4,0.1,0.9,1,0.9,1.5c0,0.3-0.9,1-1.3,0.9
		c-2.7-0.6-5.4-1.4-8.2-2.1C189.6,87.5,189.6,87.2,189.5,86.9z"/>
	<path class="st0" d="M183.1,80.3c0.1-1.1,0.1-1.8,0.1-2.4c0.2-2.1,0.3-4.3,0.6-6.4c0.1-0.6,0.8-1.1,1.2-1.6
		c0.4,0.4,1.2,0.9,1.1,1.2c-0.5,2.8-1.2,5.7-1.9,8.5C184.2,79.8,183.8,79.9,183.1,80.3z"/>
	<path class="st0" d="M187,83c0.2-0.5,0.2-1.1,0.5-1.5c1.3-1.5,2.6-3,4.1-4.3c0.4-0.4,1.4-0.2,2.2-0.2c-0.1,0.7,0,1.8-0.5,2.1
		c-1.8,1.5-3.9,2.9-5.8,4.3C187.4,83.3,187.2,83.2,187,83z"/>
</g>
</svg>
