<svg xmlns="http://www.w3.org/2000/svg" width="43.466" height="35.128" viewBox="0 0 43.466 35.128"><path d="M165.119,225.4h43.435v22.627a2.372,2.372,0,0,1-2.488,2.5H167.579a2.381,2.381,0,0,1-2.479-2.46V225.777C165.1,225.654,165.109,225.541,165.119,225.4Zm28.5,23.428a10.574,10.574,0,1,0-10.527-10.687A10.565,10.565,0,0,0,193.617,248.828ZM171.15,229.537c.49,0,.99.009,1.48,0a.927.927,0,1,0,0-1.847c-.971-.009-1.951-.009-2.921,0-.613.009-1,.358-1,.867a.971.971,0,0,0,1.037.98Z" transform="translate(-165.089 -215.396)" fill="#0871b7"/><path d="M208.369,127.708H164.99a9.56,9.56,0,0,1,.141-2.488,2.322,2.322,0,0,1,2.177-1.593,4.09,4.09,0,0,1,.481,0,.582.582,0,0,0,.688-.368.945.945,0,0,1,.9-.509q2.022-.014,4.043,0a1.132,1.132,0,0,1,.971.613.691.691,0,0,0,.415.254c.424.038.848.009,1.338.009,0-.641-.028-1.244.009-1.847a3.207,3.207,0,0,1,.217-1.121,2.205,2.205,0,0,1,2.111-1.395q8.241-.028,16.483,0a2.349,2.349,0,0,1,2.347,2.384c.009.641,0,1.282,0,1.979h8.651a2.237,2.237,0,0,1,2.4,2.384C208.369,126.577,208.369,127.133,208.369,127.708Z" transform="translate(-164.978 -119.25)" fill="#0871b7"/><path d="M389.961,291.613a8.157,8.157,0,1,1,8.152-8.152A8.166,8.166,0,0,1,389.961,291.613Z" transform="translate(-361.366 -260.594)" fill="#0871b7"/></svg>