<svg xmlns="http://www.w3.org/2000/svg" width="42.284" height="35.057" viewBox="0 0 42.284 35.057"><g transform="translate(-146.456 -73.2)"><path d="M188.74,99.576a1.422,1.422,0,0,0-.063.166,1.785,1.785,0,0,1-1.7,1.323h-.182q-15.576,0-31.144.008a.421.421,0,0,1-.42-.238c-.166-.285-.364-.547-.562-.832.087-.143.174-.309.269-.467a.848.848,0,0,0,.032-.855.309.309,0,0,1,0-.238q.737-1.283,1.5-2.566a.38.38,0,0,1,.214-.119.7.7,0,0,1,.182,0h29.013V75.109H149.3V95.75h4.887c-.032.071-.04.119-.063.158-.285.491-.57.99-.863,1.473a.315.315,0,0,1-.214.135.868.868,0,0,0-.816.459c-.261.444-.261.428-.784.372a4.928,4.928,0,0,0-4.459,1.743c-.063.071-.127.15-.2.23a1.638,1.638,0,0,1-.333-.99c-.008-.143,0-.285,0-.428V75.212a1.794,1.794,0,0,1,1.481-1.988c.016-.008.024-.016.04-.024H187.2c.079.024.151.055.23.079a1.775,1.775,0,0,1,1.212,1.156c.032.1.063.2.1.293Zm-22.447-1.513a1.307,1.307,0,1,0,1.347-1.283A1.312,1.312,0,0,0,166.292,98.063Zm13.632-.491v1.5h2.812v-1.5Zm3.137,1.5h2.8v-1.5h-2.8Z" transform="translate(0 0)" fill="#0871b7"/><path d="M306.073,442.452V438.5H313v3.945h5.465v2.178H300.6V442.46C302.414,442.452,304.228,442.452,306.073,442.452Z" transform="translate(-141.935 -336.366)" fill="#0871b7"/><path d="M197.807,409.6a4.19,4.19,0,0,1,1.442,5.434.308.308,0,0,1-.19.158,6.5,6.5,0,0,1-4.071-.539.353.353,0,0,1-.087-.063.5.5,0,0,0,.032-.071.439.439,0,0,1,.531-.325.918.918,0,0,0,.927-.483c.388-.634.76-1.275,1.125-1.925a1,1,0,0,0-.111-1.18.219.219,0,0,1-.024-.293C197.522,410.091,197.656,409.853,197.807,409.6Z" transform="translate(-44.607 -309.755)" fill="#0871b7"/><path d="M163.323,400.894c-.151.261-.3.531-.467.792a.251.251,0,0,1-.182.071,1.074,1.074,0,0,0-1.133.57c-.309.531-.61,1.069-.935,1.592a1.169,1.169,0,0,0,.055,1.537c-.079.143-.158.277-.253.428a5.326,5.326,0,0,1-1.148-1.038,7.287,7.287,0,0,1-1.315-2.392.394.394,0,0,1,.024-.269,4.192,4.192,0,0,1,5.283-1.331C163.283,400.854,163.3,400.87,163.323,400.894Z" transform="translate(-10.567 -301.294)" fill="#0871b7"/><path d="M192.455,423.884a.832.832,0,0,1-.8-1.18c.356-.673.752-1.331,1.156-1.98a.831.831,0,0,1,1.434.824c-.372.673-.768,1.339-1.164,2A.792.792,0,0,1,192.455,423.884Z" transform="translate(-41.537 -319.675)" fill="#0871b7"/><path d="M224.274,310.123c-.166.285-.325.547-.491.832-.428-.253-.848-.5-1.283-.752l.491-.84c.174.1.333.182.515.293,1.418-2.416,2.828-4.832,4.253-7.255.111.063.2.119.309.182-1.418,2.416-2.82,4.824-4.245,7.255C223.973,309.933,224.116,310.02,224.274,310.123Z" transform="translate(-70.021 -211.046)" fill="#0871b7"/></g></svg>