<svg xmlns="http://www.w3.org/2000/svg" width="35.081" height="34.993" viewBox="0 0 35.081 34.993"><path d="M22.418,16.686l-5.363-4.027V28.485l5.363-4.027,5.187-3.886Zm0,0-5.363-4.027V28.485l5.363-4.027,5.187-3.886Zm0,0-5.363-4.027V28.485l5.363-4.027,5.187-3.886Zm-3.6-10.058V3.075A17.5,17.5,0,0,0,9.458,6.961l2.5,2.515A13.964,13.964,0,0,1,18.813,6.627ZM9.476,11.955l-2.515-2.5a17.5,17.5,0,0,0-3.886,9.355H6.627A13.964,13.964,0,0,1,9.476,11.955ZM6.627,22.33H3.075a17.5,17.5,0,0,0,3.886,9.355l2.515-2.515A13.836,13.836,0,0,1,6.627,22.33ZM9.458,34.182a17.552,17.552,0,0,0,9.355,3.886V34.516a13.964,13.964,0,0,1-6.858-2.849l-2.5,2.515Zm28.7-13.611a17.611,17.611,0,0,1-15.738,17.5V34.516a14.066,14.066,0,0,0,0-27.889V3.075A17.611,17.611,0,0,1,38.156,20.572Z" transform="translate(-3.075 -3.075)" fill="#0871b7"/></svg>