<?xml version="1.0" encoding="utf-8"?>
<!-- Generator: Adobe Illustrator 24.3.0, SVG Export Plug-In . SVG Version: 6.00 Build 0)  -->
<svg version="1.1" id="Layer_1" xmlns="http://www.w3.org/2000/svg" xmlns:xlink="http://www.w3.org/1999/xlink" x="0px" y="0px"
	 viewBox="0 0 356 200" style="enable-background:new 0 0 356 200;" xml:space="preserve">
<style type="text/css">
	.st0{fill:#FFFFFF;}
</style>
<g>
	<path class="st0" d="M29.3,169.7c0,0-15.6-19.7-15-42.2c0,0,12.2-21.1,22.4-26.8C36.7,100.8,21.7,131.1,29.3,169.7z"/>
	<g>
		<path class="st0" d="M56.1,160.4c-1.5,2.9-3,4.9-4.8,6.2c-1.8,1.3-3.4,2-5,2c-2.1,0-4.1-0.9-5.9-2.6c-1.8-1.8-2.9-4-3.6-6.8
			c-0.3-1.3-0.4-2.6-0.4-4.1c0-4.8,1.1-10.1,3.4-15.8c2.3-5.8,4.8-10.3,7.7-13.5c1.6-1.9,3.6-3.4,5.8-4.8c2.1-1.3,4.5-1.9,7.2-2.1
			H61c1.1,0,2.1,0.4,3,1c0.3,0.3,0.5,0.4,0.6,0.4c0.3,0,0.4-0.3,0.5-0.6c0.9-2.4,1.8-4.5,2.5-6.8c1.4-4,2.9-7.9,4.7-11.7
			c1.6-3.8,3.9-7.5,6.7-11.2c0.8-0.9,1.5-1.3,2.5-1.3s2,0.4,2.9,1.3c0.9,0.9,1.4,1.6,1.4,2.6c0,0.4-0.1,0.6-0.3,1
			c-8,16-13.5,32.6-16.5,50c-0.8,4-1.1,7.7-1.1,10.7c0,1.4,0.1,2.4,0.4,3.3c0.3,0.9,0.8,1.3,1.3,1.3c0.6,0,1.4-0.5,2.4-1.4
			c2-2,4.1-4.9,6.5-8.8c2.4-3.8,4.7-7.5,6.8-11.3c2.8-4.8,4.8-7.9,6-9.4c0.5-0.6,1-1,1.6-1c0.3,0,0.4,0.1,0.6,0.3
			c0.4,0.4,0.6,0.6,0.6,1.1c0,0.4-0.1,0.6-0.3,1c-4.3,10.8-9.6,21.1-16.1,30.8c-1.9,2.6-3.8,4.5-5.5,5.8c-1.8,1.1-3.4,1.8-4.9,1.8
			c-1.8,0-3.3-0.5-4.5-1.6c-1.4-1.1-2.4-2.5-3.1-4.1s-1.1-3.3-1.1-4.9c0-0.6,0.1-1.4,0.3-2C57.8,157,56.9,158.7,56.1,160.4z
			 M62.1,126.7c-1.9,0-3.8,1.1-5.5,3.1c-1.9,2.1-3.4,4.8-4.9,7.8c-1.4,3-2.5,6-3.4,9.1s-1.3,5.4-1.3,7c0,1.1,0.3,1.8,0.6,2.1
			c1.1-0.5,2.6-2.5,4.8-6.2c2.1-3.6,4.1-7.7,6.2-12.2c2-4.4,3.3-8,4-10.9h-0.5V126.7z"/>
		<path class="st0" d="M116.4,126.9c0.3-0.1,0.4-0.1,0.5-0.1c0.3,0,0.5,0.1,0.6,0.3c0.4,0.3,0.6,0.5,0.6,0.9v0.3
			c0,0.4-0.1,0.6-0.3,1c-0.3,0.4-0.4,0.9-0.5,1.4c-2,5.2-4.7,11.2-7.8,18.1c-3.1,6.9-6.4,12.3-9.6,16.1c-2.5,2.5-5.2,3.8-7.8,3.8
			c-0.9,0-1.8-0.1-2.6-0.4c-3.6-1.3-5.8-4-6.4-8.3c-0.3-1.5-0.4-3-0.4-4.7c0-3,0.5-6.8,1.5-11.3c1-4.4,2.4-9.1,4.3-13.7
			c1.9-4.7,3.5-8,5-10.1c1.4-2,3.3-3.3,5.8-3.5h0.3c0.5,0,0.9,0.1,1.3,0.4c0.4,0.3,0.8,0.6,1,1.1c0.6,1,1,2.1,1,3.1
			c0,0.1,0,0.5-0.1,1.3c-0.1,0.6-0.4,1.6-0.9,2.8c-0.1,0.4-0.3,0.6-0.4,1c-2.3,6.7-4.1,13.5-5.5,20.4c-0.5,2.8-0.8,4.9-0.8,6.5
			c0,1.5,0.3,2.4,0.8,2.6c0.1,0.1,0.3,0.1,0.5,0.1c1,0,2.6-1.4,4.7-4c2-2.6,4.4-6.2,6.9-10.6c2.6-4.4,5-8.8,7.2-13.2
			C115.8,127.4,116,127,116.4,126.9z M103.1,97.1h0.4c1,0,2,0.4,2.9,1c0.8,0.6,1.1,1.5,1.1,2.5c0,0.3,0,0.5-0.1,0.8
			c-0.4,2.3-1.4,4.1-2.9,5.9c-0.9,0.9-1.6,1.4-2.4,1.4h-0.1c-0.8,0-1.4-0.8-2.1-2.1c-0.4-0.9-0.6-1.9-0.6-3c0-0.3,0.1-0.8,0.1-1.6
			c0.1-0.9,0.4-1.8,0.9-3C101.1,97.9,101.9,97.3,103.1,97.1z"/>
		<path class="st0" d="M123.6,138.6c1-1.8,2.1-3.5,3.1-5.2c2.4-3.9,5.2-7.7,8.3-11.1c2-2.4,4.3-4.1,6.9-5.5c1.6-0.8,3.4-1.3,5.2-1.3
			c0.6,0,1.1,0.1,1.8,0.1c2.4,0.4,4,1.6,4.7,3.9c0.8,2,1,4,1,6.2c0,0.5,0,1.1-0.1,1.6c-0.6,5.3-2.1,10.4-4.5,15.3
			c-1.9,4.1-4.3,8.2-6.9,11.9c-2.6,3.9-5.9,7.2-9.8,9.9c-2.5,1.8-5.5,3-8.7,3.4c-1.4,0.3-3.1,0.3-5,0.3c-1.5,0-3.1-0.1-4.7-0.4
			s-2.9-0.8-3.9-1.6c-1.1-0.8-1.6-1.9-1.9-3.4c-0.1-0.9-0.1-1.9-0.1-2.9c0-4.1,0.5-9.2,1.4-15.1c1-5.9,2.1-11.6,3.4-17.1
			c1.3-5.5,2.4-10.1,3.4-13.5c1.3-4,2.5-8,4-12.1c1.5-4.1,3.5-8,5.9-11.7c1.3-1.6,2.8-2.4,4.5-2.4c0.5,0,0.9,0.1,1.3,0.1
			c0.8,0.1,1.3,0.6,1.5,1.4c0.3,0.6,0.4,1.3,0.4,1.9c0,1.3-0.4,2.4-1,3.5c-1.4,3.1-2.5,6.3-3.4,9.6c-0.1,0.4-0.3,0.8-0.4,1.1
			c-2.3,7.7-4.1,15.3-5.9,23.1c-0.4,1.3-0.6,2.6-0.9,4c-0.5,1.8-0.8,3.8-1.1,5.7c-0.1,0.6-0.3,1.4-0.4,2c0.1,0,0.1,0,0.1,0
			s0.1,0,0.3,0.1C122.8,139.9,123.2,139.1,123.6,138.6z M126,155.6c4.3-3.4,7.7-6.8,10.2-10.1c2.6-3.1,5-7.2,7.2-12.1
			c0.1-0.4,0.4-1,0.8-2s0.8-2.1,1-3.3c0.4-1.1,0.5-2.1,0.5-2.6c0-0.4-0.1-0.6-0.3-0.6c-0.1-0.1-0.3-0.1-0.4-0.1
			c-0.3,0-0.4,0.1-0.6,0.3c-0.1,0.1-0.3,0.1-0.4,0.1c-0.3,0.1-0.4,0.1-0.5,0.3l-0.5,0.3c-2.9,1.8-5.3,4-7.2,6.7
			c-2.1,2.6-4,5.2-5.5,7.3c-1.5,2.1-2.9,4.8-4.4,7.9c-1.6,3.5-3.1,7.2-4.7,11.2C123.1,157.6,124.6,156.6,126,155.6z"/>
		<path class="st0" d="M185.5,144.3c-0.8,3-1.1,6.2-1.1,9.4v1.1c0,0.9,0.3,1.8,0.5,2.6c0.4,0.9,0.9,1.4,1.5,1.4c1.1,0,2.5-1,4.3-3.1
			c1.8-2,3.6-4.5,5.5-7.5c1.9-3,3.8-6,5.5-9.1c1.8-3,3.1-5.7,4.4-7.8c0.9-1.6,1.5-2.8,1.9-3.3c0.8-1.1,1.4-1.8,1.9-1.8
			c0.4,0,0.5,0.3,0.6,0.5c0.1,0.4,0.3,0.8,0.3,1.1c0,0.3,0,0.4-0.1,0.5l-1.3,3.3c-0.3,0.4-0.4,0.8-0.5,1.1
			c-3.1,7.9-6.8,15.6-11.1,23c-2,3.5-4.5,6.9-7.4,9.8c-2.4,2-4.5,2.9-6.5,2.9c-2.4,0-4.3-1.1-5.9-3.4c-1.5-2.3-2.4-5.3-2.4-9.1
			c0-3.3,0.8-7,2.3-11.3c-0.8,1.5-1.5,2.9-2.3,4.3c-1,1.6-1.9,3.4-2.8,5.2c-1.5,3-3.1,5.9-4.9,8.7c-1.1,1.8-2.3,3.1-3.3,3.9
			c-1.1,0.8-2.3,1.3-3.3,1.3c-1.6,0-3.1-0.9-4.5-2.6c-1.4-1.6-2.5-3.8-3.3-6.2c-0.9-2.4-1.3-4.7-1.3-6.8v-0.4c0-3.3,0.8-7,2.1-11.3
			s3.4-8.3,5.9-12.2c2.4-3.9,5.3-7,8.4-9.7c3.1-2.5,6.5-3.9,10.1-3.9h0.3c0.9,0,1.8,0.3,2.5,0.6c0.9,0.5,1.4,1.3,1.4,2.3
			c1.8-3.3,4-4.9,6.5-4.9c0.6,0,1.1,0.1,1.8,0.4c1.9,0.8,2.9,2.1,2.9,4.4c0,2.5-1.1,6-3.3,10.4C188.7,133.6,186.9,138.9,185.5,144.3
			z M168.8,135.5c-2.4,4.4-4.3,9.2-5.5,14.3c2-3.1,3.9-6.4,5.8-9.7c3-5.4,6.3-10.7,9.9-15.8C174.6,127.4,171.2,131.2,168.8,135.5z"
			/>
	</g>
	<g>
		<path class="st0" d="M232.2,140.5h3.6v23.3c0,4.1-0.4,7-1,8.9c-1,2.6-2.6,4.8-4.9,6.2c-2.3,1.4-5.2,2.1-8.4,2.1
			c-2.4,0-4.7-0.4-6.5-1c-1.9-0.8-3.5-1.6-4.7-2.9c-1.3-1.1-2.3-2.9-3.4-5.3h3.9c1.1,1.9,2.5,3.4,4.1,4.3c1.6,0.9,3.8,1.4,6.3,1.4
			c2.5,0,4.5-0.5,6.3-1.4c1.8-1,2.9-2.1,3.6-3.6c0.8-1.4,1.1-3.8,1.1-7v-1.5c-1.4,1.8-3,3.1-5,4.1c-2,1-4,1.4-6.3,1.4
			c-2.6,0-5-0.6-7.3-2c-2.3-1.4-4-3.1-5.3-5.4s-1.9-4.8-1.9-7.4s0.6-5.2,1.9-7.5s3.1-4.1,5.4-5.5c2.3-1.4,4.7-2,7.3-2
			c2.1,0,4,0.5,5.9,1.4c1.9,0.9,3.5,2.4,5.3,4.5v-4.9H232.2z M221.5,143.4c-2,0-4,0.5-5.8,1.5c-1.8,1-3.1,2.4-4.1,4.3
			c-1,1.8-1.5,3.8-1.5,5.9c0,3.1,1,5.8,3.1,7.9c2.1,2.1,4.8,3.1,8,3.1c3.4,0,6-1,8-3.1c2-2,3-4.8,3-8.2c0-2.1-0.5-4.1-1.4-5.9
			c-0.9-1.8-2.3-3.1-4-4.1C225.4,143.9,223.5,143.4,221.5,143.4z"/>
		<path class="st0" d="M242.2,140.5h3.6v4.3c1.1-1.6,2.3-2.9,3.5-3.8s2.5-1.3,3.8-1.3c1,0,2,0.4,3.3,1l-1.9,3.1
			c-0.8-0.4-1.4-0.5-1.9-0.5c-1.3,0-2.4,0.5-3.5,1.5c-1.1,1-2,2.6-2.5,4.8c-0.5,1.6-0.6,5-0.6,10.1v9.8h-3.6v-29H242.2z"/>
		<path class="st0" d="M272.9,139.7c4.4,0,7.9,1.6,10.8,4.9c2.6,3,3.9,6.5,3.9,10.6s-1.4,7.7-4.1,10.7c-2.8,3-6.3,4.5-10.6,4.5
			c-4.3,0-7.9-1.5-10.6-4.5c-2.6-3-4.1-6.7-4.1-10.7s1.3-7.5,3.9-10.6C265,141.5,268.5,139.7,272.9,139.7z M272.9,143.5
			c-3,0-5.7,1.1-7.8,3.5c-2.1,2.3-3.3,5.2-3.3,8.4c0,2.1,0.5,4,1.5,5.9c1,1.9,2.3,3.3,4,4.3c1.6,1,3.5,1.5,5.5,1.5s3.9-0.5,5.5-1.5
			c1.6-1,3-2.4,4-4.3c1-1.9,1.5-3.8,1.5-5.9c0-3.3-1.1-6-3.3-8.4C278.4,144.6,275.9,143.5,272.9,143.5z"/>
		<path class="st0" d="M293.9,140.5h3.6v13.7c0,3.3,0.1,5.7,0.5,6.9c0.5,1.8,1.5,3.1,3,4.3c1.5,1,3.1,1.5,5.3,1.5s3.8-0.5,5.2-1.5
			c1.4-1,2.4-2.4,2.9-4c0.4-1.1,0.5-3.5,0.5-7.2v-13.6h3.6V155c0,4-0.5,7-1.4,9.1c-0.9,2-2.3,3.6-4.1,4.8s-4.1,1.8-6.8,1.8
			c-2.8,0-5-0.6-6.9-1.8s-3.3-2.8-4.1-4.8c-0.9-2-1.4-5.2-1.4-9.3v-14.2H293.9z"/>
		<path class="st0" d="M326.6,140.5h3.6v5.4c1.4-2,3.1-3.5,4.9-4.5c1.9-1,3.9-1.5,6.3-1.5c4,0,7.4,1.5,10.3,4.5
			c2.9,3,4.3,6.5,4.3,10.8c0,4.3-1.4,7.9-4.3,10.9c-2.8,3-6.3,4.5-10.2,4.5c-2.3,0-4.3-0.5-6.2-1.5c-1.9-1-3.5-2.4-5.2-4.3v15.7
			h-3.6V140.5z M341.2,143.4c-3.1,0-5.8,1.1-7.9,3.4c-2.1,2.3-3.3,5-3.3,8.4c0,2.3,0.5,4.1,1.4,5.9c1,1.8,2.3,3.1,4.1,4.1
			c1.8,1,3.6,1.5,5.7,1.5c1.9,0,3.8-0.5,5.5-1.5c1.8-1,3.1-2.5,4.1-4.4c1-1.9,1.5-3.9,1.5-5.9c0-2-0.5-4-1.5-5.9
			c-1-1.9-2.4-3.3-4-4.3C345.1,143.9,343.2,143.4,341.2,143.4z"/>
	</g>
	<path class="st0" d="M92.4,25.6c0,0-16.3-20.4-55.7,10.6c0,0-29.2,24.6-36.7,104.8c0,0,24.5-53.4,67.3-66.1
		C67.3,74.8,117.5,61.4,92.4,25.6z M19.5,105.9c-3.5,4-8.3,5.5-10.6,3.4c-2.3-2.1-1.3-7.2,2.4-11.2c3.5-4,8.3-5.5,10.6-3.4
		C24.1,96.9,23,101.9,19.5,105.9z"/>
</g>
</svg>
