<svg xmlns="http://www.w3.org/2000/svg" xmlns:xlink="http://www.w3.org/1999/xlink" width="324.355" height="324.355" viewBox="0 0 324.355 324.355"><defs><filter id="a" x="0" y="0" width="324.355" height="324.355" filterUnits="userSpaceOnUse"><feOffset dy="3" input="SourceAlpha"/><feGaussianBlur stdDeviation="3" result="b"/><feFlood flood-opacity="0.161"/><feComposite operator="in" in2="b"/><feComposite in="SourceGraphic"/></filter><filter id="c" x="108.135" y="171.166" width="43.632" height="50.783" filterUnits="userSpaceOnUse"><feOffset dy="3" input="SourceAlpha"/><feGaussianBlur stdDeviation="3" result="d"/><feFlood flood-opacity="0.161"/><feComposite operator="in" in2="d"/><feComposite in="SourceGraphic"/></filter></defs><g transform="translate(9 6)"><g transform="matrix(1, 0, 0, 1, -9, -6)" filter="url(#a)"><path d="M354.6,204c50.163,55.3-33.413,94.1-33.413,94.106-73.9,36.828-101.265,142.039-101.265,142.039C207.751,291.729,253.052,237.5,253.052,237.5c40.73-45.478,70.363-47.156,85.849-43.006a153.186,153.186,0,1,0-71.211,288.818c4.751,0,9.448-.228,14.089-.651-4.713-4.383-34.63-33.509-40.158-71.45,0,0,15.492-42.358,32.246-55.885,0,0-17.388,59.517,8.323,127.3A153.18,153.18,0,0,0,354.6,204Z" transform="translate(-105.51 -170.96)" fill="#0871b7"/></g><g transform="matrix(1, 0, 0, 1, -9, -6)" filter="url(#c)"><path d="M219.9,347.944c-5.184,8.473-5.476,17.92-.656,21.1s12.929-1.113,18.112-9.588,5.477-17.923.658-21.1S225.087,339.471,219.9,347.944Z" transform="translate(-98.68 -160.14)" fill="#0871b7"/></g></g></svg>