<?xml version="1.0" encoding="utf-8"?>
<!-- Generator: Adobe Illustrator 24.0.0, SVG Export Plug-In . SVG Version: 6.00 Build 0)  -->
<svg version="1.1" id="Calque_1" xmlns="http://www.w3.org/2000/svg" xmlns:xlink="http://www.w3.org/1999/xlink" x="0px" y="0px"
	 viewBox="0 0 400 173" style="enable-background:new 0 0 400 173;" xml:space="preserve">
<style type="text/css">
	.st0{fill:#8F8F8F;}
</style>
<g>
	<g>
		<path class="st0" d="M155.9,148.8v7h-22v-29.3h22v6.8h-13.2v4.3h10.7v6.5h-10.7v4.8L155.9,148.8L155.9,148.8z"/>
		<path class="st0" d="M184.8,126.5l-9.1,29.3h-9.2l-9.5-29.3h9.5l4.6,16c0.3,0.9,0.6,1.9,0.8,2.8l5.4-18.8L184.8,126.5L184.8,126.5
			z"/>
		<path class="st0" d="M209.6,148.8v7h-22v-29.3h22v6.8h-13.2v4.3H207v6.5h-10.7v4.8L209.6,148.8L209.6,148.8z"/>
		<path class="st0" d="M238.2,155.8h-7.3l-8-12.9c-1-1.7-2.1-3.7-3.1-6.1c0.5,1.9,0.7,3.5,0.7,4.8v14.2h-7.3v-29.3h8.5l6.8,10.7
			c1.4,2.1,2.4,4,3.1,5.6c-0.5-2.5-0.7-5.1-0.7-7.7v-8.7h7.3V155.8z"/>
		<path class="st0" d="M255.3,133.5v22.3h-8.5v-22.3h-6.1v-7h20.7v7H255.3z"/>
		<path class="st0" d="M261.5,147.3l8.4-1.5c0.7,2.4,2.5,3.5,5.4,3.5c2.3,0,3.4-0.6,3.4-1.8c0-0.6-0.3-1.1-0.8-1.5s-1.5-0.7-2.8-0.9
			c-5.1-1-8.4-2.3-9.9-3.9c-1.5-1.6-2.2-3.5-2.2-5.6c0-2.8,1-5.1,3.1-6.9c2.1-1.8,5.1-2.8,9-2.8c6,0,9.9,2.4,11.8,7.2l-7.5,2.3
			c-0.8-2-2.3-2.9-4.7-2.9c-2,0-2.9,0.6-2.9,1.8c0,0.5,0.2,1,0.7,1.3c0.4,0.3,1.3,0.6,2.6,0.9c3.5,0.7,6,1.4,7.5,2s2.7,1.6,3.7,2.9
			c1,1.4,1.5,3,1.5,4.9c0,3-1.2,5.4-3.6,7.2c-2.4,1.8-5.6,2.8-9.5,2.8C267.6,156.2,263.2,153.3,261.5,147.3z"/>
	</g>
	<g>
		<path class="st0" d="M110.2,102.1c-5.7-11-2.3-24,7.9-31c6.8-4.7,14.5-6.9,22.5-7.1c12.3-0.4,24.6-0.1,36.9-0.2
			c0.2,0,0.5,0.1,1.1,0.3c-1.8,1.6-3.5,3.1-5.1,4.5c-4.7,4.1-9.3,8.2-14.1,12.1c-1.2,1-3,1.5-4.5,1.6c-7.9,0.6-15.8,0.4-23.6,1.6
			c-4.4,0.6-8.7,2.9-12.6,5.1C113.9,91.7,111.2,96.3,110.2,102.1z"/>
		<path class="st0" d="M110.1,126.6c-5.3-10.3-2.4-22.9,6.4-29.7c6.4-4.9,13.7-7.7,21.6-8.1c10.1-0.5,20.3-0.1,30.9-0.1
			c-3.1,2.7-5.9,5.2-8.8,7.7c-3.5,3.1-7,6.2-10.6,9.1c-1,0.8-2.5,1.3-3.8,1.4c-5.7,0.8-11.5,0.9-17,2.2
			C119.7,111.4,112.4,116.1,110.1,126.6z"/>
		<path class="st0" d="M110.2,151.9c-7.1-14.2,0.5-30.4,16.3-35.1c0,4.1-0.2,8.1,0.1,12c0.3,4-0.3,6.6-4.7,8.3
			C115.5,139.6,111.4,144.7,110.2,151.9z"/>
	</g>
	<g id="Groupe_2959_3_" transform="translate(9 6)">
		<g transform="matrix(1, 0, 0, 1, -9, -6)">
			<path id="Tracé_5073-2_3_" class="st0" d="M143.6,20.5c6.9,7.7-4.6,13-4.6,13c-10.2,5.1-14,19.7-14,19.7
				c-1.7-20.5,4.6-28.1,4.6-28.1c5.6-6.3,9.7-6.5,11.9-6c-10.4-5.4-23.2-1.5-28.6,8.9s-1.4,23.2,8.9,28.6c3,1.6,6.4,2.4,9.9,2.4
				c0.7,0,1.3,0,1.9-0.1c-0.6-0.6-4.8-4.6-5.6-9.9c0,0,2.1-5.9,4.5-7.7c0,0-2.4,8.2,1.1,17.6c11.7-1.1,20.2-11.5,19.1-23.1
				C152.1,29.8,148.7,24.1,143.6,20.5z"/>
		</g>
		<g transform="matrix(1, 0, 0, 1, -9, -6)">
			<path id="Tracé_5074-2_3_" class="st0" d="M125.9,42c-0.7,1.2-0.8,2.5-0.1,2.9c0.7,0.4,1.8-0.2,2.5-1.3c0.7-1.2,0.8-2.5,0.1-2.9
				S126.6,40.8,125.9,42z"/>
		</g>
	</g>
	<g>
		<path class="st0" d="M173.7,84.5h6.1v32.4h-6.1V84.5z"/>
		<path class="st0" d="M204.7,83.7h6v33.2h-6v-2.5c-1.2,1.1-2.4,1.9-3.5,2.4c-1.2,0.5-2.5,0.7-3.8,0.7c-3.1,0-5.8-1.2-8-3.6
			c-2.3-2.4-3.4-5.4-3.4-8.9c0-3.7,1.1-6.7,3.3-9.1c2.2-2.4,4.8-3.5,8-3.5c1.4,0,2.8,0.3,4,0.8s2.4,1.4,3.5,2.4V83.7z M198.4,97.8
			c-1.9,0-3.4,0.7-4.6,2c-1.2,1.3-1.8,3-1.8,5.1c0,2.1,0.6,3.8,1.9,5.1c1.3,1.3,2.8,2,4.6,2c1.9,0,3.4-0.7,4.7-2s1.9-3,1.9-5.2
			c0-2.1-0.6-3.8-1.9-5.1C201.9,98.5,200.3,97.8,198.4,97.8z"/>
		<path class="st0" d="M220.1,83.1c1.1,0,2,0.4,2.7,1.1s1.1,1.7,1.1,2.8c0,1.1-0.4,2-1.1,2.7c-0.8,0.8-1.6,1.1-2.7,1.1
			c-1.1,0-2-0.4-2.7-1.2c-0.8-0.8-1.1-1.7-1.1-2.8c0-1.1,0.4-2,1.1-2.7C218.2,83.4,219.1,83.1,220.1,83.1z M217.1,92.9h6v23.9h-6
			V92.9z"/>
		<path class="st0" d="M235.6,83.7v11.9c1.1-1.1,2.3-1.9,3.5-2.4c1.3-0.5,2.6-0.8,4.1-0.8c3.1,0,5.8,1.2,8,3.5s3.3,5.4,3.3,9.1
			c0,3.6-1.1,6.6-3.4,8.9c-2.3,2.4-4.9,3.6-8,3.6c-1.4,0-2.7-0.3-3.9-0.7s-2.4-1.3-3.5-2.4v2.5h-6V83.7H235.6z M241.9,97.8
			c-1.9,0-3.5,0.7-4.7,1.9s-1.9,3-1.9,5.1c0,2.1,0.6,3.8,1.9,5.2c1.3,1.3,2.8,2,4.7,2c1.8,0,3.4-0.7,4.6-2c1.3-1.3,1.9-3,1.9-5.1
			c0-2.1-0.6-3.7-1.9-5.1C245.3,98.5,243.8,97.8,241.9,97.8z"/>
		<path class="st0" d="M278,92.9h6v23.9h-6v-2.5c-1.2,1.1-2.4,1.9-3.5,2.4c-1.2,0.5-2.5,0.7-3.8,0.7c-3.1,0-5.8-1.2-8-3.6
			c-2.3-2.4-3.4-5.4-3.4-8.9c0-3.7,1.1-6.7,3.3-9.1c2.2-2.4,4.8-3.5,8-3.5c1.4,0,2.8,0.3,4,0.8c1.3,0.5,2.4,1.4,3.5,2.4L278,92.9
			L278,92.9z M271.7,97.8c-1.9,0-3.4,0.7-4.6,2s-1.8,3-1.8,5.1c0,2.1,0.6,3.8,1.9,5.1c1.3,1.3,2.8,2,4.6,2c1.9,0,3.5-0.7,4.7-2
			s1.9-3,1.9-5.2c0-2.1-0.6-3.8-1.9-5.1C275.2,98.5,273.6,97.8,271.7,97.8z"/>
	</g>
</g>
</svg>
