<?xml version="1.0" encoding="utf-8"?>
<!-- Generator: Adobe Illustrator 24.0.0, SVG Export Plug-In . SVG Version: 6.00 Build 0)  -->
<svg version="1.1" id="Calque_1" xmlns="http://www.w3.org/2000/svg" xmlns:xlink="http://www.w3.org/1999/xlink" x="0px" y="0px"
	 viewBox="0 0 400 173" style="enable-background:new 0 0 400 173;" xml:space="preserve">
<style type="text/css">
	.st0{fill:#8F8F8F;}
	.st1{display:none;fill:#8F8F8F;}
</style>
<g>
	<g>
		<path class="st0" d="M137.5,25.9l-4.2,0.9c-4.6,8.4-8.7,19.3-12.4,32.4c-1.3,4.6-3.2,9.6-5.8,15.2c-2.6,5.6-5.7,10.8-9.3,15.4
			c-13.3,17.1-30.4,25.7-51.2,25.7c-9.7,0-17.3-2.1-23-6.2c-3.9-2.9-6.5-6.6-7.8-11.3c-0.5-1.7-0.7-3.8-0.7-6.4s0.7-5.7,2.1-9.3
			c1.4-3.6,3.6-6.8,6.7-9.6c3.1-2.8,5.5-4.2,7.3-4.4c0.7,0,1.1,0.1,1.2,0.3c0.2,0.3-0.2,0.6-1.1,1.1c-2.1,0.9-4.4,2.8-6.9,5.9
			c-4,4.7-5.9,10-5.9,15.9c0,4.5,1.4,8.3,4.3,11.6c3.6,4,8.8,6.8,15.4,8.3c3,0.7,5.2,1,6.7,1c1.5,0,3.1,0,4.8-0.1
			c1.6,0,3.8-0.4,6.5-1.1c5.6-1.4,10.9-3.7,16-6.8c5.1-3.2,9.4-6.6,13.1-10.2c3.6-3.7,7-7.7,10.1-12.1c5.2-7.6,9.2-15,11.9-22.3
			c4.7-12.4,9.7-23.2,15.1-32.5c-10.7,2.2-19.2,4.7-25.4,7.3c-6.4,2.8-11.4,6-15,9.5c-4.4,4.5-7.3,9.6-8.6,15.2
			c-0.4,1.6-0.6,3.1-0.6,4.4c0,2.8,0.8,5.1,2.3,6.8s3.2,2.6,5,2.6c1.8,0,3.7-0.4,5.7-1.2c2-0.8,3.8-2.2,5.4-4c2.2-2.8,3.2-6,3.2-9.8
			c0-1.9-0.3-3-0.8-3.5c-0.1-0.2-0.1-0.5,0.2-0.9c0.7-1,1.3-1,1.9,0c0.9,1.7,1.3,3.5,1.3,5.5c0,2-0.6,4.1-1.9,6.5
			c-2.3,4.3-5.6,7.2-9.9,8.8c-2.2,0.8-4.4,1.2-6.9,1.2s-5.1-1.1-7.9-3.3c-2.8-2.2-4.2-5.3-4.2-9.3c0-1.2,0.1-2.5,0.4-3.9
			c3.8-17.2,22.9-28.8,57.3-34.6c0.6-1.3,1.7-2.9,3.3-4.7c1.6-1.9,2.9-3,4-3.4c1.1-0.4,2-0.6,2.8-0.6c2.2,0,3.4,0.9,3.4,2.8
			c0,2-0.8,3.6-2.4,4.6C141.4,24.4,139.6,25.2,137.5,25.9z M135,24.3c4.6-0.9,6.7-2.2,6.5-3.8c-0.1-0.8-0.6-1.2-1.4-1.2
			C139.4,19.2,137.7,20.9,135,24.3z"/>
		<path class="st0" d="M143.5,94c0,2.2,0.9,3.2,2.6,3.2c3.1,0,7.3-5.3,12.6-15.8c0.2-0.4,0.4-0.8,0.6-1.2s0.4-0.7,0.8-0.8
			c0.4-0.1,0.6-0.1,0.8,0.3s0.1,0.8-0.2,1.5c-5.4,12.5-10.8,18.7-16.3,18.7c-1.8,0-3.3-0.8-4.3-2.4c-1.1-1.6-1.6-3.2-1.6-4.8
			c0-1.6,0.2-3,0.5-4.4c-3.9,6.4-7.2,10.1-10.1,11c-0.8,0.3-1.6,0.5-2.4,0.5c-0.8,0-1.5-0.1-2.3-0.3c-3.3-0.9-4.9-3.5-4.9-7.8
			c0-2.9,0.8-6.2,2.3-9.8s3.6-7,6.4-10.3c2.8-3.3,6.1-5.5,10-6.6c1.4-0.5,3.1-0.7,5-0.7s4,0.6,6.4,1.8c4.6-8.6,8.4-16.5,11.7-23.8
			c0.9-2.2,1.9-3.6,2.8-4.3c0.9-0.6,1.7-1,2.5-1c0.8,0,1.2,0,1.4,0s0.8,0.1,1.9,0.3c1.1,0.2,2,0.2,2.6,0.2
			c-1.5,1.4-5.6,8.3-12.3,20.5c-8.4,15.7-13.6,26.2-15.3,31.4C143.9,91.1,143.5,92.7,143.5,94z M148.5,67.5
			c-0.9-0.9-2.1-1.3-3.7-1.3c-1.6,0-3.8,1.2-6.6,3.5c-4.5,3.8-8.2,8.4-11.2,13.9c-1.9,3.6-2.9,6.6-2.9,8.9c0,1.1,0.2,2.1,0.7,2.9
			c0.4,0.9,1.1,1.3,2.1,1.3c2.3,0,5.1-2.3,8.5-7C138.6,85,143,77.6,148.5,67.5z"/>
		<path class="st0" d="M163.2,97.6c1.3,0,2.6-0.6,4-1.9c2.5-2.5,5.6-7.5,9.4-15.2c0.5-1,0.9-1.3,1.4-0.9c0.1,0.1,0.2,0.3,0.2,0.7
			s-0.3,1-0.8,2.2c-0.5,1.2-1,2.2-1.5,3.2c-0.4,0.9-1.3,2.5-2.5,4.6c-1.2,2.1-2.4,3.7-3.4,4.9c-2.8,3.2-5.4,4.7-7.8,4.7
			s-4.2-0.7-5.3-2.2c-1.1-1.5-1.6-3.1-1.6-4.9s0.4-3.8,1.3-5.9l6.4-16.4c0.1-0.4,0.2-0.9,0.2-1.6s-0.4-1.5-1.2-2.6l5.5-0.1
			c1.5,0,2.4,0.3,2.7,0.8c0.3,0.6,0.1,1.5-0.6,2.7l-8.1,18.8c-1.1,2.5-1.7,4.6-1.7,6.3C160,96.6,161.1,97.6,163.2,97.6z M173,60.7
			c-0.9,0.8-2,1.2-3.1,1.2s-2.1-0.4-2.7-1.2c-0.7-0.8-0.9-1.8-0.8-2.9c0.2-1.1,0.8-2.1,1.7-2.9c0.9-0.8,2-1.2,3.1-1.2
			s2.1,0.4,2.8,1.2c0.7,0.8,0.9,1.8,0.8,2.9C174.5,58.9,173.9,59.9,173,60.7z"/>
		<path class="st0" d="M202.1,72.4c0-3.8-1.6-5.7-4.7-5.7c-0.3,0-0.5,0-0.8,0c-1.2,0.1-1.9-0.1-2.1-0.7s0.1-1,0.9-1.2
			c0.8-0.2,1.7-0.2,2.6-0.1c3.5,0.5,5.9,2.2,7.1,4.9c0.9,1.7,1.3,3.3,1.3,4.9c0,5.8-2.1,11.4-6.3,17c-4.2,5.6-9.7,8.4-16.4,8.4
			c-2.5,0-4.5-0.7-6-2.1s-2.3-3.3-2.3-5.6c0-2.8,1.6-7.6,4.8-14.3c-5.5,10.4-9.1,16.4-10.7,17.9c-0.7,0.6-1,0.4-1-0.6
			c0-0.2,0.1-0.4,0.2-0.7c2.4-3.1,7-11.5,14-25.2c7-13.7,11.9-22.6,14.7-26.9c2.3-3.3,4.5-4.9,6.6-4.9h0.1h0.5
			c0.1,0,0.6,0.1,1.8,0.3s1.9,0.2,2.5,0.1c-2.2,2.3-5.7,7-10.5,14.1c-11.8,17.5-17.7,30.6-17.7,39.2c0,3.6,1.1,5.6,3.4,6
			c0.2,0.1,0.4,0.1,0.7,0.1c2.1,0,4.7-1.9,7.8-5.6c3.1-3.7,5.7-8,7.7-12.7C201.5,76.7,202.1,74.5,202.1,72.4z"/>
		<path class="st0" d="M236.9,80.7c-2.2,4.3-3.5,7.4-4,9.6c-0.4,2.1-0.7,3.8-0.7,5.1s0.5,2,1.5,2c1.3,0,2.9-1.2,4.7-3.5
			c2.8-3.4,5.5-7.9,8.1-13.4c0.3-0.6,0.6-0.9,0.9-1c0.5-0.2,0.8,0,0.8,0.6c0,0.3-0.1,0.7-0.3,1.2c-6.2,12.5-11.4,18.7-15.6,18.7
			c-1.9,0-3.5-0.9-4.7-2.8c-0.6-1-0.9-2.3-0.9-4s0.3-3.7,1-6.1c-5.4,8.7-10,13-13.9,13c-1.1,0-2-0.3-2.9-1c-2-1.4-3-3.8-3-7.2
			c0-6.6,2.9-13.2,8.6-20c3.2-3.8,7.2-6.2,11.9-7.3c1.3-0.3,2.5-0.5,3.6-0.5c3.1,0,5.7,1.1,7.9,3.2c0.7,0.7,0.9,1.4,0.6,2.1
			c-0.3,0.7-0.8,0.9-1.7,0.8c-0.7-2.4-2.4-3.6-4.8-3.6c-2.9,0-6.4,2.3-10.7,6.8c-2.4,2.7-4.7,5.8-6.7,9.4c-2.6,4.4-3.9,7.8-3.9,10.5
			c0,2.6,0.8,3.9,2.5,3.9c4,0,9.3-6.2,15.8-18.5c1.3-2.5,2.4-4.2,3.2-5.1s2-1.4,3.3-1.4c0.3,0,0.9,0.1,2.1,0.3s1.9,0.2,2.5,0.1
			C240.8,73.7,239.1,76.5,236.9,80.7z"/>
	</g>
	<g>
		<path class="st0" d="M154.6,155.2c-2.9-1.3-5.7-3.2-8.4-5.9c-0.6-0.5-0.9-1.1-0.9-1.9c0-0.6,0.3-1.2,0.8-1.7
			c0.5-0.5,1.1-0.8,1.7-0.8s1.2,0.3,1.7,0.8c4.1,4.5,9.2,6.8,15.3,6.8c3.8,0,6.9-0.9,9.4-2.7c2.5-1.8,3.7-4.1,3.7-7
			c0-2.3-0.6-4.1-1.9-5.6c-1.2-1.5-2.8-2.7-4.8-3.7c-2-0.9-4.5-1.9-7.6-2.9c-3.4-1-6.2-2.1-8.4-3.3c-2.3-1.2-4.1-2.8-5.5-4.8
			c-1.4-2-2.1-4.6-2.1-7.7c0-2.8,0.7-5.2,2.2-7.4c1.5-2.2,3.6-3.8,6.3-5.1s5.8-1.8,9.3-1.8c3.2,0,6.2,0.5,9,1.6
			c2.8,1.1,5,2.6,6.7,4.6c0.8,0.9,1.2,1.7,1.2,2.3c0,0.6-0.3,1.1-0.8,1.6c-0.5,0.5-1.1,0.8-1.7,0.8c-0.5,0-1-0.2-1.3-0.6
			c-1.4-1.7-3.3-3-5.7-4.1s-4.8-1.6-7.4-1.6c-3.8,0-6.9,0.8-9.4,2.6c-2.4,1.7-3.6,4-3.6,7c0,3,1.1,5.4,3.5,7
			c2.3,1.6,5.6,3.1,9.9,4.5c3.7,1.1,6.8,2.2,9.1,3.4s4.3,2.8,5.8,4.9c1.5,2.1,2.2,4.9,2.2,8.4c0,2.7-0.8,5.1-2.3,7.3
			c-1.6,2.2-3.7,3.9-6.4,5.1s-5.9,1.9-9.4,1.9C160.9,157.1,157.6,156.5,154.6,155.2z"/>
		<path class="st0" d="M200.7,120.7v26.3c0,2,0.4,3.3,1.1,4.1c0.7,0.7,1.7,1.1,2.9,1.1c0.3,0,0.7-0.1,1.2-0.2
			c0.5-0.1,0.8-0.2,1.1-0.2c0.5,0,0.9,0.2,1.2,0.6s0.5,0.9,0.5,1.4c0,0.7-0.4,1.4-1.3,1.9s-1.8,0.8-3,0.8c-1.4,0-2.7-0.1-3.8-0.4
			s-2.2-1.1-3.2-2.4c-1-1.3-1.5-3.4-1.5-6.3v-26.6h-5.7c-0.6,0-1.2-0.2-1.6-0.6s-0.7-0.9-0.7-1.6s0.2-1.2,0.7-1.6
			c0.4-0.4,1-0.6,1.6-0.6h5.7v-8.7c0-0.7,0.2-1.2,0.7-1.7c0.4-0.4,1-0.7,1.7-0.7c0.7,0,1.3,0.2,1.7,0.7s0.7,1,0.7,1.7v8.7h7.9
			c0.6,0,1.1,0.2,1.5,0.7s0.7,1,0.7,1.6c0,0.6-0.2,1.1-0.6,1.5s-0.9,0.6-1.6,0.6L200.7,120.7L200.7,120.7z"/>
		<path class="st0" d="M251.2,117.1c0.4,0.4,0.7,1,0.7,1.7v22.2c0,5.1-1.4,9.1-4.3,11.8s-6.9,4.1-11.9,4.1c-5,0-9-1.4-11.8-4.1
			c-2.9-2.8-4.3-6.7-4.3-11.8v-22.2c0-0.7,0.2-1.3,0.7-1.7s1-0.7,1.7-0.7c0.7,0,1.3,0.2,1.7,0.7c0.4,0.4,0.7,1,0.7,1.7v22.2
			c0,3.8,1,6.6,3,8.6s4.8,2.9,8.4,2.9c3.7,0,6.5-1,8.5-2.9c2-2,3-4.8,3-8.6v-22.2c0-0.7,0.2-1.3,0.7-1.7c0.4-0.4,1-0.7,1.7-0.7
			C250.2,116.4,250.7,116.6,251.2,117.1z"/>
		<path class="st0" d="M298.5,98.8c0.4,0.4,0.7,1,0.7,1.7V154c0,0.7-0.2,1.3-0.7,1.7s-1,0.7-1.7,0.7s-1.3-0.2-1.7-0.7
			s-0.7-1-0.7-1.7v-5.5c-1.3,2.4-3.3,4.5-5.9,6.1c-2.6,1.7-5.5,2.5-8.6,2.5c-3.5,0-6.6-0.9-9.4-2.7c-2.8-1.8-5-4.3-6.6-7.5
			c-1.6-3.2-2.4-6.8-2.4-10.8c0-3.9,0.8-7.5,2.4-10.7c1.6-3.2,3.8-5.7,6.6-7.5c2.8-1.8,5.9-2.7,9.3-2.7c3.1,0,6,0.8,8.6,2.3
			s4.6,3.6,6,6v-23.1c0-0.7,0.2-1.2,0.7-1.7c0.4-0.4,1-0.7,1.7-0.7C297.5,98.1,298.1,98.4,298.5,98.8z M287.8,150.6
			c2.2-1.4,3.9-3.4,5.1-5.9c1.2-2.5,1.9-5.4,1.9-8.5c0-3.1-0.6-5.9-1.9-8.4c-1.2-2.5-2.9-4.5-5.1-5.9s-4.6-2.2-7.4-2.2
			s-5.2,0.7-7.4,2.2s-3.9,3.4-5.1,5.9c-1.2,2.5-1.9,5.3-1.9,8.4c0,3.1,0.6,6,1.9,8.5c1.2,2.5,2.9,4.5,5.1,5.9s4.6,2.2,7.4,2.2
			C283.2,152.7,285.6,152,287.8,150.6z"/>
		<path class="st0" d="M311.3,109.4c-0.6-0.5-0.9-1.2-0.9-2.2v-0.8c0-0.9,0.3-1.7,0.9-2.2s1.4-0.7,2.5-0.7c2.1,0,3.1,1,3.1,2.9v0.8
			c0,0.9-0.3,1.7-0.8,2.2c-0.5,0.5-1.4,0.8-2.4,0.8C312.7,110.2,311.9,109.9,311.3,109.4z M315.4,155.7c-0.4,0.4-1,0.7-1.7,0.7
			s-1.3-0.2-1.7-0.7s-0.7-1-0.7-1.7v-36.2c0-0.7,0.2-1.2,0.7-1.7c0.4-0.4,1-0.7,1.7-0.7s1.2,0.2,1.7,0.7c0.4,0.4,0.7,1,0.7,1.7V154
			C316.1,154.7,315.9,155.2,315.4,155.7z"/>
		<path class="st1" d="M362.9,146.9c-1.7,3.2-4.1,5.7-7.1,7.5c-3,1.8-6.4,2.7-10.1,2.7s-7.1-0.9-10.1-2.7c-3-1.8-5.4-4.3-7.1-7.5
			c-1.7-3.2-2.6-6.8-2.6-10.7c0-3.9,0.9-7.5,2.6-10.7c1.7-3.2,4.1-5.7,7.1-7.6c3-1.8,6.4-2.8,10.1-2.8c3.7,0,7.1,0.9,10.1,2.8
			c3,1.8,5.4,4.3,7.1,7.6c1.7,3.2,2.6,6.8,2.6,10.7S364.6,143.7,362.9,146.9z M358.8,127.7c-1.3-2.5-3.1-4.5-5.5-5.9
			c-2.3-1.4-4.9-2.2-7.7-2.2s-5.4,0.7-7.7,2.2s-4.1,3.4-5.5,5.9c-1.3,2.5-2,5.3-2,8.5c0,3.1,0.7,5.9,2,8.4c1.3,2.5,3.2,4.5,5.5,5.9
			c2.3,1.4,4.9,2.2,7.7,2.2c2.8,0,5.4-0.7,7.7-2.1c2.3-1.4,4.1-3.4,5.5-5.9c1.3-2.5,2-5.4,2-8.5
			C360.8,133.1,360.1,130.2,358.8,127.7z"/>
	</g>
	<g id="Groupe_2959_1_" transform="translate(9 6)">
		<g transform="matrix(1, 0, 0, 1, -9, -6)">
			<path id="Tracé_5073-2_1_" class="st0" d="M364.4,111.9c8.5,9.3-5.6,15.8-5.6,15.8c-12.5,6.2-17.1,23.9-17.1,23.9
				c-2-25,5.6-34.1,5.6-34.1c6.9-7.7,11.9-7.9,14.5-7.2c-12.6-6.6-28.2-1.8-34.8,10.8s-1.8,28.2,10.9,34.8c3.7,1.9,7.8,3,12,3
				c0.8,0,1.6,0,2.4-0.1c-0.8-0.7-5.8-5.6-6.8-12c0,0,2.6-7.1,5.4-9.4c0,0-2.9,10,1.4,21.4c14.2-1.4,24.6-13.9,23.2-28.1
				C374.7,123.1,370.7,116.2,364.4,111.9z"/>
		</g>
		<g transform="matrix(1, 0, 0, 1, -9, -6)">
			<path id="Tracé_5074-2_1_" class="st0" d="M342.9,137.9c-0.9,1.4-0.9,3-0.1,3.6c0.8,0.5,2.2-0.2,3-1.6s0.9-3,0.1-3.6
				C345.1,135.8,343.8,136.5,342.9,137.9z"/>
		</g>
	</g>
</g>
</svg>
