<?xml version="1.0" encoding="utf-8"?>
<!-- Generator: Adobe Illustrator 24.0.0, SVG Export Plug-In . SVG Version: 6.00 Build 0)  -->
<svg version="1.1" id="Calque_1" xmlns="http://www.w3.org/2000/svg" xmlns:xlink="http://www.w3.org/1999/xlink" x="0px" y="0px"
	 viewBox="0 0 400 173" style="enable-background:new 0 0 400 173;" xml:space="preserve">
<style type="text/css">
	.st0{fill:#8F8F8F;}
</style>
<g>
	<g>
		<path class="st0" d="M114.4,46.5l-5.7,29.1h-8.9l2.6-13.3L94.1,73h-4.3l-4.5-10.5l-2.6,13.1h-8.9l5.8-29.1h8L93.9,62l12.2-15.5
			H114.4z"/>
		<path class="st0" d="M134.6,70.5h-11.1l-2.9,5.1h-10.3l18.5-29.1h9.6l6.9,29.1h-9.8L134.6,70.5z M133.2,63.5l-1.4-7.4l-4.3,7.4
			H133.2z"/>
		<path class="st0" d="M170,67.1l4.9,8.5h-10.2l-4.1-7.3h-2.4l-1.4,7.3h-9.8l5.8-29.1h13.1c7.7,0,12.1,3.5,12.1,9.6
			C177.9,61.3,175,65.3,170,67.1z M164.3,54.1H161l-1.4,6.8h4c2.7,0,4.3-1.4,4.3-3.9C167.9,54.9,166.5,54.1,164.3,54.1z"/>
		<path class="st0" d="M199,59.8l9.5,15.8h-10.9l-5.9-9.5l-2.7,2.5l-1.4,6.9h-9.6l5.8-29.1h9.6l-2.1,10.3l11.1-10.3h11.3L199,59.8z"
			/>
		<path class="st0" d="M223.6,53.9l-0.7,3.4h12.3l-1.4,7.1h-12.3l-0.8,3.8h14.6l-1.5,7.4h-24.2l5.8-29.1h23.6l-1.5,7.4L223.6,53.9
			L223.6,53.9z"/>
		<path class="st0" d="M248.2,54.1h-8.5l1.5-7.6h26.9l-1.5,7.6H258l-4.3,21.5h-9.8L248.2,54.1z"/>
		<path class="st0" d="M270.6,46.5h9.8l-5.8,29.1h-9.8L270.6,46.5z"/>
		<path class="st0" d="M313.8,46.5L308,75.6H300l-8.4-13.5l-2.7,13.5h-9.6l5.8-29.1h8.1l8.4,13.5l2.7-13.5H313.8z"/>
		<path class="st0" d="M335.1,60.3h8.5l-2.5,12.5c-3.1,2.2-7.2,3.4-11.8,3.4c-9,0-14.9-5.3-14.9-13c0-10.2,7.6-17.4,18.7-17.4
			c6.1,0,10.5,2,13.2,5.7l-7,5.5c-1.9-2.4-3.9-3.2-6.6-3.2c-5.1,0-8.4,3.7-8.4,8.9c0,3.4,2.4,5.7,6.4,5.7c1,0,1.9-0.1,2.9-0.4
			L335.1,60.3z"/>
	</g>
	<g>
		<path class="st0" d="M117.9,23.1l-4,20.1h-4l0.3-1.5c-1.2,1.1-2.7,1.7-4.5,1.7c-3.4,0-6.3-2.4-6.3-6.5c0-4.9,3.6-8.5,8.1-8.5
			c2.1,0,3.8,0.7,4.7,2.1l1.5-7.5L117.9,23.1L117.9,23.1z M111.3,35.1c0-2-1.2-3.2-3.3-3.2c-2.5,0-4.3,1.9-4.3,4.8
			c0,2,1.2,3.2,3.3,3.2C109.5,39.9,111.3,38,111.3,35.1z"/>
		<path class="st0" d="M120.7,28.6h4.2L122,43.2h-4.2L120.7,28.6z M121.1,24.4c0-1.4,1.1-2.5,2.8-2.5c1.5,0,2.5,0.9,2.5,2.1
			c0,1.5-1.1,2.6-2.8,2.6C122.1,26.6,121.1,25.6,121.1,24.4z"/>
		<path class="st0" d="M143.4,34.9c0,4.9-3.6,8.5-8.1,8.5c-2.3,0-4-0.8-4.9-2.4l-0.4,2.2h-4l4-20.1h4.2l-1.4,6.8
			c1.1-0.9,2.5-1.5,4.2-1.5C140.5,28.4,143.4,30.8,143.4,34.9z M139.1,35.1c0-2-1.2-3.2-3.3-3.2c-2.5,0-4.3,1.9-4.3,4.8
			c0,2,1.2,3.2,3.3,3.2C137.3,39.9,139.1,38,139.1,35.1z"/>
		<path class="st0" d="M162.5,28.6l-2.9,14.6h-4l0.3-1.4c-1.2,1.1-2.7,1.7-4.5,1.7c-3.4,0-6.3-2.4-6.3-6.5c0-4.9,3.6-8.5,8.1-8.5
			c2.1,0,3.8,0.7,4.8,2.2l0.4-2C158.2,28.6,162.5,28.6,162.5,28.6z M156.9,35.1c0-2-1.2-3.2-3.3-3.2c-2.5,0-4.3,1.9-4.3,4.8
			c0,2,1.2,3.2,3.3,3.2C155.1,39.9,156.9,38,156.9,35.1z"/>
	</g>
	<g>
		<path class="st0" d="M221.9,98.9c-0.1-0.3-0.6-0.4-1.5-0.3c-0.9,0.1-1.8,0.3-2.9,0.8c-1.1,0.4-2.1,0.9-3.1,1.5
			c-1,0.6-1.8,1.2-2.2,1.8c-0.2,0.5-0.5,1.3-0.9,2.5c-0.4,1.2-0.8,2.5-1.1,4.1c-0.4,1.6-0.8,3.2-1.1,5c-0.4,1.8-0.6,3.5-0.7,5.3
			c-0.1,1.7-0.1,3.3,0,4.8s0.5,2.7,1.1,3.7c0.2,0.3,0.3,0.6,0.2,0.8s-0.2,0.4-0.4,0.5s-0.5,0.1-0.7,0.1c-0.3,0-0.5-0.1-0.7-0.1
			c-0.8-0.5-1.6-1.2-2.4-2.2s-1.4-2.3-1.9-4c-0.5-1.7-0.6-3.8-0.6-6.3s0.6-5.6,1.7-9.2c0,0-0.3,0.3-0.8,0.9
			c-0.5,0.6-1.1,1.3-1.7,2.2c-0.6,0.8-1.1,1.7-1.6,2.6c-0.5,0.9-0.6,1.7-0.6,2.4c-0.4,0.3-0.9,0.3-1.6,0.1c-0.6-0.3-1.2-0.8-1.8-1.4
			c-0.5-0.6-1-1.3-1.3-2.1c-0.3-0.8-0.3-1.6,0.1-2.2c0.4-0.8,1.2-1.9,2.3-3.1c1.1-1.2,2.3-2.4,3.6-3.5c1.3-1.2,2.6-2.2,3.8-3.2
			c1.3-1,2.2-1.7,3-2.1c0.8-2.1,1.8-4.2,2.9-6.4c1.1-2.2,2.3-4.4,3.5-6.5c1.3-2.1,2.5-4,3.8-5.8s2.6-3.3,3.8-4.6
			c0.8-0.8,1.7-1.3,2.8-1.4c1.1-0.2,2.1-0.1,3.1,0.2c1,0.3,1.8,0.7,2.5,1.4c0.7,0.7,1,1.4,0.9,2.3c-0.1,1.1-0.3,2.5-0.5,4.1
			c-0.2,1.6-0.5,3-0.7,4.2c-0.6,2.9-1.1,5.9-1.7,9.2c-0.6,3.3-1.1,6.5-1.7,9.8c-0.5,3.3-0.9,6.4-1.3,9.6c-0.4,3.1-0.6,6-0.8,8.6
			c-0.1,0.8-0.4,1.4-1.2,1.8s-1.5,0.6-2.4,0.7c-0.8,0-1.6-0.1-2.3-0.4s-1-0.8-0.9-1.5c0.3-4,0.8-8,1.5-12.1
			C220.3,107.1,221.1,103.1,221.9,98.9z M222.9,92.9c0.4-1.5,0.7-3,1-4.6s0.6-3.1,0.9-4.4s0.5-2.4,0.6-3.2s0-1.2-0.1-1.1
			c-1.7,1.8-3.3,3.9-4.9,6.3c-1.6,2.4-3.1,5.3-4.6,8.6c1.4-0.6,2.6-1.1,3.7-1.2C220.6,93.1,221.7,93,222.9,92.9z"/>
		<path class="st0" d="M255.8,95.9c0.4-0.3,0.7-0.3,0.9-0.1c0.2,0.2,0.4,0.6,0.4,1c0,0.5,0,1-0.2,1.6c-0.2,0.6-0.5,1.1-0.9,1.5
			c-1.4,1.2-2.7,2.5-3.9,3.7c-1.2,1.3-2.4,2.5-3.4,3.8c-0.4,0.5-0.7,1.1-1,1.8c-0.4,1.8-1,3.9-1.8,6.2c-0.7,2.3-1.5,4.5-2.4,6.7
			c-0.9,2.2-1.8,4.1-2.9,5.8c-1,1.7-2.1,2.8-3.1,3.4c-0.5,0.3-1.2,0.4-2.3,0.3c-1.1-0.1-2.1-0.3-3-0.8s-1.7-1.1-2.3-2
			s-0.6-2-0.1-3.3c0.6-1.7,1.6-3.5,2.9-5.4c1.3-1.9,2.7-3.7,4-5.4c1.4-1.7,2.6-3.2,3.7-4.5s1.7-2.2,1.8-2.6c0.3-0.9,0.5-1.9,0.7-3.1
			c0.2-1.2,0.4-2.2,0.5-3.1c-0.4,0.8-0.9,1.7-1.5,2.7s-1.1,2-1.8,3s-1.3,2-1.9,2.9c-0.7,0.9-1.3,1.7-2,2.3c-0.4,0.4-1,0.6-1.7,0.6
			c-0.8,0-1.5-0.1-2.3-0.3c-0.7-0.2-1.4-0.6-1.9-1.1c-0.6-0.5-0.8-1-0.8-1.6c0-1.5,0.2-3.2,0.6-4.9c0.4-1.8,1-3.5,1.7-5.2
			s1.5-3.3,2.4-4.8s1.8-2.8,2.8-3.8c0.6-0.7,1.3-1.1,1.8-1.3c0.6-0.2,1.2-0.3,1.8-0.2c0.6,0.1,1.1,0.3,1.7,0.5s1.2,0.6,1.8,0.9
			c0.1-0.2,0.3-0.6,0.5-1.1c0.2-0.5,0.4-0.8,0.5-1c0.3-0.3,0.7-0.6,1.3-0.7c0.6-0.1,1.1-0.1,1.7,0.1c0.6,0.1,1,0.3,1.4,0.6
			s0.6,0.6,0.6,1c0,0.9,0,1.9-0.1,2.9c-0.1,1.1-0.2,2.1-0.3,3.2c-0.1,1.1-0.2,2.1-0.4,3.1c-0.1,1-0.2,1.9-0.3,2.6
			c1.3-1.4,2.4-2.5,3.4-3.5C253.9,97.7,254.9,96.8,255.8,95.9z M233.6,128.1c1.1-1.2,2.3-2.9,3.3-4.9s1.9-4,2.6-5.9
			c-0.6,0.9-1.2,1.8-1.9,2.9c-0.7,1.1-1.4,2.1-2,3.1s-1.1,2-1.4,2.8C233.7,127.1,233.5,127.7,233.6,128.1z M242.4,96.5
			c0.1-0.4,0.2-0.8,0.3-1.2c0-0.5,0-0.8-0.1-1.1c-0.1-0.3-0.2-0.4-0.5-0.4c-0.2,0-0.6,0.3-1,0.8c-0.7,0.8-1.3,1.8-1.9,2.9
			c-0.6,1.1-1.2,2.3-1.7,3.4s-0.9,2.3-1.3,3.3s-0.6,1.9-0.7,2.7c0,0.4,0.1,0.6,0.4,0.5s0.6-0.4,1.1-1c0.5-0.6,1-1.4,1.6-2.4
			c0.6-1,1.2-2.2,1.9-3.4C241.2,99.2,241.8,97.9,242.4,96.5z"/>
		<path class="st0" d="M271.1,91.9c0.1-0.2,0.3-0.3,0.6-0.3c0.3,0,0.5,0,0.8,0.2c0.3,0.1,0.5,0.3,0.7,0.5s0.2,0.5,0.1,0.8
			c-0.2,1.7-0.7,3.4-1.3,5.2c-0.6,1.8-1.5,3.4-2.4,5.1c-1,1.6-2,3.1-3.1,4.5s-2.3,2.6-3.4,3.6c-0.5,0.4-1.2,0.7-1.9,0.8
			c-0.7,0.1-1.4,0-2.2-0.2c-0.8-0.2-1.5-0.4-2.1-0.7c-0.6-0.3-1.2-0.6-1.6-0.9c-0.9-0.7-1.6-1.7-1.9-3c-0.4-1.3-0.5-2.9-0.4-4.5
			c0.1-1.7,0.3-3.4,0.8-5.3c0.4-1.9,1-3.6,1.7-5.3c0.7-1.7,1.4-3.2,2.3-4.6c0.8-1.3,1.7-2.4,2.5-3.1c0.5-0.4,1-0.7,1.5-0.8
			c0.5-0.1,1-0.1,1.6-0.1c0.6,0.1,1.2,0.2,1.8,0.5c0.6,0.2,1.3,0.5,2.1,0.8c1.1,0.4,1.7,1.1,1.8,2.1c0.1,0.4,0.1,1.3-0.1,2.5
			s-0.4,2.5-0.8,3.9c-0.4,1.4-0.9,2.7-1.6,3.9s-1.6,2.2-2.7,2.8c-0.8,0.4-1.5,0.6-2.1,0.6c-0.6,0-1.3,0-2.1-0.2
			c-0.1,0.4-0.2,1.1-0.3,1.9c-0.1,0.8-0.1,1.7-0.1,2.5s0.1,1.6,0.3,2.2c0.2,0.6,0.5,0.9,0.9,0.9c0.7,0,1.5-0.5,2.6-1.6
			c1-1.1,2.1-2.4,3.1-3.9c1-1.6,2-3.3,3-5.3C269.9,95.5,270.6,93.6,271.1,91.9z M264.1,88.6c-0.4,0.4-0.8,1-1.3,1.9
			s-0.9,1.9-1.3,2.9c-0.4,1-0.8,1.9-1,2.8s-0.4,1.4-0.4,1.6c0.8,0,1.4-0.4,1.9-1.1c0.5-0.7,1-1.5,1.3-2.5c0.3-1,0.6-2,0.7-3
			C264.1,90.1,264.2,89.3,264.1,88.6z"/>
		<path class="st0" d="M294.4,88.3c0.1-0.3,0.3-0.5,0.6-0.5s0.6,0,1,0.1c0.3,0.1,0.6,0.3,0.9,0.4c0.3,0.2,0.4,0.3,0.4,0.5
			c-0.3,1.3-0.8,2.7-1.4,4.3c-0.6,1.6-1.2,3.1-1.9,4.7s-1.5,2.9-2.2,4.2c-0.8,1.3-1.6,2.2-2.3,2.8c-0.5,0.4-1.1,0.6-1.9,0.7
			c-0.7,0.1-1.5,0.1-2.2-0.1c-0.7-0.1-1.4-0.3-2-0.6c-0.6-0.3-1-0.7-1.1-1.1c-0.3-0.7-0.5-1.6-0.5-2.8c-0.1-1.2-0.1-2.4,0-3.7
			c0.1-1.3,0.2-2.4,0.3-3.4c0.1-1,0.2-1.7,0.3-2c-0.7,0.9-1.4,2-2.2,3.5c-0.8,1.5-1.5,3.1-2.2,4.8c-0.7,1.7-1.4,3.3-1.9,4.9
			c-0.6,1.6-1,2.9-1.2,3.9c-0.1,0.4-0.5,0.7-1.1,0.8c-0.6,0.1-1.2,0.2-1.9,0.1c-0.6-0.1-1.3-0.3-1.8-0.5s-0.8-0.6-0.7-1
			c0.1-1,0.2-2.4,0.4-4.1c0.2-1.7,0.4-3.6,0.7-5.6c0.3-2,0.6-4.1,1.1-6.3c0.4-2.2,1-4.2,1.6-6.1c0.2-0.6,0.6-1,1.2-1.1
			c0.6-0.1,1.3-0.1,2,0.1s1.2,0.4,1.7,0.8c0.5,0.4,0.7,0.7,0.6,1.1c-0.2,0.9-0.5,1.9-0.8,2.8c-0.3,1-0.6,1.9-0.9,2.7
			s-0.5,1.6-0.7,2.2c-0.2,0.6-0.3,1.1-0.3,1.3c0.5-1.1,1-2.1,1.6-3.2c0.6-1.1,1.1-2.1,1.8-3.1c0.6-1,1.2-1.8,1.9-2.7
			c0.6-0.8,1.3-1.5,1.9-2.1c0.4-0.4,1-0.6,1.8-0.6s1.5,0.1,2.1,0.3c0.7,0.2,1.3,0.6,1.7,1c0.5,0.4,0.6,0.9,0.5,1.5
			c-0.2,0.9-0.4,2-0.7,3.3c-0.3,1.3-0.6,2.7-0.8,4.1c-0.2,1.4-0.4,2.8-0.5,4.1s-0.1,2.4,0.1,3.2c0.7-0.6,1.4-1.4,2.1-2.4
			c0.7-1,1.5-2.1,2.1-3.3c0.7-1.2,1.3-2.5,1.9-3.9C293.4,91,293.9,89.6,294.4,88.3z"/>
		<path class="st0" d="M312,83.1c0.1-0.2,0.3-0.3,0.6-0.2c0.3,0.1,0.6,0.1,0.9,0.3c0.3,0.1,0.6,0.3,0.8,0.5c0.2,0.2,0.3,0.4,0.2,0.5
			c-0.4,1.2-1,2.8-1.7,4.7s-1.5,3.8-2.4,5.7c-0.9,1.9-1.9,3.7-3,5.4c-1.1,1.6-2.4,2.8-3.9,3.5c-0.7,0.3-1.6,0.5-2.7,0.5
			c-1.1,0-2.1-0.2-3.2-0.5c-1-0.3-2-0.7-2.8-1.2s-1.4-1.1-1.5-1.8c-0.3-1-0.5-2.3-0.5-3.7c0-1.4,0.1-2.9,0.4-4.5s0.6-3.1,1.1-4.7
			c0.5-1.6,1-3,1.6-4.3c0.6-1.3,1.3-2.4,2.1-3.4c0.8-0.9,1.6-1.6,2.4-2c0.5-0.2,1-0.2,1.4-0.1c0.5,0.1,1.1,0.3,2,0.6
			c0.1-0.4,0.4-0.9,0.7-1.5c0.3-0.6,0.5-1,0.6-1c0.4-0.3,1-0.4,1.7-0.3c0.7,0.2,1.4,0.4,2,0.8c0.6,0.4,1.1,0.8,1.5,1.2
			c0.4,0.4,0.4,0.8,0.2,1.1c-0.6,0.9-1.2,1.8-1.7,2.9c-0.5,1-0.9,2-1.2,3c-0.3,1-0.5,1.9-0.5,2.7c-0.1,0.8,0,1.4,0.2,1.8
			c-0.1,0.3-0.4,0.4-0.9,0.5s-1,0-1.5-0.2s-1-0.5-1.5-0.9c-0.5-0.4-0.8-0.9-0.9-1.6c-0.1-0.4-0.1-0.8-0.1-1.3c0-0.5,0.1-1,0.1-1.6
			c0.1-0.5,0.2-1.1,0.3-1.6c0.1-0.5,0.3-0.9,0.4-1.3c-0.5,0.3-1,1.1-1.5,2.3c-0.5,1.2-0.9,2.5-1.3,4s-0.6,3-0.8,4.6s-0.2,3-0.1,4.2
			c0.1,1.2,0.4,2.1,0.9,2.8s1.1,0.7,2.1,0.3c1-0.4,1.9-1.2,2.7-2.3c0.8-1.1,1.6-2.4,2.4-3.8s1.5-3.1,2.3-4.8
			C310.4,86.6,311.2,84.9,312,83.1z"/>
		<path class="st0" d="M336.5,80.2c0.4-0.3,0.7-0.3,0.9-0.2c0.3,0.2,0.4,0.5,0.5,0.9s0,0.9-0.1,1.5c-0.1,0.6-0.5,1.1-0.9,1.6
			c-1.4,1.3-2.7,2.5-3.9,3.8c-1.2,1.2-2.3,2.5-3.4,3.8c-0.5,0.6-0.8,1.2-1,1.8c-0.5,1.8-1.1,3.9-1.8,6.1c-0.7,2.3-1.5,4.4-2.5,6.5
			c-1,2.1-2,4-3.1,5.8c-1.1,1.7-2.4,3-3.6,3.8c-0.5,0.3-1.2,0.4-2.2,0.4c-1,0-1.9-0.3-2.8-0.7c-0.9-0.4-1.5-1.1-2-1.9
			s-0.5-1.9,0-3.3c0.6-1.7,1.6-3.5,3-5.4s2.7-3.7,4.1-5.4c1.4-1.7,2.6-3.2,3.7-4.5c1.1-1.3,1.7-2.2,1.8-2.6c0.1-0.4,0.3-1,0.4-1.7
			c0.1-0.7,0.3-1.4,0.4-2.1c0.1-0.7,0.2-1.4,0.4-2.1s0.2-1.3,0.2-1.7c-0.4,1.1-0.9,2.3-1.5,3.5s-1.2,2.3-1.8,3.4
			c-0.6,1.1-1.3,2.1-2,3.1c-0.7,0.9-1.4,1.7-2,2.3c-0.4,0.4-1,0.6-1.7,0.6c-0.8,0-1.5-0.1-2.3-0.3c-0.7-0.2-1.4-0.6-2-1.1
			c-0.6-0.5-0.8-1-0.8-1.6c0-1.1,0.1-2.3,0.3-3.7c0.2-1.4,0.4-2.8,0.7-4.3c0.3-1.5,0.7-2.9,1.2-4.3s1-2.7,1.7-3.8
			c0.2-0.4,0.7-0.6,1.3-0.6c0.6,0,1.3,0,2,0.2c0.6,0.2,1.2,0.5,1.6,0.9c0.4,0.4,0.5,0.8,0.2,1.3c-0.4,0.7-0.8,1.7-1.3,3
			c-0.5,1.4-0.9,2.7-1.2,4.1c-0.3,1.3-0.5,2.5-0.6,3.4c-0.1,0.9,0,1.3,0.4,1.2c0.4-0.2,0.8-0.7,1.3-1.6c0.5-0.9,1.1-2,1.8-3.3
			c0.6-1.3,1.3-2.7,2-4.3c0.7-1.5,1.3-3,1.9-4.4c0.6-1.4,1.1-2.7,1.5-3.8s0.7-1.9,0.9-2.4c0.2-0.4,0.5-0.7,1.1-0.8
			c0.6-0.1,1.2-0.1,1.9,0.1c0.7,0.1,1.3,0.4,1.8,0.7c0.5,0.3,0.8,0.7,0.7,1.1c0,0.9,0,1.9-0.1,3.1c-0.1,1.2-0.2,2.4-0.3,3.7
			c-0.1,1.3-0.3,2.5-0.4,3.6c-0.1,1.1-0.2,2.1-0.3,2.9c1.3-1.4,2.4-2.5,3.3-3.4C334.6,82,335.5,81.1,336.5,80.2z M314.2,112.5
			c0.6-0.6,1.1-1.3,1.7-2.2s1.2-1.8,1.7-2.8c0.5-1,1.1-2,1.5-3s0.9-2,1.2-3c-0.6,0.8-1.3,1.8-2,2.9c-0.7,1.1-1.4,2.2-2,3.2
			c-0.6,1.1-1.1,2-1.6,2.9C314.3,111.4,314.1,112.1,314.2,112.5z"/>
	</g>
	<g id="Groupe_2959_2_" transform="translate(9 6)">
		<g transform="matrix(1, 0, 0, 1, -9, -6)">
			<path id="Tracé_5073-2_2_" class="st0" d="M86.5,16.7c6.8,7.5-4.5,12.8-4.5,12.8c-10,5-13.7,19.2-13.7,19.2
				c-1.7-20.1,4.5-27.5,4.5-27.5c5.5-6.2,9.5-6.4,11.6-5.8c-10.2-5.3-22.7-1.4-28,8.7s-1.4,22.7,8.7,28c3,1.6,6.3,2.4,9.7,2.4
				c0.6,0,1.3,0,1.9-0.1c-0.6-0.6-4.7-4.5-5.4-9.7c0,0,2.1-5.7,4.4-7.6c0,0-2.4,8.1,1.1,17.3c11.4-1.1,19.8-11.2,18.7-22.6
				C94.8,25.7,91.6,20.2,86.5,16.7z"/>
		</g>
		<g transform="matrix(1, 0, 0, 1, -9, -6)">
			<path id="Tracé_5074-2_2_" class="st0" d="M69.2,37.6c-0.7,1.2-0.7,2.4-0.1,2.9s1.8-0.2,2.4-1.3c0.7-1.2,0.7-2.4,0.1-2.9
				C71,35.9,69.9,36.5,69.2,37.6z"/>
		</g>
	</g>
	<path class="st0" d="M222.3,161.8c0,0,47.2-40.9,80.9-45.2c0,0-18.9-6.9-91.7,33.9L222.3,161.8z"/>
</g>
</svg>
