<?xml version="1.0" encoding="utf-8"?>
<!-- Generator: Adobe Illustrator 24.0.0, SVG Export Plug-In . SVG Version: 6.00 Build 0)  -->
<svg version="1.1" id="Calque_1" xmlns="http://www.w3.org/2000/svg" xmlns:xlink="http://www.w3.org/1999/xlink" x="0px" y="0px"
	 viewBox="0 0 400 173" style="enable-background:new 0 0 400 173;" xml:space="preserve">
<style type="text/css">
	.st0{fill:#8F8F8F;}
</style>
<g>
	<path class="st0" d="M31.3,77.1l6.1,0l0.1,25.1l-6.1,0L31.3,77.1z"/>
	<path class="st0" d="M64.4,89.6c0,7.4-5.1,12.6-13.1,12.6l-9.4,0l-0.1-25.1l9.4,0C59.2,77,64.4,82.1,64.4,89.6z M50.9,96.8
		c4.6,0,7.3-2.7,7.3-7.3c0-4.6-2.7-7.3-7.3-7.3l-2.9,0l0,14.6L50.9,96.8z"/>
	<path class="st0" d="M67.8,77l6.1,0l0.1,25.1l-6.1,0L67.8,77z"/>
	<path class="st0" d="M90.1,102l-11.7,0L78.3,77l11.3,0c5.1,0,8.2,2.5,8.2,6.5c0,3-1.8,5-4.2,5.7c2.9,0.6,4.8,3.2,4.8,6
		C98.4,99.3,95.3,102,90.1,102z M88.4,81.9l-4,0l0,5.3l4,0c2,0,3.1-0.9,3.1-2.6C91.6,82.8,90.4,81.8,88.4,81.9z M88.9,91.6l-4.4,0
		l0,5.5l4.5,0c2,0,3.2-0.9,3.2-2.7S90.9,91.6,88.9,91.6z"/>
	<path class="st0" d="M117.5,97.5l-9.4,0l-1.5,4.4l-6.4,0l9-25.1l7.1,0l9.1,25.1l-6.5,0L117.5,97.5z M112.8,83.6l-3.1,9.2l6.2,0
		L112.8,83.6z"/>
	<path class="st0" d="M145.7,92.9l-3.8,0l0,9l-6.1,0l-0.1-25.1l9.9,0c6.1,0,9.2,3.4,9.2,8.1C154.9,89,152.1,92.9,145.7,92.9z
		 M145.2,88c2.4,0,3.5-1.2,3.5-3.2c0-1.9-1-3.1-3.5-3.1l-3.3,0l0,6.3L145.2,88z"/>
	<path class="st0" d="M168.3,76.8c6.1,0,9.2,3.5,9.2,7.9c0,3.1-1.7,6.1-5.6,7.3l5.8,9.9l-6.9,0l-5.2-9.4h-1.5l0,9.5l-6.1,0L158,76.8
		L168.3,76.8z M167.9,81.8l-3.8,0l0,6.2l3.8,0c2.3,0,3.4-1.2,3.4-3.2C171.3,83,170.2,81.8,167.9,81.8z"/>
	<path class="st0" d="M193.2,102c-7.1,0-12.9-5.3-12.9-12.8s5.8-12.8,12.9-12.8c7.1,0,12.8,5.3,12.9,12.8
		C206,96.7,200.3,102,193.2,102z M193.2,96.4c4,0,6.6-2.9,6.6-7.3c0-4.5-2.6-7.3-6.6-7.3c-4.1,0-6.6,2.8-6.6,7.3
		C186.5,93.6,189.1,96.5,193.2,96.4z"/>
	<path class="st0" d="M231.9,89.1c0,7.4-5.1,12.6-13.1,12.6l-9.4,0l-0.1-25.1l9.4,0C226.7,76.6,231.9,81.7,231.9,89.1z M218.4,96.4
		c4.6,0,7.3-2.7,7.3-7.3c0-4.6-2.7-7.3-7.3-7.3l-2.9,0l0,14.6L218.4,96.4z"/>
	<path class="st0" d="M235.2,76.6l6.1,0l0,15c0,3,1.5,4.7,4.4,4.7c2.9,0,4.4-1.7,4.4-4.7l0-15l6.1,0l0,15c0,6.9-4.8,10.4-10.6,10.4
		c-5.8,0-10.4-3.4-10.4-10.3L235.2,76.6z"/>
	<path class="st0" d="M272,76.2c6,0,10.5,3.3,11.9,8.8l-6.7,0c-1-2.1-2.9-3.2-5.3-3.2c-3.8,0-6.3,2.8-6.3,7.2c0,4.4,2.6,7.2,6.3,7.2
		c2.3,0,4.2-1.1,5.2-3.2l6.7,0c-1.4,5.4-5.9,8.8-11.9,8.8c-7.4,0-12.6-5.2-12.6-12.7C259.4,81.5,264.6,76.2,272,76.2z"/>
	<path class="st0" d="M286.3,76.4l19.4-0.1l0,4.9l-6.6,0l0,20.2l-6.1,0l0-20.2l-6.6,0L286.3,76.4z"/>
	<path class="st0" d="M308.8,76.4l6.1,0l0.1,25.1l-6.1,0L308.8,76.4z"/>
	<path class="st0" d="M331.2,101.7c-7.1,0-12.9-5.3-12.9-12.8S324,76,331.1,76c7.1,0,12.8,5.3,12.9,12.8S338.3,101.6,331.2,101.7z
		 M331.2,96.1c4,0,6.6-2.9,6.6-7.3c0-4.5-2.6-7.3-6.6-7.3c-4.1,0-6.6,2.8-6.6,7.3C324.6,93.2,327.1,96.1,331.2,96.1z"/>
	<path class="st0" d="M369.8,76.2l0.1,25.1l-6.1,0l-10.3-15.4l0,15.5l-6.1,0l-0.1-25.1l6.1,0l10.3,15.5l0-15.5L369.8,76.2z"/>
</g>
</svg>
